# Blender v2.92.0 OBJ File: 'world.blend'
# www.blender.org
v -9.126405 -0.000205 -2.327581
v -12.937472 -0.000205 -4.523067
v -14.087115 -0.000205 -1.842325
v -13.659601 -0.000205 -6.420479
v -19.861679 -0.000205 -9.379065
v -16.260418 -0.000205 -7.000359
v -20.466356 -0.000205 -7.575947
v -23.523491 -0.000205 -4.614393
v -26.410570 -0.000205 -3.127153
v -26.745544 -0.000205 -1.976881
v -25.592516 -0.000205 -0.616020
v -24.949158 -0.000205 1.602322
v -26.489887 -0.000205 6.573059
v -8.588043 -0.000205 0.613062
v -11.224897 -0.000205 4.493298
v -14.831880 -0.000205 4.530277
v -15.508858 -0.000205 6.399115
v -16.957537 -0.000205 6.183760
v -17.617353 -0.000205 5.247797
v -19.134609 -0.000205 5.524981
v -19.488228 -0.000205 8.774378
v -25.537703 -0.000205 10.749971
v -24.605114 -0.000205 6.963108
v -25.658995 -0.000205 9.631815
v -24.450869 -0.000205 9.175207
v -14.087115 0.999795 -1.842325
v -12.937472 0.999795 -4.523067
v -9.126405 0.999795 -2.327581
v -16.260418 0.999795 -7.000359
v -19.861679 0.999795 -9.379065
v -13.659601 0.999795 -6.420479
v -20.466356 0.999795 -7.575947
v -23.523491 0.999795 -4.614393
v -26.410570 0.999795 -3.127153
v -26.745544 0.999795 -1.976881
v -25.592516 0.999795 -0.616020
v -24.949158 0.999795 1.602322
v -26.489887 0.999795 6.573059
v -24.605114 0.999795 6.963108
v -8.588043 0.999795 0.613062
v -11.224897 0.999795 4.493298
v -14.831880 0.999795 4.530277
v -15.508858 0.999795 6.399115
v -16.957537 0.999795 6.183760
v -17.617353 0.999795 5.247797
v -19.134609 0.999795 5.524981
v -19.488228 0.999795 8.774378
v -25.537703 0.999795 10.749971
v -24.450869 0.999795 9.175207
v -25.658995 0.999795 9.631815
vt 0.229798 0.151385
vt 0.244842 0.148925
vt 0.253559 0.154974
vt 0.253230 0.168897
vt 0.260767 0.190157
vt 0.250860 0.190957
vt 0.231992 0.202740
vt 0.220816 0.215515
vt 0.214560 0.215768
vt 0.209107 0.208207
vt 0.198663 0.202154
vt 0.171509 0.203718
vt 0.171901 0.193666
vt 0.160874 0.190102
vt 0.157038 0.195656
vt 0.151518 0.193634
vt 0.169148 0.165431
vt 0.186077 0.167724
vt 0.189391 0.160376
vt 0.185473 0.155852
vt 0.186202 0.148232
vt 0.196534 0.147148
vt 0.201258 0.128897
vt 0.224258 0.120401
vt 0.238498 0.126830
vt 0.186077 0.167724
vt 0.189391 0.160376
vt 0.171509 0.203718
vt 0.171901 0.193666
vt 0.260767 0.190157
vt 0.250860 0.190957
vt 0.169148 0.165431
vt 0.224258 0.120401
vt 0.238498 0.126830
vt 0.231992 0.202740
vt 0.151518 0.193634
vt 0.201258 0.128897
vt 0.220816 0.215515
vt 0.160874 0.190102
vt 0.229798 0.151385
vt 0.244842 0.148925
vt 0.196534 0.147148
vt 0.214560 0.215768
vt 0.157038 0.195656
vt 0.186202 0.148232
vt 0.209107 0.208207
vt 0.253230 0.168897
vt 0.185473 0.155852
vt 0.198663 0.202154
vt 0.253559 0.154974
vn 0.0000 1.0000 -0.0000
vn 0.1797 0.0000 0.9837
vn -0.2027 0.0000 0.9793
vn -0.9481 0.0000 -0.3179
vn 0.9941 0.0000 0.1082
vn 0.9837 0.0000 -0.1801
vn -0.6958 0.0000 -0.7182
vn 0.3104 0.0000 0.9506
vn 0.8271 0.0000 0.5621
vn -0.4579 0.0000 -0.8890
vn -0.9976 0.0000 0.0696
vn 0.9191 0.0000 0.3941
vn 0.0103 0.0000 0.9999
vn -0.9601 0.0000 -0.2796
vn -0.9942 0.0000 0.1078
vn -0.0974 0.0000 -0.9952
vn 0.9402 0.0000 0.3406
vn -0.7630 0.0000 0.6464
vn -0.3535 0.0000 -0.9354
vn 0.5511 0.0000 -0.8344
vn -0.1470 0.0000 0.9891
vn -0.9604 0.0000 0.2785
vn 0.9346 0.0000 -0.3557
vn -0.8173 0.0000 0.5762
vn -0.9552 0.0000 -0.2961
vn 0.2176 0.0000 -0.9760
s off
f 26/1/1 27/2/1 31/3/1 29/4/1 30/5/1 32/6/1 33/7/1 34/8/1 35/9/1 36/10/1 37/11/1 38/12/1 39/13/1 49/14/1 50/15/1 48/16/1 47/17/1 46/18/1 45/19/1 44/20/1 43/21/1 42/22/1 41/23/1 40/24/1 28/25/1
f 20/26/2 19/27/2 45/19/2 46/18/2
f 13/28/3 23/29/3 39/13/3 38/12/3
f 5/30/4 7/31/4 32/6/4 30/5/4
f 21/32/5 20/26/5 46/18/5 47/17/5
f 14/33/6 1/34/6 28/25/6 40/24/6
f 7/31/7 8/35/7 33/7/7 32/6/7
f 22/36/8 21/32/8 47/17/8 48/16/8
f 15/37/9 14/33/9 40/24/9 41/23/9
f 8/35/10 9/38/10 34/8/10 33/7/10
f 23/29/11 25/39/11 49/14/11 39/13/11
f 3/40/12 2/41/12 27/2/12 26/1/12
f 16/42/13 15/37/13 41/23/13 42/22/13
f 9/38/14 10/43/14 35/9/14 34/8/14
f 24/44/15 22/36/15 48/16/15 50/15/15
f 1/34/16 3/40/16 26/1/16 28/25/16
f 17/45/17 16/42/17 42/22/17 43/21/17
f 10/43/18 11/46/18 36/10/18 35/9/18
f 25/39/19 24/44/19 50/15/19 49/14/19
f 6/47/20 5/30/20 30/5/20 29/4/20
f 18/48/21 17/45/21 43/21/21 44/20/21
f 11/46/22 12/49/22 37/11/22 36/10/22
f 2/41/23 4/50/23 31/3/23 27/2/23
f 19/27/24 18/48/24 44/20/24 45/19/24
f 12/49/25 13/28/25 38/12/25 37/11/25
f 4/50/26 6/47/26 29/4/26 31/3/26
