# Blender v2.92.0 OBJ File: 'world.blend'
# www.blender.org
v -20.784836 -0.000205 -16.687040
v -18.967232 -0.000205 -10.982836
v -19.861679 -0.000205 -9.379065
v -20.754507 -0.000205 -13.434085
v -20.786680 -0.000205 -17.129318
v -21.622726 -0.000205 -17.113123
v -21.671398 -0.000205 -18.961336
v -31.366293 -0.000205 -18.838184
v -20.466356 -0.000205 -7.575947
v -23.523491 -0.000205 -4.614393
v -26.410570 -0.000205 -3.127153
v -26.745544 -0.000205 -1.976881
v -25.592516 -0.000205 -0.616020
v -24.949158 -0.000205 1.602322
v -26.489887 -0.000205 6.573059
v -29.787645 -0.000205 9.083973
v -34.418537 -0.000205 8.254431
v -33.527412 -0.000205 3.444242
v -36.414516 -0.000205 -0.363018
v -40.825611 -0.000205 -4.042852
v -43.393784 -0.000205 -8.810925
v -43.374104 -0.000205 -10.209153
v -37.613403 -0.000205 -8.974625
v -36.920765 -0.000205 -10.548368
v -33.818150 -0.000205 -13.034793
v -32.912403 -0.000205 -15.310539
v -32.007317 -0.000205 -16.041777
v -31.739933 -0.000205 -18.106928
v -28.237343 -0.000205 7.334826
v -28.744591 -0.000205 8.273062
v -28.025629 -0.000205 10.843752
v -29.504141 -0.000205 11.764635
v -29.344826 -0.000205 12.850580
v -30.137730 -0.000205 13.372530
v -30.560919 -0.000205 12.949362
v -30.684042 -0.000205 11.863039
v -29.639973 -0.000205 10.720407
v -29.464546 -0.000205 9.620050
v -31.739933 0.999795 -18.106928
v -31.366293 0.999795 -18.838184
v -20.754507 0.999795 -13.434085
v -20.784836 0.999795 -16.687040
v -19.861679 0.999795 -9.379065
v -18.967232 0.999795 -10.982836
v -20.786680 0.999795 -17.129318
v -21.622726 0.999795 -17.113123
v -21.671398 0.999795 -18.961336
v -20.466356 0.999795 -7.575947
v -23.523491 0.999795 -4.614393
v -26.410570 0.999795 -3.127153
v -26.745544 0.999795 -1.976881
v -25.592516 0.999795 -0.616020
v -24.949158 0.999795 1.602322
v -26.489887 0.999795 6.573059
v -29.464546 0.999795 9.620050
v -29.787645 0.999795 9.083973
v -34.418537 0.999795 8.254431
v -33.527412 0.999795 3.444242
v -36.414516 0.999795 -0.363018
v -40.825611 0.999795 -4.042852
v -43.393784 0.999795 -8.810925
v -43.374104 0.999795 -10.209153
v -37.613403 0.999795 -8.974625
v -36.920765 0.999795 -10.548368
v -33.818150 0.999795 -13.034793
v -32.912403 0.999795 -15.310539
v -32.007317 0.999795 -16.041777
v -28.237343 0.999795 7.334826
v -28.744591 0.999795 8.273062
v -28.025629 0.999795 10.843752
v -29.504141 0.999795 11.764635
v -29.344826 0.999795 12.850580
v -30.137730 0.999795 13.372530
v -30.560919 0.999795 12.949362
v -30.684042 0.999795 11.863039
v -29.639973 0.999795 10.720407
vt 0.294283 0.260414
vt 0.290103 0.261390
vt 0.279291 0.260149
vt 0.274443 0.263821
vt 0.261759 0.265553
vt 0.245244 0.278165
vt 0.236390 0.279699
vt 0.235407 0.310475
vt 0.228289 0.308816
vt 0.207332 0.289792
vt 0.194213 0.262787
vt 0.178530 0.243353
vt 0.153008 0.241824
vt 0.154624 0.217289
vt 0.152311 0.214976
vt 0.146509 0.214482
vt 0.139399 0.218341
vt 0.134043 0.216350
vt 0.132429 0.213671
vt 0.136074 0.210305
vt 0.141382 0.212479
vt 0.147913 0.206137
vt 0.160050 0.213017
vt 0.165447 0.211624
vt 0.171509 0.203718
vt 0.198663 0.202154
vt 0.209107 0.208207
vt 0.214560 0.215768
vt 0.220816 0.215515
vt 0.231992 0.202740
vt 0.250860 0.190957
vt 0.260767 0.190157
vt 0.270028 0.187637
vt 0.280215 0.199786
vt 0.296678 0.204031
vt 0.298920 0.204597
vt 0.297786 0.208817
vt 0.307100 0.211389
vt 0.260767 0.190157
vt 0.270028 0.187637
vt 0.160050 0.213017
vt 0.165447 0.211624
vt 0.153008 0.241824
vt 0.154624 0.217289
vt 0.280215 0.199786
vt 0.147913 0.206137
vt 0.178530 0.243353
vt 0.296678 0.204031
vt 0.298920 0.204597
vt 0.141382 0.212479
vt 0.194213 0.262787
vt 0.297786 0.208817
vt 0.136074 0.210305
vt 0.207332 0.289792
vt 0.307100 0.211389
vt 0.132429 0.213671
vt 0.228289 0.308816
vt 0.294283 0.260414
vt 0.134043 0.216350
vt 0.235407 0.310475
vt 0.250860 0.190957
vt 0.139399 0.218341
vt 0.236390 0.279699
vt 0.231992 0.202740
vt 0.146509 0.214482
vt 0.245244 0.278165
vt 0.220816 0.215515
vt 0.152311 0.214976
vt 0.261759 0.265553
vt 0.214560 0.215768
vt 0.274443 0.263821
vt 0.209107 0.208207
vt 0.279291 0.260149
vt 0.198663 0.202154
vt 0.290103 0.261390
vt 0.171509 0.203718
vn 0.0000 1.0000 -0.0000
vn 0.8734 0.0000 0.4871
vn 0.8797 0.0000 0.4756
vn -0.1763 0.0000 0.9843
vn 0.8080 0.0000 -0.5892
vn 0.9630 0.0000 -0.2693
vn -0.9833 0.0000 -0.1822
vn 1.0000 0.0000 -0.0042
vn 0.5287 0.0000 0.8488
vn -0.7968 0.0000 0.6042
vn -0.0194 0.0000 -0.9998
vn 0.9894 0.0000 -0.1452
vn -0.6406 0.0000 0.7679
vn 0.9997 0.0000 -0.0263
vn 0.5498 0.0000 0.8353
vn -0.8804 0.0000 0.4742
vn -0.0127 0.0000 -0.9999
vn -0.7071 0.0000 0.7071
vn -0.9999 0.0000 -0.0141
vn 0.9481 0.0000 0.3179
vn -0.9936 0.0000 0.1126
vn 0.2095 0.0000 -0.9778
vn 0.6958 0.0000 0.7182
vn -0.7382 0.0000 -0.6746
vn -0.9153 0.0000 -0.4028
vn 0.4579 0.0000 0.8890
vn -0.9875 0.0000 -0.1574
vn -0.6254 0.0000 -0.7803
vn 0.9601 0.0000 0.2796
vn -0.9291 0.0000 -0.3698
vn 0.7630 0.0000 -0.6464
vn -0.6284 0.0000 -0.7779
vn 0.9604 0.0000 -0.2785
vn -0.8905 0.0000 -0.4550
vn -0.9917 0.0000 -0.1284
vn 0.9552 0.0000 0.2961
vn 1.0000 0.0000 -0.0093
vn 0.3996 0.0000 0.9167
vn -0.8565 0.0000 0.5162
s off
f 40/1/1 39/2/1 67/3/1 66/4/1 65/5/1 64/6/1 63/7/1 62/8/1 61/9/1 60/10/1 59/11/1 58/12/1 57/13/1 56/14/1 55/15/1 76/16/1 75/17/1 74/18/1 73/19/1 72/20/1 71/21/1 70/22/1 69/23/1 68/24/1 54/25/1 53/26/1 52/27/1 51/28/1 50/29/1 49/30/1 48/31/1 43/32/1 44/33/1 41/34/1 42/35/1 45/36/1 46/37/1 47/38/1
f 3/39/2 2/40/2 44/33/2 43/32/2
f 30/41/3 29/42/3 68/24/3 69/23/3
f 17/43/4 16/44/4 56/14/4 57/13/4
f 2/40/5 4/45/5 41/34/5 44/33/5
f 31/46/6 30/41/6 69/23/6 70/22/6
f 18/47/7 17/43/7 57/13/7 58/12/7
f 1/48/8 5/49/8 45/36/8 42/35/8
f 32/50/9 31/46/9 70/22/9 71/21/9
f 19/51/10 18/47/10 58/12/10 59/11/10
f 5/49/11 6/52/11 46/37/11 45/36/11
f 33/53/12 32/50/12 71/21/12 72/20/12
f 20/54/13 19/51/13 59/11/13 60/10/13
f 6/52/14 7/55/14 47/38/14 46/37/14
f 34/56/15 33/53/15 72/20/15 73/19/15
f 21/57/16 20/54/16 60/10/16 61/9/16
f 7/55/17 8/58/17 40/1/17 47/38/17
f 35/59/18 34/56/18 73/19/18 74/18/18
f 22/60/19 21/57/19 61/9/19 62/8/19
f 9/61/20 3/39/20 43/32/20 48/31/20
f 36/62/21 35/59/21 74/18/21 75/17/21
f 23/63/22 22/60/22 62/8/22 63/7/22
f 10/64/23 9/61/23 48/31/23 49/30/23
f 37/65/24 36/62/24 75/17/24 76/16/24
f 24/66/25 23/63/25 63/7/25 64/6/25
f 11/67/26 10/64/26 49/30/26 50/29/26
f 38/68/27 37/65/27 76/16/27 55/15/27
f 25/69/28 24/66/28 64/6/28 65/5/28
f 12/70/29 11/67/29 50/29/29 51/28/29
f 26/71/30 25/69/30 65/5/30 66/4/30
f 13/72/31 12/70/31 51/28/31 52/27/31
f 27/73/32 26/71/32 66/4/32 67/3/32
f 14/74/33 13/72/33 52/27/33 53/26/33
f 8/58/34 28/75/34 39/2/34 40/1/34
f 28/75/35 27/73/35 67/3/35 39/2/35
f 15/76/36 14/74/36 53/26/36 54/25/36
f 4/45/37 1/48/37 42/35/37 41/34/37
f 29/42/38 15/76/38 54/25/38 68/24/38
f 16/44/39 38/68/39 55/15/39 56/14/39
