# Blender v2.92.0 OBJ File: 'world.blend'
# www.blender.org
v -21.034830 -0.000205 -16.685354
v -19.263515 -0.000205 -10.964849
v -21.003748 -0.000205 -13.351582
v -21.866104 -0.000205 -16.858362
v -25.817757 -0.000205 -0.495128
v -25.210152 -0.000205 1.599934
v -26.694773 -0.000205 6.389653
v -29.632023 -0.000205 8.857870
v -43.374104 -0.000205 -10.209153
v -33.818150 -0.000205 -13.034793
v -32.007317 -0.000205 -16.041777
v -31.739933 -0.000205 -18.106928
v -28.416264 -0.000205 7.140101
v -29.012573 -0.000205 8.243069
v -29.775253 -0.000205 11.638969
v -30.322351 -0.000205 12.834373
v -29.203285 -0.000205 9.569221
v -21.034830 0.999795 -16.685354
v -20.091326 0.999795 -9.480561
v -19.263515 0.999795 -10.964849
v -21.035620 0.999795 -16.874449
v -20.684029 0.999795 -7.713151
v -23.670866 0.999795 -4.819696
v -27.023140 0.999795 -1.917781
v -25.817757 0.999795 -0.495128
v -25.210152 0.999795 1.599934
v -26.694773 0.999795 6.389653
v -29.203285 0.999795 9.569221
v -29.632023 0.999795 8.857870
v -34.374454 0.999795 8.008348
v -36.414516 0.999795 -0.363018
v -33.818150 0.999795 -13.034793
v -32.007317 0.999795 -16.041777
v -28.316862 0.999795 10.730618
v -29.615292 0.999795 12.729318
v -30.105021 0.999795 13.051694
v -30.322351 0.999795 12.834373
v -29.404884 0.999795 10.833744
v -20.091326 -0.000205 -9.480561
v -21.035620 -0.000205 -16.874449
v -21.914820 -0.000205 -18.708223
v -31.363117 -0.000205 -18.588205
v -20.684029 -0.000205 -7.713151
v -23.670866 -0.000205 -4.819696
v -26.620562 -0.000205 -3.300200
v -27.023140 -0.000205 -1.917781
v -34.374454 -0.000205 8.008348
v -33.527412 -0.000205 3.444242
v -36.414516 -0.000205 -0.363018
v -40.825611 -0.000205 -4.042852
v -43.393784 -0.000205 -8.810925
v -37.613403 -0.000205 -8.974625
v -36.920765 -0.000205 -10.548368
v -32.912403 -0.000205 -15.310539
v -28.316862 -0.000205 10.730618
v -29.615292 -0.000205 12.729318
v -30.105021 -0.000205 13.051694
v -30.422836 -0.000205 11.947792
v -29.404884 -0.000205 10.833744
v -31.739933 0.999795 -18.106928
v -31.363117 0.999795 -18.588205
v -21.003748 0.999795 -13.351582
v -21.866104 0.999795 -16.858362
v -21.914820 0.999795 -18.708223
v -26.620562 0.999795 -3.300200
v -33.527412 0.999795 3.444242
v -40.825611 0.999795 -4.042852
v -43.393784 0.999795 -8.810925
v -43.374104 0.999795 -10.209153
v -37.613403 0.999795 -8.974625
v -36.920765 0.999795 -10.548368
v -32.912403 0.999795 -15.310539
v -28.416264 0.999795 7.140101
v -29.012573 0.999795 8.243069
v -29.775253 0.999795 11.638969
v -30.422836 0.999795 11.947792
vt 0.138893 0.856951
vt 0.135116 0.852126
vt 0.132436 0.831425
vt 0.123363 0.824095
vt 0.114283 0.801282
vt 0.083182 0.776357
vt 0.076239 0.760581
vt 0.018492 0.772957
vt 0.018294 0.758941
vt 0.044038 0.711144
vt 0.088257 0.674256
vt 0.117198 0.636091
vt 0.108707 0.590339
vt 0.156246 0.581823
vt 0.160544 0.574693
vt 0.158523 0.562017
vt 0.148319 0.550849
vt 0.149326 0.541962
vt 0.151505 0.539783
vt 0.156414 0.543015
vt 0.154810 0.553945
vt 0.169430 0.563051
vt 0.162456 0.587986
vt 0.168433 0.599043
vt 0.185690 0.606566
vt 0.200572 0.654579
vt 0.194482 0.675581
vt 0.182398 0.689842
vt 0.186434 0.703700
vt 0.216003 0.718931
vt 0.245944 0.747936
vt 0.251885 0.765653
vt 0.260183 0.780532
vt 0.242739 0.804458
vt 0.242427 0.837876
vt 0.242419 0.839772
vt 0.234094 0.839610
vt 0.233606 0.858154
vt 0.661666 0.005423
vt 0.702500 0.005423
vt 0.702500 0.032933
vt 0.661666 0.032933
vt 0.174075 0.005423
vt 0.204419 0.005423
vt 0.204419 0.032933
vt 0.174075 0.032933
vt 0.394864 0.005423
vt 0.525332 0.005423
vt 0.525332 0.032933
vt 0.394864 0.032933
vt 0.768161 0.005423
vt 0.768161 0.032933
vt 0.105641 0.005423
vt 0.105641 0.032933
vt 0.306095 0.005423
vt 0.180533 0.005423
vt 0.180533 0.032933
vt 0.306095 0.032933
vt 0.859875 0.005423
vt 0.865077 0.005423
vt 0.865077 0.032933
vt 0.859875 0.032933
vt 0.521391 0.005423
vt 0.561513 0.005423
vt 0.561513 0.032933
vt 0.521391 0.032933
vt 0.410835 0.005423
vt 0.410835 0.032933
vt 0.761825 0.005423
vt 0.738978 0.005423
vt 0.738978 0.032933
vt 0.761825 0.032933
vt 0.050655 0.005423
vt 0.080652 0.005423
vt 0.080652 0.032933
vt 0.050655 0.032933
vt 0.217388 0.005423
vt 0.338740 0.005423
vt 0.338740 0.032933
vt 0.217388 0.032933
vt 0.864635 0.005423
vt 0.915526 0.005423
vt 0.915526 0.032933
vt 0.864635 0.032933
vt 0.512319 0.005423
vt 0.525792 0.005423
vt 0.525792 0.032933
vt 0.512319 0.032933
vt 0.506340 0.005423
vt 0.506340 0.032933
vt 0.681710 0.005423
vt 0.643244 0.005423
vt 0.643244 0.032933
vt 0.681710 0.032933
vt 0.613043 0.005423
vt 0.613043 0.032933
vt 0.072156 0.005423
vt 0.047765 0.005423
vt 0.047765 0.032933
vt 0.072156 0.032933
vt 0.305758 0.005423
vt 0.147277 0.005423
vt 0.147277 0.032933
vt 0.305758 0.032933
vt 0.689328 0.005423
vt 0.771498 0.005423
vt 0.771498 0.032933
vt 0.689328 0.032933
vt 0.102804 0.005423
vt 0.102804 0.032933
vt 0.608179 0.005423
vt 0.608179 0.032933
vt 0.137592 0.005423
vt 0.137592 0.032933
vt 0.410168 0.005423
vt 0.324813 0.005423
vt 0.324813 0.032933
vt 0.410168 0.032933
vt 0.453608 0.005423
vt 0.491639 0.005423
vt 0.491639 0.032933
vt 0.453608 0.032933
vt 0.822053 0.005423
vt 0.759446 0.005423
vt 0.759446 0.032933
vt 0.822053 0.032933
vt 0.414470 0.005423
vt 0.414470 0.032933
vt 0.459986 0.005423
vt 0.435086 0.005423
vt 0.435086 0.032933
vt 0.459986 0.032933
vt 0.356833 0.005423
vt 0.356833 0.032933
vt 0.912224 0.005423
vt 0.898984 0.005423
vt 0.898984 0.032933
vt 0.912224 0.032933
vt 0.842170 0.005423
vt 0.842170 0.032933
vt 0.225064 0.005423
vt 0.225064 0.032933
vt 0.558778 0.005423
vt 0.606138 0.005423
vt 0.606138 0.032933
vt 0.558778 0.032933
vt 0.157162 0.005423
vt 0.157162 0.032933
vt 0.512070 0.005423
vt 0.512070 0.032933
vt 0.737638 0.005423
vt 0.477708 0.005423
vt 0.477708 0.032933
vt 0.737638 0.032933
vt 0.691042 0.005423
vt 0.647747 0.005423
vt 0.647747 0.032933
vt 0.691042 0.032933
vn 0.0000 1.0000 -0.0000
vn 0.8734 0.0000 0.4871
vn 0.8797 0.0000 0.4756
vn -0.1763 0.0000 0.9843
vn 0.8080 0.0000 -0.5892
vn 0.9630 0.0000 -0.2693
vn -0.9832 0.0000 -0.1825
vn 1.0000 0.0000 -0.0042
vn 0.5287 0.0000 0.8488
vn -0.7968 0.0000 0.6042
vn -0.0194 0.0000 -0.9998
vn 0.9894 0.0000 -0.1452
vn -0.6406 0.0000 0.7679
vn 0.9997 0.0000 -0.0263
vn 0.5498 0.0000 0.8353
vn -0.7071 0.0000 0.7071
vn -0.9999 0.0000 -0.0141
vn 0.9481 0.0000 0.3179
vn -0.9936 0.0000 0.1126
vn 0.2095 0.0000 -0.9778
vn 0.6958 0.0000 0.7182
vn -0.7382 0.0000 -0.6746
vn 0.4579 0.0000 0.8890
vn -0.9875 0.0000 -0.1574
vn -0.6254 0.0000 -0.7803
vn 0.9601 0.0000 0.2796
vn -0.9291 0.0000 -0.3698
vn 0.7630 0.0000 -0.6464
vn -0.6284 0.0000 -0.7779
vn 0.9604 0.0000 -0.2785
vn -0.7874 0.0000 -0.6165
vn -0.9917 0.0000 -0.1284
vn 0.9552 0.0000 0.2961
vn 1.0000 0.0000 -0.0093
vn 0.3996 0.0000 0.9167
vn -0.8565 0.0000 0.5162
vn -0.8804 0.0000 0.4742
vn -0.0127 0.0000 -0.9999
vn -0.9153 0.0000 -0.4028
s off
f 61/1/1 60/2/1 33/3/1 72/4/1 32/5/1 71/6/1 70/7/1 69/8/1 68/9/1 67/10/1 31/11/1 66/12/1 30/13/1 29/14/1 28/15/1 38/16/1 76/17/1 37/18/1 36/19/1 35/20/1 75/21/1 34/22/1 74/23/1 73/24/1 27/25/1 26/26/1 25/27/1 24/28/1 65/29/1 23/30/1 22/31/1 19/32/1 20/33/1 62/34/1 18/35/1 21/36/1 63/37/1 64/38/1
f 39/39/2 2/40/2 20/41/2 19/42/2
f 14/43/3 13/44/3 73/45/3 74/46/3
f 47/47/4 8/48/4 29/49/4 30/50/4
f 2/40/5 3/51/5 62/52/5 20/41/5
f 55/53/6 14/43/6 74/46/6 34/54/6
f 48/55/7 47/56/7 30/57/7 66/58/7
f 1/59/8 40/60/8 21/61/8 18/62/8
f 15/63/9 55/64/9 34/65/9 75/66/9
f 49/67/10 48/55/10 66/58/10 31/68/10
f 40/69/11 4/70/11 63/71/11 21/72/11
f 56/73/12 15/74/12 75/75/12 35/76/12
f 50/77/13 49/78/13 31/79/13 67/80/13
f 4/81/14 41/82/14 64/83/14 63/84/14
f 57/85/15 56/86/15 35/87/15 36/88/15
f 16/89/16 57/85/16 36/88/16 37/90/16
f 9/91/17 51/92/17 68/93/17 69/94/17
f 43/95/18 39/39/18 19/42/18 22/96/18
f 58/97/19 16/98/19 37/99/19 76/100/19
f 52/101/20 9/102/20 69/103/20 70/104/20
f 44/105/21 43/106/21 22/107/21 23/108/21
f 59/109/22 58/97/22 76/100/22 38/110/22
f 45/111/23 44/105/23 23/108/23 65/112/23
f 17/113/24 59/109/24 38/110/24 28/114/24
f 10/115/25 53/116/25 71/117/25 32/118/25
f 46/119/26 45/120/26 65/121/26 24/122/26
f 54/123/27 10/124/27 32/125/27 72/126/27
f 5/127/28 46/119/28 24/122/28 25/128/28
f 11/129/29 54/130/29 72/131/29 33/132/29
f 6/133/30 5/127/30 25/128/30 26/134/30
f 42/135/31 12/136/31 60/137/31 61/138/31
f 12/136/32 11/139/32 33/140/32 60/137/32
f 7/141/33 6/133/33 26/134/33 27/142/33
f 3/51/34 1/59/34 18/62/34 62/52/34
f 13/143/35 7/144/35 27/145/35 73/146/35
f 8/147/36 17/113/36 28/114/36 29/148/36
f 51/92/37 50/149/37 67/150/37 68/93/37
f 41/151/38 42/152/38 61/153/38 64/154/38
f 53/155/39 52/156/39 70/157/39 71/158/39
