# Blender v2.92.0 OBJ File: 'world.blend'
# www.blender.org
v -8.598799 -0.000205 -26.339476
v -10.742398 -0.000205 -20.273741
v -20.784836 -0.000205 -16.687040
v -14.209862 -0.000205 -20.199600
v -10.411093 -0.000205 -28.448925
v -20.786680 -0.000205 -17.129318
v -29.306400 -0.000205 -26.917635
v -26.731474 -0.000205 -27.070547
v -25.061586 -0.000205 -26.917635
v -18.946033 -0.000205 -28.306170
v -17.395945 -0.000205 -27.535387
v -17.734154 -0.000205 -26.917635
v -16.796459 -0.000205 -26.464468
v -13.817351 -0.000205 -26.952480
v -13.440939 -0.000205 -27.770798
v -21.622726 -0.000205 -17.113123
v -21.671398 -0.000205 -18.961336
v -31.366293 -0.000205 -18.838184
v -27.744938 -0.000205 -25.839140
v -27.943531 -0.000205 -26.213230
v -29.301010 -0.000205 -24.154369
v -29.930946 -0.000205 -25.824675
v -10.742398 0.999795 -20.273741
v -8.598799 0.999795 -26.339476
v -14.209862 0.999795 -20.199600
v -20.784836 0.999795 -16.687040
v -10.411093 0.999795 -28.448925
v -13.440939 0.999795 -27.770798
v -20.786680 0.999795 -17.129318
v -29.930946 0.999795 -25.824675
v -29.306400 0.999795 -26.917635
v -26.731474 0.999795 -27.070547
v -25.061586 0.999795 -26.917635
v -18.946033 0.999795 -28.306170
v -17.395945 0.999795 -27.535387
v -17.734154 0.999795 -26.917635
v -16.796459 0.999795 -26.464468
v -13.817351 0.999795 -26.952480
v -21.622726 0.999795 -17.113123
v -21.671398 0.999795 -18.961336
v -31.366293 0.999795 -18.838184
v -27.744938 0.999795 -25.839140
v -27.943531 0.999795 -26.213230
v -29.301010 0.999795 -24.154369
vt 0.360969 0.154353
vt 0.369391 0.166200
vt 0.362140 0.180717
vt 0.357516 0.181597
vt 0.351293 0.196096
vt 0.352413 0.201422
vt 0.355972 0.200484
vt 0.357933 0.209316
vt 0.343197 0.238593
vt 0.341873 0.247256
vt 0.337859 0.260126
vt 0.331529 0.261920
vt 0.323848 0.256624
vt 0.335999 0.252327
vt 0.334352 0.250849
vt 0.294283 0.260414
vt 0.307100 0.211389
vt 0.297786 0.208817
vt 0.298920 0.204597
vt 0.296678 0.204031
vt 0.322766 0.175095
vt 0.327503 0.157599
vt 0.337859 0.260126
vt 0.331529 0.261920
vt 0.323848 0.256624
vt 0.362140 0.180717
vt 0.357516 0.181597
vt 0.341873 0.247256
vt 0.327503 0.157599
vt 0.360969 0.154353
vt 0.297786 0.208817
vt 0.298920 0.204597
vt 0.343197 0.238593
vt 0.322766 0.175095
vt 0.307100 0.211389
vt 0.357933 0.209316
vt 0.296678 0.204031
vt 0.294283 0.260414
vt 0.355972 0.200484
vt 0.369391 0.166200
vt 0.334352 0.250849
vt 0.352413 0.201422
vt 0.335999 0.252327
vt 0.351293 0.196096
vn 0.0000 1.0000 0.0000
vn -0.8682 0.0000 -0.4961
vn -0.9357 0.0000 0.3529
vn -0.9085 0.0000 -0.4179
vn -0.0593 0.0000 -0.9982
vn 0.9429 0.0000 0.3332
vn 0.0194 0.0000 0.9998
vn 0.0912 0.0000 -0.9958
vn 0.0214 0.0000 0.9998
vn -0.9997 0.0000 0.0263
vn -0.2214 0.0000 -0.9752
vn 0.4712 0.0000 0.8820
vn 0.0127 0.0000 0.9999
vn 0.4452 0.0000 -0.8954
vn 0.7585 0.0000 -0.6517
vn -0.8882 0.0000 -0.4594
vn 0.8771 0.0000 0.4802
vn -0.2184 0.0000 -0.9759
vn -0.8833 0.0000 0.4689
vn 0.4351 0.0000 -0.9004
vn -1.0000 0.0000 0.0042
vn 0.8349 0.0000 0.5505
vn -0.1617 0.0000 -0.9868
s off
f 24/1/1 27/2/1 28/3/1 38/4/1 37/5/1 36/6/1 35/7/1 34/8/1 33/9/1 32/10/1 31/11/1 30/12/1 44/13/1 43/14/1 42/15/1 41/16/1 40/17/1 39/18/1 29/19/1 26/20/1 25/21/1 23/22/1
f 7/23/2 22/24/2 30/12/2 31/11/2
f 22/24/3 21/25/3 44/13/3 30/12/3
f 15/26/4 14/27/4 38/4/4 28/3/4
f 8/28/5 7/23/5 31/11/5 32/10/5
f 2/29/6 1/30/6 24/1/6 23/22/6
f 16/31/7 6/32/7 29/19/7 39/18/7
f 9/33/8 8/28/8 32/10/8 33/9/8
f 4/34/9 2/29/9 23/22/9 25/21/9
f 17/35/10 16/31/10 39/18/10 40/17/10
f 10/36/11 9/33/11 33/9/11 34/8/11
f 3/37/12 4/34/12 25/21/12 26/20/12
f 18/38/13 17/35/13 40/17/13 41/16/13
f 11/39/14 10/36/14 34/8/14 35/7/14
f 1/30/15 5/40/15 27/2/15 24/1/15
f 19/41/16 18/38/16 41/16/16 42/15/16
f 12/42/17 11/39/17 35/7/17 36/6/17
f 5/40/18 15/26/18 28/3/18 27/2/18
f 20/43/19 19/41/19 42/15/19 43/14/19
f 13/44/20 12/42/20 36/6/20 37/5/20
f 6/32/21 3/37/21 26/20/21 29/19/21
f 21/25/22 20/43/22 43/14/22 44/13/22
f 14/27/23 13/44/23 37/5/23 38/4/23
