# Blender v2.92.0 OBJ File: 'world.blend'
# www.blender.org
v -10.920527 -0.000205 -20.519989
v -10.600720 -0.000205 -28.286011
v -29.089340 -0.000205 -26.793600
v -26.731474 -0.000205 -27.070547
v -25.061586 -0.000205 -26.917635
v -17.395945 -0.000205 -27.535387
v -17.734154 -0.000205 -26.917635
v -16.796459 -0.000205 -26.464468
v -21.379349 -0.000205 -17.367884
v -21.427977 -0.000205 -19.214449
v -31.369469 -0.000205 -19.088163
v -27.943531 -0.000205 -26.213230
v -8.882732 0.999795 -26.286329
v -14.274953 0.999795 -20.448265
v -20.536570 0.999795 -17.103111
v -10.600720 0.999795 -28.286011
v -20.537741 0.999795 -17.384188
v -29.089340 0.999795 -26.793600
v -26.731474 0.999795 -27.070547
v -18.946033 0.999795 -28.306170
v -17.395945 0.999795 -27.535387
v -16.796459 0.999795 -26.464468
v -13.817351 0.999795 -26.952480
v -31.369469 0.999795 -19.088163
v -27.943531 0.999795 -26.213230
v -8.882732 -0.000205 -26.286329
v -20.536570 -0.000205 -17.103111
v -14.274953 -0.000205 -20.448265
v -20.537741 -0.000205 -17.384188
v -18.946033 -0.000205 -28.306170
v -13.817351 -0.000205 -26.952480
v -13.440939 -0.000205 -27.770798
v -27.744938 -0.000205 -25.839140
v -29.301010 -0.000205 -24.154369
v -29.713886 -0.000205 -25.700640
v -10.920527 0.999795 -20.519989
v -13.440939 0.999795 -27.770798
v -29.713886 0.999795 -25.700640
v -25.061586 0.999795 -26.917635
v -17.734154 0.999795 -26.917635
v -21.379349 0.999795 -17.367884
v -21.427977 0.999795 -19.214449
v -27.744938 0.999795 -25.839140
v -29.301010 0.999795 -24.154369
vt 0.364243 0.934119
vt 0.347022 0.954165
vt 0.318550 0.949000
vt 0.314777 0.940797
vt 0.284914 0.935905
vt 0.275514 0.940448
vt 0.278904 0.946640
vt 0.263366 0.954367
vt 0.202062 0.940448
vt 0.185322 0.941980
vt 0.161686 0.939204
vt 0.155426 0.928248
vt 0.159564 0.912748
vt 0.173172 0.933386
vt 0.175163 0.929636
vt 0.138830 0.861963
vt 0.238486 0.863229
vt 0.238973 0.844718
vt 0.247410 0.844882
vt 0.247422 0.842064
vt 0.310190 0.875597
vt 0.343816 0.876316
vt 0.591147 0.005423
vt 0.561078 0.005423
vt 0.561078 0.032933
vt 0.591147 0.032933
vt 0.618030 0.005423
vt 0.595518 0.005423
vt 0.595518 0.032933
vt 0.618030 0.032933
vt 0.296937 0.005423
vt 0.232071 0.005423
vt 0.232071 0.032933
vt 0.296937 0.032933
vt 0.418555 0.005423
vt 0.577191 0.005423
vt 0.577191 0.032933
vt 0.418555 0.032933
vt 0.444178 0.005423
vt 0.467332 0.005423
vt 0.467332 0.032933
vt 0.444178 0.032933
vt 0.342877 0.005423
vt 0.342877 0.032933
vt 0.639626 0.005423
vt 0.731909 0.005423
vt 0.731909 0.032933
vt 0.639626 0.032933
vt 0.382638 0.005423
vt 0.331838 0.005423
vt 0.331838 0.032933
vt 0.382638 0.032933
vt 0.511121 0.005423
vt 0.511121 0.032933
vt 0.467364 0.005423
vt 0.467364 0.032933
vt 0.169343 0.005423
vt 0.442841 0.005423
vt 0.442841 0.032933
vt 0.169343 0.032933
vt 0.553765 0.005423
vt 0.553765 0.032933
vt 0.632204 0.005423
vt 0.632204 0.032933
vt 0.564889 0.005423
vt 0.379164 0.005423
vt 0.379164 0.032933
vt 0.564889 0.032933
vt 0.594559 0.005423
vt 0.611554 0.005423
vt 0.611554 0.032933
vt 0.594559 0.032933
vt 0.740707 0.005423
vt 0.662570 0.005423
vt 0.662570 0.032933
vt 0.740707 0.032933
vt 0.575180 0.005423
vt 0.575180 0.032933
vt 0.570257 0.005423
vt 0.544460 0.005423
vt 0.544460 0.032933
vt 0.570257 0.032933
vt 0.332286 0.005423
vt 0.324554 0.005423
vt 0.324554 0.032933
vt 0.332286 0.032933
vt 0.518539 0.005423
vt 0.518539 0.032933
vt 0.652215 0.005423
vt 0.652215 0.032933
vn 0.0000 1.0000 -0.0000
vn -0.8682 0.0000 -0.4961
vn -0.9085 0.0000 -0.4179
vn -0.1167 0.0000 -0.9932
vn 0.9429 0.0000 0.3332
vn 0.0194 0.0000 0.9998
vn 0.0912 0.0000 -0.9958
vn 0.0214 0.0000 0.9998
vn -0.9997 0.0000 0.0263
vn -0.2214 0.0000 -0.9752
vn 0.4712 0.0000 0.8820
vn 0.0127 0.0000 0.9999
vn 0.4452 0.0000 -0.8954
vn 0.7585 0.0000 -0.6517
vn -0.8810 0.0000 -0.4730
vn 0.8771 0.0000 0.4802
vn -0.1785 0.0000 -0.9839
vn -0.8833 0.0000 0.4689
vn 0.4351 0.0000 -0.9004
vn -1.0000 0.0000 0.0042
vn 0.8349 0.0000 0.5505
vn -0.1617 0.0000 -0.9868
vn -0.9662 0.0000 0.2580
s off
f 13/1/1 16/2/1 37/3/1 23/4/1 22/5/1 40/6/1 21/7/1 20/8/1 39/9/1 19/10/1 18/11/1 38/12/1 44/13/1 25/14/1 43/15/1 24/16/1 42/17/1 41/18/1 17/19/1 15/20/1 14/21/1 36/22/1
f 3/23/2 35/24/2 38/25/2 18/26/2
f 32/27/3 31/28/3 23/29/3 37/30/3
f 4/31/4 3/32/4 18/33/4 19/34/4
f 1/35/5 26/36/5 13/37/5 36/38/5
f 9/39/6 29/40/6 17/41/6 41/42/6
f 5/43/7 4/31/7 19/34/7 39/44/7
f 28/45/8 1/46/8 36/47/8 14/48/8
f 10/49/9 9/50/9 41/51/9 42/52/9
f 30/53/10 5/43/10 39/44/10 20/54/10
f 27/55/11 28/45/11 14/48/11 15/56/11
f 11/57/12 10/58/12 42/59/12 24/60/12
f 6/61/13 30/53/13 20/54/13 21/62/13
f 26/36/14 2/63/14 16/64/14 13/37/14
f 33/65/15 11/66/15 24/67/15 43/68/15
f 7/69/16 6/70/16 21/71/16 40/72/16
f 2/73/17 32/74/17 37/75/17 16/76/17
f 12/77/18 33/65/18 43/68/18 25/78/18
f 8/79/19 7/80/19 40/81/19 22/82/19
f 29/83/20 27/84/20 15/85/20 17/86/20
f 34/87/21 12/77/21 25/78/21 44/88/21
f 31/89/22 8/79/22 22/82/22 23/90/22
f 35/24/23 34/87/23 44/88/23 38/25/23
