# Blender v2.92.0 OBJ File: 'world.blend'
# www.blender.org
v -10.920527 -0.000205 -20.519989
v -10.600720 -0.000205 -28.286011
v -29.089340 -0.000205 -26.793600
v -26.731474 -0.000205 -27.070547
v -25.061586 -0.000205 -26.917635
v -17.395945 -0.000205 -27.535387
v -17.734154 -0.000205 -26.917635
v -16.796459 -0.000205 -26.464468
v -21.379349 -0.000205 -17.367884
v -21.427977 -0.000205 -19.214449
v -31.369469 -0.000205 -19.088163
v -27.943531 -0.000205 -26.213230
v -8.882732 0.999795 -26.286329
v -14.274953 0.999795 -20.448265
v -20.536570 0.999795 -17.103111
v -10.600720 0.999795 -28.286011
v -20.537741 0.999795 -17.384188
v -29.089340 0.999795 -26.793600
v -26.731474 0.999795 -27.070547
v -18.946033 0.999795 -28.306170
v -17.395945 0.999795 -27.535387
v -16.796459 0.999795 -26.464468
v -13.817351 0.999795 -26.952480
v -31.369469 0.999795 -19.088163
v -27.943531 0.999795 -26.213230
v -8.882732 -0.000205 -26.286329
v -20.536570 -0.000205 -17.103111
v -14.274953 -0.000205 -20.448265
v -20.537741 -0.000205 -17.384188
v -18.946033 -0.000205 -28.306170
v -13.817351 -0.000205 -26.952480
v -13.440939 -0.000205 -27.770798
v -27.744938 -0.000205 -25.839140
v -29.301010 -0.000205 -24.154369
v -29.713886 -0.000205 -25.700640
v -10.920527 0.999795 -20.519989
v -13.440939 0.999795 -27.770798
v -29.713886 0.999795 -25.700640
v -25.061586 0.999795 -26.917635
v -17.734154 0.999795 -26.917635
v -21.379349 0.999795 -17.367884
v -21.427977 0.999795 -19.214449
v -27.744938 0.999795 -25.839140
v -29.301010 0.999795 -24.154369
vt 0.712733 0.826557
vt 0.703278 0.867827
vt 0.659061 0.881753
vt 0.647590 0.872940
vt 0.601603 0.888292
vt 0.591667 0.901747
vt 0.601095 0.907996
vt 0.584833 0.930546
vt 0.487536 0.956564
vt 0.464950 0.971230
vt 0.429370 0.984933
vt 0.412318 0.974073
vt 0.406617 0.949010
vt 0.441311 0.968114
vt 0.441335 0.961312
vt 0.339322 0.892488
vt 0.481546 0.819910
vt 0.468423 0.793304
vt 0.480505 0.787240
vt 0.478419 0.783237
vt 0.592429 0.783932
vt 0.640635 0.759856
vt 0.893498 0.019502
vt 0.880678 0.019502
vt 0.880678 0.031231
vt 0.893498 0.031231
vt 0.904960 0.019502
vt 0.895361 0.019502
vt 0.895361 0.031231
vt 0.904960 0.031231
vt 0.265688 0.019502
vt 0.238032 0.019502
vt 0.238032 0.031231
vt 0.265688 0.031231
vt 0.819913 0.019502
vt 0.887548 0.019502
vt 0.887548 0.031231
vt 0.819913 0.031231
vt 0.328465 0.019502
vt 0.338336 0.019502
vt 0.338336 0.031231
vt 0.328465 0.031231
vt 0.285275 0.019502
vt 0.285275 0.031231
vt 0.411794 0.019502
vt 0.451139 0.019502
vt 0.451139 0.031231
vt 0.411794 0.031231
vt 0.804600 0.019502
vt 0.782941 0.019502
vt 0.782941 0.031231
vt 0.804600 0.031231
vt 0.357006 0.019502
vt 0.357006 0.031231
vt 0.338350 0.019502
vt 0.338350 0.031231
vt 0.211288 0.019502
vt 0.327894 0.019502
vt 0.327894 0.031231
vt 0.211288 0.031231
vt 0.375187 0.019502
vt 0.375187 0.031231
vt 0.911003 0.019502
vt 0.911003 0.031231
vt 0.882303 0.019502
vt 0.803119 0.019502
vt 0.803119 0.031231
vt 0.882303 0.031231
vt 0.894953 0.019502
vt 0.902198 0.019502
vt 0.902198 0.031231
vt 0.894953 0.031231
vt 0.454890 0.019502
vt 0.421576 0.019502
vt 0.421576 0.031231
vt 0.454890 0.031231
vt 0.886690 0.019502
vt 0.886690 0.031231
vt 0.382219 0.019502
vt 0.371220 0.019502
vt 0.371220 0.031231
vt 0.382219 0.031231
vt 0.783132 0.019502
vt 0.779836 0.019502
vt 0.779836 0.031231
vt 0.783132 0.031231
vt 0.862542 0.019502
vt 0.862542 0.031231
vt 0.417161 0.019502
vt 0.417161 0.031231
vn 0.0000 1.0000 -0.0000
vn -0.8682 0.0000 -0.4961
vn -0.9085 0.0000 -0.4179
vn -0.1167 0.0000 -0.9932
vn 0.9429 0.0000 0.3332
vn 0.0194 0.0000 0.9998
vn 0.0912 0.0000 -0.9958
vn 0.0214 0.0000 0.9998
vn -0.9997 0.0000 0.0263
vn -0.2214 0.0000 -0.9752
vn 0.4712 0.0000 0.8820
vn 0.0127 0.0000 0.9999
vn 0.4452 0.0000 -0.8954
vn 0.7585 0.0000 -0.6517
vn -0.8810 0.0000 -0.4730
vn 0.8771 0.0000 0.4802
vn -0.1785 0.0000 -0.9839
vn -0.8833 0.0000 0.4689
vn 0.4351 0.0000 -0.9004
vn -1.0000 0.0000 0.0042
vn 0.8349 0.0000 0.5505
vn -0.1617 0.0000 -0.9868
vn -0.9662 0.0000 0.2580
s off
f 13/1/1 16/2/1 37/3/1 23/4/1 22/5/1 40/6/1 21/7/1 20/8/1 39/9/1 19/10/1 18/11/1 38/12/1 44/13/1 25/14/1 43/15/1 24/16/1 42/17/1 41/18/1 17/19/1 15/20/1 14/21/1 36/22/1
f 3/23/2 35/24/2 38/25/2 18/26/2
f 32/27/3 31/28/3 23/29/3 37/30/3
f 4/31/4 3/32/4 18/33/4 19/34/4
f 1/35/5 26/36/5 13/37/5 36/38/5
f 9/39/6 29/40/6 17/41/6 41/42/6
f 5/43/7 4/31/7 19/34/7 39/44/7
f 28/45/8 1/46/8 36/47/8 14/48/8
f 10/49/9 9/50/9 41/51/9 42/52/9
f 30/53/10 5/43/10 39/44/10 20/54/10
f 27/55/11 28/45/11 14/48/11 15/56/11
f 11/57/12 10/58/12 42/59/12 24/60/12
f 6/61/13 30/53/13 20/54/13 21/62/13
f 26/36/14 2/63/14 16/64/14 13/37/14
f 33/65/15 11/66/15 24/67/15 43/68/15
f 7/69/16 6/70/16 21/71/16 40/72/16
f 2/73/17 32/74/17 37/75/17 16/76/17
f 12/77/18 33/65/18 43/68/18 25/78/18
f 8/79/19 7/80/19 40/81/19 22/82/19
f 29/83/20 27/84/20 15/85/20 17/86/20
f 34/87/21 12/77/21 25/78/21 44/88/21
f 31/89/22 8/79/22 22/82/22 23/90/22
f 35/24/23 34/87/23 44/88/23 38/25/23
