# Blender v2.92.0 OBJ File: 'world.blend'
# www.blender.org
v 7.375412 -0.000205 -27.116915
v 0.886096 -0.000205 -30.177692
v -2.695202 -0.000205 -5.673866
v 0.715084 -0.000205 -4.283752
v 13.415150 -0.000205 -18.352928
v 12.394409 -0.000205 -15.193685
v 5.522002 -0.000205 -3.904692
v 13.415089 -0.000205 -12.539958
v 9.817482 -0.000205 -6.811213
v -4.583965 -0.000205 -5.522242
v -10.564269 -0.000205 -20.027493
v -9.159913 -0.000205 -29.196745
v -10.043856 -0.000205 -32.135197
v -20.533434 -0.000205 -16.537909
v -9.150743 -0.000205 -2.576394
v -12.667850 -0.000205 -4.517476
v -13.690742 -0.000205 -2.132292
v -18.670948 -0.000205 -11.000822
v -14.144771 -0.000205 -19.950935
v -13.473826 -0.000205 -6.635197
v 13.096210 -0.000205 -10.636024
v 3.930702 0.999795 -30.917706
v 0.886096 0.999795 -30.177692
v 7.077902 0.999795 -26.524822
v 13.415150 0.999795 -18.352928
v 13.096210 0.999795 -10.636024
v 9.817482 0.999795 -6.811213
v 13.415089 0.999795 -12.539958
v -4.583965 0.999795 -5.522242
v -8.314865 0.999795 -26.392622
v -1.724217 0.999795 -31.480928
v -10.043856 0.999795 -32.135197
v -7.840461 0.999795 -4.329294
v -9.150743 0.999795 -2.576394
v -13.690742 0.999795 -2.132292
v -20.533434 0.999795 -16.537909
v -18.670948 0.999795 -11.000822
v -16.161062 0.999795 -7.234344
v 3.930702 -0.000205 -30.917706
v 7.077902 -0.000205 -26.524822
v 9.970097 -0.000205 -24.165920
v 3.225132 -0.000205 -4.662886
v -8.314865 -0.000205 -26.392622
v -5.757927 -0.000205 -3.904737
v -1.724217 -0.000205 -31.480928
v -7.840461 -0.000205 -4.329294
v -19.530375 -0.000205 -9.459845
v -16.161062 -0.000205 -7.234344
v -20.505266 -0.000205 -13.516588
v -10.221465 -0.000205 -28.611839
v 7.375412 0.999795 -27.116915
v 0.715084 0.999795 -4.283752
v -2.695202 0.999795 -5.673866
v 9.970097 0.999795 -24.165920
v 3.225132 0.999795 -4.662886
v 5.522002 0.999795 -3.904692
v 12.394409 0.999795 -15.193685
v -10.564269 0.999795 -20.027493
v -5.757927 0.999795 -3.904737
v -9.159913 0.999795 -29.196745
v -10.221465 0.999795 -28.611839
v -14.144771 0.999795 -19.950935
v -12.667850 0.999795 -4.517476
v -20.505266 0.999795 -13.516588
v -19.530375 0.999795 -9.459845
v -13.473826 0.999795 -6.635197
vt 0.459280 0.682560
vt 0.435538 0.667090
vt 0.466770 0.610257
vt 0.500477 0.581639
vt 0.496088 0.545515
vt 0.463708 0.519271
vt 0.531548 0.491618
vt 0.563282 0.506726
vt 0.589701 0.485113
vt 0.618485 0.499317
vt 0.646461 0.487342
vt 0.684525 0.442074
vt 0.723032 0.428685
vt 0.750001 0.400727
vt 0.832789 0.409897
vt 0.907997 0.439723
vt 0.926772 0.464395
vt 0.932120 0.509743
vt 0.970260 0.547003
vt 0.964789 0.655384
vt 0.941335 0.710544
vt 0.949993 0.716732
vt 0.929474 0.796516
vt 0.880670 0.808776
vt 0.853324 0.846825
vt 0.739988 0.918362
vt 0.730567 0.869991
vt 0.711105 0.869620
vt 0.721598 0.823820
vt 0.642014 0.750192
vt 0.590558 0.775890
vt 0.474235 0.775181
vt 0.452033 0.732034
vt 0.609448 0.019502
vt 0.630008 0.019502
vt 0.630008 0.031231
vt 0.609448 0.031231
vt 0.757439 0.019502
vt 0.794495 0.019502
vt 0.794495 0.031231
vt 0.757439 0.031231
vt 0.632215 0.019502
vt 0.604239 0.019502
vt 0.604239 0.031231
vt 0.632215 0.031231
vt 0.659119 0.019502
vt 0.703981 0.019502
vt 0.703981 0.031231
vt 0.659119 0.031231
vt 0.418646 0.019502
vt 0.471897 0.019502
vt 0.471897 0.031231
vt 0.418646 0.031231
vt 0.643998 0.019502
vt 0.694380 0.019502
vt 0.694380 0.031231
vt 0.643998 0.031231
vt 0.773206 0.019502
vt 0.737768 0.019502
vt 0.737768 0.031231
vt 0.773206 0.031231
vt 0.726313 0.019502
vt 0.726313 0.031231
vt 0.708260 0.019502
vt 0.690186 0.019502
vt 0.690186 0.031231
vt 0.708260 0.031231
vt 0.525462 0.019502
vt 0.547616 0.019502
vt 0.547616 0.031231
vt 0.525462 0.031231
vt 0.350152 0.019502
vt 0.389671 0.019502
vt 0.389671 0.031231
vt 0.350152 0.031231
vt 0.888795 0.019502
vt 0.814136 0.019502
vt 0.814136 0.031231
vt 0.888795 0.031231
vt 0.897290 0.019502
vt 0.941871 0.019502
vt 0.941871 0.031231
vt 0.897290 0.031231
vt 0.413321 0.019502
vt 0.338387 0.019502
vt 0.338387 0.031231
vt 0.413321 0.031231
vt 0.625028 0.019502
vt 0.644000 0.019502
vt 0.644000 0.031231
vt 0.625028 0.031231
vt 0.625333 0.019502
vt 0.589622 0.019502
vt 0.589622 0.031231
vt 0.625333 0.031231
vt 0.657055 0.019502
vt 0.657055 0.031231
vt 0.559005 0.019502
vt 0.559005 0.031231
vt 0.890345 0.019502
vt 0.890345 0.031231
vt 0.421191 0.019502
vt 0.421191 0.031231
vt 0.956151 0.019502
vt 0.921685 0.019502
vt 0.921685 0.031231
vt 0.956151 0.031231
vt 0.587616 0.019502
vt 0.587616 0.031231
vt 0.461422 0.019502
vt 0.461422 0.031231
vt 0.696171 0.019502
vt 0.662247 0.019502
vt 0.662247 0.031231
vt 0.696171 0.031231
vt 0.471790 0.019502
vt 0.459338 0.019502
vt 0.459338 0.031231
vt 0.471790 0.031231
vt 0.617057 0.019502
vt 0.617057 0.031231
vt 0.914824 0.019502
vt 0.914824 0.031231
vt 0.455318 0.019502
vt 0.455318 0.031231
vt 0.862677 0.019502
vt 0.862677 0.031231
vt 0.487266 0.019502
vt 0.511692 0.019502
vt 0.511692 0.031231
vt 0.487266 0.031231
vn 0.0000 1.0000 0.0000
vn 0.8010 0.0000 0.5987
vn 0.9516 0.0000 0.3074
vn -0.9191 0.0000 -0.3941
vn 0.7592 0.0000 0.6508
vn 0.0974 0.0000 0.9952
vn 0.5604 0.0000 0.8282
vn -1.0000 0.0000 0.0093
vn 0.9333 0.0000 -0.3590
vn -0.8734 0.0000 -0.4871
vn 0.0800 0.0000 0.9968
vn -0.5511 0.0000 0.8344
vn -0.9429 0.0000 -0.3332
vn 0.7410 0.0000 -0.6715
vn -0.4712 0.0000 -0.8820
vn 0.8093 0.0000 0.5874
vn -0.2362 0.0000 -0.9717
vn -0.9346 0.0000 0.3557
vn 0.4467 0.0000 -0.8947
vn 0.8935 0.0000 0.4490
vn -0.2176 0.0000 0.9760
vn -0.9576 0.0000 0.2881
vn -0.3775 0.0000 0.9260
vn -0.8080 0.0000 0.5892
vn 0.0784 0.0000 -0.9969
vn 0.6320 0.0000 -0.7749
vn 0.9863 0.0000 0.1652
vn -0.4826 0.0000 -0.8758
vn 0.1494 0.0000 0.9888
vn -0.7585 0.0000 0.6517
vn -0.0214 0.0000 -0.9998
vn 0.8603 0.0000 -0.5098
vn -0.1998 0.0000 0.9798
vn -0.3135 0.0000 0.9496
s off
f 37/1/1 65/2/1 38/3/1 66/4/1 63/5/1 35/6/1 34/7/1 33/8/1 59/9/1 29/10/1 53/11/1 52/12/1 55/13/1 56/14/1 27/15/1 26/16/1 28/17/1 57/18/1 25/19/1 54/20/1 24/21/1 51/22/1 22/23/1 23/24/1 31/25/1 32/26/1 60/27/1 61/28/1 30/29/1 58/30/1 62/31/1 36/32/1 64/33/1
f 15/34/2 46/35/2 33/36/2 34/37/2
f 6/38/3 5/39/3 25/40/3 57/41/3
f 16/42/4 17/43/4 35/44/4 63/45/4
f 9/46/5 21/47/5 26/48/5 27/49/5
f 17/50/6 15/51/6 34/52/6 35/53/6
f 7/54/7 9/55/7 27/56/7 56/57/7
f 14/58/8 49/59/8 64/60/8 36/61/8
f 8/62/9 6/38/9 57/41/9 28/63/9
f 18/64/10 47/65/10 65/66/10 37/67/10
f 10/68/11 3/69/11 53/70/11 29/71/11
f 47/72/12 48/73/12 38/74/12 65/75/12
f 43/76/13 11/77/13 58/78/13 30/79/13
f 1/80/14 39/81/14 22/82/14 51/83/14
f 19/84/15 14/85/15 36/86/15 62/87/15
f 44/88/16 10/89/16 29/90/16 59/91/16
f 39/92/17 2/93/17 23/94/17 22/95/17
f 20/96/18 16/42/18 63/45/18 66/97/18
f 2/93/19 45/98/19 31/99/19 23/94/19
f 40/100/20 1/80/20 51/83/20 24/101/20
f 48/73/21 20/102/21 66/103/21 38/74/21
f 13/104/22 12/105/22 60/106/22 32/107/22
f 3/69/23 4/108/23 52/109/23 53/70/23
f 49/59/24 18/64/24 37/67/24 64/60/24
f 45/98/25 13/110/25 32/111/25 31/99/25
f 41/112/26 40/113/26 24/114/26 54/115/26
f 21/47/27 8/62/27 28/63/27 26/48/27
f 12/116/28 50/117/28 61/118/28 60/119/28
f 4/108/29 42/120/29 55/121/29 52/109/29
f 50/122/30 43/76/30 30/79/30 61/123/30
f 11/124/31 19/84/31 62/87/31 58/125/31
f 5/39/32 41/126/32 54/127/32 25/40/32
f 46/128/33 44/129/33 59/130/33 33/131/33
f 42/120/34 7/54/34 56/57/34 55/121/34
