# Blender v2.92.0 OBJ File: 'world.blend'
# www.blender.org
v -52.583843 -0.000205 -46.553913
v -43.375240 -0.000205 -47.502865
v -51.853275 -0.000205 -50.648342
v -51.152905 -0.000205 -31.939978
v -49.955837 -0.000205 -32.902332
v -47.979084 -0.000205 -33.494595
v -47.063671 -0.000204 -46.330379
v -53.516182 -0.000205 -31.301384
v -55.492981 -0.000205 -32.868587
v -58.497585 -0.000205 -32.532795
v -60.128189 -0.000205 -33.951283
v -60.704559 -0.000205 -32.162132
v -62.903355 -0.000205 -32.691799
v -61.805809 -0.000204 -34.514111
v -64.196899 -0.000204 -35.578087
v -64.595543 -0.000204 -36.092617
v -65.843323 -0.000204 -36.349987
v -43.482372 -0.000204 -42.517849
v -45.717278 -0.000204 -34.083332
v -69.603638 -0.000204 -42.451893
v -71.865913 -0.000204 -43.565960
v -70.364555 -0.000205 -46.586647
v -44.910709 -0.000204 -42.279152
v -45.065239 -0.000204 -40.492096
v -44.758755 -0.000204 -36.390484
v -41.981613 0.999796 -41.726498
v -40.519527 0.999796 -46.079937
v -47.063671 0.999796 -46.330379
v -52.583843 0.999795 -46.553913
v -51.853275 0.999795 -50.648342
v -58.765797 0.999795 -52.214310
v -52.025841 0.999795 -31.043701
v -51.152905 0.999795 -31.939978
v -49.955837 0.999795 -32.902332
v -59.748703 0.999795 -52.201244
v -53.516182 0.999795 -31.301384
v -55.492981 0.999795 -32.868587
v -57.337578 0.999795 -32.338741
v -58.497585 0.999795 -32.532795
v -60.128189 0.999795 -33.951283
v -62.903355 0.999795 -32.691795
v -46.388760 0.999796 -35.862782
v -44.884388 0.999796 -35.732536
v -69.343681 0.999796 -40.515339
v -71.865913 0.999796 -43.565960
v -71.617928 0.999796 -45.209553
v -67.326195 0.999795 -46.518131
v -44.910709 0.999796 -42.279152
v -45.065239 0.999796 -40.492096
v -43.012402 0.999796 -39.232105
v -44.567444 0.999796 -37.827915
v -45.659065 0.999796 -37.084126
v -40.519527 -0.000204 -46.079937
v -41.981613 -0.000204 -41.726498
v -58.765797 -0.000205 -52.214310
v -52.025841 -0.000205 -31.043701
v -51.949505 -0.000205 -31.905453
v -45.665611 -0.000205 -32.598763
v -51.171722 -0.000205 -48.376286
v -67.349014 -0.000204 -37.438374
v -57.337578 -0.000205 -32.338741
v -46.388760 -0.000204 -35.862782
v -44.884388 -0.000204 -35.732536
v -69.343681 -0.000204 -40.515339
v -71.818382 -0.000204 -42.672245
v -71.617928 -0.000204 -45.209553
v -67.326195 -0.000205 -46.518131
v -64.470291 -0.000205 -50.722363
v -61.891438 -0.000205 -49.999966
v -59.748703 -0.000205 -52.201244
v -43.493446 -0.000204 -40.469776
v -43.012402 -0.000204 -39.232105
v -44.567444 -0.000204 -37.827915
v -45.659065 -0.000204 -37.084126
v -43.375240 0.999795 -47.502865
v -51.171722 0.999795 -48.376286
v -51.949505 0.999795 -31.905453
v -47.979084 0.999795 -33.494595
v -45.665611 0.999795 -32.598763
v -65.843323 0.999796 -36.349987
v -67.349014 0.999796 -37.438374
v -60.704559 0.999795 -32.162132
v -61.805809 0.999796 -34.514111
v -64.196899 0.999796 -35.578087
v -64.595543 0.999796 -36.092617
v -43.482372 0.999796 -42.517849
v -45.717278 0.999796 -34.083332
v -69.603638 0.999796 -42.451893
v -71.818382 0.999796 -42.672245
v -70.364555 0.999795 -46.586647
v -64.470291 0.999795 -50.722363
v -61.891438 0.999795 -49.999966
v -43.493446 0.999796 -40.469776
v -44.758755 0.999796 -36.390484
vt 0.851715 0.305658
vt 0.881693 0.334547
vt 0.864684 0.357941
vt 0.830117 0.363950
vt 0.786662 0.388851
vt 0.805644 0.397595
vt 0.809673 0.418719
vt 0.760639 0.460242
vt 0.752681 0.464251
vt 0.726237 0.455517
vt 0.708522 0.472120
vt 0.667961 0.450264
vt 0.643814 0.463531
vt 0.627972 0.457703
vt 0.619099 0.445524
vt 0.615741 0.438138
vt 0.632628 0.427097
vt 0.626614 0.410436
vt 0.629776 0.377344
vt 0.637329 0.362291
vt 0.646286 0.354998
vt 0.647338 0.349192
vt 0.662113 0.330629
vt 0.645660 0.320568
vt 0.661125 0.307107
vt 0.673248 0.319082
vt 0.680424 0.300850
vt 0.688940 0.294435
vt 0.705991 0.290975
vt 0.715328 0.270099
vt 0.726234 0.261790
vt 0.730455 0.268400
vt 0.737005 0.265344
vt 0.750659 0.268073
vt 0.769034 0.264562
vt 0.783888 0.247675
vt 0.789686 0.259830
vt 0.803286 0.269606
vt 0.791734 0.276950
vt 0.802713 0.283717
vt 0.807050 0.274371
vt 0.814605 0.285130
vt 0.832987 0.289913
vt 0.834298 0.301879
vt 0.821752 0.308637
vt 0.830474 0.322361
vt 0.842959 0.318303
vt 0.358863 0.004159
vt 0.401613 0.004159
vt 0.401613 0.022038
vt 0.358863 0.022038
vt 0.613478 0.004159
vt 0.648820 0.004159
vt 0.648820 0.022038
vt 0.613478 0.022038
vt 0.664549 0.004159
vt 0.589382 0.004159
vt 0.589382 0.022038
vt 0.664549 0.022038
vt 0.402985 0.004159
vt 0.393785 0.004159
vt 0.393785 0.022038
vt 0.402985 0.022038
vt 0.690182 0.004159
vt 0.690182 0.022038
vt 0.329427 0.004159
vt 0.351736 0.004159
vt 0.351736 0.022038
vt 0.329427 0.022038
vt 0.731132 0.004159
vt 0.665187 0.004159
vt 0.665187 0.022038
vt 0.731132 0.022038
vt 0.690989 0.004159
vt 0.651633 0.004159
vt 0.651633 0.022038
vt 0.690989 0.022038
vt 0.729216 0.004159
vt 0.756048 0.004159
vt 0.756048 0.022038
vt 0.729216 0.022038
vt 0.590021 0.004159
vt 0.622603 0.004159
vt 0.622603 0.022038
vt 0.590021 0.022038
vt 0.703679 0.004159
vt 0.703679 0.022038
vt 0.704150 0.004159
vt 0.677253 0.004159
vt 0.677253 0.022038
vt 0.704150 0.022038
vt 0.455965 0.004159
vt 0.438392 0.004159
vt 0.438392 0.022038
vt 0.455965 0.022038
vt 0.481643 0.004159
vt 0.513593 0.004159
vt 0.513593 0.022038
vt 0.481643 0.022038
vt 0.367061 0.004159
vt 0.396547 0.004159
vt 0.396547 0.022038
vt 0.367061 0.022038
vt 0.302507 0.004159
vt 0.302507 0.022038
vt 0.729018 0.004159
vt 0.700916 0.004159
vt 0.700916 0.022038
vt 0.729018 0.022038
vt 0.503712 0.004159
vt 0.581547 0.004159
vt 0.581547 0.022038
vt 0.503712 0.022038
vt 0.549823 0.004159
vt 0.576468 0.004159
vt 0.576468 0.022038
vt 0.549823 0.022038
vt 0.514480 0.004159
vt 0.514480 0.022038
vt 0.459115 0.004159
vt 0.481243 0.004159
vt 0.481243 0.022038
vt 0.459115 0.022038
vt 0.566492 0.004159
vt 0.566492 0.022038
vt 0.482058 0.004159
vt 0.427045 0.004159
vt 0.427045 0.022038
vt 0.482058 0.022038
vt 0.481500 0.004159
vt 0.481500 0.022038
vt 0.709817 0.004159
vt 0.737619 0.004159
vt 0.737619 0.022038
vt 0.709817 0.022038
vt 0.782189 0.004159
vt 0.782189 0.022038
vt 0.516682 0.004159
vt 0.516682 0.022038
vt 0.460761 0.004159
vt 0.460761 0.022038
vt 0.408310 0.004159
vt 0.434010 0.004159
vt 0.434010 0.022038
vt 0.408310 0.022038
vt 0.579554 0.004159
vt 0.579554 0.022038
vt 0.222599 0.004159
vt 0.262197 0.004159
vt 0.262197 0.022038
vt 0.222599 0.022038
vt 0.431607 0.004159
vt 0.431607 0.022038
vt 0.690300 0.004159
vt 0.706396 0.004159
vt 0.706396 0.022038
vt 0.690300 0.022038
vt 0.663225 0.004159
vt 0.663225 0.022038
vt 0.536600 0.004159
vt 0.520621 0.004159
vt 0.520621 0.022038
vt 0.536600 0.022038
vt 0.332712 0.004159
vt 0.364700 0.004159
vt 0.364700 0.022038
vt 0.332712 0.022038
vt 0.398875 0.004159
vt 0.420712 0.004159
vt 0.420712 0.022038
vt 0.398875 0.022038
vt 0.312715 0.004159
vt 0.328123 0.004159
vt 0.328123 0.022038
vt 0.312715 0.022038
vt 0.565986 0.004159
vt 0.565986 0.022038
vt 0.381990 0.004159
vt 0.421302 0.004159
vt 0.421302 0.022038
vt 0.381990 0.022038
vt 0.340518 0.004159
vt 0.340518 0.022038
vt 0.577833 0.004159
vt 0.592076 0.004159
vt 0.592076 0.022038
vt 0.577833 0.022038
vt 0.590606 0.004159
vt 0.590606 0.022038
vt 0.374763 0.004159
vt 0.342182 0.004159
vt 0.342182 0.022038
vt 0.374763 0.022038
vt 0.302915 0.004159
vt 0.248592 0.004159
vt 0.248592 0.022038
vt 0.302915 0.022038
vt 0.400082 0.004159
vt 0.353975 0.004159
vt 0.353975 0.022038
vt 0.400082 0.022038
vn -0.0000 1.0000 -0.0000
vn -0.4065 0.0000 0.9136
vn 0.2870 0.0000 0.9579
vn -0.8272 0.0000 -0.5619
vn -0.7905 0.0000 0.6125
vn -0.3611 0.0000 0.9325
vn -0.2020 0.0000 0.9794
vn -0.3029 0.0000 -0.9530
vn -0.7166 0.0000 -0.6975
vn -0.4664 0.0000 0.8846
vn 0.7905 0.0000 0.6125
vn 0.1648 0.0000 0.9863
vn 0.0863 0.0000 -0.9963
vn -0.0133 0.0000 -0.9999
vn 0.9963 0.0000 0.0862
vn 0.8926 0.0000 0.4508
vn -0.5858 0.0000 0.8104
vn 0.0142 0.0000 -0.9999
vn 0.9480 0.0000 0.3184
vn -0.1704 0.0000 0.9854
vn -0.6212 0.0000 0.7836
vn 0.9321 0.0000 -0.3623
vn 0.0405 0.0000 -0.9992
vn -0.8391 0.0000 0.5440
vn 0.2761 0.0000 0.9611
vn 0.6702 0.0000 0.7422
vn 0.4460 0.0000 -0.8950
vn -0.9911 0.0000 0.1330
vn -0.1650 0.0000 0.9863
vn 0.9913 0.0000 0.1319
vn 0.2209 0.0000 -0.9753
vn -0.0990 0.0000 0.9951
vn -0.6563 0.0000 0.7545
vn -0.6103 0.0000 0.7922
vn 0.9578 0.0000 -0.2873
vn -0.9986 0.0000 0.0531
vn 0.9518 0.0000 0.3066
vn 0.8585 0.0000 0.5129
vn 0.9961 0.0000 0.0882
vn -0.9888 0.0000 -0.1492
vn -0.2342 -0.0000 0.9722
vn 0.9994 0.0000 -0.0348
vn 0.0433 0.0000 0.9991
vn -0.7395 0.0000 -0.6731
vn -0.8566 0.0000 -0.5159
vn 0.6266 0.0000 0.7794
vn 0.0225 0.0000 -0.9997
vn 0.2697 0.0000 -0.9629
s off
f 26/1/1 27/2/1 75/3/1 28/4/1 29/5/1 76/6/1 30/7/1 31/8/1 35/9/1 92/10/1 91/11/1 47/12/1 90/13/1 46/14/1 45/15/1 89/16/1 88/17/1 44/18/1 81/19/1 80/20/1 85/21/1 84/22/1 83/23/1 41/24/1 82/25/1 40/26/1 39/27/1 38/28/1 37/29/1 36/30/1 32/31/1 77/32/1 33/33/1 34/34/1 78/35/1 79/36/1 87/37/1 43/38/1 42/39/1 52/40/1 94/41/1 51/42/1 50/43/1 93/44/1 49/45/1 48/46/1 86/47/1
f 15/48/2 14/49/2 83/50/2 84/51/2
f 5/52/3 6/53/3 78/54/3 34/55/3
f 68/56/4 67/57/4 47/58/4 91/59/4
f 16/60/5 15/61/5 84/62/5 85/63/5
f 6/53/6 58/64/6 79/65/6 78/54/6
f 17/66/7 16/67/7 85/68/7 80/69/7
f 2/70/8 7/71/8 28/72/8 75/73/8
f 70/74/9 69/75/9 92/76/9 35/77/9
f 18/78/10 54/79/10 26/80/10 86/81/10
f 1/82/11 59/83/11 76/84/11 29/85/11
f 23/86/12 18/78/12 86/81/12 48/87/12
f 63/88/13 62/89/13 42/90/13 43/91/13
f 55/92/14 70/93/14 35/94/14 31/95/14
f 24/96/15 23/97/15 48/98/15 49/99/15
f 19/100/16 63/101/16 43/102/16 87/103/16
f 60/104/17 17/66/17 80/69/17 81/105/17
f 71/106/18 24/107/18 49/108/18 93/109/18
f 54/110/19 53/111/19 27/112/19 26/113/19
f 8/114/20 56/115/20 32/116/20 36/117/20
f 9/118/21 8/114/21 36/117/21 37/119/21
f 72/120/22 71/121/22 93/122/22 50/123/22
f 7/71/23 1/124/23 29/125/23 28/72/23
f 64/126/24 60/127/24 81/128/24 44/129/24
f 61/130/25 9/118/25 37/119/25 38/131/25
f 73/132/26 72/133/26 50/134/26 51/135/26
f 53/136/27 2/70/27 75/73/27 27/137/27
f 20/138/28 64/126/28 44/129/28 88/139/28
f 10/140/29 61/130/29 38/131/29 39/141/29
f 25/142/30 73/143/30 51/144/30 94/145/30
f 3/146/31 55/92/31 31/95/31 30/147/31
f 65/148/32 20/149/32 88/150/32 89/151/32
f 11/152/33 10/140/33 39/141/33 40/153/33
f 74/154/34 25/155/34 94/156/34 52/157/34
f 59/83/35 3/158/35 30/159/35 76/84/35
f 21/160/36 65/161/36 89/162/36 45/163/36
f 12/164/37 11/165/37 40/166/37 82/167/37
f 62/168/38 74/169/38 52/170/38 42/171/38
f 56/172/39 57/173/39 77/174/39 32/175/39
f 66/176/40 21/160/40 45/163/40 46/177/40
f 13/178/41 12/179/41 82/180/41 41/181/41
f 58/182/42 19/100/42 87/103/42 79/183/42
f 57/184/43 4/185/43 33/186/43 77/187/43
f 22/188/44 66/176/44 46/177/44 90/189/44
f 14/190/45 13/191/45 41/192/45 83/193/45
f 4/185/46 5/52/46 34/55/46 33/186/46
f 67/194/47 22/195/47 90/196/47 47/197/47
f 69/198/48 68/199/48 91/200/48 92/201/48
