# Blender v2.92.0 OBJ File: 'world.blend'
# www.blender.org
v -40.213253 -0.000204 -46.206642
v -41.744621 -0.000204 -41.646904
v -52.089214 -0.000205 -46.784088
v -43.354424 -0.000205 -47.771809
v -58.739475 -0.000205 -52.464684
v -51.655739 -0.000205 -50.859928
v -51.800781 -0.000205 -30.751080
v -51.719810 -0.000205 -31.665173
v -51.060165 -0.000205 -31.693762
v -49.837280 -0.000205 -32.676872
v -47.989433 -0.000205 -33.230515
v -45.755886 -0.000205 -32.365631
v -47.097496 -0.000204 -46.581955
v -50.895294 -0.000205 -48.324867
v -67.533363 -0.000204 -37.263153
v -53.621563 -0.000205 -31.065895
v -55.547539 -0.000205 -32.592808
v -57.322979 -0.000205 -32.082825
v -58.608429 -0.000205 -32.297863
v -60.006409 -0.000205 -33.513988
v -60.537697 -0.000205 -31.864784
v -63.293472 -0.000205 -32.528622
v -62.165939 -0.000204 -34.400726
v -64.356003 -0.000204 -35.375252
v -64.736565 -0.000204 -35.866440
v -65.946327 -0.000204 -36.115971
v -43.482372 -0.000204 -42.517849
v -46.388760 -0.000204 -35.862782
v -44.884388 -0.000204 -35.732536
v -45.717278 -0.000204 -34.083332
v -69.583992 -0.000204 -40.426449
v -69.825111 -0.000204 -42.222694
v -72.056633 -0.000204 -42.444714
v -72.116913 -0.000204 -43.578094
v -71.853821 -0.000204 -45.321785
v -70.472778 -0.000205 -46.839149
v -67.456558 -0.000205 -46.771133
v -64.576035 -0.000205 -51.011608
v -61.966999 -0.000205 -50.280754
v -59.855598 -0.000205 -52.449844
v -44.910709 -0.000204 -42.279152
v -45.065239 -0.000204 -40.492096
v -43.493446 -0.000204 -40.469776
v -43.012402 -0.000204 -39.232105
v -44.567444 -0.000204 -37.827915
v -44.758755 -0.000204 -36.390484
v -45.659065 -0.000204 -37.084126
v -41.744621 0.999796 -41.646904
v -40.213253 0.999796 -46.206642
v -47.097496 0.999796 -46.581955
v -52.089214 0.999795 -46.784088
v -43.354424 0.999795 -47.771809
v -51.655739 0.999795 -50.859928
v -58.739475 0.999795 -52.464684
v -50.895294 0.999795 -48.324867
v -51.800781 0.999795 -30.751080
v -51.719810 0.999795 -31.665173
v -51.060165 0.999795 -31.693762
v -49.837280 0.999795 -32.676872
v -47.989433 0.999795 -33.230515
v -45.755886 0.999795 -32.365631
v -59.855598 0.999795 -52.449844
v -65.946327 0.999796 -36.115971
v -67.533363 0.999796 -37.263153
v -53.621563 0.999795 -31.065895
v -55.547539 0.999795 -32.592808
v -57.322979 0.999795 -32.082825
v -58.608429 0.999795 -32.297863
v -60.006409 0.999795 -33.513988
v -60.537697 0.999795 -31.864784
v -63.293472 0.999795 -32.528622
v -62.165939 0.999796 -34.400726
v -64.356003 0.999796 -35.375252
v -64.736565 0.999796 -35.866440
v -43.482372 0.999796 -42.517849
v -46.388760 0.999796 -35.862782
v -44.884388 0.999796 -35.732536
v -45.717278 0.999796 -34.083332
v -69.583992 0.999796 -40.426449
v -69.825111 0.999796 -42.222694
v -72.056633 0.999796 -42.444714
v -72.116913 0.999796 -43.578094
v -71.853821 0.999796 -45.321785
v -70.472778 0.999795 -46.839149
v -67.456558 0.999795 -46.771133
v -64.576035 0.999795 -51.011608
v -61.966999 0.999795 -50.280754
v -44.910709 0.999796 -42.279152
v -45.065239 0.999796 -40.492096
v -43.493446 0.999796 -40.469776
v -43.012402 0.999796 -39.232105
v -44.567444 0.999796 -37.827915
v -44.758755 0.999796 -36.390484
v -45.659065 0.999796 -37.084126
vt 0.396934 0.341748
vt 0.421991 0.339714
vt 0.425980 0.357617
vt 0.415236 0.375108
vt 0.409984 0.400685
vt 0.419301 0.396566
vt 0.431205 0.403612
vt 0.430436 0.441565
vt 0.428957 0.447208
vt 0.415298 0.455190
vt 0.415725 0.469345
vt 0.390591 0.478624
vt 0.387142 0.494010
vt 0.377708 0.499108
vt 0.368532 0.498249
vt 0.362858 0.496518
vt 0.364538 0.484919
vt 0.355730 0.481436
vt 0.342262 0.467055
vt 0.338439 0.457562
vt 0.338694 0.451111
vt 0.336681 0.448563
vt 0.334492 0.436228
vt 0.323577 0.439593
vt 0.323675 0.424778
vt 0.332710 0.424157
vt 0.328299 0.415536
vt 0.328825 0.408745
vt 0.333645 0.400380
vt 0.328321 0.388689
vt 0.329014 0.379057
vt 0.333753 0.379796
vt 0.334728 0.376486
vt 0.341253 0.371519
vt 0.346385 0.362841
vt 0.344807 0.350423
vt 0.353569 0.352388
vt 0.362983 0.350237
vt 0.361751 0.358032
vt 0.368865 0.355866
vt 0.366478 0.350427
vt 0.374011 0.351264
vt 0.383090 0.345142
vt 0.388763 0.349139
vt 0.386900 0.357140
vt 0.396159 0.358604
vt 0.399167 0.351658
vt 0.336681 0.448563
vt 0.334492 0.436228
vt 0.341253 0.371519
vt 0.346385 0.362841
vt 0.415725 0.469345
vt 0.390591 0.478624
vt 0.338694 0.451111
vt 0.344807 0.350423
vt 0.415298 0.455190
vt 0.338439 0.457562
vt 0.425980 0.357617
vt 0.415236 0.375108
vt 0.428957 0.447208
vt 0.399167 0.351658
vt 0.396934 0.341748
vt 0.409984 0.400685
vt 0.419301 0.396566
vt 0.396159 0.358604
vt 0.362983 0.350237
vt 0.361751 0.358032
vt 0.430436 0.441565
vt 0.386900 0.357140
vt 0.353569 0.352388
vt 0.342262 0.467055
vt 0.388763 0.349139
vt 0.421991 0.339714
vt 0.328321 0.388689
vt 0.329014 0.379057
vt 0.333645 0.400380
vt 0.383090 0.345142
vt 0.355730 0.481436
vt 0.328825 0.408745
vt 0.374011 0.351264
vt 0.364538 0.484919
vt 0.328299 0.415536
vt 0.366478 0.350427
vt 0.431205 0.403612
vt 0.362858 0.496518
vt 0.332710 0.424157
vt 0.368865 0.355866
vt 0.368532 0.498249
vt 0.323675 0.424778
vt 0.333753 0.379796
vt 0.377708 0.499108
vt 0.323577 0.439593
vt 0.334728 0.376486
vt 0.387142 0.494010
vn -0.0000 1.0000 -0.0000
vn -0.4065 0.0000 0.9136
vn 0.2870 0.0000 0.9579
vn -0.8272 0.0000 -0.5619
vn -0.7905 0.0000 0.6125
vn -0.3611 0.0000 0.9325
vn 0.2697 0.0000 -0.9629
vn -0.2020 0.0000 0.9794
vn -0.3029 0.0000 -0.9530
vn -0.7166 0.0000 -0.6975
vn -0.4481 0.0000 0.8940
vn 0.7905 0.0000 0.6125
vn 0.1648 0.0000 0.9863
vn 0.0863 0.0000 -0.9963
vn -0.0133 0.0000 -0.9999
vn 0.9963 0.0000 0.0862
vn 0.8926 0.0000 0.4508
vn -0.5858 0.0000 0.8104
vn 0.0142 0.0000 -0.9999
vn 0.9480 0.0000 0.3184
vn -0.1704 0.0000 0.9854
vn -0.6212 0.0000 0.7836
vn 0.9321 0.0000 -0.3623
vn 0.0405 0.0000 -0.9992
vn -0.8391 0.0000 0.5440
vn 0.2761 0.0000 0.9611
vn 0.6702 0.0000 0.7422
vn 0.4460 0.0000 -0.8950
vn -0.9911 0.0000 0.1330
vn -0.1650 0.0000 0.9863
vn 0.9913 0.0000 0.1319
vn 0.2209 0.0000 -0.9753
vn -0.0990 0.0000 0.9951
vn -0.6563 0.0000 0.7545
vn -0.6103 0.0000 0.7922
vn 0.9578 0.0000 -0.2873
vn -0.9986 0.0000 0.0531
vn 0.9518 0.0000 0.3066
vn 0.8585 0.0000 0.5129
vn 0.9961 0.0000 0.0882
vn -0.9888 0.0000 -0.1492
vn -0.2342 0.0000 0.9722
vn 0.9997 0.0000 0.0225
vn 0.0433 0.0000 0.9991
vn -0.7395 0.0000 -0.6731
vn -0.8566 0.0000 -0.5159
vn 0.6266 0.0000 0.7794
vn 0.0225 0.0000 -0.9997
s off
f 48/1/1 49/2/1 52/3/1 50/4/1 51/5/1 55/6/1 53/7/1 54/8/1 62/9/1 87/10/1 86/11/1 85/12/1 84/13/1 83/14/1 82/15/1 81/16/1 80/17/1 79/18/1 64/19/1 63/20/1 74/21/1 73/22/1 72/23/1 71/24/1 70/25/1 69/26/1 68/27/1 67/28/1 66/29/1 65/30/1 56/31/1 57/32/1 58/33/1 59/34/1 60/35/1 61/36/1 78/37/1 77/38/1 76/39/1 94/40/1 93/41/1 92/42/1 91/43/1 90/44/1 89/45/1 88/46/1 75/47/1
f 24/48/2 23/49/2 72/23/2 73/22/2
f 10/50/3 11/51/3 60/35/3 59/34/3
f 38/52/4 37/53/4 85/12/4 86/11/4
f 25/54/5 24/48/5 73/22/5 74/21/5
f 11/51/6 12/55/6 61/36/6 60/35/6
f 39/56/7 38/52/7 86/11/7 87/10/7
f 26/57/8 25/54/8 74/21/8 63/20/8
f 4/58/9 13/59/9 50/4/9 52/3/9
f 40/60/10 39/56/10 87/10/10 62/9/10
f 27/61/11 2/62/11 48/1/11 75/47/11
f 3/63/12 14/64/12 55/6/12 51/5/12
f 41/65/13 27/61/13 75/47/13 88/46/13
f 29/66/14 28/67/14 76/39/14 77/38/14
f 5/68/15 40/60/15 62/9/15 54/8/15
f 42/69/16 41/65/16 88/46/16 89/45/16
f 30/70/17 29/66/17 77/38/17 78/37/17
f 15/71/18 26/57/18 63/20/18 64/19/18
f 43/72/19 42/69/19 89/45/19 90/44/19
f 2/62/20 1/73/20 49/2/20 48/1/20
f 16/74/21 7/75/21 56/31/21 65/30/21
f 17/76/22 16/74/22 65/30/22 66/29/22
f 44/77/23 43/72/23 90/44/23 91/43/23
f 13/59/24 3/63/24 51/5/24 50/4/24
f 31/78/25 15/71/25 64/19/25 79/18/25
f 18/79/26 17/76/26 66/29/26 67/28/26
f 45/80/27 44/77/27 91/43/27 92/42/27
f 1/73/28 4/58/28 52/3/28 49/2/28
f 32/81/29 31/78/29 79/18/29 80/17/29
f 19/82/30 18/79/30 67/28/30 68/27/30
f 46/83/31 45/80/31 92/42/31 93/41/31
f 6/84/32 5/68/32 54/8/32 53/7/32
f 33/85/33 32/81/33 80/17/33 81/16/33
f 20/86/34 19/82/34 68/27/34 69/26/34
f 47/87/35 46/83/35 93/41/35 94/40/35
f 14/64/36 6/84/36 53/7/36 55/6/36
f 34/88/37 33/85/37 81/16/37 82/15/37
f 21/89/38 20/86/38 69/26/38 70/25/38
f 28/67/39 47/87/39 94/40/39 76/39/39
f 7/75/40 8/90/40 57/32/40 56/31/40
f 35/91/41 34/88/41 82/15/41 83/14/41
f 22/92/42 21/89/42 70/25/42 71/24/42
f 12/55/43 30/70/43 78/37/43 61/36/43
f 8/90/44 9/93/44 58/33/44 57/32/44
f 36/94/45 35/91/45 83/14/45 84/13/45
f 23/49/46 22/92/46 71/24/46 72/23/46
f 9/93/47 10/50/47 59/34/47 58/33/47
f 37/53/48 36/94/48 84/13/48 85/12/48
