# Blender v2.92.0 OBJ File: 'world.blend'
# www.blender.org
v -76.672760 -0.000204 -46.426422
v -77.603081 -0.000205 -46.807858
v -79.278625 -0.000204 -46.322536
v -79.561302 -0.000204 -45.731739
v -82.535347 -0.000204 -45.691322
v -82.105965 -0.000205 -46.893810
v -83.058884 -0.000205 -48.355225
v -85.865417 -0.000205 -47.400005
v -86.504173 -0.000204 -46.070789
v -89.121689 -0.000204 -46.279602
v -92.825981 -0.000204 -44.743023
v -96.074203 -0.000204 -46.069878
v -98.996788 -0.000204 -45.308857
v -101.266335 -0.000205 -48.858845
v -106.387810 -0.000205 -47.634644
v -107.201797 -0.000204 -45.371429
v -102.703476 -0.000205 -50.144730
v -100.817711 -0.000205 -49.242065
v -104.894760 -0.000205 -49.708805
v -108.881073 -0.000204 -44.954319
v -109.146935 -0.000204 -46.203838
v -107.110336 -0.000205 -49.393295
v -110.507927 -0.000205 -51.233231
v -110.405495 -0.000205 -52.800705
v -105.881905 -0.000205 -52.800705
v -102.831993 -0.000205 -53.196548
v -106.229744 -0.000205 -55.189140
v -103.548294 -0.000205 -55.820610
v -87.014603 -0.000204 -64.014473
v -77.184029 -0.000205 -52.339661
v -78.919853 -0.000205 -52.234116
v -75.229004 -0.000205 -49.935234
v -81.080566 -0.000205 -52.800705
v -81.158119 -0.000204 -56.512520
v -86.059921 -0.000204 -58.430122
v -84.453979 -0.000204 -63.098351
v -93.965523 -0.000204 -58.723686
v -99.634193 -0.000204 -58.977646
v -93.231064 -0.000204 -61.966026
v -76.672760 0.999796 -46.426422
v -77.603081 0.999795 -46.807858
v -79.278625 0.999796 -46.322536
v -79.561302 0.999796 -45.731739
v -82.535347 0.999796 -45.691322
v -82.105965 0.999795 -46.893810
v -83.058884 0.999795 -48.355225
v -85.865417 0.999795 -47.400005
v -86.504173 0.999796 -46.070789
v -89.121689 0.999796 -46.279602
v -92.825981 0.999796 -44.743023
v -96.074203 0.999796 -46.069878
v -98.996788 0.999796 -45.308857
v -101.266335 0.999795 -48.858845
v -104.894760 0.999795 -49.708805
v -106.387810 0.999795 -47.634644
v -107.201797 0.999796 -45.371429
v -102.703476 0.999795 -50.144730
v -100.817711 0.999795 -49.242065
v -108.881073 0.999796 -44.954319
v -109.146935 0.999796 -46.203838
v -107.110336 0.999795 -49.393295
v -110.507927 0.999795 -51.233231
v -110.405495 0.999795 -52.800705
v -105.881905 0.999795 -52.800705
v -102.831993 0.999795 -53.196548
v -106.229744 0.999795 -55.189140
v -103.548294 0.999795 -55.820610
v -99.634193 0.999796 -58.977646
v -84.453979 0.999796 -63.098351
v -87.014603 0.999796 -64.014473
v -75.229004 0.999795 -49.935234
v -77.184029 0.999795 -52.339661
v -78.919853 0.999795 -52.234116
v -81.080566 0.999795 -52.800705
v -81.158119 0.999796 -56.512520
v -86.059921 0.999796 -58.430122
v -93.231064 0.999796 -61.966026
v -93.965523 0.999796 -58.723686
vt 0.377251 0.524942
vt 0.396866 0.522031
vt 0.406605 0.534973
vt 0.403886 0.543646
vt 0.404043 0.555319
vt 0.422775 0.560381
vt 0.426337 0.587659
vt 0.452038 0.585383
vt 0.453465 0.599525
vt 0.435255 0.628483
vt 0.417884 0.628131
vt 0.412043 0.657207
vt 0.391105 0.673092
vt 0.384529 0.685900
vt 0.378694 0.666158
vt 0.372851 0.681131
vt 0.367161 0.704079
vt 0.359081 0.702627
vt 0.354020 0.683078
vt 0.335280 0.689397
vt 0.329275 0.686477
vt 0.333503 0.678483
vt 0.346008 0.677200
vt 0.358407 0.672235
vt 0.363375 0.661667
vt 0.361167 0.650966
vt 0.358659 0.652760
vt 0.343505 0.636782
vt 0.351041 0.622914
vt 0.348396 0.604767
vt 0.360849 0.587909
vt 0.363082 0.574368
vt 0.370628 0.572799
vt 0.379004 0.559764
vt 0.372789 0.553092
vt 0.366149 0.553758
vt 0.370094 0.538722
vt 0.373447 0.538031
vt 0.378016 0.530141
vt 0.384529 0.685900
vt 0.378694 0.666158
vt 0.358659 0.652760
vt 0.343505 0.636782
vt 0.391105 0.673092
vt 0.346008 0.677200
vt 0.358407 0.672235
vt 0.378016 0.530141
vt 0.377251 0.524942
vt 0.412043 0.657207
vt 0.333503 0.678483
vt 0.373447 0.538031
vt 0.452038 0.585383
vt 0.453465 0.599525
vt 0.363375 0.661667
vt 0.370094 0.538722
vt 0.396866 0.522031
vt 0.406605 0.534973
vt 0.361167 0.650966
vt 0.366149 0.553758
vt 0.403886 0.543646
vt 0.372789 0.553092
vt 0.329275 0.686477
vt 0.379004 0.559764
vt 0.404043 0.555319
vt 0.335280 0.689397
vt 0.370628 0.572799
vt 0.422775 0.560381
vt 0.354020 0.683078
vt 0.363082 0.574368
vt 0.426337 0.587659
vt 0.359081 0.702627
vt 0.360849 0.587909
vt 0.367161 0.704079
vt 0.348396 0.604767
vt 0.435255 0.628483
vt 0.417884 0.628131
vt 0.372851 0.681131
vt 0.351041 0.622914
vn -0.0000 1.0000 -0.0000
vn -0.5059 0.0000 0.8626
vn -0.8425 0.0000 0.5386
vn -0.2292 0.0000 -0.9734
vn 0.8116 0.0000 0.5842
vn -0.3794 0.0000 0.9253
vn -0.6278 0.0000 -0.7784
vn 0.9410 0.0000 0.3384
vn 0.2782 0.0000 0.9605
vn 0.3369 0.0000 -0.9416
vn 0.1951 0.0000 0.9808
vn 0.9021 0.0000 0.4316
vn 0.7759 0.0000 -0.6309
vn -0.4318 0.0000 0.9020
vn 0.0136 0.0000 0.9999
vn -0.0607 0.0000 -0.9982
vn -0.6495 0.0000 -0.7604
vn -0.9418 0.0000 -0.3363
vn 0.9248 0.0000 0.3805
vn 0.2411 0.0000 0.9705
vn -0.8377 0.0000 0.5462
vn 0.2536 0.0000 -0.9673
vn -0.9781 0.0000 0.2081
vn 0.3222 0.0000 0.9467
vn 0.9998 0.0000 -0.0209
vn -0.8428 0.0000 -0.5382
vn 0.9013 0.0000 0.4331
vn 0.3643 0.0000 -0.9313
vn -0.4762 0.0000 0.8793
vn -0.0795 0.0000 0.9968
vn 0.9456 0.0000 0.3253
vn -0.9979 0.0000 -0.0652
vn 0.3832 0.0000 0.9237
vn -0.9753 0.0000 -0.2209
vn 0.0000 0.0000 -1.0000
vn -0.3782 0.0000 0.9257
vn 0.0448 0.0000 -0.9990
vn -0.1287 0.0000 -0.9917
vn 0.2520 0.0000 0.9677
vn -0.3130 0.0000 -0.9498
s off
f 40/1/1 71/2/1 72/3/1 73/4/1 74/5/1 75/6/1 76/7/1 69/8/1 70/9/1 77/10/1 78/11/1 68/12/1 67/13/1 66/14/1 65/15/1 64/16/1 63/17/1 62/18/1 61/19/1 60/20/1 59/21/1 56/22/1 55/23/1 54/24/1 57/25/1 58/26/1 53/27/1 52/28/1 51/29/1 50/30/1 49/31/1 48/32/1 47/33/1 46/34/1 45/35/1 44/36/1 43/37/1 42/38/1 41/39/1
f 27/40/2 26/41/2 65/15/2 66/14/2
f 14/42/3 13/43/3 52/28/3 53/27/3
f 28/44/4 27/40/4 66/14/4 67/13/4
f 15/45/5 19/46/5 54/24/5 55/23/5
f 2/47/6 1/48/6 40/1/6 41/39/6
f 38/49/7 28/44/7 67/13/7 68/12/7
f 16/50/8 15/45/8 55/23/8 56/22/8
f 3/51/9 2/47/9 41/39/9 42/38/9
f 36/52/10 29/53/10 70/9/10 69/8/10
f 19/46/11 17/54/11 57/25/11 54/24/11
f 4/55/12 3/51/12 42/38/12 43/37/12
f 32/56/13 30/57/13 72/3/13 71/2/13
f 17/54/14 18/58/14 58/26/14 57/25/14
f 5/59/15 4/55/15 43/37/15 44/36/15
f 30/57/16 31/60/16 73/4/16 72/3/16
f 18/58/17 14/42/17 53/27/17 58/26/17
f 6/61/18 5/59/18 44/36/18 45/35/18
f 1/48/19 32/56/19 71/2/19 40/1/19
f 20/62/20 16/50/20 56/22/20 59/21/20
f 7/63/21 6/61/21 45/35/21 46/34/21
f 31/60/22 33/64/22 74/5/22 73/4/22
f 21/65/23 20/62/23 59/21/23 60/20/23
f 8/66/24 7/63/24 46/34/24 47/33/24
f 33/64/25 34/67/25 75/6/25 74/5/25
f 22/68/26 21/65/26 60/20/26 61/19/26
f 9/69/27 8/66/27 47/33/27 48/32/27
f 34/67/28 35/70/28 76/7/28 75/6/28
f 23/71/29 22/68/29 61/19/29 62/18/29
f 10/72/30 9/69/30 48/32/30 49/31/30
f 35/70/31 36/52/31 69/8/31 76/7/31
f 24/73/32 23/71/32 62/18/32 63/17/32
f 11/74/33 10/72/33 49/31/33 50/30/33
f 39/75/34 37/76/34 78/11/34 77/10/34
f 25/77/35 24/73/35 63/17/35 64/16/35
f 12/78/36 11/74/36 50/30/36 51/29/36
f 37/76/37 38/49/37 68/12/37 78/11/37
f 26/41/38 25/77/38 64/16/38 65/15/38
f 13/43/39 12/78/39 51/29/39 52/28/39
f 29/53/40 39/75/40 77/10/40 70/9/40
