# Blender v2.92.0 OBJ File: 'world.blend'
# www.blender.org
v -118.611961 -0.000204 -40.291370
v -120.034767 -0.000204 -36.999039
v -111.362915 -0.000205 -29.269972
v -111.375938 -0.000205 -28.104120
v -113.721428 -0.000205 -30.848795
v -118.158257 -0.000205 -33.209320
v -121.778900 -0.000204 -38.254078
v -121.822334 -0.000204 -39.290157
v -120.409622 -0.000204 -37.871742
v -117.205658 -0.000204 -37.566792
v -117.403961 -0.000204 -36.529911
v -118.145332 -0.000204 -36.791122
v -118.733032 -0.000204 -34.036835
v -117.458099 -0.000204 -34.690628
v -117.738480 -0.000204 -36.091560
v -115.061302 -0.000205 -29.810566
v -113.403923 -0.000205 -29.763876
v -113.965034 -0.000205 -28.876587
v -111.338531 -0.000205 -30.627798
v -109.783112 -0.000205 -29.553720
v -111.932373 -0.000205 -29.645815
v -111.204063 -0.000205 -29.573307
v -112.749283 -0.000205 -29.961588
v -110.406723 -0.000205 -28.896019
v -110.928017 -0.000205 -28.744070
v -112.373940 -0.000205 -29.549942
v -118.611961 0.999796 -40.291370
v -121.822334 0.999796 -39.290157
v -120.409622 0.999796 -37.871742
v -120.034767 0.999796 -36.999039
v -111.960670 0.999795 -29.225651
v -111.362915 0.999795 -29.269972
v -118.145332 0.999796 -36.791122
v -111.855606 0.999795 -28.721876
v -111.375938 0.999795 -28.104120
v -118.464096 0.999796 -38.184052
v -110.406723 0.999795 -28.896019
v -116.852684 0.999795 -33.148617
v -118.158257 0.999795 -33.209320
v -117.984657 0.999795 -30.816154
v -118.733032 0.999796 -34.036835
v -118.860481 0.999796 -35.204319
v -117.738480 0.999796 -36.091560
v -115.061302 0.999795 -29.810566
v -109.783112 0.999795 -29.553720
v -113.403923 0.999795 -29.763876
v -110.928017 0.999795 -28.744070
v -118.938477 -0.000204 -40.676464
v -120.565384 -0.000204 -39.158813
v -111.960670 -0.000205 -29.225651
v -111.855606 -0.000205 -28.721876
v -108.705269 -0.000205 -28.612757
v -109.553673 -0.000205 -29.095381
v -109.717834 -0.000205 -26.917635
v -110.699150 -0.000205 -28.183250
v -116.852684 -0.000205 -33.148617
v -117.984657 -0.000205 -30.816154
v -117.755074 -0.000204 -37.547764
v -118.856789 -0.000204 -37.541962
v -118.464096 -0.000204 -38.184052
v -117.727158 -0.000204 -38.426308
v -118.860481 -0.000204 -35.204319
v -110.726608 -0.000205 -29.203491
v -113.352859 -0.000205 -28.946604
v -117.177734 -0.000204 -35.437809
v -109.506767 -0.000205 -28.021584
v -109.127777 -0.000205 -27.176611
v -112.494987 -0.000205 -28.593891
v -112.875847 -0.000205 -29.437340
v -112.904915 -0.000205 -29.063063
v -118.938477 0.999796 -40.676464
v -120.565384 0.999796 -39.158813
v -121.778900 0.999796 -38.254078
v -118.856789 0.999796 -37.541962
v -117.755074 0.999796 -37.547764
v -109.553673 0.999795 -29.095381
v -108.705269 0.999795 -28.612757
v -110.699150 0.999795 -28.183250
v -109.717834 0.999795 -26.917635
v -113.721428 0.999795 -30.848795
v -117.727158 0.999796 -38.426308
v -117.205658 0.999796 -37.566792
v -117.403961 0.999796 -36.529911
v -117.458099 0.999796 -34.690628
v -113.965034 0.999795 -28.876587
v -110.726608 0.999795 -29.203491
v -111.204063 0.999795 -29.573307
v -111.932373 0.999795 -29.645815
v -112.749283 0.999795 -29.961588
v -111.338531 0.999795 -30.627798
v -113.352859 0.999795 -28.946604
v -117.177734 0.999796 -35.437809
v -109.506767 0.999795 -28.021584
v -109.127777 0.999795 -27.176611
v -112.373940 0.999795 -29.549942
v -112.494987 0.999795 -28.593891
v -112.904915 0.999795 -29.063063
v -112.875847 0.999795 -29.437340
vt 0.389787 0.311959
vt 0.392155 0.293576
vt 0.385160 0.285707
vt 0.392383 0.280968
vt 0.401622 0.288377
vt 0.409349 0.286675
vt 0.411398 0.297285
vt 0.416710 0.304769
vt 0.419935 0.298452
vt 0.425305 0.302201
vt 0.419251 0.308580
vt 0.410900 0.309226
vt 0.408960 0.303061
vt 0.393979 0.312298
vt 0.444113 0.280965
vt 0.461153 0.270514
vt 0.482160 0.285413
vt 0.493807 0.288295
vt 0.496307 0.292779
vt 0.490528 0.296403
vt 0.492370 0.301794
vt 0.498475 0.305789
vt 0.502504 0.310366
vt 0.507326 0.311801
vt 0.509539 0.319887
vt 0.494714 0.314578
vt 0.481643 0.299525
vt 0.450867 0.289506
vt 0.437490 0.292899
vt 0.433795 0.298426
vt 0.426646 0.297807
vt 0.427200 0.285904
vt 0.435721 0.281095
vt 0.513756 0.319214
vt 0.510961 0.312472
vt 0.514364 0.307030
vt 0.527697 0.307523
vt 0.528811 0.312775
vt 0.521251 0.314315
vt 0.521143 0.322611
vt 0.501181 0.303556
vt 0.496979 0.302335
vt 0.495303 0.298391
vt 0.497695 0.296376
vt 0.502861 0.296871
vt 0.505101 0.301820
vt 0.511612 0.302065
vt 0.509457 0.308206
vt 0.503785 0.307817
vt 0.321527 0.053537
vt 0.326633 0.053537
vt 0.326633 0.060425
vt 0.321527 0.060425
vt 0.361281 0.053537
vt 0.357823 0.053537
vt 0.357823 0.060425
vt 0.361281 0.060425
vt 0.468807 0.022744
vt 0.463595 0.022744
vt 0.463595 0.029632
vt 0.468807 0.029632
vt 0.372627 0.053537
vt 0.379126 0.053537
vt 0.379126 0.060425
vt 0.372627 0.060425
vt 0.444623 0.022744
vt 0.438923 0.022744
vt 0.438923 0.029632
vt 0.444623 0.029632
vt 0.296499 0.053537
vt 0.305930 0.053537
vt 0.305930 0.060425
vt 0.296499 0.060425
vt 0.350321 0.053537
vt 0.354538 0.053537
vt 0.354538 0.060425
vt 0.350321 0.060425
vt 0.438505 0.022744
vt 0.449127 0.022744
vt 0.449127 0.029632
vt 0.438505 0.029632
vt 0.408014 0.022744
vt 0.403758 0.022744
vt 0.403758 0.029632
vt 0.408014 0.029632
vt 0.409562 0.022744
vt 0.415191 0.022744
vt 0.415191 0.029632
vt 0.409562 0.029632
vt 0.452665 0.022744
vt 0.452665 0.029632
vt 0.454273 0.022744
vt 0.454273 0.029632
vt 0.409213 0.022744
vt 0.404304 0.022744
vt 0.404304 0.029632
vt 0.409213 0.029632
vt 0.473190 0.022744
vt 0.487705 0.022744
vt 0.487705 0.029632
vt 0.473190 0.029632
vt 0.458776 0.022744
vt 0.458776 0.029632
vt 0.324329 0.053537
vt 0.316601 0.053537
vt 0.316601 0.060425
vt 0.324329 0.060425
vt 0.322634 0.053537
vt 0.342770 0.053537
vt 0.342770 0.060425
vt 0.322634 0.060425
vt 0.490358 0.022744
vt 0.490358 0.029632
vt 0.380707 0.053537
vt 0.374831 0.053537
vt 0.374831 0.060425
vt 0.380707 0.060425
vt 0.304857 0.053537
vt 0.296199 0.053537
vt 0.296199 0.060425
vt 0.304857 0.060425
vt 0.369339 0.053537
vt 0.369339 0.060425
vt 0.351999 0.053537
vt 0.330431 0.053537
vt 0.330431 0.060425
vt 0.351999 0.060425
vt 0.408166 0.022744
vt 0.408166 0.029632
vt 0.480809 0.022744
vt 0.473672 0.022744
vt 0.473672 0.029632
vt 0.480809 0.029632
vt 0.358695 0.053537
vt 0.364322 0.053537
vt 0.364322 0.060425
vt 0.358695 0.060425
vt 0.468938 0.022744
vt 0.474858 0.022744
vt 0.474858 0.029632
vt 0.468938 0.029632
vt 0.411789 0.022744
vt 0.411789 0.029632
vt 0.471038 0.022744
vt 0.465027 0.022744
vt 0.465027 0.029632
vt 0.471038 0.029632
vt 0.368413 0.053537
vt 0.368413 0.060425
vt 0.324407 0.053537
vt 0.319331 0.053537
vt 0.319331 0.060425
vt 0.324407 0.060425
vt 0.364127 0.053537
vt 0.364127 0.060425
vt 0.422439 0.022744
vt 0.422439 0.029632
vt 0.360447 0.053537
vt 0.364851 0.053537
vt 0.364851 0.060425
vt 0.360447 0.060425
vt 0.308512 0.053537
vt 0.316626 0.053537
vt 0.316626 0.060425
vt 0.308512 0.060425
vt 0.461796 0.022744
vt 0.461796 0.029632
vt 0.368245 0.053537
vt 0.368245 0.060425
vt 0.354186 0.053537
vt 0.354186 0.060425
vt 0.410364 0.022744
vt 0.407132 0.022744
vt 0.407132 0.029632
vt 0.410364 0.029632
vt 0.386551 0.053537
vt 0.386551 0.060425
vt 0.324215 0.053537
vt 0.324215 0.060425
vt 0.381030 0.053537
vt 0.381030 0.060425
vt 0.395586 0.022744
vt 0.395586 0.029632
vt 0.379576 0.053537
vt 0.383640 0.053537
vt 0.383640 0.060425
vt 0.379576 0.060425
vt 0.397370 0.022744
vt 0.403190 0.022744
vt 0.403190 0.029632
vt 0.397370 0.029632
vt 0.316064 0.053537
vt 0.316064 0.060425
vt 0.412942 0.022744
vt 0.412942 0.029632
vn 0.0000 1.0000 0.0000
vn -0.3323 0.0000 0.9432
vn -0.2189 0.0000 -0.9757
vn -0.8887 0.0000 -0.4584
vn 0.3480 0.0000 0.9375
vn -0.8213 0.0000 0.5705
vn -0.2689 0.0000 0.9632
vn 0.1136 0.0000 0.9935
vn 0.9308 0.0000 -0.3655
vn -0.7899 0.0000 0.6133
vn 0.9981 0.0000 -0.0624
vn -0.9941 0.0000 0.1085
vn 0.9363 0.0000 0.3513
vn -0.9252 0.0000 -0.3796
vn 0.9975 0.0000 -0.0700
vn 0.7590 0.0000 -0.6511
vn -0.6203 0.0000 -0.7844
vn -0.3253 0.0000 0.9456
vn 0.7627 0.0000 -0.6467
vn -0.6485 0.0000 0.7612
vn -0.2276 0.0000 -0.9738
vn 0.1039 0.0000 -0.9946
vn -0.6124 0.0000 0.7906
vn 0.5920 0.0000 -0.8060
vn 0.8193 0.0000 0.5734
vn -0.9991 0.0000 0.0419
vn -0.3605 0.0000 0.9327
vn 0.8549 0.0000 -0.5187
vn 0.7706 0.0000 -0.6373
vn -0.9188 0.0000 0.3947
vn 0.0923 0.0000 -0.9957
vn -0.3123 0.0000 -0.9500
vn 0.6173 0.0000 -0.7867
vn -0.0991 0.0000 0.9951
vn -0.9974 0.0000 0.0723
vn 0.1963 0.0000 0.9805
vn 0.4186 0.0000 0.9082
vn 0.5682 0.0000 -0.8229
vn 0.9822 0.0000 0.1878
vn -0.0739 0.0000 -0.9973
vn 0.2891 0.0000 0.9573
vn -0.7531 0.0000 0.6580
vn 0.4945 0.0000 -0.8692
vn 0.0053 0.0000 1.0000
vn 0.5936 0.0000 0.8048
vn -0.7903 0.0000 0.6128
vn 0.4019 0.0000 0.9157
vn 0.9124 0.0000 -0.4092
vn -0.6821 0.0000 -0.7312
vn -0.9970 0.0000 -0.0774
s off
f 71/1/1 72/2/1 28/3/1 73/4/1 29/5/1 30/6/1 74/7/1 75/8/1 33/9/1 83/10/1 82/11/1 81/12/1 36/13/1 27/14/1
f 39/15/1 40/16/1 44/17/1 85/18/1 91/19/1 46/20/1 89/21/1 88/22/1 87/23/1 86/24/1 45/25/1 90/26/1 80/27/1 38/28/1 84/29/1 92/30/1 43/31/1 42/32/1 41/33/1
f 76/34/1 37/35/1 78/36/1 79/37/1 94/38/1 93/39/1 77/40/1
f 31/41/1 95/42/1 98/43/1 97/44/1 96/45/1 34/46/1 35/47/1 47/48/1 32/49/1
f 12/50/2 11/51/2 83/52/2 33/53/2
f 26/54/3 69/55/3 98/56/3 95/57/3
f 58/58/4 12/59/4 33/60/4 75/61/4
f 63/62/5 20/63/5 45/64/5 86/65/5
f 13/66/6 6/67/6 39/68/6 41/69/6
f 7/70/7 9/71/7 29/72/7 73/73/7
f 18/74/8 64/75/8 91/76/8 85/77/8
f 56/78/9 14/79/9 84/80/9 38/81/9
f 51/82/10 4/83/10 35/84/10 34/85/10
f 64/86/11 17/87/11 46/88/11 91/89/11
f 62/90/12 13/66/12 41/69/12 42/91/12
f 14/79/13 65/92/13 92/93/13 84/80/13
f 24/94/14 55/95/14 78/96/14 37/97/14
f 60/98/15 1/99/15 27/100/15 36/101/15
f 65/92/16 15/102/16 43/103/16 92/93/16
f 15/104/17 62/105/17 42/106/17 43/107/17
f 57/108/18 16/109/18 44/110/18 40/111/18
f 1/99/19 48/112/19 71/113/19 27/100/19
f 16/109/20 18/74/20 85/77/20 44/110/20
f 53/114/21 24/115/21 37/116/21 76/117/21
f 49/118/22 8/119/22 28/120/22 72/121/22
f 22/122/23 63/62/23 86/65/23 87/123/23
f 5/124/24 56/125/24 38/126/24 80/127/24
f 4/83/25 25/128/25 47/129/25 35/84/25
f 8/130/26 7/131/26 73/132/26 28/133/26
f 23/134/27 21/135/27 88/136/27 89/137/27
f 10/138/28 61/139/28 81/140/28 82/141/28
f 25/128/29 3/142/29 32/143/29 47/129/29
f 9/144/30 2/145/30 30/146/30 29/147/30
f 19/148/31 5/124/31 80/127/31 90/149/31
f 61/150/32 60/151/32 36/152/32 81/153/32
f 50/154/33 26/54/33 95/57/33 31/155/33
f 21/135/34 22/122/34 87/123/34 88/136/34
f 6/67/35 57/156/35 40/157/35 39/68/35
f 68/158/36 51/159/36 34/160/36 96/161/36
f 2/162/37 59/163/37 74/164/37 30/165/37
f 20/63/38 19/148/38 90/149/38 45/64/38
f 11/166/39 10/138/39 82/141/39 83/167/39
f 3/168/40 50/154/40 31/155/40 32/169/40
f 17/170/41 23/134/41 89/137/41 46/171/41
f 70/172/42 68/173/42 96/174/42 97/175/42
f 52/176/43 53/114/43 76/117/43 77/177/43
f 59/163/44 58/178/44 75/179/44 74/164/44
f 66/180/45 52/176/45 77/177/45 93/181/45
f 55/95/46 54/182/46 79/183/46 78/96/46
f 54/184/47 67/185/47 94/186/47 79/187/47
f 67/188/48 66/189/48 93/190/48 94/191/48
f 48/192/49 49/118/49 72/121/49 71/193/49
f 69/194/50 70/172/50 97/175/50 98/195/50
