# Blender v2.92.0 OBJ File: 'world.blend'
# www.blender.org
v -29.306400 -0.000205 -26.917635
v -29.930946 -0.000205 -25.824675
v -23.885538 -0.000204 -36.888321
v -23.307028 -0.000204 -35.513649
v -41.505333 -0.000205 -33.458054
v -35.460564 -0.000204 -36.601757
v -37.157593 -0.000205 -11.008320
v -44.154079 -0.000205 -13.400518
v -50.689705 -0.000205 -19.234125
v -48.113033 -0.000205 -20.748413
v -47.876549 -0.000205 -22.754333
v -45.973572 -0.000205 -20.686777
v -43.716057 -0.000205 -20.901770
v -43.798653 -0.000205 -22.310713
v -43.384850 -0.000205 -22.385239
v -43.042007 -0.000205 -21.441397
v -40.713600 -0.000205 -25.835213
v -22.582405 -0.000204 -34.999596
v -23.631210 -0.000205 -32.102448
v -25.566685 -0.000205 -31.264894
v -30.900482 -0.000205 -31.825357
v -30.766998 -0.000205 -29.770216
v -28.113331 -0.000205 -31.122339
v -29.702805 -0.000205 -24.520073
v -33.269081 -0.000205 -19.638342
v -36.543072 -0.000205 -14.129421
v -28.574141 -0.000204 -37.037251
v -33.028221 -0.000204 -35.894131
v -26.886150 -0.000204 -36.004932
v -25.007523 -0.000204 -36.055073
v -25.045736 -0.000204 -36.151932
v -25.662636 -0.000204 -35.734955
v -51.492043 -0.000205 -26.116335
v -52.352386 -0.000205 -26.917635
v -51.509823 -0.000205 -27.045698
v -51.241024 -0.000205 -28.488426
v -51.800781 -0.000205 -30.751080
v -51.719810 -0.000205 -31.665173
v -51.060165 -0.000205 -31.693762
v -49.837280 -0.000205 -32.676872
v -47.989433 -0.000205 -33.230515
v -45.755886 -0.000205 -32.365631
v -42.517788 -0.000205 -26.440464
v -43.788509 -0.000205 -24.261623
v -46.310902 -0.000205 -22.915977
v -48.115116 -0.000205 -23.602516
v -48.565109 -0.000205 -22.297520
v -52.051842 -0.000205 -21.724102
v -52.378746 -0.000205 -22.918692
v -53.382702 -0.000205 -23.137829
v -53.032440 -0.000205 -24.535635
v -45.701759 -0.000205 -31.900509
v -42.537041 -0.000205 -32.472591
v -41.692959 -0.000205 -32.617741
v -43.996624 -0.000205 -31.688623
v -29.737879 -0.000205 -31.873131
v -26.319059 -0.000205 -31.953075
v -47.987358 -0.000205 -15.601738
v -29.930946 0.999795 -25.824675
v -29.306400 0.999795 -26.917635
v -23.307028 0.999796 -35.513649
v -23.885538 0.999796 -36.888321
v -35.460564 0.999796 -36.601757
v -41.505333 0.999795 -33.458054
v -41.692959 0.999795 -32.617741
v -33.028221 0.999796 -35.894131
v -36.543072 0.999795 -14.129421
v -37.157593 0.999795 -11.008320
v -44.154079 0.999795 -13.400518
v -47.987358 0.999795 -15.601738
v -50.689705 0.999795 -19.234125
v -48.113033 0.999795 -20.748413
v -47.876549 0.999795 -22.754333
v -45.973572 0.999795 -20.686777
v -43.716057 0.999795 -20.901770
v -43.798653 0.999795 -22.310713
v -43.384850 0.999795 -22.385239
v -43.042007 0.999795 -21.441397
v -40.713600 0.999795 -25.835213
v -25.662636 0.999796 -35.734955
v -22.582405 0.999796 -34.999596
v -23.631210 0.999795 -32.102448
v -25.566685 0.999795 -31.264894
v -29.737879 0.999795 -31.873131
v -30.900482 0.999795 -31.825357
v -30.766998 0.999795 -29.770216
v -28.113331 0.999795 -31.122339
v -29.702805 0.999795 -24.520073
v -33.269081 0.999795 -19.638342
v -26.886150 0.999796 -36.004932
v -28.574141 0.999796 -37.037251
v -25.045736 0.999796 -36.151932
v -25.007523 0.999796 -36.055073
v -53.032440 0.999795 -24.535635
v -51.492043 0.999795 -26.116335
v -52.352386 0.999795 -26.917635
v -51.509823 0.999795 -27.045698
v -51.241024 0.999795 -28.488426
v -51.800781 0.999795 -30.751080
v -51.719810 0.999795 -31.665173
v -51.060165 0.999795 -31.693762
v -49.837280 0.999795 -32.676872
v -47.989433 0.999795 -33.230515
v -45.755886 0.999795 -32.365631
v -42.517788 0.999795 -26.440464
v -43.788509 0.999795 -24.261623
v -46.310902 0.999795 -22.915977
v -48.115116 0.999795 -23.602516
v -48.565109 0.999795 -22.297520
v -52.051842 0.999795 -21.724102
v -52.378746 0.999795 -22.918692
v -53.382702 0.999795 -23.137829
v -45.701759 0.999795 -31.900509
v -43.996624 0.999795 -31.688623
v -42.537041 0.999795 -32.472591
v -26.319059 0.999795 -31.953075
vt 0.389010 0.240504
vt 0.395256 0.245167
vt 0.390061 0.250126
vt 0.387001 0.259278
vt 0.390115 0.269139
vt 0.378714 0.290296
vt 0.379244 0.303525
vt 0.355694 0.330235
vt 0.351196 0.330130
vt 0.349398 0.334229
vt 0.343585 0.340647
vt 0.342516 0.349564
vt 0.344807 0.350423
vt 0.346385 0.362841
vt 0.341253 0.371519
vt 0.334728 0.376486
vt 0.333753 0.379796
vt 0.329014 0.379057
vt 0.318240 0.373372
vt 0.310583 0.372921
vt 0.308874 0.377034
vt 0.305891 0.371662
vt 0.295935 0.377488
vt 0.288404 0.377507
vt 0.288555 0.372138
vt 0.282906 0.368978
vt 0.290200 0.352011
vt 0.297386 0.351370
vt 0.296173 0.341354
vt 0.306171 0.330251
vt 0.318822 0.326545
vt 0.318021 0.316631
vt 0.292804 0.322917
vt 0.297161 0.325843
vt 0.296262 0.327848
vt 0.289219 0.325657
vt 0.285289 0.336839
vt 0.293384 0.349093
vt 0.282911 0.347770
vt 0.271988 0.358936
vt 0.256961 0.340659
vt 0.250615 0.318445
vt 0.247279 0.279945
vt 0.263885 0.280753
vt 0.295948 0.271073
vt 0.325198 0.259122
vt 0.331529 0.261920
vt 0.337859 0.260126
vt 0.350492 0.271123
vt 0.360750 0.274385
vt 0.362454 0.268547
vt 0.360689 0.259362
vt 0.367160 0.251305
vt 0.364615 0.246623
vt 0.371298 0.237858
vt 0.387314 0.236181
vt 0.387170 0.252732
vt 0.389618 0.249811
vt 0.318822 0.326545
vt 0.318021 0.316631
vt 0.292804 0.322917
vt 0.297161 0.325843
vt 0.306171 0.330251
vt 0.296173 0.341354
vt 0.387314 0.236181
vt 0.387170 0.252732
vt 0.297386 0.351370
vt 0.371298 0.237858
vt 0.290200 0.352011
vt 0.364615 0.246623
vt 0.282906 0.368978
vt 0.360750 0.274385
vt 0.362454 0.268547
vt 0.288555 0.372138
vt 0.350492 0.271123
vt 0.288404 0.377507
vt 0.360689 0.259362
vt 0.295935 0.377488
vt 0.295948 0.271073
vt 0.325198 0.259122
vt 0.342516 0.349564
vt 0.344807 0.350423
vt 0.263885 0.280753
vt 0.349398 0.334229
vt 0.343585 0.340647
vt 0.387001 0.259278
vt 0.390115 0.269139
vt 0.351196 0.330130
vt 0.378714 0.290296
vt 0.390061 0.250126
vt 0.331529 0.261920
vt 0.337859 0.260126
vt 0.367160 0.251305
vt 0.389618 0.249811
vt 0.389010 0.240504
vt 0.395256 0.245167
vt 0.379244 0.303525
vt 0.355694 0.330235
vt 0.305891 0.371662
vt 0.256961 0.340659
vt 0.250615 0.318445
vt 0.308874 0.377034
vt 0.247279 0.279945
vt 0.310583 0.372921
vt 0.318240 0.373372
vt 0.271988 0.358936
vt 0.329014 0.379057
vt 0.282911 0.347770
vt 0.333753 0.379796
vt 0.293384 0.349093
vt 0.334728 0.376486
vt 0.285289 0.336839
vt 0.341253 0.371519
vt 0.289219 0.325657
vt 0.346385 0.362841
vt 0.296262 0.327848
vn -0.0000 1.0000 0.0000
vn -0.3181 0.0000 0.9481
vn 0.9399 0.0000 -0.3414
vn 0.8638 0.0000 0.5038
vn -0.8836 0.0000 -0.4682
vn 0.4707 0.0000 0.8823
vn 0.2322 0.0000 -0.9727
vn -0.3556 0.0000 0.9346
vn 0.9403 0.0000 0.3404
vn 0.9454 0.0000 0.3260
vn 0.3971 0.0000 0.9178
vn 0.1623 0.0000 0.9867
vn 0.0411 0.0000 0.9992
vn -0.9645 0.0000 0.2639
vn 0.9979 0.0000 -0.0648
vn -0.2133 0.0000 0.9770
vn -0.4195 0.0000 0.9077
vn -0.9700 0.0000 -0.2431
vn 0.8075 0.0000 0.5899
vn 0.9933 0.0000 -0.1156
vn 0.8596 0.0000 0.5109
vn -0.4732 0.0000 -0.8810
vn 0.5217 0.0000 -0.8531
vn -0.1695 0.0000 -0.9855
vn -0.2486 0.0000 -0.9686
vn 0.1233 0.0000 -0.9924
vn -0.0796 0.0000 -0.9968
vn 0.8682 0.0000 0.4961
vn 0.4201 0.0000 0.9075
vn -0.3034 0.0000 0.9529
vn 0.9217 0.0000 -0.3879
vn 0.9851 0.0000 -0.1723
vn -0.5359 0.0000 -0.8443
vn -0.4614 0.0000 -0.8872
vn 0.8901 0.0000 -0.4558
vn 0.4390 0.0000 0.8985
vn -0.9760 0.0000 -0.2179
vn -0.6749 0.0000 0.7379
vn -0.7162 0.0000 -0.6979
vn 0.2793 0.0000 -0.9602
vn -0.4980 0.0000 0.8672
vn -0.6816 0.0000 0.7318
vn 0.9812 0.0000 0.1932
vn -0.1503 0.0000 -0.9886
vn -0.3235 0.0000 0.9462
vn -0.9831 0.0000 -0.1832
vn -0.8023 0.0000 0.5969
vn -0.9707 0.0000 0.2402
vn -0.5067 0.0000 -0.8621
vn -0.9961 0.0000 -0.0882
vn -0.9931 0.0000 -0.1171
vn -0.0433 0.0000 -0.9991
vn 0.7358 0.0000 -0.6772
vn -0.6266 0.0000 -0.7794
vn -0.0948 0.0000 -0.9955
vn -0.2870 0.0000 -0.9579
vn -0.9983 0.0000 0.0585
vn 0.3611 0.0000 -0.9325
vn -0.1772 0.0000 -0.9842
s off
f 61/1/1 62/2/1 92/3/1 90/4/1 91/5/1 66/6/1 63/7/1 64/8/1 65/9/1 115/10/1 114/11/1 113/12/1 104/13/1 103/14/1 102/15/1 101/16/1 100/17/1 99/18/1 98/19/1 97/20/1 96/21/1 95/22/1 94/23/1 112/24/1 111/25/1 110/26/1 109/27/1 108/28/1 107/29/1 106/30/1 105/31/1 79/32/1 78/33/1 77/34/1 76/35/1 75/36/1 74/37/1 73/38/1 72/39/1 71/40/1 70/41/1 69/42/1 68/43/1 67/44/1 89/45/1 88/46/1 59/47/1 60/48/1 86/49/1 85/50/1 84/51/1 87/52/1 116/53/1 83/54/1 82/55/1 81/56/1 80/57/1 93/58/1
f 43/59/2 17/60/2 79/32/2 105/31/2
f 16/61/3 15/62/3 77/34/3 78/33/3
f 44/63/4 43/59/4 105/31/4 106/30/4
f 17/60/5 16/61/5 78/33/5 79/32/5
f 45/64/6 44/63/6 106/30/6 107/29/6
f 18/65/7 32/66/7 80/57/7 81/56/7
f 46/67/8 45/64/8 107/29/8 108/28/8
f 19/68/9 18/65/9 81/56/9 82/55/9
f 47/69/10 46/67/10 108/28/10 109/27/10
f 20/70/11 19/68/11 82/55/11 83/54/11
f 48/71/12 47/69/12 109/27/12 110/26/12
f 21/72/13 56/73/13 84/51/13 85/50/13
f 49/74/14 48/71/14 110/26/14 111/25/14
f 22/75/15 21/72/15 85/50/15 86/49/15
f 50/76/16 49/74/16 111/25/16 112/24/16
f 56/73/17 23/77/17 87/52/17 84/51/17
f 51/78/18 50/76/18 112/24/18 94/23/18
f 25/79/19 24/80/19 88/46/19 89/45/19
f 52/81/20 42/82/20 104/13/20 113/12/20
f 26/83/21 25/79/21 89/45/21 67/44/21
f 53/84/22 55/85/22 114/11/22 115/10/22
f 29/86/23 27/87/23 91/5/23 90/4/23
f 54/88/24 53/84/24 115/10/24 65/9/24
f 27/87/25 28/89/25 66/6/25 91/5/25
f 55/85/26 52/81/26 113/12/26 114/11/26
f 31/90/27 29/86/27 90/4/27 92/3/27
f 2/91/28 1/92/28 60/48/28 59/47/28
f 23/77/29 57/93/29 116/53/29 87/52/29
f 30/94/30 4/95/30 61/1/30 93/58/30
f 4/95/31 3/96/31 62/2/31 61/1/31
f 24/80/32 2/91/32 59/47/32 88/46/32
f 3/96/33 31/90/33 92/3/33 62/2/33
f 6/97/34 5/98/34 64/8/34 63/7/34
f 1/92/35 22/75/35 86/49/35 60/48/35
f 32/66/36 30/94/36 93/58/36 80/57/36
f 5/98/37 54/88/37 65/9/37 64/8/37
f 57/93/38 20/70/38 83/54/38 116/53/38
f 33/99/39 51/78/39 94/23/39 95/22/39
f 28/89/40 6/97/40 63/7/40 66/6/40
f 58/100/41 8/101/41 69/42/41 70/41/41
f 34/102/42 33/99/42 95/22/42 96/21/42
f 7/103/43 26/83/43 67/44/43 68/43/43
f 35/104/44 34/102/44 96/21/44 97/20/44
f 8/101/45 7/103/45 68/43/45 69/42/45
f 36/105/46 35/104/46 97/20/46 98/19/46
f 9/106/47 58/100/47 70/41/47 71/40/47
f 37/107/48 36/105/48 98/19/48 99/18/48
f 10/108/49 9/106/49 71/40/49 72/39/49
f 38/109/50 37/107/50 99/18/50 100/17/50
f 11/110/51 10/108/51 72/39/51 73/38/51
f 39/111/52 38/109/52 100/17/52 101/16/52
f 12/112/53 11/110/53 73/38/53 74/37/53
f 40/113/54 39/111/54 101/16/54 102/15/54
f 13/114/55 12/112/55 74/37/55 75/36/55
f 41/115/56 40/113/56 102/15/56 103/14/56
f 14/116/57 13/114/57 75/36/57 76/35/57
f 42/82/58 41/115/58 103/14/58 104/13/58
f 15/62/59 14/116/59 76/35/59 77/34/59
