# Blender v2.92.0 OBJ File: 'world.blend'
# www.blender.org
v -29.523460 -0.000205 -27.041670
v -30.148006 -0.000205 -25.948709
v -23.767881 -0.000204 -35.319702
v -41.389984 -0.000205 -33.236256
v -50.689705 -0.000205 -19.234125
v -45.973572 -0.000205 -20.686777
v -43.716057 -0.000205 -20.901770
v -43.384850 -0.000205 -22.385239
v -40.713600 -0.000205 -25.835213
v -22.582405 -0.000204 -34.999596
v -30.900482 -0.000205 -31.825357
v -28.113331 -0.000205 -31.122339
v -36.543072 -0.000205 -14.129421
v -28.574141 -0.000204 -37.037251
v -25.135323 -0.000204 -36.120937
v -25.662636 -0.000204 -35.734955
v -51.134529 -0.000205 -26.124994
v -51.296597 -0.000205 -26.825235
v -51.548073 -0.000205 -30.770597
v -50.967426 -0.000205 -31.447546
v -47.999783 -0.000205 -32.966434
v -43.788509 -0.000205 -24.261623
v -46.310902 -0.000205 -22.915977
v -52.177563 -0.000205 -23.130665
v -52.806328 -0.000205 -24.409452
v -42.537041 -0.000205 -32.472591
v -41.692959 -0.000205 -32.617741
v -43.996624 -0.000205 -31.688623
v -29.737879 -0.000205 -31.873131
v -47.987358 -0.000205 -15.601738
v -41.389984 0.999795 -33.236256
v -41.692959 0.999795 -32.617741
v -33.028221 0.999796 -35.894131
v -50.689705 0.999795 -19.234125
v -47.876549 0.999795 -22.754333
v -43.716057 0.999795 -20.901770
v -43.384850 0.999795 -22.385239
v -43.042007 0.999795 -21.441397
v -40.713600 0.999795 -25.835213
v -25.662636 0.999796 -35.734955
v -23.631210 0.999795 -32.102448
v -29.737879 0.999795 -31.873131
v -30.900482 0.999795 -31.825357
v -30.766998 0.999795 -29.770216
v -28.113331 0.999795 -31.122339
v -33.269081 0.999795 -19.638342
v -26.886150 0.999796 -36.004932
v -28.574141 0.999796 -37.037251
v -25.090963 0.999796 -36.009739
v -51.803627 0.999795 -26.748171
v -50.985332 0.999795 -28.495884
v -51.548073 0.999795 -30.770597
v -49.718723 0.999795 -32.451412
v -43.788509 0.999795 -24.261623
v -48.115116 0.999795 -23.602516
v -48.565109 0.999795 -22.297520
v -52.177563 0.999795 -23.130665
v -45.701759 0.999795 -31.900509
v -26.319059 0.999795 -31.953075
v -24.978128 0.999796 -36.045715
v -24.346392 -0.000204 -36.694374
v -35.345215 -0.000204 -36.379959
v -37.157593 -0.000205 -11.008320
v -44.154079 -0.000205 -13.400518
v -48.113033 -0.000205 -20.748413
v -47.876549 -0.000205 -22.754333
v -43.798653 -0.000205 -22.310713
v -43.042007 -0.000205 -21.441397
v -23.631210 -0.000205 -32.102448
v -25.566685 -0.000205 -31.264894
v -30.766998 -0.000205 -29.770216
v -29.702805 -0.000205 -24.520073
v -33.269081 -0.000205 -19.638342
v -33.028221 -0.000204 -35.894131
v -26.886150 -0.000204 -36.004932
v -25.090963 -0.000204 -36.009739
v -51.803627 -0.000205 -26.748171
v -50.985332 -0.000205 -28.495884
v -51.490116 -0.000205 -31.424892
v -49.718723 -0.000205 -32.451412
v -45.846161 -0.000205 -32.132500
v -42.517788 -0.000205 -26.440464
v -48.115116 -0.000205 -23.602516
v -48.565109 -0.000205 -22.297520
v -51.810707 -0.000205 -21.790089
v -53.077545 -0.000205 -23.327106
v -45.701759 -0.000205 -31.900509
v -26.319059 -0.000205 -31.953075
v -30.148006 0.999795 -25.948709
v -29.523460 0.999795 -27.041670
v -23.767881 0.999796 -35.319702
v -24.346392 0.999796 -36.694374
v -35.345215 0.999796 -36.379959
v -36.543072 0.999795 -14.129421
v -37.157593 0.999795 -11.008320
v -44.154079 0.999795 -13.400518
v -47.987358 0.999795 -15.601738
v -48.113033 0.999795 -20.748413
v -45.973572 0.999795 -20.686777
v -43.798653 0.999795 -22.310713
v -22.582405 0.999796 -34.999596
v -25.566685 0.999795 -31.264894
v -29.702805 0.999795 -24.520073
v -25.135323 0.999796 -36.120937
v -52.806328 0.999795 -24.409452
v -51.134529 0.999795 -26.124994
v -51.296597 0.999795 -26.825235
v -51.490116 0.999795 -31.424892
v -50.967426 0.999795 -31.447546
v -47.999783 0.999795 -32.966434
v -45.846161 0.999795 -32.132500
v -42.517788 0.999795 -26.440464
v -46.310902 0.999795 -22.915977
v -51.810707 0.999795 -21.790089
v -53.077545 0.999795 -23.327106
v -43.996624 0.999795 -31.688623
v -42.537041 0.999795 -32.472591
v -24.978128 -0.000204 -36.045715
v -25.025682 -0.000204 -36.164661
v -25.025682 0.999796 -36.164661
vt 0.877271 0.924429
vt 0.876303 0.924669
vt 0.868583 0.912256
vt 0.853396 0.905847
vt 0.839495 0.870150
vt 0.824952 0.856829
vt 0.816863 0.800647
vt 0.819577 0.795592
vt 0.816459 0.789175
vt 0.814674 0.775488
vt 0.804957 0.764977
vt 0.802685 0.765127
vt 0.786579 0.754603
vt 0.781714 0.740467
vt 0.782442 0.727140
vt 0.780057 0.723492
vt 0.784203 0.719922
vt 0.802332 0.712680
vt 0.812126 0.702457
vt 0.810185 0.698652
vt 0.817652 0.700153
vt 0.821141 0.680504
vt 0.827149 0.673411
vt 0.832851 0.678547
vt 0.843705 0.674518
vt 0.856038 0.698948
vt 0.849392 0.708333
vt 0.862803 0.717209
vt 0.865950 0.740817
vt 0.857377 0.760001
vt 0.870237 0.769271
vt 0.888663 0.732169
vt 0.880609 0.734434
vt 0.879104 0.731271
vt 0.889040 0.724985
vt 0.879529 0.708663
vt 0.856291 0.705828
vt 0.868718 0.694483
vt 0.866449 0.669688
vt 0.904160 0.670331
vt 0.937679 0.685581
vt 0.987857 0.721310
vt 0.969720 0.740631
vt 0.948341 0.789551
vt 0.932627 0.837402
vt 0.920796 0.841329
vt 0.916433 0.850865
vt 0.891925 0.855704
vt 0.877368 0.864784
vt 0.882693 0.872885
vt 0.895666 0.880232
vt 0.898760 0.896411
vt 0.907072 0.898160
vt 0.910806 0.915327
vt 0.896294 0.936499
vt 0.876354 0.919225
vt 0.842454 0.053537
vt 0.854881 0.053537
vt 0.854881 0.060425
vt 0.842454 0.060425
vt 0.357865 0.022744
vt 0.364366 0.022744
vt 0.364366 0.029632
vt 0.357865 0.029632
vt 0.377291 0.022744
vt 0.392299 0.022744
vt 0.392299 0.029632
vt 0.377291 0.029632
vt 0.388130 0.022744
vt 0.388130 0.029632
vt 0.816327 0.053537
vt 0.833701 0.053537
vt 0.833701 0.060425
vt 0.816327 0.060425
vt 0.979770 0.053537
vt 0.958553 0.053537
vt 0.958553 0.060425
vt 0.979770 0.060425
vt 0.803899 0.053537
vt 0.803899 0.060425
vt 0.431299 0.022744
vt 0.451255 0.022744
vt 0.451255 0.029632
vt 0.431299 0.029632
vt 0.363762 0.022744
vt 0.372751 0.022744
vt 0.372751 0.029632
vt 0.363762 0.029632
vt 0.959214 0.053537
vt 0.972546 0.053537
vt 0.972546 0.060425
vt 0.959214 0.060425
vt 0.778444 0.053537
vt 0.800800 0.053537
vt 0.800800 0.060425
vt 0.778444 0.060425
vt 0.922475 0.053537
vt 0.930483 0.053537
vt 0.930483 0.060425
vt 0.922475 0.060425
vt 0.369501 0.022744
vt 0.360267 0.022744
vt 0.360267 0.029632
vt 0.369501 0.029632
vt 0.415235 0.022744
vt 0.429391 0.022744
vt 0.429391 0.029632
vt 0.415235 0.029632
vt 0.769718 0.053537
vt 0.775917 0.053537
vt 0.775917 0.060425
vt 0.769718 0.060425
vt 0.941673 0.053537
vt 0.941673 0.060425
vt 0.378309 0.022744
vt 0.370854 0.022744
vt 0.370854 0.029632
vt 0.378309 0.029632
vt 0.345446 0.022744
vt 0.379071 0.022744
vt 0.379071 0.029632
vt 0.345446 0.029632
vt 0.429908 0.022744
vt 0.431506 0.022744
vt 0.431506 0.029632
vt 0.429908 0.029632
vt 0.307500 0.022744
vt 0.307500 0.029632
vt 0.842322 0.053537
vt 0.832268 0.053537
vt 0.832268 0.060425
vt 0.842322 0.060425
vt 0.950126 0.053537
vt 0.938499 0.053537
vt 0.938499 0.060425
vt 0.950126 0.060425
vt 0.848136 0.053537
vt 0.848136 0.060425
vt 0.907819 0.053537
vt 0.907819 0.060425
vt 0.820523 0.053537
vt 0.820523 0.060425
vt 0.962186 0.053537
vt 0.962186 0.060425
vt 0.388912 0.022744
vt 0.396440 0.022744
vt 0.396440 0.029632
vt 0.388912 0.029632
vt 0.954032 0.053537
vt 0.954032 0.060425
vt 0.963268 0.053537
vt 0.971605 0.053537
vt 0.971605 0.060425
vt 0.963268 0.060425
vt 0.453460 0.022744
vt 0.462929 0.022744
vt 0.462929 0.029632
vt 0.453460 0.029632
vt 0.891859 0.053537
vt 0.850223 0.053537
vt 0.850223 0.060425
vt 0.891859 0.060425
vt 0.962491 0.053537
vt 0.962491 0.060425
vt 0.439109 0.022744
vt 0.434849 0.022744
vt 0.434849 0.029632
vt 0.439109 0.029632
vt 0.390126 0.022744
vt 0.390126 0.029632
vt 0.804779 0.053537
vt 0.831183 0.053537
vt 0.831183 0.060425
vt 0.804779 0.060425
vt 0.778493 0.053537
vt 0.783101 0.053537
vt 0.783101 0.060425
vt 0.778493 0.060425
vt 0.286002 0.022744
vt 0.286002 0.029632
vt 0.781985 0.053537
vt 0.781985 0.060425
vt 0.406457 0.022744
vt 0.394949 0.022744
vt 0.394949 0.029632
vt 0.406457 0.029632
vt 0.342661 0.022744
vt 0.317641 0.022744
vt 0.317641 0.029632
vt 0.342661 0.029632
vt 0.422125 0.022744
vt 0.422125 0.029632
vt 0.803914 0.053537
vt 0.786165 0.053537
vt 0.786165 0.060425
vt 0.803914 0.060425
vt 0.426632 0.022744
vt 0.426632 0.029632
vt 0.366909 0.022744
vt 0.353092 0.022744
vt 0.353092 0.029632
vt 0.366909 0.029632
vt 0.784253 0.053537
vt 0.780652 0.053537
vt 0.780652 0.060425
vt 0.784253 0.060425
vt 0.352667 0.022744
vt 0.352667 0.029632
vt 0.792854 0.053537
vt 0.792854 0.060425
vt 0.834200 0.053537
vt 0.818650 0.053537
vt 0.818650 0.060425
vt 0.834200 0.060425
vt 0.804694 0.053537
vt 0.804694 0.060425
vt 0.363853 0.022744
vt 0.354148 0.022744
vt 0.354148 0.029632
vt 0.363853 0.029632
vt 0.819528 0.053537
vt 0.819528 0.060425
vt 0.836482 0.053537
vt 0.833631 0.053537
vt 0.833631 0.060425
vt 0.836482 0.060425
vt 0.888369 0.930031
vt 0.876255 0.932794
vt 0.876540 0.925623
vt 0.877576 0.925367
vt 0.458213 0.029632
vt 0.458213 0.022744
vt 0.458979 0.022744
vt 0.458979 0.029632
vt 0.458461 0.029632
vt 0.459280 0.029632
vt 0.459280 0.022744
vt 0.458461 0.022744
vt 0.879375 0.053537
vt 0.879375 0.060425
vt 0.967620 0.053537
vt 0.962941 0.053537
vt 0.962941 0.060425
vt 0.967620 0.060425
vn -0.0000 1.0000 0.0000
vn -0.3181 0.0000 0.9481
vn 0.9399 0.0000 -0.3414
vn 0.8638 0.0000 0.5038
vn -0.8836 0.0000 -0.4682
vn 0.4707 0.0000 0.8823
vn 0.2322 0.0000 -0.9727
vn -0.3556 0.0000 0.9346
vn 0.9403 0.0000 0.3404
vn 0.9454 0.0000 0.3260
vn 0.3971 0.0000 0.9178
vn 0.1545 0.0000 0.9880
vn 0.0411 0.0000 0.9992
vn -0.9645 0.0000 0.2640
vn 0.9979 0.0000 -0.0648
vn -0.2133 0.0000 0.9770
vn -0.4195 0.0000 0.9077
vn -0.9700 0.0000 -0.2431
vn 0.8075 0.0000 0.5899
vn 0.8490 0.0000 -0.5284
vn 0.8596 0.0000 0.5109
vn -0.4732 0.0000 -0.8810
vn 0.5217 0.0000 -0.8531
vn -0.1695 0.0000 -0.9855
vn -0.2486 0.0000 -0.9686
vn 0.1233 0.0000 -0.9924
vn -0.0661 0.0000 -0.9978
vn 0.8682 0.0000 0.4961
vn 0.4201 0.0000 0.9075
vn -0.5144 0.0000 0.8575
vn 0.9217 0.0000 -0.3879
vn 0.9547 0.0000 -0.2975
vn -0.4614 0.0000 -0.8872
vn 0.9100 0.0000 -0.4147
vn 0.4332 0.0000 0.9013
vn -0.8980 0.0000 -0.4399
vn -0.6749 0.0000 0.7379
vn -0.7162 0.0000 -0.6979
vn 0.2052 0.0000 -0.9787
vn -0.4980 0.0000 0.8672
vn -0.6815 0.0000 0.7318
vn 0.9812 0.0000 0.1932
vn -0.1503 0.0000 -0.9886
vn -0.9831 0.0000 -0.1832
vn -0.8023 0.0000 0.5969
vn -0.9707 0.0000 0.2401
vn -0.5067 0.0000 -0.8621
vn -0.9961 0.0000 -0.0882
vn -0.9931 0.0000 -0.1171
vn -0.0433 0.0000 -0.9991
vn 0.7358 0.0000 -0.6772
vn -0.6266 0.0000 -0.7794
vn -0.0948 0.0000 -0.9955
vn -0.2870 0.0000 -0.9579
vn -0.9983 0.0000 0.0585
vn 0.3611 0.0000 -0.9325
vn -0.1772 0.0000 -0.9842
vn 0.9288 0.0000 -0.3705
vn -0.9285 0.0000 0.3712
vn -0.3235 0.0000 0.9462
vn -0.6149 0.0000 -0.7886
s off
f 49/1/1 104/2/1 47/3/1 48/4/1 33/5/1 93/6/1 31/7/1 32/8/1 117/9/1 116/10/1 58/11/1 111/12/1 110/13/1 53/14/1 109/15/1 108/16/1 52/17/1 51/18/1 107/19/1 50/20/1 106/21/1 105/22/1 115/23/1 57/24/1 114/25/1 56/26/1 55/27/1 113/28/1 54/29/1 112/30/1 39/31/1 38/32/1 37/33/1 100/34/1 36/35/1 99/36/1 35/37/1 98/38/1 34/39/1 97/40/1 96/41/1 95/42/1 94/43/1 46/44/1 103/45/1 89/46/1 90/47/1 44/48/1 43/49/1 42/50/1 45/51/1 59/52/1 102/53/1 41/54/1 101/55/1 40/56/1
f 82/57/2 9/58/2 39/59/2 112/60/2
f 68/61/3 8/62/3 37/63/3 38/64/3
f 22/65/4 82/66/4 112/67/4 54/68/4
f 9/69/5 68/61/5 38/64/5 39/70/5
f 23/71/6 22/72/6 54/73/6 113/74/6
f 10/75/7 16/76/7 40/77/7 101/78/7
f 83/79/8 23/71/8 113/74/8 55/80/8
f 69/81/9 10/82/9 101/83/9 41/84/9
f 84/85/10 83/86/10 55/87/10 56/88/10
f 70/89/11 69/90/11 41/91/11 102/92/11
f 85/93/12 84/94/12 56/95/12 114/96/12
f 11/97/13 29/98/13 42/99/13 43/100/13
f 24/101/14 85/102/14 114/103/14 57/104/14
f 71/105/15 11/106/15 43/107/15 44/108/15
f 86/109/16 24/110/16 57/111/16 115/112/16
f 29/98/17 12/113/17 45/114/17 42/99/17
f 25/115/18 86/116/18 115/117/18 105/118/18
f 73/119/19 72/120/19 103/121/19 46/122/19
f 87/123/20 81/124/20 111/125/20 58/126/20
f 13/127/21 73/119/21 46/122/21 94/128/21
f 26/129/22 28/130/22 116/131/22 117/132/22
f 75/133/23 14/134/23 48/135/23 47/136/23
f 27/137/24 26/129/24 117/132/24 32/138/24
f 14/134/25 74/139/25 33/140/25 48/135/25
f 28/130/26 87/141/26 58/142/26 116/131/26
f 15/143/27 75/133/27 47/136/27 104/144/27
f 2/145/28 1/146/28 90/147/28 89/148/28
f 12/113/29 88/149/29 59/150/29 45/114/29
f 118/151/30 3/152/30 91/153/30 60/154/30
f 3/155/31 61/156/31 92/157/31 91/158/31
f 72/120/32 2/145/32 89/148/32 103/121/32
f 62/159/33 4/160/33 31/161/33 93/162/33
f 1/146/34 71/105/34 44/108/34 90/147/34
f 16/76/35 76/163/35 49/164/35 40/77/35
f 4/165/36 27/166/36 32/167/36 31/168/36
f 88/149/37 70/89/37 102/92/37 59/150/37
f 17/169/38 25/115/38 105/118/38 106/170/38
f 74/139/39 62/159/39 93/162/39 33/140/39
f 30/171/40 64/172/40 96/173/40 97/174/40
f 77/175/41 17/176/41 106/177/41 50/178/41
f 63/179/42 13/127/42 94/128/42 95/180/42
f 18/181/43 77/175/43 50/178/43 107/182/43
f 78/183/44 18/184/44 107/185/44 51/186/44
f 5/187/45 30/188/45 97/189/45 34/190/45
f 19/191/46 78/183/46 51/186/46 52/192/46
f 65/193/47 5/194/47 34/195/47 98/196/47
f 79/197/48 19/191/48 52/192/48 108/198/48
f 66/199/49 65/200/49 98/201/49 35/202/49
f 20/203/50 79/204/50 108/205/50 109/206/50
f 6/207/51 66/199/51 35/202/51 99/208/51
f 80/209/52 20/203/52 109/206/52 53/210/52
f 7/211/53 6/212/53 99/213/53 36/214/53
f 21/215/54 80/209/54 53/210/54 110/216/54
f 67/217/55 7/218/55 36/219/55 100/220/55
f 81/221/56 21/215/56 110/216/56 111/222/56
f 8/223/57 67/224/57 100/225/57 37/226/57
f 91/227/1 92/228/1 120/229/1 60/230/1
f 49/231/58 76/232/58 15/233/58 104/234/58
f 60/235/59 120/236/59 119/237/59 118/238/59
f 64/172/60 63/239/60 95/240/60 96/173/60
f 61/241/61 119/242/61 120/243/61 92/244/61
