# Blender v2.92.0 OBJ File: 'world.blend'
# www.blender.org
v -77.517357 -0.000205 -18.457567
v -78.015221 -0.000205 -18.597149
v -79.926575 -0.000205 -22.937206
v -81.900803 -0.000205 -24.508080
v -82.792068 -0.000205 -23.908537
v -90.536789 -0.000205 -18.381889
v -88.344887 -0.000205 -20.103430
v -85.445915 -0.000205 -19.413530
v -85.479179 -0.000205 -18.153145
v -83.496613 -0.000205 -19.096804
v -83.111031 -0.000205 -20.662764
v -82.070999 -0.000205 -20.776674
v -82.889671 -0.000205 -22.368536
v -84.085068 -0.000205 -11.418833
v -84.735718 -0.000205 -11.557751
v -84.904037 -0.000205 -10.899814
v -85.555023 -0.000205 -10.783775
v -86.672539 -0.000205 -9.854911
v -87.098083 -0.000205 -9.053524
v -88.231956 -0.000205 -8.554937
v -88.126328 -0.000205 -7.498539
v -89.485298 -0.000205 -8.259116
v -89.975182 -0.000205 -8.923983
v -91.656090 -0.000205 -9.891684
v -91.924530 -0.000205 -11.077917
v -91.452560 -0.000205 -13.061032
v -90.702332 -0.000205 -14.019571
v -90.568619 -0.000205 -13.994552
v -88.777122 -0.000205 -16.280405
v -89.608551 -0.000205 -17.833176
v -77.991249 -0.000205 -17.389254
v -86.952919 -0.000205 -1.516935
v -78.986694 -0.000205 -16.511696
v -79.444382 -0.000205 -15.586857
v -79.563950 -0.000205 -14.741651
v -79.265129 -0.000205 -13.737060
v -80.286018 -0.000205 -13.497533
v -81.049232 -0.000205 -14.086723
v -81.555267 -0.000205 -14.787518
v -82.316177 -0.000205 -12.637882
v -82.995895 -0.000205 -9.989385
v -82.708031 -0.000205 -7.439917
v -83.575424 -0.000205 -6.436916
v -84.422264 -0.000205 -5.110279
v -85.135338 -0.000205 -2.726160
v -87.650482 -0.000205 -1.531673
v -83.892151 -0.000205 -8.004493
v -83.504173 -0.000205 -7.933674
v -83.383072 -0.000205 -8.755174
v -84.062981 -0.000205 -10.502042
v -86.814026 -0.000205 -4.768080
v -84.445412 -0.000205 -6.271536
v -86.942581 -0.000205 -2.690924
v -77.517357 0.999795 -18.457567
v -78.015221 0.999795 -18.597149
v -79.926575 0.999795 -22.937206
v -81.900803 0.999795 -24.508080
v -82.792068 0.999795 -23.908537
v -82.889671 0.999795 -22.368536
v -90.536789 0.999795 -18.381889
v -88.344887 0.999795 -20.103430
v -85.445915 0.999795 -19.413530
v -85.479179 0.999795 -18.153145
v -83.496613 0.999795 -19.096804
v -83.111031 0.999795 -20.662764
v -82.070999 0.999795 -20.776674
v -89.608551 0.999795 -17.833176
v -84.062981 0.999795 -10.502042
v -84.085068 0.999795 -11.418833
v -84.735718 0.999795 -11.557751
v -84.904037 0.999795 -10.899814
v -85.555023 0.999795 -10.783775
v -86.672539 0.999795 -9.854911
v -87.098083 0.999795 -9.053524
v -88.231956 0.999795 -8.554937
v -88.126328 0.999795 -7.498539
v -89.485298 0.999795 -8.259116
v -89.975182 0.999795 -8.923983
v -91.656090 0.999795 -9.891684
v -91.924530 0.999795 -11.077917
v -91.452560 0.999795 -13.061032
v -90.702332 0.999795 -14.019571
v -90.568619 0.999795 -13.994552
v -88.777122 0.999795 -16.280405
v -77.991249 0.999795 -17.389254
v -85.135338 0.999795 -2.726160
v -86.952919 0.999795 -1.516935
v -78.986694 0.999795 -16.511696
v -79.444382 0.999795 -15.586857
v -79.563950 0.999795 -14.741651
v -79.265129 0.999795 -13.737060
v -80.286018 0.999795 -13.497533
v -81.049232 0.999795 -14.086723
v -81.555267 0.999795 -14.787518
v -82.316177 0.999795 -12.637882
v -82.995895 0.999795 -9.989385
v -82.708031 0.999795 -7.439917
v -83.575424 0.999795 -6.436916
v -84.422264 0.999795 -5.110279
v -87.650482 0.999795 -1.531673
v -84.445412 0.999795 -6.271536
v -83.892151 0.999795 -8.004493
v -83.504173 0.999795 -7.933674
v -83.383072 0.999795 -8.755174
v -86.942581 0.999795 -2.690924
v -86.814026 0.999795 -4.768080
vt 0.234390 0.496752
vt 0.254003 0.511906
vt 0.259488 0.523897
vt 0.255326 0.527664
vt 0.247391 0.526222
vt 0.240345 0.520067
vt 0.238460 0.525200
vt 0.230031 0.525186
vt 0.222750 0.534057
vt 0.229186 0.535473
vt 0.229040 0.551047
vt 0.217550 0.560000
vt 0.215934 0.554602
vt 0.209103 0.548431
vt 0.195254 0.554644
vt 0.195213 0.555354
vt 0.189407 0.557954
vt 0.178753 0.557854
vt 0.173073 0.555001
vt 0.170278 0.545257
vt 0.167522 0.541935
vt 0.165373 0.534085
vt 0.170599 0.535949
vt 0.174554 0.530825
vt 0.179154 0.529674
vt 0.185272 0.525173
vt 0.186679 0.522017
vt 0.190228 0.521990
vt 0.190342 0.518515
vt 0.185719 0.517250
vt 0.177713 0.511604
vt 0.173393 0.511185
vt 0.173264 0.513242
vt 0.163778 0.513869
vt 0.153172 0.523994
vt 0.142473 0.522034
vt 0.135702 0.524167
vt 0.136505 0.520610
vt 0.144925 0.512910
vt 0.157916 0.512291
vt 0.165711 0.509664
vt 0.171890 0.506525
vt 0.184461 0.511192
vt 0.198751 0.511075
vt 0.210612 0.509919
vt 0.207694 0.506470
vt 0.205665 0.501858
vt 0.208164 0.496980
vt 0.212884 0.499759
vt 0.217322 0.500216
vt 0.222589 0.499057
vt 0.228293 0.495111
vt 0.234308 0.494051
vt 0.209103 0.548431
vt 0.195254 0.554644
vt 0.254003 0.511906
vt 0.259488 0.523897
vt 0.215934 0.554602
vt 0.255326 0.527664
vt 0.228293 0.495111
vt 0.234308 0.494051
vt 0.247391 0.526222
vt 0.136505 0.520610
vt 0.144925 0.512910
vt 0.229040 0.551047
vt 0.217550 0.560000
vt 0.222589 0.499057
vt 0.229186 0.535473
vt 0.217322 0.500216
vt 0.222750 0.534057
vt 0.212884 0.499759
vt 0.230031 0.525186
vt 0.208164 0.496980
vt 0.238460 0.525200
vt 0.205665 0.501858
vt 0.240345 0.520067
vt 0.207694 0.506470
vt 0.210612 0.509919
vt 0.198751 0.511075
vt 0.190342 0.518515
vt 0.185719 0.517250
vt 0.184461 0.511192
vt 0.190228 0.521990
vt 0.171890 0.506525
vt 0.186679 0.522017
vt 0.165711 0.509664
vt 0.185272 0.525173
vt 0.157916 0.512291
vt 0.179154 0.529674
vt 0.174554 0.530825
vt 0.135702 0.524167
vt 0.170599 0.535949
vt 0.173264 0.513242
vt 0.163778 0.513869
vt 0.165373 0.534085
vt 0.173393 0.511185
vt 0.167522 0.541935
vt 0.177713 0.511604
vt 0.170278 0.545257
vt 0.173073 0.555001
vt 0.153172 0.523994
vt 0.142473 0.522034
vt 0.178753 0.557854
vt 0.189407 0.557954
vt 0.195213 0.555354
vt 0.234390 0.496752
vn 0.0000 1.0000 -0.0000
vn -0.7871 0.0000 -0.6169
vn 0.6226 0.0000 -0.7825
vn -0.8816 0.0000 0.4720
vn -0.5582 0.0000 -0.8297
vn 0.9141 0.0000 0.4055
vn -0.9980 0.0000 -0.0633
vn 0.5539 0.0000 0.8326
vn -0.6177 0.0000 -0.7864
vn 0.6613 0.0000 0.7501
vn 0.2315 0.0000 -0.9728
vn 0.8963 0.0000 0.4435
vn 0.9997 0.0000 0.0264
vn 0.9901 0.0000 0.1401
vn -0.4298 0.0000 -0.9029
vn 0.9585 0.0000 -0.2851
vn -0.9710 0.0000 -0.2391
vn 0.2284 0.0000 0.9736
vn -0.1089 0.0000 -0.9941
vn -0.6111 0.0000 0.7916
vn -0.8893 0.0000 0.4573
vn -0.8107 0.0000 0.5854
vn -0.5089 0.0000 0.8608
vn 0.9427 0.0000 0.3337
vn -0.9997 0.0000 0.0241
vn 0.9686 0.0000 0.2486
vn -0.2088 0.0000 0.9780
vn 0.9937 0.0000 -0.1122
vn 0.9688 0.0000 0.2478
vn 0.7564 0.0000 0.6541
vn 0.1755 0.0000 0.9845
vn 0.8429 0.0000 0.5381
vn 0.6392 0.0000 0.7690
vn 0.9581 0.0000 0.2866
vn 0.8832 0.0000 0.4690
vn -0.0211 0.0000 0.9998
vn 0.4025 0.0000 0.9154
vn -0.9526 0.0000 -0.3041
vn 0.9950 0.0000 -0.0995
vn 0.1796 0.0000 -0.9837
vn -0.4884 0.0000 0.8726
vn -0.9893 0.0000 -0.1458
vn -0.8051 0.0000 0.5932
vn -0.9319 0.0000 0.3627
vn -0.4989 0.0000 0.8666
vn -0.9981 0.0000 -0.0618
vn -0.9753 0.0000 0.2207
vn -0.5359 0.0000 -0.8443
vn -0.9728 0.0000 -0.2315
vn -0.8535 0.0000 -0.5212
vn -0.7875 0.0000 -0.6163
vn 0.2700 0.0000 -0.9629
vn 0.1839 0.0000 -0.9829
vn 0.9152 0.0000 -0.4030
s off
f 55/1/1 56/2/1 57/3/1 58/4/1 59/5/1 66/6/1 65/7/1 64/8/1 63/9/1 62/10/1 61/11/1 60/12/1 67/13/1 84/14/1 83/15/1 82/16/1 81/17/1 80/18/1 79/19/1 78/20/1 77/21/1 76/22/1 75/23/1 74/24/1 73/25/1 72/26/1 71/27/1 70/28/1 69/29/1 68/30/1 104/31/1 103/32/1 102/33/1 101/34/1 106/35/1 105/36/1 100/37/1 87/38/1 86/39/1 99/40/1 98/41/1 97/42/1 96/43/1 95/44/1 94/45/1 93/46/1 92/47/1 91/48/1 90/49/1 89/50/1 88/51/1 85/52/1 54/53/1
f 29/54/2 28/55/2 83/15/2 84/14/2
f 3/56/3 4/57/3 57/3/3 56/2/3
f 30/58/4 29/54/4 84/14/4 67/13/4
f 4/57/5 5/59/5 58/4/5 57/3/5
f 31/60/6 1/61/6 54/53/6 85/52/6
f 5/59/7 13/62/7 59/5/7 58/4/7
f 32/63/8 45/64/8 86/39/8 87/38/8
f 7/65/9 6/66/9 60/12/9 61/11/9
f 33/67/10 31/60/10 85/52/10 88/51/10
f 8/68/11 7/65/11 61/11/11 62/10/11
f 34/69/12 33/67/12 88/51/12 89/50/12
f 9/70/13 8/68/13 62/10/13 63/9/13
f 35/71/14 34/69/14 89/50/14 90/49/14
f 10/72/15 9/70/15 63/9/15 64/8/15
f 36/73/16 35/71/16 90/49/16 91/48/16
f 11/74/17 10/72/17 64/8/17 65/7/17
f 37/75/18 36/73/18 91/48/18 92/47/18
f 12/76/19 11/74/19 65/7/19 66/6/19
f 38/77/20 37/75/20 92/47/20 93/46/20
f 13/62/21 12/76/21 66/6/21 59/5/21
f 39/78/22 38/77/22 93/46/22 94/45/22
f 6/66/23 30/58/23 67/13/23 60/12/23
f 40/79/24 39/78/24 94/45/24 95/44/24
f 14/80/25 50/81/25 68/30/25 69/29/25
f 41/82/26 40/79/26 95/44/26 96/43/26
f 15/83/27 14/80/27 69/29/27 70/28/27
f 42/84/28 41/82/28 96/43/28 97/42/28
f 16/85/29 15/83/29 70/28/29 71/27/29
f 43/86/30 42/84/30 97/42/30 98/41/30
f 17/87/31 16/85/31 71/27/31 72/26/31
f 44/88/32 43/86/32 98/41/32 99/40/32
f 18/89/33 17/87/33 72/26/33 73/25/33
f 45/64/34 44/88/34 99/40/34 86/39/34
f 19/90/35 18/89/35 73/25/35 74/24/35
f 46/91/36 32/63/36 87/38/36 100/37/36
f 20/92/37 19/90/37 74/24/37 75/23/37
f 47/93/38 52/94/38 101/34/38 102/33/38
f 21/95/39 20/92/39 75/23/39 76/22/39
f 48/96/40 47/93/40 102/33/40 103/32/40
f 22/97/41 21/95/41 76/22/41 77/21/41
f 49/98/42 48/96/42 103/32/42 104/31/42
f 23/99/43 22/97/43 77/21/43 78/20/43
f 50/81/44 49/98/44 104/31/44 68/30/44
f 24/100/45 23/99/45 78/20/45 79/19/45
f 51/101/46 53/102/46 105/36/46 106/35/46
f 25/103/47 24/100/47 79/19/47 80/18/47
f 52/94/48 51/101/48 106/35/48 101/34/48
f 26/104/49 25/103/49 80/18/49 81/17/49
f 53/102/50 46/91/50 100/37/50 105/36/50
f 27/105/51 26/104/51 81/17/51 82/16/51
f 1/61/52 2/106/52 55/1/52 54/53/52
f 28/55/53 27/105/53 82/16/53 83/15/53
f 2/106/54 3/56/54 56/2/54 55/1/54
