# Blender v2.92.0 OBJ File: 'world.blend'
# www.blender.org
v -78.196419 -0.000205 -18.388309
v -81.913185 -0.000205 -24.198448
v -82.550354 -0.000205 -23.769833
v -88.285370 -0.000205 -19.832285
v -85.739845 -0.000205 -17.752197
v -83.282188 -0.000205 -18.921989
v -82.635811 -0.000205 -22.421547
v -84.085068 -0.000205 -11.418833
v -84.735718 -0.000205 -11.557751
v -84.904037 -0.000205 -10.899814
v -85.555023 -0.000205 -10.783775
v -86.672539 -0.000205 -9.854911
v -87.098083 -0.000205 -9.053524
v -88.231956 -0.000205 -8.554937
v -88.126328 -0.000205 -7.498539
v -89.485298 -0.000205 -8.259116
v -91.656090 -0.000205 -9.891684
v -90.702332 -0.000205 -14.019571
v -90.568619 -0.000205 -13.994552
v -88.777122 -0.000205 -16.280405
v -89.608551 -0.000205 -17.833176
v -86.952919 -0.000205 -1.516935
v -78.986694 -0.000205 -16.511696
v -79.444382 -0.000205 -15.586857
v -79.563950 -0.000205 -14.741651
v -80.286018 -0.000205 -13.497533
v -82.316177 -0.000205 -12.637882
v -84.422264 -0.000205 -5.110279
v -85.135338 -0.000205 -2.726160
v -87.650482 -0.000205 -1.531673
v -83.504173 -0.000205 -7.933674
v -83.383072 -0.000205 -8.755174
v -86.814026 -0.000205 -4.768080
v -86.942581 -0.000205 -2.690924
v -77.584846 0.999795 -18.216848
v -78.196419 0.999795 -18.388309
v -80.130508 0.999795 -22.779989
v -81.913185 0.999795 -24.198448
v -85.701180 0.999795 -19.217297
v -89.608551 0.999795 -17.833176
v -84.904037 0.999795 -10.899814
v -86.672539 0.999795 -9.854911
v -87.098083 0.999795 -9.053524
v -89.975182 0.999795 -8.923983
v -91.656090 0.999795 -9.891684
v -91.452560 0.999795 -13.061032
v -90.702332 0.999795 -14.019571
v -77.991249 0.999795 -17.389254
v -85.135338 0.999795 -2.726160
v -86.952919 0.999795 -1.516935
v -78.986694 0.999795 -16.511696
v -79.444382 0.999795 -15.586857
v -81.049232 0.999795 -14.086723
v -81.555267 0.999795 -14.787518
v -82.316177 0.999795 -12.637882
v -82.995895 0.999795 -9.989385
v -87.650482 0.999795 -1.531673
v -83.504173 0.999795 -7.933674
v -83.383072 0.999795 -8.755174
v -77.584846 -0.000205 -18.216848
v -80.130508 -0.000205 -22.779989
v -90.382370 -0.000205 -18.185280
v -85.701180 -0.000205 -19.217297
v -82.910072 -0.000205 -20.433279
v -81.682419 -0.000205 -20.567739
v -89.975182 -0.000205 -8.923983
v -91.924530 -0.000205 -11.077917
v -91.452560 -0.000205 -13.061032
v -77.991249 -0.000205 -17.389254
v -79.265129 -0.000205 -13.737060
v -81.049232 -0.000205 -14.086723
v -81.555267 -0.000205 -14.787518
v -82.995895 -0.000205 -9.989385
v -82.708031 -0.000205 -7.439917
v -83.575424 -0.000205 -6.436916
v -83.892151 -0.000205 -8.004493
v -84.062981 -0.000205 -10.502042
v -84.445412 -0.000205 -6.271536
v -82.550354 0.999795 -23.769833
v -82.635811 0.999795 -22.421547
v -90.382370 0.999795 -18.185280
v -88.285370 0.999795 -19.832285
v -85.739845 0.999795 -17.752197
v -83.282188 0.999795 -18.921989
v -82.910072 0.999795 -20.433279
v -81.682419 0.999795 -20.567739
v -84.062981 0.999795 -10.502042
v -84.085068 0.999795 -11.418833
v -84.735718 0.999795 -11.557751
v -85.555023 0.999795 -10.783775
v -88.231956 0.999795 -8.554937
v -88.126328 0.999795 -7.498539
v -89.485298 0.999795 -8.259116
v -91.924530 0.999795 -11.077917
v -90.568619 0.999795 -13.994552
v -88.777122 0.999795 -16.280405
v -79.563950 0.999795 -14.741651
v -79.265129 0.999795 -13.737060
v -80.286018 0.999795 -13.497533
v -82.708031 0.999795 -7.439917
v -83.575424 0.999795 -6.436916
v -84.422264 0.999795 -5.110279
v -84.445412 0.999795 -6.271536
v -83.892151 0.999795 -8.004493
v -86.942581 0.999795 -2.690924
v -86.814026 0.999795 -4.768080
vt 0.738549 0.479419
vt 0.699431 0.487664
vt 0.681172 0.482490
vt 0.680977 0.476096
vt 0.689687 0.468967
vt 0.706865 0.466414
vt 0.701811 0.457453
vt 0.710231 0.447592
vt 0.706209 0.425277
vt 0.696481 0.432656
vt 0.679766 0.418154
vt 0.680725 0.395961
vt 0.686867 0.399488
vt 0.701415 0.397571
vt 0.708182 0.374342
vt 0.707363 0.373559
vt 0.710206 0.363825
vt 0.721335 0.350997
vt 0.730667 0.347051
vt 0.745382 0.353726
vt 0.752261 0.353812
vt 0.764010 0.359314
vt 0.756348 0.363731
vt 0.758482 0.373827
vt 0.755125 0.380600
vt 0.754268 0.392676
vt 0.756645 0.397645
vt 0.753010 0.401981
vt 0.757111 0.405709
vt 0.763423 0.401405
vt 0.778548 0.397520
vt 0.783519 0.392710
vt 0.781155 0.390428
vt 0.790196 0.378266
vt 0.788865 0.354932
vt 0.802298 0.343971
vt 0.806705 0.333548
vt 0.810193 0.338198
vt 0.810839 0.356373
vt 0.798168 0.372781
vt 0.793303 0.384957
vt 0.790729 0.395700
vt 0.772076 0.406136
vt 0.757453 0.423603
vt 0.746602 0.439195
vt 0.753803 0.439215
vt 0.761498 0.441518
vt 0.764836 0.449591
vt 0.756586 0.452449
vt 0.751446 0.457364
vt 0.747411 0.464954
vt 0.746307 0.475955
vt 0.742681 0.482725
vt 0.322316 0.022744
vt 0.306571 0.022744
vt 0.306571 0.029632
vt 0.322316 0.029632
vt 0.583375 0.053537
vt 0.571096 0.053537
vt 0.571096 0.060425
vt 0.583375 0.060425
vt 0.333012 0.022744
vt 0.333012 0.029632
vt 0.566707 0.053537
vt 0.566707 0.060425
vt 0.329954 0.022744
vt 0.335654 0.022744
vt 0.335654 0.029632
vt 0.329954 0.029632
vt 0.373904 0.022744
vt 0.364617 0.022744
vt 0.364617 0.029632
vt 0.373904 0.029632
vt 0.536382 0.053537
vt 0.548902 0.053537
vt 0.548902 0.060425
vt 0.536382 0.060425
vt 0.527204 0.053537
vt 0.512760 0.053537
vt 0.512760 0.060425
vt 0.527204 0.060425
vt 0.591254 0.053537
vt 0.598111 0.053537
vt 0.598111 0.060425
vt 0.591254 0.060425
vt 0.545004 0.053537
vt 0.545004 0.060425
vt 0.317539 0.022744
vt 0.323909 0.022744
vt 0.323909 0.029632
vt 0.317539 0.029632
vt 0.332454 0.022744
vt 0.342545 0.022744
vt 0.342545 0.029632
vt 0.332454 0.029632
vt 0.311717 0.022744
vt 0.311717 0.029632
vt 0.561666 0.053537
vt 0.544738 0.053537
vt 0.544738 0.060425
vt 0.561666 0.060425
vt 0.304797 0.022744
vt 0.304797 0.029632
vt 0.350921 0.022744
vt 0.340511 0.022744
vt 0.340511 0.029632
vt 0.350921 0.029632
vt 0.582304 0.053537
vt 0.589336 0.053537
vt 0.589336 0.060425
vt 0.582304 0.060425
vt 0.577047 0.053537
vt 0.577047 0.060425
vt 0.351847 0.022744
vt 0.351847 0.029632
vt 0.312033 0.022744
vt 0.307206 0.022744
vt 0.307206 0.029632
vt 0.312033 0.029632
vt 0.518090 0.053537
vt 0.518090 0.060425
vt 0.297226 0.022744
vt 0.297226 0.029632
vt 0.288829 0.022744
vt 0.282514 0.022744
vt 0.282514 0.029632
vt 0.288829 0.029632
vt 0.278983 0.022744
vt 0.278983 0.029632
vt 0.551654 0.053537
vt 0.556136 0.053537
vt 0.556136 0.060425
vt 0.551654 0.060425
vt 0.261422 0.022744
vt 0.261422 0.029632
vt 0.285254 0.022744
vt 0.289786 0.022744
vt 0.289786 0.029632
vt 0.285254 0.029632
vt 0.546011 0.053537
vt 0.550495 0.053537
vt 0.550495 0.060425
vt 0.546011 0.060425
vt 0.245375 0.022744
vt 0.254513 0.022744
vt 0.254513 0.029632
vt 0.245375 0.029632
vt 0.538313 0.053537
vt 0.538313 0.060425
vt 0.228953 0.022744
vt 0.228953 0.029632
vt 0.272537 0.022744
vt 0.278057 0.022744
vt 0.278057 0.029632
vt 0.272537 0.029632
vt 0.531577 0.053537
vt 0.531577 0.060425
vt 0.527572 0.053537
vt 0.535382 0.053537
vt 0.535382 0.060425
vt 0.527572 0.060425
vt 0.261826 0.022744
vt 0.269103 0.022744
vt 0.269103 0.029632
vt 0.261826 0.029632
vt 0.560137 0.053537
vt 0.557465 0.053537
vt 0.557465 0.060425
vt 0.560137 0.060425
vt 0.518939 0.053537
vt 0.528300 0.053537
vt 0.528300 0.060425
vt 0.518939 0.060425
vt 0.270482 0.022744
vt 0.264823 0.022744
vt 0.264823 0.029632
vt 0.270482 0.029632
vt 0.271644 0.022744
vt 0.267065 0.022744
vt 0.267065 0.029632
vt 0.271644 0.029632
vt 0.503986 0.053537
vt 0.515565 0.053537
vt 0.515565 0.060425
vt 0.503986 0.060425
vt 0.243018 0.022744
vt 0.228711 0.022744
vt 0.228711 0.029632
vt 0.243018 0.029632
vt 0.286481 0.022744
vt 0.278310 0.022744
vt 0.278310 0.029632
vt 0.286481 0.029632
vt 0.553654 0.053537
vt 0.537339 0.053537
vt 0.537339 0.060425
vt 0.553654 0.060425
vt 0.300141 0.022744
vt 0.300141 0.029632
vt 0.220726 0.022744
vt 0.220726 0.029632
vt 0.306743 0.022744
vt 0.306743 0.029632
vt 0.600910 0.053537
vt 0.596698 0.053537
vt 0.596698 0.060425
vt 0.600910 0.060425
vt 0.511477 0.053537
vt 0.510556 0.053537
vt 0.510556 0.060425
vt 0.511477 0.060425
vt 0.336835 0.022744
vt 0.367086 0.022744
vt 0.367086 0.029632
vt 0.336835 0.029632
vt 0.572686 0.053537
vt 0.564230 0.053537
vt 0.564230 0.060425
vt 0.572686 0.060425
vt 0.265311 0.022744
vt 0.253374 0.022744
vt 0.253374 0.029632
vt 0.265311 0.029632
vn 0.0000 1.0000 -0.0000
vn -0.7871 0.0000 -0.6169
vn 0.6226 0.0000 -0.7825
vn -0.8816 0.0000 0.4720
vn -0.5582 0.0000 -0.8297
vn 0.8976 0.0000 0.4408
vn -0.9980 0.0000 -0.0633
vn 0.5539 0.0000 0.8326
vn -0.6177 0.0000 -0.7864
vn 0.6613 0.0000 0.7501
vn 0.2315 0.0000 -0.9728
vn 0.8963 0.0000 0.4435
vn 0.9997 0.0000 0.0264
vn 0.9901 0.0000 0.1401
vn -0.4298 0.0000 -0.9029
vn 0.9585 0.0000 -0.2851
vn -0.9710 0.0000 -0.2391
vn 0.2284 0.0000 0.9736
vn -0.6111 0.0000 0.7916
vn -0.8893 0.0000 0.4573
vn -0.8107 0.0000 0.5854
vn -0.4142 0.0000 0.9102
vn 0.9427 0.0000 0.3337
vn -0.9997 0.0000 0.0241
vn 0.9686 0.0000 0.2486
vn -0.2088 0.0000 0.9780
vn 0.9937 0.0000 -0.1122
vn 0.9688 0.0000 0.2478
vn 0.1755 0.0000 0.9845
vn 0.8429 0.0000 0.5381
vn 0.6392 0.0000 0.7690
vn 0.9581 0.0000 0.2866
vn 0.8832 0.0000 0.4690
vn -0.0211 0.0000 0.9998
vn 0.4025 0.0000 0.9154
vn 0.9950 0.0000 -0.0995
vn 0.1796 0.0000 -0.9837
vn -0.4884 0.0000 0.8726
vn -0.9893 0.0000 -0.1458
vn -0.8051 0.0000 0.5932
vn -0.9319 0.0000 0.3627
vn -0.4989 0.0000 0.8666
vn -0.9981 0.0000 -0.0618
vn -0.9753 0.0000 0.2207
vn -0.5359 0.0000 -0.8443
vn -0.9728 0.0000 -0.2315
vn -0.8535 0.0000 -0.5212
vn -0.7875 0.0000 -0.6163
vn 0.2700 0.0000 -0.9629
vn 0.1839 0.0000 -0.9829
vn 0.9152 0.0000 -0.4030
vn -0.1089 0.0000 -0.9941
vn 0.7564 0.0000 0.6541
vn -0.9526 0.0000 -0.3041
s off
f 36/1/1 37/2/1 38/3/1 79/4/1 80/5/1 86/6/1 85/7/1 84/8/1 83/9/1 39/10/1 82/11/1 81/12/1 40/13/1 96/14/1 95/15/1 47/16/1 46/17/1 94/18/1 45/19/1 44/20/1 93/21/1 92/22/1 91/23/1 43/24/1 42/25/1 90/26/1 41/27/1 89/28/1 88/29/1 87/30/1 59/31/1 58/32/1 104/33/1 103/34/1 106/35/1 105/36/1 57/37/1 50/38/1 49/39/1 102/40/1 101/41/1 100/42/1 56/43/1 55/44/1 54/45/1 53/46/1 99/47/1 98/48/1 97/49/1 52/50/1 51/51/1 48/52/1 35/53/1
f 20/54/2 19/55/2 95/56/2 96/57/2
f 61/58/3 2/59/3 38/60/3 37/61/3
f 21/62/4 20/54/4 96/57/4 40/63/4
f 2/59/5 3/64/5 79/65/5 38/60/5
f 69/66/6 60/67/6 35/68/6 48/69/6
f 3/70/7 7/71/7 80/72/7 79/73/7
f 22/74/8 29/75/8 49/76/8 50/77/8
f 4/78/9 62/79/9 81/80/9 82/81/9
f 23/82/10 69/83/10 48/84/10 51/85/10
f 63/86/11 4/78/11 82/81/11 39/87/11
f 24/88/12 23/89/12 51/90/12 52/91/12
f 5/92/13 63/93/13 39/94/13 83/95/13
f 25/96/14 24/88/14 52/91/14 97/97/14
f 6/98/15 5/99/15 83/100/15 84/101/15
f 70/102/16 25/96/16 97/97/16 98/103/16
f 64/104/17 6/105/17 84/106/17 85/107/17
f 26/108/18 70/109/18 98/110/18 99/111/18
f 71/112/19 26/108/19 99/111/19 53/113/19
f 7/71/20 65/114/20 86/115/20 80/72/20
f 72/116/21 71/117/21 53/118/21 54/119/21
f 62/79/22 21/120/22 40/121/22 81/80/22
f 27/122/23 72/116/23 54/119/23 55/123/23
f 8/124/24 77/125/24 87/126/24 88/127/24
f 73/128/25 27/122/25 55/123/25 56/129/25
f 9/130/26 8/131/26 88/132/26 89/133/26
f 74/134/27 73/128/27 56/129/27 100/135/27
f 10/136/28 9/137/28 89/138/28 41/139/28
f 11/140/29 10/141/29 41/142/29 90/143/29
f 28/144/30 75/145/30 101/146/30 102/147/30
f 12/148/31 11/140/31 90/143/31 42/149/31
f 29/150/32 28/144/32 102/147/32 49/151/32
f 13/152/33 12/153/33 42/154/33 43/155/33
f 30/156/34 22/74/34 50/77/34 57/157/34
f 14/158/35 13/159/35 43/160/35 91/161/35
f 15/162/36 14/163/36 91/164/36 92/165/36
f 31/166/37 76/167/37 104/168/37 58/169/37
f 16/170/38 15/171/38 92/172/38 93/173/38
f 32/174/39 31/175/39 58/176/39 59/177/39
f 66/178/40 16/179/40 93/180/40 44/181/40
f 77/125/41 32/174/41 59/177/41 87/126/41
f 17/182/42 66/183/42 44/184/42 45/185/42
f 33/186/43 34/187/43 105/188/43 106/189/43
f 67/190/44 17/191/44 45/192/44 94/193/44
f 78/194/45 33/195/45 106/196/45 103/197/45
f 68/198/46 67/190/46 94/193/46 46/199/46
f 34/187/47 30/200/47 57/201/47 105/188/47
f 18/202/48 68/198/48 46/199/48 47/203/48
f 60/204/49 1/205/49 36/206/49 35/207/49
f 19/208/50 18/209/50 47/210/50 95/211/50
f 1/212/51 61/213/51 37/214/51 36/215/51
f 65/216/52 64/217/52 85/218/52 86/219/52
f 75/145/53 74/134/53 100/135/53 101/146/53
f 76/220/54 78/221/54 103/222/54 104/223/54
