# Blender v2.92.0 OBJ File: 'world.blend'
# www.blender.org
v -55.363113 -0.000204 -66.242943
v -58.713154 -0.000205 -52.715057
v -72.089714 -0.000204 -45.434017
v -70.581001 -0.000205 -47.091652
v -64.681778 -0.000205 -51.300854
v -59.962494 -0.000205 -52.698444
v -49.219719 -0.000205 -51.668076
v -50.167027 -0.000204 -62.884010
v -69.780296 -0.000204 -72.015358
v -57.872673 -0.000204 -68.685211
v -58.301346 -0.000204 -69.829391
v -58.754509 -0.000204 -76.654678
v -60.598930 -0.000204 -74.542549
v -63.087933 -0.000204 -76.654678
v -60.406864 -0.000204 -66.288361
v -59.141953 -0.000204 -65.563629
v -69.533951 -0.000204 -74.962463
v -68.264137 -0.000204 -62.003639
v -73.273338 -0.000205 -47.370964
v -70.935257 -0.000204 -66.386818
v -72.065361 -0.000204 -60.872833
v -68.962654 -0.000205 -54.479073
v -55.363113 0.999796 -66.242943
v -50.820442 0.999795 -48.945446
v -59.962494 0.999795 -52.698444
v -50.167027 0.999796 -62.884010
v -72.089714 0.999796 -45.434017
v -70.581001 0.999795 -47.091652
v -67.586922 0.999795 -47.024136
v -49.219719 0.999795 -51.668076
v -73.041145 0.999796 -44.940922
v -73.273338 0.999795 -47.370964
v -58.301346 0.999796 -69.829391
v -58.754509 0.999796 -76.654678
v -61.305222 0.999796 -73.791351
v -63.396671 0.999796 -76.228676
v -60.406864 0.999796 -66.288361
v -59.141953 0.999796 -65.563629
v -60.992451 0.999796 -65.222672
v -62.996983 0.999796 -67.952690
v -62.749481 0.999796 -72.831917
v -61.792969 0.999796 -74.578278
v -72.661499 0.999796 -59.482246
v -69.759941 0.999795 -51.261013
v -70.935257 0.999796 -66.386818
v -68.264137 0.999796 -62.003639
v -72.065361 0.999796 -60.872833
v -55.040527 -0.000204 -70.582550
v -51.458202 -0.000205 -51.071514
v -50.820442 -0.000205 -48.945446
v -72.286713 -0.000204 -44.128387
v -67.586922 -0.000205 -47.024136
v -62.042561 -0.000205 -50.561543
v -49.372559 -0.000205 -55.259163
v -73.041145 -0.000204 -44.940922
v -56.601643 -0.000204 -71.405403
v -56.444183 -0.000204 -74.204987
v -61.064800 -0.000204 -76.654678
v -61.305222 -0.000204 -73.791351
v -61.178635 -0.000204 -69.609344
v -61.918682 -0.000204 -69.052490
v -60.992451 -0.000204 -65.222672
v -62.996983 -0.000204 -67.952690
v -62.996841 -0.000204 -69.675072
v -62.102005 -0.000204 -71.205513
v -62.749481 -0.000204 -72.831917
v -61.792969 -0.000204 -74.578278
v -63.396671 -0.000204 -76.228676
v -66.777336 -0.000204 -76.477394
v -67.947197 -0.000204 -58.030769
v -69.759941 -0.000205 -51.261013
v -72.661499 -0.000204 -59.482246
v -72.791107 -0.000205 -52.786129
v -55.040527 0.999796 -70.582550
v -51.458202 0.999795 -51.071514
v -58.713154 0.999795 -52.715057
v -72.286713 0.999796 -44.128387
v -64.681778 0.999795 -51.300854
v -62.042561 0.999795 -50.561543
v -49.372559 0.999795 -55.259163
v -69.533951 0.999796 -74.962463
v -69.780296 0.999796 -72.015358
v -57.872673 0.999796 -68.685211
v -56.601643 0.999796 -71.405403
v -56.444183 0.999796 -74.204987
v -61.064800 0.999796 -76.654678
v -60.598930 0.999796 -74.542549
v -61.178635 0.999796 -69.609344
v -63.087933 0.999796 -76.654678
v -61.918682 0.999796 -69.052490
v -62.996841 0.999796 -69.675072
v -62.102005 0.999796 -71.205513
v -66.777336 0.999796 -76.477394
v -67.947197 0.999796 -58.030769
v -72.791107 0.999795 -52.786129
v -68.962654 0.999795 -54.479073
vt 0.846716 0.558812
vt 0.867472 0.592359
vt 0.836757 0.588956
vt 0.838098 0.599951
vt 0.858363 0.605510
vt 0.871346 0.627364
vt 0.863020 0.656733
vt 0.844442 0.666402
vt 0.839348 0.647467
vt 0.830524 0.644383
vt 0.814039 0.610223
vt 0.805758 0.608842
vt 0.806346 0.580287
vt 0.813485 0.569165
vt 0.797177 0.574168
vt 0.792484 0.604511
vt 0.799693 0.618361
vt 0.813295 0.626924
vt 0.814895 0.642712
vt 0.829895 0.652752
vt 0.823907 0.672736
vt 0.828173 0.674870
vt 0.797762 0.688885
vt 0.769254 0.688240
vt 0.754939 0.665572
vt 0.722094 0.625143
vt 0.725229 0.578717
vt 0.689929 0.585532
vt 0.679315 0.576845
vt 0.711150 0.545442
vt 0.688120 0.521131
vt 0.650248 0.523540
vt 0.668240 0.498590
vt 0.623706 0.482012
vt 0.615403 0.461499
vt 0.618069 0.451808
vt 0.625118 0.461483
vt 0.644187 0.468498
vt 0.667982 0.455424
vt 0.709243 0.477657
vt 0.727372 0.460665
vt 0.753042 0.469144
vt 0.763159 0.464049
vt 0.814620 0.420468
vt 0.810851 0.400702
vt 0.835118 0.415897
vt 0.848919 0.445414
vt 0.874442 0.510055
vt 0.748939 0.004159
vt 0.792737 0.004159
vt 0.792737 0.022038
vt 0.748939 0.022038
vt 0.262975 0.004159
vt 0.339438 0.004159
vt 0.339438 0.022038
vt 0.262975 0.022038
vt 0.724390 0.004159
vt 0.755613 0.004159
vt 0.755613 0.022038
vt 0.724390 0.022038
vt 0.546524 0.004159
vt 0.505218 0.004159
vt 0.505218 0.022038
vt 0.546524 0.022038
vt 0.440551 0.004159
vt 0.487737 0.004159
vt 0.487737 0.022038
vt 0.440551 0.022038
vt 0.785120 0.004159
vt 0.785120 0.022038
vt 0.792737 0.004159
vt 0.754974 0.004159
vt 0.754974 0.022038
vt 0.792737 0.022038
vt 0.326220 0.004159
vt 0.364425 0.004159
vt 0.364425 0.022038
vt 0.326220 0.022038
vt 0.469047 0.004159
vt 0.403084 0.004159
vt 0.403084 0.022038
vt 0.469047 0.022038
vt 0.741543 0.004159
vt 0.741543 0.022038
vt 0.297326 0.004159
vt 0.346003 0.004159
vt 0.346003 0.022038
vt 0.297326 0.022038
vt 0.353799 0.004159
vt 0.353799 0.022038
vt 0.666774 0.004159
vt 0.666774 0.022038
vt 0.410208 0.004159
vt 0.410208 0.022038
vt 0.297882 0.004159
vt 0.382169 0.004159
vt 0.382169 0.022038
vt 0.297882 0.022038
vt 0.792737 0.004159
vt 0.792737 0.022038
vt 0.546532 0.004159
vt 0.546532 0.022038
vt 0.295565 0.004159
vt 0.349759 0.004159
vt 0.349759 0.022038
vt 0.295565 0.022038
vt 0.606586 0.004159
vt 0.684174 0.004159
vt 0.684174 0.022038
vt 0.606586 0.022038
vt 0.225729 0.004159
vt 0.211202 0.004159
vt 0.211202 0.022038
vt 0.225729 0.022038
vt 0.609158 0.004159
vt 0.530792 0.004159
vt 0.530792 0.022038
vt 0.609158 0.022038
vt 0.547263 0.004159
vt 0.676974 0.004159
vt 0.676974 0.022038
vt 0.547263 0.022038
vt 0.656818 0.004159
vt 0.607398 0.004159
vt 0.607398 0.022038
vt 0.656818 0.022038
vt 0.762482 0.004159
vt 0.709791 0.004159
vt 0.709791 0.022038
vt 0.762482 0.022038
vt 0.338725 0.004159
vt 0.269176 0.004159
vt 0.269176 0.022038
vt 0.338725 0.022038
vt 0.335337 0.004159
vt 0.335337 0.022038
vt 0.516981 0.004159
vt 0.539597 0.004159
vt 0.539597 0.022038
vt 0.516981 0.022038
vt 0.510574 0.004159
vt 0.485712 0.004159
vt 0.485712 0.022038
vt 0.510574 0.022038
vt 0.524926 0.004159
vt 0.524926 0.022038
vt 0.506512 0.004159
vt 0.506512 0.022038
vt 0.612926 0.004159
vt 0.562290 0.004159
vt 0.562290 0.022038
vt 0.612926 0.022038
vt 0.364013 0.004159
vt 0.364013 0.022038
vt 0.700059 0.004159
vt 0.607158 0.004159
vt 0.607158 0.022038
vt 0.700059 0.022038
vt 0.588345 0.004159
vt 0.637154 0.004159
vt 0.637154 0.022038
vt 0.588345 0.022038
vt 0.650251 0.004159
vt 0.670708 0.004159
vt 0.670708 0.022038
vt 0.650251 0.022038
vt 0.234545 0.004159
vt 0.234545 0.022038
vt 0.667949 0.004159
vt 0.667949 0.022038
vt 0.554626 0.004159
vt 0.585015 0.004159
vt 0.585015 0.022038
vt 0.554626 0.022038
vt 0.376502 0.004159
vt 0.308540 0.004159
vt 0.308540 0.022038
vt 0.376502 0.022038
vt 0.264182 0.004159
vt 0.264182 0.022038
vt 0.459761 0.004159
vt 0.396261 0.004159
vt 0.396261 0.022038
vt 0.459761 0.022038
vt 0.335079 0.004159
vt 0.388610 0.004159
vt 0.388610 0.022038
vt 0.335079 0.022038
vt 0.695311 0.004159
vt 0.695311 0.022038
vt 0.503183 0.004159
vt 0.489952 0.004159
vt 0.489952 0.022038
vt 0.503183 0.022038
vt 0.698885 0.004159
vt 0.698885 0.022038
vn 0.0000 1.0000 0.0000
vn 0.7275 0.0000 -0.6861
vn 0.8272 0.0000 0.5619
vn 0.8771 0.0000 0.4804
vn 0.0000 0.0000 -1.0000
vn -0.2697 0.0000 0.9629
vn 0.7172 0.0000 -0.6969
vn -0.9765 0.0000 0.2154
vn 0.7166 0.0000 0.6975
vn -0.0480 0.0000 -0.9988
vn -0.7285 0.0000 -0.6850
vn 0.8620 0.0000 0.5068
vn -0.4816 0.0000 -0.8764
vn -0.9995 0.0000 0.0303
vn 0.9991 0.0000 -0.0425
vn -0.2943 0.0000 0.9557
vn 0.8097 0.0000 0.5868
vn 0.9946 0.0000 -0.1036
vn -0.4495 0.0000 0.8933
vn 0.9972 0.0000 0.0741
vn -0.7328 0.0000 0.6804
vn -0.8539 0.0000 0.5204
vn -0.2209 0.0000 0.9753
vn -0.8773 0.0000 0.4799
vn -0.9965 0.0000 -0.0833
vn -0.7421 0.0000 -0.6703
vn -0.9578 0.0000 0.2873
vn -0.4971 0.0000 0.8677
vn -0.9955 0.0000 0.0951
vn -0.9191 0.0000 -0.3940
vn 0.0133 0.0000 0.9999
vn -0.1812 0.0000 -0.9834
vn -0.5566 0.0000 -0.8308
vn -0.4044 0.0000 -0.9146
vn 0.5429 0.0000 -0.8398
vn 0.8061 0.0000 -0.5918
vn 0.9364 0.0000 -0.3508
vn -0.9796 0.0000 -0.2010
vn 0.9888 0.0000 0.1492
vn 1.0000 0.0000 0.0001
vn 0.6799 0.0000 0.7333
vn -0.2851 0.0000 -0.9585
vn 0.7395 0.0000 0.6731
vn -0.9615 0.0000 -0.2749
vn -0.0225 0.0000 0.9997
vn 0.9291 0.0000 -0.3699
vn -0.6013 0.0000 -0.7991
vn 0.8633 0.0000 0.5047
vn 0.9984 0.0000 0.0562
s off
f 23/1/1 74/2/1 83/3/1 33/4/1 84/5/1 85/6/1 34/7/1 86/8/1 87/9/1 35/10/1 88/11/1 90/12/1 37/13/1 38/14/1 39/15/1 40/16/1 91/17/1 92/18/1 41/19/1 42/20/1 36/21/1 89/22/1 93/23/1 81/24/1 82/25/1 45/26/1 46/27/1 47/28/1 43/29/1 94/30/1 96/31/1 95/32/1 44/33/1 32/34/1 31/35/1 77/36/1 27/37/1 28/38/1 29/39/1 78/40/1 79/41/1 25/42/1 76/43/1 75/44/1 24/45/1 30/46/1 80/47/1 26/48/1
f 57/49/2 12/50/2 34/51/2 85/52/2
f 52/53/3 5/54/3 78/55/3 29/56/3
f 66/57/4 67/58/4 42/59/4 41/60/4
f 12/61/5 58/62/5 86/63/5 34/64/5
f 5/65/6 53/66/6 79/67/6 78/68/6
f 67/58/7 68/69/7 36/70/7 42/59/7
f 58/71/8 13/72/8 87/73/8 86/74/8
f 53/75/9 6/76/9 25/77/9 79/78/9
f 14/79/10 69/80/10 93/81/10 89/82/10
f 13/72/11 59/83/11 35/84/11 87/73/11
f 50/85/12 7/86/12 30/87/12 24/88/12
f 69/80/13 17/89/13 81/90/13 93/81/13
f 59/83/14 60/91/14 88/92/14 35/84/14
f 7/86/15 54/93/15 80/94/15 30/87/15
f 72/95/16 70/96/16 94/97/16 43/98/16
f 68/69/17 14/99/17 89/100/17 36/70/17
f 54/93/18 8/101/18 26/102/18 80/94/18
f 73/103/19 71/104/19 44/105/19 95/106/19
f 1/107/20 48/108/20 74/109/20 23/110/20
f 55/111/21 51/112/21 77/113/21 31/114/21
f 20/115/22 18/116/22 46/117/22 45/118/22
f 2/119/23 49/120/23 75/121/23 76/122/23
f 61/123/24 15/124/24 37/125/24 90/126/24
f 17/127/25 9/128/25 82/129/25 81/130/25
f 71/131/26 19/132/26 32/133/26 44/134/26
f 49/135/27 50/85/27 24/88/27 75/136/27
f 15/137/28 16/138/28 38/139/28 37/140/28
f 19/132/29 55/111/29 31/114/29 32/133/29
f 21/141/30 72/142/30 43/143/30 47/144/30
f 6/145/31 2/119/31 76/122/31 25/146/31
f 16/138/32 62/147/32 39/148/32 38/139/32
f 48/149/33 10/150/33 83/151/33 74/152/33
f 22/153/34 73/103/34 95/106/34 96/154/34
f 8/155/35 1/156/35 23/157/35 26/158/35
f 62/159/36 63/160/36 40/161/36 39/162/36
f 10/163/37 11/164/37 33/165/37 83/166/37
f 9/128/38 20/115/38 45/118/38 82/129/38
f 51/112/39 3/167/39 27/168/39 77/113/39
f 63/160/40 64/169/40 91/170/40 40/161/40
f 11/171/41 56/172/41 84/173/41 33/174/41
f 18/175/42 21/176/42 47/177/42 46/178/42
f 3/167/43 4/179/43 28/180/43 27/168/43
f 70/181/44 22/182/44 96/183/44 94/184/44
f 4/185/45 52/186/45 29/187/45 28/188/45
f 65/189/46 66/57/46 41/60/46 92/190/46
f 60/191/47 61/192/47 90/193/47 88/194/47
f 64/169/48 65/189/48 92/190/48 91/170/48
f 56/195/49 57/49/49 85/52/49 84/196/49
