# Blender v2.92.0 OBJ File: 'world.blend'
# www.blender.org
v -54.791214 -0.000204 -70.564018
v -55.102802 -0.000204 -66.372353
v -58.739475 -0.000205 -52.464684
v -51.655739 -0.000205 -50.859928
v -50.895294 -0.000205 -48.324867
v -72.116913 -0.000204 -43.578094
v -71.853821 -0.000204 -45.321785
v -70.472778 -0.000205 -46.839149
v -67.456558 -0.000205 -46.771133
v -64.576035 -0.000205 -51.011608
v -61.966999 -0.000205 -50.280754
v -59.855598 -0.000205 -52.449844
v -48.966808 -0.000205 -51.604980
v -49.123112 -0.000205 -55.277451
v -49.930779 -0.000204 -63.028976
v -73.281960 -0.000204 -44.832859
v -70.025192 -0.000204 -72.065613
v -57.872673 -0.000204 -68.685211
v -58.301346 -0.000204 -69.829391
v -56.601643 -0.000204 -71.405403
v -56.444183 -0.000204 -74.204987
v -58.754509 -0.000204 -76.654678
v -61.064800 -0.000204 -76.654678
v -60.598930 -0.000204 -74.542549
v -61.305222 -0.000204 -73.791351
v -61.178635 -0.000204 -69.609344
v -63.087933 -0.000204 -76.654678
v -61.918682 -0.000204 -69.052490
v -60.406864 -0.000204 -66.288361
v -59.141953 -0.000204 -65.563629
v -60.992451 -0.000204 -65.222672
v -62.996983 -0.000204 -67.952690
v -62.996841 -0.000204 -69.675072
v -62.102005 -0.000204 -71.205513
v -62.749481 -0.000204 -72.831917
v -61.792969 -0.000204 -74.578278
v -63.396671 -0.000204 -76.228676
v -66.777336 -0.000204 -76.477394
v -69.533951 -0.000204 -74.962463
v -68.254913 -0.000204 -57.863930
v -70.165352 -0.000205 -51.185131
v -68.646530 -0.000204 -62.150711
v -73.532677 -0.000205 -47.456806
v -73.000847 -0.000204 -59.325150
v -73.376305 -0.000205 -52.800705
v -71.199928 -0.000204 -66.340714
v -72.248962 -0.000204 -61.079041
v -69.170837 -0.000205 -54.660366
v -55.102802 0.999796 -66.372353
v -54.791214 0.999796 -70.564018
v -51.655739 0.999795 -50.859928
v -58.739475 0.999795 -52.464684
v -50.895294 0.999795 -48.324867
v -59.855598 0.999795 -52.449844
v -49.930779 0.999796 -63.028976
v -72.116913 0.999796 -43.578094
v -71.853821 0.999796 -45.321785
v -70.472778 0.999795 -46.839149
v -67.456558 0.999795 -46.771133
v -64.576035 0.999795 -51.011608
v -61.966999 0.999795 -50.280754
v -48.966808 0.999795 -51.604980
v -49.123112 0.999795 -55.277451
v -73.281960 0.999796 -44.832859
v -69.533951 0.999796 -74.962463
v -70.025192 0.999796 -72.065613
v -73.532677 0.999795 -47.456806
v -57.872673 0.999796 -68.685211
v -58.301346 0.999796 -69.829391
v -56.601643 0.999796 -71.405403
v -56.444183 0.999796 -74.204987
v -58.754509 0.999796 -76.654678
v -61.064800 0.999796 -76.654678
v -60.598930 0.999796 -74.542549
v -61.305222 0.999796 -73.791351
v -61.178635 0.999796 -69.609344
v -63.396671 0.999796 -76.228676
v -63.087933 0.999796 -76.654678
v -61.918682 0.999796 -69.052490
v -60.406864 0.999796 -66.288361
v -59.141953 0.999796 -65.563629
v -60.992451 0.999796 -65.222672
v -62.996983 0.999796 -67.952690
v -62.996841 0.999796 -69.675072
v -62.102005 0.999796 -71.205513
v -62.749481 0.999796 -72.831917
v -61.792969 0.999796 -74.578278
v -66.777336 0.999796 -76.477394
v -73.000847 0.999796 -59.325150
v -68.254913 0.999796 -57.863930
v -73.376305 0.999795 -52.800705
v -70.165352 0.999795 -51.185131
v -71.199928 0.999796 -66.340714
v -68.646530 0.999796 -62.150711
v -72.248962 0.999796 -61.079041
v -69.170837 0.999795 -54.660366
vt 0.505561 0.440608
vt 0.527216 0.444299
vt 0.513810 0.457568
vt 0.519075 0.461181
vt 0.529208 0.454541
vt 0.543607 0.457263
vt 0.553128 0.472064
vt 0.550223 0.483784
vt 0.540094 0.478764
vt 0.535395 0.481402
vt 0.514340 0.475500
vt 0.510585 0.478554
vt 0.498464 0.467409
vt 0.496378 0.460081
vt 0.492322 0.469039
vt 0.503649 0.482641
vt 0.512387 0.484807
vt 0.521276 0.482192
vt 0.528712 0.487522
vt 0.538774 0.484866
vt 0.545129 0.495077
vt 0.547678 0.494047
vt 0.542139 0.512539
vt 0.530987 0.524618
vt 0.515674 0.523467
vt 0.485155 0.522226
vt 0.467112 0.504003
vt 0.457145 0.520930
vt 0.447302 0.522538
vt 0.445858 0.496625
vt 0.428455 0.497242
vt 0.413732 0.516237
vt 0.409575 0.497916
vt 0.386427 0.510309
vt 0.373432 0.505737
vt 0.368532 0.498249
vt 0.377708 0.499108
vt 0.387142 0.494010
vt 0.390591 0.478624
vt 0.415725 0.469345
vt 0.415298 0.455190
vt 0.428957 0.447208
vt 0.430436 0.441565
vt 0.431205 0.403612
vt 0.419301 0.396566
vt 0.438366 0.390908
vt 0.456799 0.396320
vt 0.495105 0.410166
vt 0.543607 0.457263
vt 0.553128 0.472064
vt 0.390591 0.478624
vt 0.415725 0.469345
vt 0.528712 0.487522
vt 0.538774 0.484866
vt 0.550223 0.483784
vt 0.415298 0.455190
vt 0.545129 0.495077
vt 0.540094 0.478764
vt 0.428957 0.447208
vt 0.547678 0.494047
vt 0.542139 0.512539
vt 0.535395 0.481402
vt 0.419301 0.396566
vt 0.438366 0.390908
vt 0.530987 0.524618
vt 0.514340 0.475500
vt 0.456799 0.396320
vt 0.447302 0.522538
vt 0.445858 0.496625
vt 0.495105 0.410166
vt 0.413732 0.516237
vt 0.409575 0.497916
vt 0.505561 0.440608
vt 0.527216 0.444299
vt 0.510585 0.478554
vt 0.373432 0.505737
vt 0.368532 0.498249
vt 0.485155 0.522226
vt 0.467112 0.504003
vt 0.430436 0.441565
vt 0.431205 0.403612
vt 0.498464 0.467409
vt 0.515674 0.523467
vt 0.386427 0.510309
vt 0.496378 0.460081
vt 0.457145 0.520930
vt 0.492322 0.469039
vt 0.513810 0.457568
vt 0.428455 0.497242
vt 0.503649 0.482641
vt 0.519075 0.461181
vt 0.377708 0.499108
vt 0.512387 0.484807
vt 0.529208 0.454541
vt 0.387142 0.494010
vt 0.521276 0.482192
vn 0.0000 1.0000 0.0000
vn 0.7275 0.0000 -0.6861
vn 0.8272 0.0000 0.5619
vn 0.8771 0.0000 0.4804
vn 0.0000 0.0000 -1.0000
vn -0.2697 0.0000 0.9629
vn 0.7172 0.0000 -0.6969
vn -0.9765 0.0000 0.2154
vn 0.7166 0.0000 0.6975
vn -0.0480 0.0000 -0.9988
vn -0.7285 0.0000 -0.6850
vn 0.8620 0.0000 0.5068
vn -0.4816 0.0000 -0.8764
vn -0.9995 0.0000 0.0303
vn 0.9991 0.0000 -0.0425
vn -0.2943 0.0000 0.9557
vn 0.8097 0.0000 0.5868
vn 0.9946 0.0000 -0.1036
vn -0.4495 0.0000 0.8933
vn 0.9972 0.0000 0.0741
vn -0.6013 0.0000 -0.7991
vn -0.7328 0.0000 0.6804
vn -0.8539 0.0000 0.5204
vn -0.2209 0.0000 0.9753
vn -0.8773 0.0000 0.4799
vn -0.9859 0.0000 -0.1672
vn -0.7421 0.0000 -0.6703
vn -0.9578 0.0000 0.2873
vn -0.4971 0.0000 0.8677
vn -0.9955 0.0000 0.0951
vn -0.9191 0.0000 -0.3940
vn 0.0133 0.0000 0.9999
vn -0.1812 0.0000 -0.9834
vn -0.5206 0.0000 -0.8538
vn -0.4044 0.0000 -0.9146
vn 0.5429 0.0000 -0.8398
vn 0.8061 0.0000 -0.5918
vn 0.9364 0.0000 -0.3508
vn -0.9796 0.0000 -0.2010
vn 0.9888 0.0000 0.1492
vn 1.0000 0.0000 0.0001
vn 0.6799 0.0000 0.7333
vn -0.2851 0.0000 -0.9585
vn 0.7395 0.0000 0.6731
vn 0.8633 0.0000 0.5047
vn 0.9984 0.0000 0.0562
vn -0.9615 0.0000 -0.2749
vn -0.0225 0.0000 0.9997
vn 0.9291 0.0000 -0.3699
s off
f 49/1/1 50/2/1 68/3/1 69/4/1 70/5/1 71/6/1 72/7/1 73/8/1 74/9/1 75/10/1 76/11/1 79/12/1 80/13/1 81/14/1 82/15/1 83/16/1 84/17/1 85/18/1 86/19/1 87/20/1 77/21/1 78/22/1 88/23/1 65/24/1 66/25/1 93/26/1 94/27/1 95/28/1 89/29/1 90/30/1 96/31/1 91/32/1 92/33/1 67/34/1 64/35/1 56/36/1 57/37/1 58/38/1 59/39/1 60/40/1 61/41/1 54/42/1 52/43/1 51/44/1 53/45/1 62/46/1 63/47/1 55/48/1
f 21/49/2 22/50/2 72/7/2 71/6/2
f 9/51/3 10/52/3 60/40/3 59/39/3
f 35/53/4 36/54/4 87/20/4 86/19/4
f 22/50/5 23/55/5 73/8/5 72/7/5
f 10/52/6 11/56/6 61/41/6 60/40/6
f 36/54/7 37/57/7 77/21/7 87/20/7
f 23/55/8 24/58/8 74/9/8 73/8/8
f 11/56/9 12/59/9 54/42/9 61/41/9
f 27/60/10 38/61/10 88/23/10 78/22/10
f 24/58/11 25/62/11 75/10/11 74/9/11
f 5/63/12 13/64/12 62/46/12 53/45/12
f 38/61/13 39/65/13 65/24/13 88/23/13
f 25/62/14 26/66/14 76/11/14 75/10/14
f 13/64/15 14/67/15 63/47/15 62/46/15
f 44/68/16 40/69/16 90/30/16 89/29/16
f 37/57/17 27/60/17 78/22/17 77/21/17
f 14/67/18 15/70/18 55/48/18 63/47/18
f 45/71/19 41/72/19 92/33/19 91/32/19
f 2/73/20 1/74/20 50/2/20 49/1/20
f 26/66/21 28/75/21 79/12/21 76/11/21
f 16/76/22 6/77/22 56/36/22 64/35/22
f 46/78/23 42/79/23 94/27/23 93/26/23
f 3/80/24 4/81/24 51/44/24 52/43/24
f 28/75/25 29/82/25 80/13/25 79/12/25
f 39/65/26 17/83/26 66/25/26 65/24/26
f 41/72/27 43/84/27 67/34/27 92/33/27
f 4/81/28 5/63/28 53/45/28 51/44/28
f 29/82/29 30/85/29 81/14/29 80/13/29
f 43/84/30 16/76/30 64/35/30 67/34/30
f 47/86/31 44/68/31 89/29/31 95/28/31
f 12/59/32 3/80/32 52/43/32 54/42/32
f 30/85/33 31/87/33 82/15/33 81/14/33
f 1/74/34 18/88/34 68/3/34 50/2/34
f 48/89/35 45/71/35 91/32/35 96/31/35
f 15/70/36 2/73/36 49/1/36 55/48/36
f 31/87/37 32/90/37 83/16/37 82/15/37
f 18/88/38 19/91/38 69/4/38 68/3/38
f 17/83/39 46/78/39 93/26/39 66/25/39
f 6/77/40 7/92/40 57/37/40 56/36/40
f 32/90/41 33/93/41 84/17/41 83/16/41
f 19/91/42 20/94/42 70/5/42 69/4/42
f 42/79/43 47/86/43 95/28/43 94/27/43
f 7/92/44 8/95/44 58/38/44 57/37/44
f 33/93/45 34/96/45 85/18/45 84/17/45
f 20/94/46 21/49/46 71/6/46 70/5/46
f 40/69/47 48/89/47 96/31/47 90/30/47
f 8/95/48 9/51/48 59/39/48 58/38/48
f 34/96/49 35/53/49 86/19/49 85/18/49
