# Blender v2.92.0 OBJ File: 'world.blend'
# www.blender.org
v -55.363113 -0.000204 -66.242943
v -58.713154 -0.000205 -52.715057
v -72.089714 -0.000204 -45.434017
v -70.581001 -0.000205 -47.091652
v -64.681778 -0.000205 -51.300854
v -59.962494 -0.000205 -52.698444
v -49.219719 -0.000205 -51.668076
v -50.167027 -0.000204 -62.884010
v -69.780296 -0.000204 -72.015358
v -57.872673 -0.000204 -68.685211
v -58.301346 -0.000204 -69.829391
v -58.754509 -0.000204 -76.654678
v -60.598930 -0.000204 -74.542549
v -63.087933 -0.000204 -76.654678
v -60.406864 -0.000204 -66.288361
v -59.141953 -0.000204 -65.563629
v -69.533951 -0.000204 -74.962463
v -68.264137 -0.000204 -62.003639
v -73.273338 -0.000205 -47.370964
v -70.935257 -0.000204 -66.386818
v -72.065361 -0.000204 -60.872833
v -68.962654 -0.000205 -54.479073
v -55.363113 0.999796 -66.242943
v -50.820442 0.999795 -48.945446
v -59.962494 0.999795 -52.698444
v -50.167027 0.999796 -62.884010
v -72.089714 0.999796 -45.434017
v -70.581001 0.999795 -47.091652
v -67.586922 0.999795 -47.024136
v -49.219719 0.999795 -51.668076
v -73.041145 0.999796 -44.940922
v -73.273338 0.999795 -47.370964
v -58.301346 0.999796 -69.829391
v -58.754509 0.999796 -76.654678
v -61.305222 0.999796 -73.791351
v -63.396671 0.999796 -76.228676
v -60.406864 0.999796 -66.288361
v -59.141953 0.999796 -65.563629
v -60.992451 0.999796 -65.222672
v -62.996983 0.999796 -67.952690
v -62.749481 0.999796 -72.831917
v -61.792969 0.999796 -74.578278
v -72.661499 0.999796 -59.482246
v -69.759941 0.999795 -51.261013
v -70.935257 0.999796 -66.386818
v -68.264137 0.999796 -62.003639
v -72.065361 0.999796 -60.872833
v -55.040527 -0.000204 -70.582550
v -51.458202 -0.000205 -51.071514
v -50.820442 -0.000205 -48.945446
v -72.286713 -0.000204 -44.128387
v -67.586922 -0.000205 -47.024136
v -62.042561 -0.000205 -50.561543
v -49.372559 -0.000205 -55.259163
v -73.041145 -0.000204 -44.940922
v -56.601643 -0.000204 -71.405403
v -56.444183 -0.000204 -74.204987
v -61.064800 -0.000204 -76.654678
v -61.305222 -0.000204 -73.791351
v -61.178635 -0.000204 -69.609344
v -61.918682 -0.000204 -69.052490
v -60.992451 -0.000204 -65.222672
v -62.996983 -0.000204 -67.952690
v -62.996841 -0.000204 -69.675072
v -62.102005 -0.000204 -71.205513
v -62.749481 -0.000204 -72.831917
v -61.792969 -0.000204 -74.578278
v -63.396671 -0.000204 -76.228676
v -66.777336 -0.000204 -76.477394
v -67.947197 -0.000204 -58.030769
v -69.759941 -0.000205 -51.261013
v -72.661499 -0.000204 -59.482246
v -72.791107 -0.000205 -52.786129
v -55.040527 0.999796 -70.582550
v -51.458202 0.999795 -51.071514
v -58.713154 0.999795 -52.715057
v -72.286713 0.999796 -44.128387
v -64.681778 0.999795 -51.300854
v -62.042561 0.999795 -50.561543
v -49.372559 0.999795 -55.259163
v -69.533951 0.999796 -74.962463
v -69.780296 0.999796 -72.015358
v -57.872673 0.999796 -68.685211
v -56.601643 0.999796 -71.405403
v -56.444183 0.999796 -74.204987
v -61.064800 0.999796 -76.654678
v -60.598930 0.999796 -74.542549
v -61.178635 0.999796 -69.609344
v -63.087933 0.999796 -76.654678
v -61.918682 0.999796 -69.052490
v -62.996841 0.999796 -69.675072
v -62.102005 0.999796 -71.205513
v -66.777336 0.999796 -76.477394
v -67.947197 0.999796 -58.030769
v -72.791107 0.999795 -52.786129
v -68.962654 0.999795 -54.479073
vt 0.525600 0.866423
vt 0.497798 0.889687
vt 0.496881 0.861303
vt 0.487054 0.863960
vt 0.484645 0.883119
vt 0.466463 0.897785
vt 0.438661 0.894050
vt 0.427438 0.878414
vt 0.443995 0.871306
vt 0.445648 0.862877
vt 0.474566 0.843418
vt 0.474740 0.835705
vt 0.500791 0.832508
vt 0.511841 0.837548
vt 0.505159 0.823368
vt 0.476945 0.823064
vt 0.465289 0.831432
vt 0.459278 0.844923
vt 0.445126 0.848442
vt 0.437953 0.863399
vt 0.418993 0.860563
vt 0.417609 0.864722
vt 0.400887 0.838892
vt 0.397748 0.812876
vt 0.416497 0.796892
vt 0.448979 0.761733
vt 0.491619 0.758517
vt 0.480807 0.727298
vt 0.487322 0.716508
vt 0.520047 0.741363
vt 0.539151 0.717236
vt 0.532010 0.683102
vt 0.557057 0.696208
vt 0.566316 0.653532
vt 0.583890 0.643299
vt 0.593054 0.644457
vt 0.585175 0.652133
vt 0.581286 0.670397
vt 0.596287 0.690332
vt 0.581456 0.730769
vt 0.599281 0.745039
vt 0.594923 0.769498
vt 0.600880 0.778034
vt 0.647247 0.819150
vt 0.664734 0.813137
vt 0.654084 0.837197
vt 0.629038 0.853608
vt 0.573575 0.885272
vt 0.721304 0.022744
vt 0.738178 0.022744
vt 0.738178 0.029632
vt 0.721304 0.029632
vt 0.534081 0.022744
vt 0.563539 0.022744
vt 0.563539 0.029632
vt 0.534081 0.029632
vt 0.711846 0.022744
vt 0.723875 0.022744
vt 0.723875 0.029632
vt 0.711846 0.029632
vt 0.730615 0.053537
vt 0.714701 0.053537
vt 0.714701 0.060425
vt 0.730615 0.060425
vt 0.689787 0.053537
vt 0.707966 0.053537
vt 0.707966 0.060425
vt 0.689787 0.060425
vt 0.735243 0.022744
vt 0.735243 0.029632
vt 0.738178 0.022744
vt 0.723629 0.022744
vt 0.723629 0.029632
vt 0.738178 0.029632
vt 0.558447 0.022744
vt 0.573166 0.022744
vt 0.573166 0.029632
vt 0.558447 0.029632
vt 0.700766 0.053537
vt 0.675353 0.053537
vt 0.675353 0.060425
vt 0.700766 0.060425
vt 0.718455 0.022744
vt 0.718455 0.029632
vt 0.547315 0.022744
vt 0.566068 0.022744
vt 0.566068 0.029632
vt 0.547315 0.029632
vt 0.656365 0.053537
vt 0.656365 0.060425
vt 0.689649 0.022744
vt 0.689649 0.029632
vt 0.590804 0.022744
vt 0.590804 0.029632
vt 0.634822 0.053537
vt 0.667295 0.053537
vt 0.667295 0.060425
vt 0.634822 0.060425
vt 0.738178 0.022744
vt 0.738178 0.029632
vt 0.643325 0.022744
vt 0.643325 0.029632
vt 0.633930 0.053537
vt 0.654809 0.053537
vt 0.654809 0.060425
vt 0.633930 0.060425
vt 0.666461 0.022744
vt 0.696353 0.022744
vt 0.696353 0.029632
vt 0.666461 0.029632
vt 0.519731 0.022744
vt 0.514135 0.022744
vt 0.514135 0.029632
vt 0.519731 0.029632
vt 0.667452 0.022744
vt 0.637260 0.022744
vt 0.637260 0.029632
vt 0.667452 0.029632
vt 0.730899 0.053537
vt 0.780872 0.053537
vt 0.780872 0.060425
vt 0.730899 0.060425
vt 0.685813 0.022744
vt 0.666774 0.022744
vt 0.666774 0.029632
vt 0.685813 0.029632
vt 0.726522 0.022744
vt 0.706222 0.022744
vt 0.706222 0.029632
vt 0.726522 0.029632
vt 0.563265 0.022744
vt 0.536470 0.022744
vt 0.536470 0.029632
vt 0.563265 0.029632
vt 0.561959 0.022744
vt 0.561959 0.029632
vt 0.719233 0.053537
vt 0.727946 0.053537
vt 0.727946 0.060425
vt 0.719233 0.060425
vt 0.629471 0.022744
vt 0.619893 0.022744
vt 0.619893 0.029632
vt 0.629471 0.029632
vt 0.722294 0.053537
vt 0.722294 0.060425
vt 0.715199 0.053537
vt 0.715199 0.060425
vt 0.756197 0.053537
vt 0.736689 0.053537
vt 0.736689 0.060425
vt 0.756197 0.060425
vt 0.660300 0.053537
vt 0.660300 0.060425
vt 0.789766 0.053537
vt 0.753975 0.053537
vt 0.753975 0.060425
vt 0.789766 0.060425
vt 0.659433 0.022744
vt 0.678238 0.022744
vt 0.678238 0.029632
vt 0.659433 0.029632
vt 0.683284 0.022744
vt 0.691165 0.022744
vt 0.691165 0.029632
vt 0.683284 0.029632
vt 0.523128 0.022744
vt 0.523128 0.029632
vt 0.690102 0.022744
vt 0.690102 0.029632
vt 0.733736 0.053537
vt 0.745444 0.053537
vt 0.745444 0.060425
vt 0.733736 0.060425
vt 0.665112 0.053537
vt 0.638929 0.053537
vt 0.638929 0.060425
vt 0.665112 0.060425
vt 0.534546 0.022744
vt 0.534546 0.029632
vt 0.609895 0.022744
vt 0.585431 0.022744
vt 0.585431 0.029632
vt 0.609895 0.029632
vt 0.649153 0.053537
vt 0.669776 0.053537
vt 0.669776 0.060425
vt 0.649153 0.060425
vt 0.700644 0.022744
vt 0.700644 0.029632
vt 0.713917 0.053537
vt 0.708820 0.053537
vt 0.708820 0.060425
vt 0.713917 0.060425
vt 0.702020 0.022744
vt 0.702020 0.029632
vn 0.0000 1.0000 0.0000
vn 0.7275 0.0000 -0.6861
vn 0.8272 0.0000 0.5619
vn 0.8771 0.0000 0.4804
vn 0.0000 0.0000 -1.0000
vn -0.2697 0.0000 0.9629
vn 0.7172 0.0000 -0.6969
vn -0.9765 0.0000 0.2154
vn 0.7166 0.0000 0.6975
vn -0.0480 0.0000 -0.9988
vn -0.7285 0.0000 -0.6850
vn 0.8620 0.0000 0.5068
vn -0.4816 0.0000 -0.8764
vn -0.9995 0.0000 0.0303
vn 0.9991 0.0000 -0.0425
vn -0.2943 0.0000 0.9557
vn 0.8097 0.0000 0.5868
vn 0.9946 0.0000 -0.1036
vn -0.4495 0.0000 0.8933
vn 0.9972 0.0000 0.0741
vn -0.7328 0.0000 0.6804
vn -0.8539 0.0000 0.5204
vn -0.2209 0.0000 0.9753
vn -0.8773 0.0000 0.4799
vn -0.9965 0.0000 -0.0833
vn -0.7421 0.0000 -0.6703
vn -0.9578 0.0000 0.2873
vn -0.4971 0.0000 0.8677
vn -0.9955 0.0000 0.0951
vn -0.9191 0.0000 -0.3940
vn 0.0133 0.0000 0.9999
vn -0.1812 0.0000 -0.9834
vn -0.5566 0.0000 -0.8308
vn -0.4044 0.0000 -0.9146
vn 0.5429 0.0000 -0.8398
vn 0.8061 0.0000 -0.5918
vn 0.9364 0.0000 -0.3508
vn -0.9796 0.0000 -0.2010
vn 0.9888 0.0000 0.1492
vn 1.0000 0.0000 0.0001
vn 0.6799 0.0000 0.7333
vn -0.2851 0.0000 -0.9585
vn 0.7395 0.0000 0.6731
vn -0.9615 0.0000 -0.2749
vn -0.0225 0.0000 0.9997
vn 0.9291 0.0000 -0.3699
vn -0.6013 0.0000 -0.7991
vn 0.8633 0.0000 0.5047
vn 0.9984 0.0000 0.0562
s off
f 23/1/1 74/2/1 83/3/1 33/4/1 84/5/1 85/6/1 34/7/1 86/8/1 87/9/1 35/10/1 88/11/1 90/12/1 37/13/1 38/14/1 39/15/1 40/16/1 91/17/1 92/18/1 41/19/1 42/20/1 36/21/1 89/22/1 93/23/1 81/24/1 82/25/1 45/26/1 46/27/1 47/28/1 43/29/1 94/30/1 96/31/1 95/32/1 44/33/1 32/34/1 31/35/1 77/36/1 27/37/1 28/38/1 29/39/1 78/40/1 79/41/1 25/42/1 76/43/1 75/44/1 24/45/1 30/46/1 80/47/1 26/48/1
f 57/49/2 12/50/2 34/51/2 85/52/2
f 52/53/3 5/54/3 78/55/3 29/56/3
f 66/57/4 67/58/4 42/59/4 41/60/4
f 12/61/5 58/62/5 86/63/5 34/64/5
f 5/65/6 53/66/6 79/67/6 78/68/6
f 67/58/7 68/69/7 36/70/7 42/59/7
f 58/71/8 13/72/8 87/73/8 86/74/8
f 53/75/9 6/76/9 25/77/9 79/78/9
f 14/79/10 69/80/10 93/81/10 89/82/10
f 13/72/11 59/83/11 35/84/11 87/73/11
f 50/85/12 7/86/12 30/87/12 24/88/12
f 69/80/13 17/89/13 81/90/13 93/81/13
f 59/83/14 60/91/14 88/92/14 35/84/14
f 7/86/15 54/93/15 80/94/15 30/87/15
f 72/95/16 70/96/16 94/97/16 43/98/16
f 68/69/17 14/99/17 89/100/17 36/70/17
f 54/93/18 8/101/18 26/102/18 80/94/18
f 73/103/19 71/104/19 44/105/19 95/106/19
f 1/107/20 48/108/20 74/109/20 23/110/20
f 55/111/21 51/112/21 77/113/21 31/114/21
f 20/115/22 18/116/22 46/117/22 45/118/22
f 2/119/23 49/120/23 75/121/23 76/122/23
f 61/123/24 15/124/24 37/125/24 90/126/24
f 17/127/25 9/128/25 82/129/25 81/130/25
f 71/131/26 19/132/26 32/133/26 44/134/26
f 49/135/27 50/85/27 24/88/27 75/136/27
f 15/137/28 16/138/28 38/139/28 37/140/28
f 19/132/29 55/111/29 31/114/29 32/133/29
f 21/141/30 72/142/30 43/143/30 47/144/30
f 6/145/31 2/119/31 76/122/31 25/146/31
f 16/138/32 62/147/32 39/148/32 38/139/32
f 48/149/33 10/150/33 83/151/33 74/152/33
f 22/153/34 73/103/34 95/106/34 96/154/34
f 8/155/35 1/156/35 23/157/35 26/158/35
f 62/159/36 63/160/36 40/161/36 39/162/36
f 10/163/37 11/164/37 33/165/37 83/166/37
f 9/128/38 20/115/38 45/118/38 82/129/38
f 51/112/39 3/167/39 27/168/39 77/113/39
f 63/160/40 64/169/40 91/170/40 40/161/40
f 11/171/41 56/172/41 84/173/41 33/174/41
f 18/175/42 21/176/42 47/177/42 46/178/42
f 3/167/43 4/179/43 28/180/43 27/168/43
f 70/181/44 22/182/44 96/183/44 94/184/44
f 4/185/45 52/186/45 29/187/45 28/188/45
f 65/189/46 66/57/46 41/60/46 92/190/46
f 60/191/47 61/192/47 90/193/47 88/194/47
f 64/169/48 65/189/48 92/190/48 91/170/48
f 56/195/49 57/49/49 85/52/49 84/196/49
