# Blender v2.92.0 OBJ File: 'world.blend'
# www.blender.org
v -135.006012 -0.000204 -70.980751
v -103.414276 -0.000205 -56.249893
v -113.800644 -0.000204 -60.925014
v -131.863373 -0.000204 -68.337372
v -87.401131 -0.000204 -64.150330
v -91.113045 -0.000204 -76.732613
v -125.314667 -0.000204 -75.982552
v -118.184471 -0.000204 -76.654678
v -116.954865 -0.000204 -74.646797
v -111.220505 -0.000204 -75.385345
v -109.229568 -0.000204 -73.557770
v -101.480080 -0.000204 -76.654678
v -94.896797 -0.000204 -76.654678
v -132.750122 -0.000204 -73.861404
v -89.023834 -0.000204 -72.687439
v -91.853119 -0.000204 -74.476814
v -94.163162 -0.000204 -58.982792
v -93.443642 -0.000204 -62.159203
v -135.006012 0.999796 -70.980751
v -104.443871 0.999796 -59.740322
v -111.514297 0.999796 -61.510849
v -114.672058 0.999796 -63.941566
v -99.717514 0.999796 -59.231628
v -90.337921 0.999796 -68.667061
v -94.896797 0.999796 -76.654678
v -126.875206 0.999796 -73.392174
v -116.954865 0.999796 -74.646797
v -108.253716 0.999796 -76.654678
v -104.295868 0.999796 -76.654678
v -101.480080 0.999796 -76.654678
v -99.679451 0.999796 -76.654678
v -132.750122 0.999796 -73.861404
v -91.853119 0.999796 -74.476814
v -89.023834 0.999796 -72.687439
v -104.443871 -0.000204 -59.740322
v -130.984238 -0.000204 -69.147751
v -111.514297 -0.000204 -61.510849
v -114.672058 -0.000204 -63.941566
v -125.154755 -0.000204 -65.475227
v -127.973640 -0.000204 -67.417488
v -108.253716 -0.000204 -76.654678
v -104.295868 -0.000204 -76.654678
v -99.679451 -0.000204 -76.654678
v -126.875206 -0.000204 -73.392174
v -90.337921 -0.000204 -68.667061
v -99.717514 -0.000204 -59.231628
v -130.984238 0.999796 -69.147751
v -103.414276 0.999795 -56.249893
v -131.863373 0.999796 -68.337372
v -113.800644 0.999796 -60.925014
v -125.154755 0.999796 -65.475227
v -127.973640 0.999796 -67.417488
v -87.401131 0.999796 -64.150330
v -91.113045 0.999796 -76.732613
v -125.314667 0.999796 -75.982552
v -118.184471 0.999796 -76.654678
v -111.220505 0.999796 -75.385345
v -109.229568 0.999796 -73.557770
v -93.443642 0.999796 -62.159203
v -94.163162 0.999796 -58.982792
vt 0.250764 0.898667
vt 0.240303 0.895830
vt 0.267732 0.872153
vt 0.282272 0.844736
vt 0.360150 0.788530
vt 0.354532 0.760626
vt 0.375370 0.755768
vt 0.424816 0.711938
vt 0.418487 0.679561
vt 0.460695 0.688067
vt 0.504319 0.662819
vt 0.523399 0.685351
vt 0.580323 0.676073
vt 0.575611 0.724685
vt 0.603004 0.751515
vt 0.587742 0.777746
vt 0.603134 0.792789
vt 0.572381 0.807998
vt 0.533921 0.828015
vt 0.519441 0.835551
vt 0.496798 0.847336
vt 0.464971 0.863901
vt 0.444162 0.843081
vt 0.435801 0.866110
vt 0.386597 0.884171
vt 0.385112 0.905464
vt 0.324962 0.929901
vt 0.301571 0.915601
vt 0.256292 0.943963
vt 0.226094 0.930239
vt 0.598642 0.008904
vt 0.583537 0.008904
vt 0.583537 0.017292
vt 0.598642 0.017292
vt 0.638762 0.008904
vt 0.638762 0.017292
vt 0.328660 0.008904
vt 0.361289 0.008904
vt 0.361289 0.017292
vt 0.328660 0.017292
vt 0.370504 0.008904
vt 0.321221 0.008904
vt 0.321221 0.017292
vt 0.370504 0.017292
vt 0.567312 0.008904
vt 0.598323 0.008904
vt 0.598323 0.017292
vt 0.567312 0.017292
vt 0.563795 0.008904
vt 0.539630 0.008904
vt 0.539630 0.017292
vt 0.563795 0.017292
vt 0.482332 0.008904
vt 0.520221 0.008904
vt 0.520221 0.017292
vt 0.482332 0.017292
vt 0.688029 0.008904
vt 0.664295 0.008904
vt 0.664295 0.017292
vt 0.688029 0.017292
vt 0.670503 0.008904
vt 0.670503 0.017292
vt 0.553947 0.008904
vt 0.553947 0.017292
vt 0.581589 0.008904
vt 0.559859 0.008904
vt 0.559859 0.017292
vt 0.581589 0.017292
vt 0.568958 0.008904
vt 0.587881 0.008904
vt 0.587881 0.017292
vt 0.568958 0.017292
vt 0.443408 0.008904
vt 0.383595 0.008904
vt 0.383595 0.017292
vt 0.443408 0.017292
vt 0.302297 0.008904
vt 0.336034 0.008904
vt 0.336034 0.017292
vt 0.302297 0.017292
vt 0.438983 0.008904
vt 0.465629 0.008904
vt 0.465629 0.017292
vt 0.438983 0.017292
vt 0.570384 0.008904
vt 0.587228 0.008904
vt 0.587228 0.017292
vt 0.570384 0.017292
vt 0.445337 0.008904
vt 0.416057 0.008904
vt 0.416057 0.017292
vt 0.445337 0.017292
vt 0.644917 0.008904
vt 0.644917 0.017292
vt 0.501827 0.008904
vt 0.453723 0.008904
vt 0.453723 0.017292
vt 0.501827 0.017292
vt 0.650953 0.008904
vt 0.701642 0.008904
vt 0.701642 0.017292
vt 0.650953 0.017292
vt 0.518529 0.008904
vt 0.518529 0.017292
vt 0.499363 0.008904
vt 0.558675 0.008904
vt 0.558675 0.017292
vt 0.499363 0.017292
vt 0.587228 0.008904
vt 0.561248 0.008904
vt 0.561248 0.017292
vt 0.587228 0.017292
vt 0.480183 0.008904
vt 0.480183 0.017292
vt 0.559916 0.008904
vt 0.526715 0.008904
vt 0.526715 0.017292
vt 0.559916 0.017292
vt 0.480581 0.008904
vt 0.455275 0.008904
vt 0.455275 0.017292
vt 0.480581 0.017292
vt 0.384936 0.008904
vt 0.472873 0.008904
vt 0.472873 0.017292
vt 0.384936 0.017292
vn -0.0000 1.0000 0.0000
vn 0.0000 0.0000 -1.0000
vn -0.2301 0.0000 0.9732
vn 0.0796 0.0000 -0.9968
vn 0.6278 0.0000 0.7784
vn -0.7873 0.0000 -0.6166
vn 0.8384 0.0000 -0.5451
vn 0.5345 0.0000 -0.8452
vn -0.0206 0.0000 -0.9998
vn 0.9505 0.0000 0.3107
vn -0.8566 0.0000 -0.5160
vn 0.9502 0.0000 0.3117
vn -0.0938 0.0000 -0.9956
vn -0.4147 0.0000 0.9099
vn 0.9753 0.0000 0.2209
vn 0.8528 0.0000 -0.5222
vn -0.9591 0.0000 0.2829
vn -0.0448 0.0000 0.9990
vn -0.1277 0.0000 -0.9918
vn -0.6778 0.0000 -0.7353
vn 0.3130 0.0000 0.9498
vn 0.6762 0.0000 -0.7367
vn -0.2429 0.0000 0.9700
vn -0.9538 0.0000 -0.3005
vn 0.2482 0.0000 0.9687
vn -0.9607 0.0000 0.2775
vn -0.1448 0.0000 0.9895
vn -0.5674 0.0000 0.8235
s off
f 47/1/1 49/2/1 52/3/1 51/4/1 22/5/1 50/6/1 21/7/1 20/8/1 48/9/1 23/10/1 60/11/1 59/12/1 53/13/1 24/14/1 34/15/1 33/16/1 54/17/1 25/18/1 31/19/1 30/20/1 29/21/1 28/22/1 58/23/1 57/24/1 27/25/1 56/26/1 55/27/1 26/28/1 32/29/1 19/30/1
f 43/31/2 12/32/2 30/33/2 31/34/2
f 13/35/2 43/31/2 31/34/2 25/36/2
f 4/37/3 40/38/3 52/39/3 49/40/3
f 44/41/4 14/42/4 32/43/4 26/44/4
f 2/45/5 46/46/5 23/47/5 48/48/5
f 14/49/6 1/50/6 19/51/6 32/52/6
f 5/53/7 45/54/7 24/55/7 53/56/7
f 15/57/8 16/58/8 33/59/8 34/60/8
f 6/61/9 13/35/9 25/36/9 54/62/9
f 45/54/10 15/63/10 34/64/10 24/55/10
f 7/65/11 44/66/11 26/67/11 55/68/11
f 16/69/12 6/70/12 54/71/12 33/72/12
f 8/73/13 7/74/13 55/75/13 56/76/13
f 1/77/14 36/78/14 47/79/14 19/80/14
f 17/81/15 18/82/15 59/83/15 60/84/15
f 9/85/16 8/86/16 56/87/16 27/88/16
f 35/89/17 2/90/17 48/91/17 20/92/17
f 46/46/18 17/93/18 60/94/18 23/47/18
f 10/95/19 9/96/19 27/97/19 57/98/19
f 36/78/20 4/37/20 49/40/20 47/79/20
f 18/99/21 5/100/21 53/101/21 59/102/21
f 11/103/22 10/95/22 57/98/22 58/104/22
f 37/105/23 35/106/23 20/107/23 21/108/23
f 41/109/24 11/110/24 58/111/24 28/112/24
f 3/113/25 37/105/25 21/108/25 50/114/25
f 42/115/2 41/116/2 28/117/2 29/118/2
f 38/119/26 3/120/26 50/121/26 22/122/26
f 12/32/2 42/115/2 29/118/2 30/33/2
f 39/123/27 38/124/27 22/125/27 51/126/27
f 40/38/28 39/123/28 51/126/28 52/39/28
