# Blender v2.92.0 OBJ File: 'world.blend'
# www.blender.org
v -120.499298 -0.000205 11.550459
v -121.645905 -0.000205 11.926119
v -122.073051 -0.000205 13.583754
v -122.469719 -0.000205 15.312368
v -124.067574 -0.000205 16.259462
v -125.519539 -0.000205 18.330267
v -126.249313 -0.000205 18.662683
v -127.103111 -0.000205 20.068972
v -128.199081 -0.000205 21.658701
v -128.617554 -0.000205 23.995169
v -127.986252 -0.000205 26.917376
v -126.414291 -0.000205 28.912607
v -125.368706 -0.000205 31.852751
v -122.432060 -0.000205 33.054695
v -121.596336 -0.000205 32.542023
v -119.567146 -0.000205 32.890434
v -117.221237 -0.000205 31.708963
v -107.612549 -0.000205 11.948111
v -108.591499 -0.000205 11.896982
v -108.933128 -0.000205 10.835115
v -109.759270 -0.000205 9.814425
v -111.249107 -0.000205 9.496462
v -113.543404 -0.000205 9.688272
v -114.358459 -0.000205 9.979769
v -114.199272 -0.000205 10.618059
v -114.058762 -0.000205 12.414011
v -117.785217 -0.000205 14.455866
v -118.660065 -0.000205 11.620222
v -118.863319 -0.000205 9.977076
v -119.363647 -0.000205 8.629675
v -123.710777 -0.000204 35.194435
v -124.201309 -0.000204 36.317711
v -123.702545 -0.000204 37.193787
v -123.128143 -0.000204 37.887932
v -121.789742 -0.000204 36.559731
v -121.280655 -0.000204 34.988060
v -120.087929 -0.000205 21.670641
v -106.012367 -0.000205 21.702246
v -144.960907 -0.000204 35.444855
v -145.663422 -0.000204 35.374092
v -145.790405 -0.000204 36.036850
v -144.561554 -0.000204 37.664162
v -144.917084 -0.000204 38.120407
v -144.325470 -0.000204 38.167091
v -143.434082 -0.000204 38.565735
v -142.935394 -0.000204 40.199203
v -141.154572 -0.000204 41.225769
v -140.369446 -0.000204 40.763451
v -139.531433 -0.000204 40.401970
v -139.768127 -0.000204 39.810432
v -140.215759 -0.000204 39.234360
v -141.448883 -0.000204 38.200211
v -142.510193 -0.000204 37.544258
v -143.491547 -0.000204 36.380310
v -144.476807 -0.000204 34.783157
v -145.884247 -0.000205 29.704206
v -146.344971 -0.000205 31.075224
v -147.114807 -0.000205 31.766565
v -149.146790 -0.000205 31.964884
v -148.847107 -0.000205 33.282005
v -148.108521 -0.000205 33.579453
v -146.896576 -0.000204 35.848000
v -146.271118 -0.000204 35.617096
v -146.724304 -0.000204 34.433907
v -145.604126 -0.000205 33.472420
v -146.364319 -0.000205 32.121445
v -146.220886 -0.000205 31.447657
v -145.340942 -0.000205 30.222097
v -144.578522 -0.000205 28.951403
v -114.358459 0.999795 9.979769
v -114.199272 0.999795 10.618059
v -109.759270 0.999795 9.814425
v -111.249107 0.999795 9.496462
v -123.702545 0.999796 37.193787
v -123.128143 0.999796 37.887932
v -118.863319 0.999795 9.977076
v -119.363647 0.999795 8.629675
v -108.591499 0.999795 11.896982
v -108.933128 0.999795 10.835115
v -119.567146 0.999795 32.890434
v -117.221237 0.999795 31.708963
v -113.543404 0.999795 9.688272
v -122.469719 0.999795 15.312368
v -124.067574 0.999795 16.259462
v -121.789742 0.999796 36.559731
v -121.280655 0.999796 34.988060
v -117.785217 0.999795 14.455866
v -118.660065 0.999795 11.620222
v -127.986252 0.999795 26.917376
v -126.414291 0.999795 28.912607
v -128.199081 0.999795 21.658701
v -128.617554 0.999795 23.995169
v -126.249313 0.999795 18.662683
v -127.103111 0.999795 20.068972
v -114.058762 0.999795 12.414011
v -120.499298 0.999795 11.550459
v -121.645905 0.999795 11.926119
v -122.073051 0.999795 13.583754
v -125.519539 0.999795 18.330267
v -125.368706 0.999795 31.852751
v -122.432060 0.999795 33.054695
v -121.596336 0.999795 32.542023
v -107.612549 0.999795 11.948111
v -123.710777 0.999796 35.194435
v -124.201309 0.999796 36.317711
v -106.012367 0.999795 21.702246
v -120.087929 0.999795 21.670641
v -142.935394 0.999796 40.199203
v -141.154572 0.999796 41.225769
v -147.114807 0.999795 31.766565
v -149.146790 0.999795 31.964884
v -145.884247 0.999795 29.704206
v -146.344971 0.999795 31.075224
v -146.896576 0.999796 35.848000
v -146.271118 0.999796 35.617096
v -145.790405 0.999796 36.036850
v -144.561554 0.999796 37.664162
v -143.491547 0.999796 36.380310
v -144.476807 0.999796 34.783157
v -143.434082 0.999796 38.565735
v -144.578522 0.999795 28.951403
v -140.369446 0.999796 40.763451
v -139.531433 0.999796 40.401970
v -148.108521 0.999795 33.579453
v -145.340942 0.999795 30.222097
v -144.917084 0.999796 38.120407
v -146.724304 0.999796 34.433907
v -145.604126 0.999795 33.472420
v -146.364319 0.999795 32.121445
v -146.220886 0.999795 31.447657
v -142.510193 0.999796 37.544258
v -145.663422 0.999796 35.374092
v -148.847107 0.999795 33.282005
v -144.960907 0.999796 35.444855
v -141.448883 0.999796 38.200211
v -140.215759 0.999796 39.234360
v -139.768127 0.999796 39.810432
v -144.325470 0.999796 38.167091
vt 0.178856 0.765318
vt 0.183771 0.766765
vt 0.187298 0.762122
vt 0.193142 0.758524
vt 0.201038 0.759541
vt 0.212016 0.764467
vt 0.215529 0.767318
vt 0.213637 0.770189
vt 0.209828 0.778799
vt 0.224657 0.795330
vt 0.233890 0.782868
vt 0.237743 0.775120
vt 0.242547 0.769346
vt 0.243078 0.785715
vt 0.248079 0.789557
vt 0.247309 0.798470
vt 0.246266 0.807680
vt 0.252500 0.815121
vt 0.256066 0.827850
vt 0.259087 0.830755
vt 0.260856 0.839169
vt 0.263501 0.848908
vt 0.261511 0.861152
vt 0.253329 0.874464
vt 0.242117 0.881573
vt 0.231862 0.894254
vt 0.215299 0.895085
vt 0.212068 0.891108
vt 0.201459 0.889305
vt 0.191944 0.879410
vt 0.223493 0.834894
vt 0.154045 0.810630
vt 0.214381 0.917695
vt 0.210345 0.920121
vt 0.206051 0.911250
vt 0.206268 0.902619
vt 0.217891 0.907852
vt 0.218360 0.914241
vt 0.904610 0.369494
vt 0.893990 0.368457
vt 0.895557 0.361574
vt 0.899417 0.360019
vt 0.905751 0.348163
vt 0.909020 0.349369
vt 0.906651 0.355553
vt 0.912506 0.360578
vt 0.908533 0.367639
vt 0.909282 0.371161
vt 0.913881 0.377566
vt 0.917866 0.384207
vt 0.911042 0.380273
vt 0.908634 0.373107
vt 0.939864 0.322473
vt 0.944244 0.324362
vt 0.943007 0.327454
vt 0.940667 0.330464
vt 0.934223 0.335869
vt 0.928676 0.339297
vt 0.923547 0.345381
vt 0.918397 0.353728
vt 0.915867 0.350270
vt 0.912196 0.350640
vt 0.911532 0.347176
vt 0.917955 0.338671
vt 0.916096 0.336286
vt 0.919188 0.336042
vt 0.923847 0.333959
vt 0.926453 0.325422
vt 0.935761 0.320056
vt 0.908634 0.373107
vt 0.904610 0.369494
vt 0.260856 0.839169
vt 0.263501 0.848908
vt 0.913881 0.377566
vt 0.917866 0.384207
vt 0.261511 0.861152
vt 0.253329 0.874464
vt 0.917955 0.338671
vt 0.916096 0.336286
vt 0.242117 0.881573
vt 0.231862 0.894254
vt 0.906651 0.355553
vt 0.912506 0.360578
vt 0.215299 0.895085
vt 0.908533 0.367639
vt 0.909282 0.371161
vt 0.212068 0.891108
vt 0.215529 0.767318
vt 0.213637 0.770189
vt 0.909020 0.349369
vt 0.201459 0.889305
vt 0.193142 0.758524
vt 0.201038 0.759541
vt 0.928676 0.339297
vt 0.923547 0.345381
vt 0.212016 0.764467
vt 0.214381 0.917695
vt 0.210345 0.920121
vt 0.912196 0.350640
vt 0.911532 0.347176
vt 0.187298 0.762122
vt 0.237743 0.775120
vt 0.242547 0.769346
vt 0.178856 0.765318
vt 0.183771 0.766765
vt 0.206268 0.902619
vt 0.217891 0.907852
vt 0.191944 0.879410
vt 0.893990 0.368457
vt 0.895557 0.361574
vt 0.206051 0.911250
vt 0.899417 0.360019
vt 0.218360 0.914241
vt 0.246266 0.807680
vt 0.252500 0.815121
vt 0.918397 0.353728
vt 0.915867 0.350270
vt 0.154045 0.810630
vt 0.224657 0.795330
vt 0.233890 0.782868
vt 0.934223 0.335869
vt 0.223493 0.834894
vt 0.940667 0.330464
vt 0.943007 0.327454
vt 0.926453 0.325422
vt 0.935761 0.320056
vt 0.259087 0.830755
vt 0.944244 0.324362
vt 0.209828 0.778799
vt 0.919188 0.336042
vt 0.923847 0.333959
vt 0.911042 0.380273
vt 0.905751 0.348163
vt 0.243078 0.785715
vt 0.939864 0.322473
vt 0.248079 0.789557
vt 0.247309 0.798470
vt 0.256066 0.827850
vn 0.0000 1.0000 -0.0000
vn -0.6682 0.0000 -0.7440
vn -0.8233 0.0000 -0.5676
vn 0.8575 0.0000 0.5145
vn -0.9775 0.0000 0.2112
vn -0.7888 0.0000 -0.6147
vn -0.9422 0.0000 0.3351
vn 0.6513 0.0000 0.7588
vn -0.3788 0.0000 0.9255
vn 0.9781 0.0000 0.2082
vn 0.5229 0.0000 0.8524
vn -0.9703 0.0000 0.2420
vn 0.9338 0.0000 -0.3577
vn -0.1692 0.0000 0.9856
vn 0.2087 0.0000 -0.9780
vn 0.7645 0.0000 -0.6446
vn -0.3368 0.0000 -0.9416
vn -0.7704 0.0000 0.6375
vn -0.9821 0.0000 -0.1882
vn 0.7773 0.0000 -0.6291
vn 0.9375 0.0000 -0.3481
vn 0.8123 0.0000 0.5832
vn 0.0522 0.0000 -0.9986
vn 0.9519 0.0000 -0.3063
vn 0.8715 0.0000 -0.4904
vn -0.0846 0.0000 -0.9964
vn 0.4498 0.0000 0.8931
vn -0.9751 0.0000 0.2219
vn 0.7044 0.0000 0.7098
vn -0.0833 0.0000 -0.9965
vn -0.3736 0.0000 0.9276
vn -0.9164 0.0000 -0.4002
vn -0.5099 0.0000 -0.8602
vn -0.8071 0.0000 -0.5905
vn -0.8690 0.0000 0.4948
vn 0.9513 0.0000 0.3082
vn 0.1002 0.0000 -0.9950
vn 0.9868 0.0000 -0.1619
vn 0.9556 0.0000 -0.2948
vn 0.5257 0.0000 -0.8506
vn -0.0022 0.0000 1.0000
vn -0.7855 0.0000 0.6189
vn 0.6426 0.0000 -0.7662
vn 0.9616 0.0000 -0.2746
vn -0.9843 0.0000 -0.1763
vn 0.7896 0.0000 -0.6136
vn -0.4994 0.0000 0.8664
vn -0.8548 0.0000 -0.5190
vn 0.9284 0.0000 -0.3715
vn -0.0971 0.0000 -0.9953
vn -0.9970 0.0000 0.0780
vn -0.4083 0.0000 0.9129
vn -0.9479 0.0000 -0.3185
vn 0.9924 0.0000 -0.1228
vn -0.0787 0.0000 0.9969
vn 0.3463 0.0000 0.9381
vn -0.9320 0.0000 -0.3624
vn 0.5074 0.0000 0.8617
vn -0.7980 0.0000 0.6026
vn -0.3113 0.0000 -0.9503
vn 0.8511 0.0000 -0.5250
vn -0.9684 0.0000 -0.2495
vn -0.9564 0.0000 0.2920
vn -0.9747 0.0000 -0.2237
vn -0.4995 0.0000 -0.8663
vn -0.4805 0.0000 -0.8770
vn 0.3961 0.0000 0.9182
vn -0.8188 0.0000 -0.5741
vn -0.8820 0.0000 0.4712
vn -0.4145 0.0000 -0.9100
s off
f 103/1/1 78/2/1 79/3/1 72/4/1 73/5/1 82/6/1 70/7/1 71/8/1 95/9/1 87/10/1 88/11/1 76/12/1 77/13/1 96/14/1 97/15/1 98/16/1 83/17/1 84/18/1 99/19/1 93/20/1 94/21/1 91/22/1 92/23/1 89/24/1 90/25/1 100/26/1 101/27/1 102/28/1 80/29/1 81/30/1 107/31/1 106/32/1
f 74/33/1 75/34/1 85/35/1 86/36/1 104/37/1 105/38/1
f 110/39/1 111/40/1 133/41/1 124/42/1 114/43/1 115/44/1 127/45/1 128/46/1 129/47/1 130/48/1 125/49/1 121/50/1 112/51/1 113/52/1
f 122/53/1 123/54/1 137/55/1 136/56/1 135/57/1 131/58/1 118/59/1 119/60/1 134/61/1 132/62/1 116/63/1 117/64/1 126/65/1 138/66/1 120/67/1 108/68/1 109/69/1
f 57/70/2 58/71/2 110/39/2 113/52/2
f 8/72/3 9/73/3 91/22/3 94/21/3
f 68/74/4 69/75/4 121/50/4 125/49/4
f 10/76/5 11/77/5 89/24/5 92/23/5
f 42/78/6 43/79/6 126/65/6 117/64/6
f 12/80/7 13/81/7 100/26/7 90/25/7
f 64/82/8 65/83/8 128/46/8 127/45/8
f 13/81/9 14/84/9 101/27/9 100/26/9
f 66/85/10 67/86/10 130/48/10 129/47/10
f 14/84/11 15/87/11 102/28/11 101/27/11
f 24/88/12 25/89/12 71/8/12 70/7/12
f 63/90/13 64/82/13 127/45/13 115/44/13
f 15/87/14 16/91/14 80/29/14 102/28/14
f 21/92/15 22/93/15 73/5/15 72/4/15
f 53/94/16 54/95/16 118/59/16 131/58/16
f 23/96/17 24/88/17 70/7/17 82/6/17
f 33/97/18 34/98/18 75/34/18 74/33/18
f 40/99/19 41/100/19 116/63/19 132/62/19
f 20/101/20 21/92/20 72/4/20 79/3/20
f 29/102/21 30/103/21 77/13/21 76/12/21
f 67/86/22 68/74/22 125/49/22 130/48/22
f 18/104/23 19/105/23 78/2/23 103/1/23
f 19/105/24 20/101/24 79/3/24 78/2/24
f 65/83/25 66/85/25 129/47/25 128/46/25
f 36/106/26 31/107/26 104/37/26 86/36/26
f 16/91/27 17/108/27 81/30/27 80/29/27
f 59/109/28 60/110/28 133/41/28 111/40/28
f 34/98/29 35/111/29 85/35/29 75/34/29
f 22/93/30 23/96/30 82/6/30 73/5/30
f 60/110/31 61/112/31 124/42/31 133/41/31
f 31/107/32 32/113/32 105/38/32 104/37/32
f 4/114/33 5/115/33 84/18/33 83/17/33
f 55/116/34 39/117/34 134/61/34 119/60/34
f 32/113/35 33/97/35 74/33/35 105/38/35
f 35/111/36 36/106/36 86/36/36 85/35/36
f 39/117/37 40/99/37 132/62/37 134/61/37
f 38/118/38 18/104/38 103/1/38 106/32/38
f 27/119/39 28/120/39 88/11/39 87/10/39
f 52/121/40 53/94/40 131/58/40 135/57/40
f 37/122/41 38/118/41 106/32/41 107/31/41
f 11/77/42 12/80/42 90/25/42 89/24/42
f 51/123/43 52/121/43 135/57/43 136/56/43
f 17/108/44 37/122/44 107/31/44 81/30/44
f 9/73/45 10/76/45 92/23/45 91/22/45
f 50/124/46 51/123/46 136/56/46 137/55/46
f 46/125/47 47/126/47 109/69/47 108/68/47
f 7/127/48 8/72/48 94/21/48 93/20/48
f 49/128/49 50/124/49 137/55/49 123/54/49
f 58/71/50 59/109/50 111/40/50 110/39/50
f 25/89/51 26/129/51 95/9/51 71/8/51
f 44/130/52 45/131/52 120/67/52 138/66/52
f 56/132/53 57/70/53 113/52/53 112/51/53
f 28/120/54 29/102/54 76/12/54 88/11/54
f 43/79/55 44/130/55 138/66/55 126/65/55
f 62/133/56 63/90/56 115/44/56 114/43/56
f 30/103/57 1/134/57 96/14/57 77/13/57
f 47/126/58 48/135/58 122/53/58 109/69/58
f 41/100/59 42/78/59 117/64/59 116/63/59
f 1/134/60 2/136/60 97/15/60 96/14/60
f 54/95/61 55/116/61 119/60/61 118/59/61
f 2/136/62 3/137/62 98/16/62 97/15/62
f 45/131/63 46/125/63 108/68/63 120/67/63
f 3/137/64 4/114/64 83/17/64 98/16/64
f 69/75/65 56/132/65 112/51/65 121/50/65
f 26/129/66 27/119/66 87/10/66 95/9/66
f 48/135/67 49/128/67 123/54/67 122/53/67
f 5/115/68 6/138/68 99/19/68 84/18/68
f 61/112/69 62/133/69 114/43/69 124/42/69
f 6/138/70 7/127/70 93/20/70 99/19/70
