# Blender v2.92.0 OBJ File: 'world.blend'
# www.blender.org
v -121.645905 -0.000205 11.926119
v -122.073051 -0.000205 13.583754
v -125.519539 -0.000205 18.330267
v -128.199081 -0.000205 21.658701
v -125.368706 -0.000205 31.852751
v -121.596336 -0.000205 32.542023
v -119.567146 -0.000205 32.890434
v -117.461624 -0.000205 31.777613
v -107.859253 -0.000205 11.988583
v -108.591499 -0.000205 11.896982
v -108.933128 -0.000205 10.835115
v -111.249107 -0.000205 9.496462
v -113.543404 -0.000205 9.688272
v -114.199272 -0.000205 10.618059
v -114.058762 -0.000205 12.414011
v -117.785217 -0.000205 14.455866
v -118.863319 -0.000205 9.977076
v -119.363647 -0.000205 8.629675
v -124.201309 -0.000204 36.317711
v -123.702545 -0.000204 37.193787
v -121.280655 -0.000204 34.988060
v -120.419533 -0.000205 21.419895
v -106.306831 -0.000205 21.451584
v -144.561554 -0.000204 37.664162
v -144.325470 -0.000204 38.167091
v -141.154572 -0.000204 41.225769
v -139.531433 -0.000204 40.401970
v -140.215759 -0.000204 39.234360
v -143.491547 -0.000204 36.380310
v -144.476807 -0.000204 34.783157
v -145.884247 -0.000205 29.704206
v -146.344971 -0.000205 31.075224
v -148.847107 -0.000205 33.282005
v -146.896576 -0.000204 35.848000
v -146.724304 -0.000204 34.433907
v -145.604126 -0.000205 33.472420
v -146.364319 -0.000205 32.121445
v -146.220886 -0.000205 31.447657
v -144.578522 -0.000205 28.951403
v -114.199272 0.999795 10.618059
v -111.249107 0.999795 9.496462
v -123.702545 0.999796 37.193787
v -118.863319 0.999795 9.977076
v -117.461624 0.999795 31.777613
v -113.543404 0.999795 9.688272
v -121.789742 0.999796 36.559731
v -121.280655 0.999796 34.988060
v -117.785217 0.999795 14.455866
v -118.660065 0.999795 11.620222
v -126.414291 0.999795 28.912607
v -128.199081 0.999795 21.658701
v -128.617554 0.999795 23.995169
v -120.499298 0.999795 11.550459
v -121.645905 0.999795 11.926119
v -122.073051 0.999795 13.583754
v -125.368706 0.999795 31.852751
v -107.859253 0.999795 11.988583
v -123.710777 0.999796 35.194435
v -124.201309 0.999796 36.317711
v -120.419533 0.999795 21.419895
v -142.935394 0.999796 40.199203
v -147.114807 0.999795 31.766565
v -145.884247 0.999795 29.704206
v -143.491547 0.999796 36.380310
v -144.578522 0.999795 28.951403
v -139.531433 0.999796 40.401970
v -148.108521 0.999795 33.579453
v -145.340942 0.999795 30.222097
v -146.364319 0.999795 32.121445
v -146.220886 0.999795 31.447657
v -142.510193 0.999796 37.544258
v -145.663422 0.999796 35.374092
v -144.960907 0.999796 35.444855
v -141.448883 0.999796 38.200211
v -140.215759 0.999796 39.234360
v -139.768127 0.999796 39.810432
v -120.499298 -0.000205 11.550459
v -122.469719 -0.000205 15.312368
v -124.067574 -0.000205 16.259462
v -126.249313 -0.000205 18.662683
v -127.103111 -0.000205 20.068972
v -128.617554 -0.000205 23.995169
v -127.986252 -0.000205 26.917376
v -126.414291 -0.000205 28.912607
v -122.432060 -0.000205 33.054695
v -109.759270 -0.000205 9.814425
v -114.358459 -0.000205 9.979769
v -118.660065 -0.000205 11.620222
v -123.710777 -0.000204 35.194435
v -123.128143 -0.000204 37.887932
v -121.789742 -0.000204 36.559731
v -144.960907 -0.000204 35.444855
v -145.663422 -0.000204 35.374092
v -145.790405 -0.000204 36.036850
v -144.917084 -0.000204 38.120407
v -143.434082 -0.000204 38.565735
v -142.935394 -0.000204 40.199203
v -140.369446 -0.000204 40.763451
v -139.768127 -0.000204 39.810432
v -141.448883 -0.000204 38.200211
v -142.510193 -0.000204 37.544258
v -147.114807 -0.000205 31.766565
v -149.146790 -0.000205 31.964884
v -148.108521 -0.000205 33.579453
v -146.271118 -0.000204 35.617096
v -145.340942 -0.000205 30.222097
v -114.358459 0.999795 9.979769
v -109.759270 0.999795 9.814425
v -123.128143 0.999796 37.887932
v -119.363647 0.999795 8.629675
v -108.591499 0.999795 11.896982
v -108.933128 0.999795 10.835115
v -119.567146 0.999795 32.890434
v -122.469719 0.999795 15.312368
v -124.067574 0.999795 16.259462
v -127.986252 0.999795 26.917376
v -126.249313 0.999795 18.662683
v -127.103111 0.999795 20.068972
v -114.058762 0.999795 12.414011
v -125.519539 0.999795 18.330267
v -122.432060 0.999795 33.054695
v -121.596336 0.999795 32.542023
v -106.306831 0.999795 21.451584
v -141.154572 0.999796 41.225769
v -149.146790 0.999795 31.964884
v -146.344971 0.999795 31.075224
v -146.896576 0.999796 35.848000
v -146.271118 0.999796 35.617096
v -145.790405 0.999796 36.036850
v -144.561554 0.999796 37.664162
v -144.476807 0.999796 34.783157
v -143.434082 0.999796 38.565735
v -140.369446 0.999796 40.763451
v -144.917084 0.999796 38.120407
v -146.724304 0.999796 34.433907
v -145.604126 0.999795 33.472420
v -148.847107 0.999795 33.282005
v -144.325470 0.999796 38.167091
vt 0.720180 0.317396
vt 0.713710 0.318205
vt 0.710691 0.327588
vt 0.703392 0.336606
vt 0.690228 0.339415
vt 0.669957 0.337720
vt 0.662756 0.335145
vt 0.664162 0.329505
vt 0.665404 0.313637
vt 0.632478 0.295596
vt 0.624749 0.320651
vt 0.622953 0.335169
vt 0.618532 0.347074
vt 0.608498 0.321267
vt 0.598367 0.317948
vt 0.594593 0.303302
vt 0.591088 0.288029
vt 0.576970 0.279661
vt 0.564142 0.261364
vt 0.557694 0.258427
vt 0.550150 0.246001
vt 0.540466 0.231955
vt 0.536769 0.211311
vt 0.542347 0.185492
vt 0.556236 0.167863
vt 0.565474 0.141885
vt 0.591421 0.131266
vt 0.598805 0.135795
vt 0.616734 0.132717
vt 0.635338 0.142549
vt 0.609203 0.234065
vt 0.733896 0.233785
vt 0.580196 0.094694
vt 0.585271 0.088561
vt 0.597096 0.100297
vt 0.601594 0.114183
vt 0.580123 0.112360
vt 0.575789 0.102435
vt 0.373336 0.142647
vt 0.355382 0.140895
vt 0.358030 0.129257
vt 0.364556 0.126629
vt 0.375264 0.106585
vt 0.380790 0.108625
vt 0.376786 0.119079
vt 0.386683 0.127575
vt 0.379967 0.139511
vt 0.381234 0.145465
vt 0.389009 0.156293
vt 0.395745 0.167521
vt 0.384208 0.160869
vt 0.380137 0.148755
vt 0.432934 0.063155
vt 0.440339 0.066348
vt 0.438247 0.071575
vt 0.434292 0.076665
vt 0.423397 0.085802
vt 0.414020 0.091598
vt 0.405349 0.101882
vt 0.396644 0.115994
vt 0.392366 0.110147
vt 0.386159 0.110772
vt 0.385037 0.104917
vt 0.395895 0.090538
vt 0.392754 0.086507
vt 0.397981 0.086095
vt 0.405857 0.082572
vt 0.410263 0.068140
vt 0.425997 0.059070
vt 0.074501 0.007761
vt 0.056882 0.007761
vt 0.056882 0.030649
vt 0.074501 0.030649
vt 0.611820 0.007761
vt 0.575436 0.007761
vt 0.575436 0.030649
vt 0.611820 0.030649
vt 0.379444 0.007761
vt 0.408527 0.007761
vt 0.408527 0.030649
vt 0.379444 0.030649
vt 0.521961 0.007761
vt 0.455080 0.007761
vt 0.455080 0.030649
vt 0.521961 0.030649
vt 0.209117 0.007761
vt 0.198675 0.007761
vt 0.198675 0.030649
vt 0.209117 0.030649
vt 0.409415 0.007761
vt 0.342123 0.007761
vt 0.342123 0.030649
vt 0.409415 0.030649
vt 0.065819 0.007761
vt 0.091457 0.007761
vt 0.091457 0.030649
vt 0.065819 0.030649
vt 0.554588 0.007761
vt 0.621799 0.007761
vt 0.621799 0.030649
vt 0.554588 0.030649
vt 0.335974 0.007761
vt 0.351395 0.007761
vt 0.351395 0.030649
vt 0.335974 0.030649
vt 0.640926 0.007761
vt 0.640926 0.030649
vt 0.842734 0.007761
vt 0.828125 0.007761
vt 0.828125 0.030649
vt 0.842734 0.030649
vt 0.255968 0.007761
vt 0.283048 0.007761
vt 0.283048 0.030649
vt 0.255968 0.030649
vt 0.687369 0.007761
vt 0.687369 0.030649
vt 0.911843 0.007761
vt 0.877745 0.007761
vt 0.877745 0.030649
vt 0.911843 0.030649
vt 0.211861 0.007761
vt 0.238501 0.007761
vt 0.238501 0.030649
vt 0.211861 0.030649
vt 0.825235 0.007761
vt 0.806581 0.007761
vt 0.806581 0.030649
vt 0.825235 0.030649
vt 0.219882 0.007761
vt 0.203995 0.007761
vt 0.203995 0.030649
vt 0.219882 0.030649
vt 0.261530 0.007761
vt 0.246361 0.007761
vt 0.246361 0.030649
vt 0.261530 0.030649
vt 0.823157 0.007761
vt 0.846518 0.007761
vt 0.846518 0.030649
vt 0.823157 0.030649
vt 0.842795 0.007761
vt 0.873633 0.007761
vt 0.873633 0.030649
vt 0.842795 0.030649
vt 0.955329 0.007761
vt 0.938570 0.007761
vt 0.938570 0.030649
vt 0.955329 0.030649
vt 0.798854 0.007761
vt 0.798854 0.030649
vt 0.305054 0.007761
vt 0.305054 0.030649
vt 0.648151 0.007761
vt 0.592533 0.007761
vt 0.592533 0.030649
vt 0.648151 0.030649
vt 0.735558 0.007761
vt 0.735558 0.030649
vt 0.339557 0.007761
vt 0.309412 0.007761
vt 0.309412 0.030649
vt 0.339557 0.030649
vt 0.605868 0.007761
vt 0.636500 0.007761
vt 0.636500 0.030649
vt 0.605868 0.030649
vt 0.017234 0.007761
vt 0.034138 0.007761
vt 0.034138 0.030649
vt 0.017234 0.030649
vt 0.265642 0.007761
vt 0.239933 0.007761
vt 0.239933 0.030649
vt 0.265642 0.030649
vt 0.275055 0.007761
vt 0.259910 0.007761
vt 0.259910 0.030649
vt 0.275055 0.030649
vt 0.234394 0.007761
vt 0.270365 0.007761
vt 0.270365 0.030649
vt 0.234394 0.030649
vt 0.106178 0.007761
vt 0.090100 0.007761
vt 0.090100 0.030649
vt 0.106178 0.030649
vt 0.580176 0.007761
vt 0.796757 0.007761
vt 0.796757 0.030649
vt 0.580176 0.030649
vt 0.740288 0.007761
vt 0.805188 0.007761
vt 0.805188 0.030649
vt 0.740288 0.030649
vt 0.186558 0.007761
vt 0.162268 0.007761
vt 0.162268 0.030649
vt 0.186558 0.030649
vt 0.667860 0.007761
vt 0.990859 0.007761
vt 0.990859 0.030649
vt 0.667860 0.030649
vt 0.214781 0.007761
vt 0.214781 0.030649
vt 0.343843 0.007761
vt 0.580902 0.007761
vt 0.580902 0.030649
vt 0.343843 0.030649
vt 0.159995 0.007761
vt 0.173180 0.007761
vt 0.173180 0.030649
vt 0.159995 0.030649
vt 0.152536 0.007761
vt 0.193294 0.007761
vt 0.193294 0.030649
vt 0.152536 0.030649
vt 0.146456 0.007761
vt 0.146456 0.030649
vt 0.010375 0.007761
vt 0.010375 0.030649
vt 0.787021 0.007761
vt 0.787021 0.030649
vt 0.120722 0.007761
vt 0.141123 0.007761
vt 0.141123 0.030649
vt 0.120722 0.030649
vt 0.391297 0.007761
vt 0.359919 0.007761
vt 0.359919 0.030649
vt 0.391297 0.030649
vt 0.107181 0.007761
vt 0.107181 0.030649
vt 0.061876 0.007761
vt 0.076191 0.007761
vt 0.076191 0.030649
vt 0.061876 0.030649
vt 0.806785 0.007761
vt 0.806785 0.030649
vt 0.211264 0.007761
vt 0.211264 0.030649
vt 0.666035 0.007761
vt 0.639792 0.007761
vt 0.639792 0.030649
vt 0.666035 0.030649
vt 0.798187 0.007761
vt 0.760249 0.007761
vt 0.760249 0.030649
vt 0.798187 0.030649
vt 0.188482 0.007761
vt 0.151097 0.007761
vt 0.151097 0.030649
vt 0.188482 0.030649
vt 0.720685 0.007761
vt 0.720685 0.030649
vt 0.114930 0.007761
vt 0.085046 0.007761
vt 0.085046 0.030649
vt 0.114930 0.030649
vt 0.813440 0.007761
vt 0.728152 0.007761
vt 0.728152 0.030649
vt 0.813440 0.030649
vt 0.230443 0.007761
vt 0.230443 0.030649
vt 0.699009 0.007761
vt 0.651614 0.007761
vt 0.651614 0.030649
vt 0.699009 0.030649
vt 0.302604 0.007761
vt 0.250684 0.007761
vt 0.250684 0.030649
vt 0.302604 0.030649
vt 0.551136 0.007761
vt 0.534433 0.007761
vt 0.534433 0.030649
vt 0.551136 0.030649
vt 0.620937 0.007761
vt 0.584367 0.007761
vt 0.584367 0.030649
vt 0.620937 0.030649
vt 0.644006 0.007761
vt 0.644006 0.030649
vn 0.0000 1.0000 -0.0000
vn -0.6682 0.0000 -0.7440
vn -0.8233 0.0000 -0.5676
vn 0.8575 0.0000 0.5145
vn -0.9775 0.0000 0.2112
vn -0.7888 0.0000 -0.6147
vn -0.9422 0.0000 0.3351
vn 0.6513 0.0000 0.7588
vn -0.3788 0.0000 0.9255
vn 0.9781 0.0000 0.2082
vn 0.5229 0.0000 0.8524
vn -0.9703 0.0000 0.2420
vn 0.9338 0.0000 -0.3577
vn -0.1692 0.0000 0.9856
vn 0.2087 0.0000 -0.9780
vn 0.7645 0.0000 -0.6446
vn -0.3368 0.0000 -0.9416
vn -0.7704 0.0000 0.6375
vn -0.9821 0.0000 -0.1882
vn 0.7773 0.0000 -0.6291
vn 0.9375 0.0000 -0.3481
vn 0.8123 0.0000 0.5832
vn 0.1241 0.0000 -0.9923
vn 0.9519 0.0000 -0.3063
vn 0.8715 0.0000 -0.4904
vn -0.0846 0.0000 -0.9964
vn 0.4673 0.0000 0.8841
vn -0.9751 0.0000 0.2219
vn 0.7044 0.0000 0.7098
vn -0.0833 0.0000 -0.9965
vn -0.3736 0.0000 0.9276
vn -0.9164 0.0000 -0.4002
vn -0.8071 0.0000 -0.5905
vn -0.8690 0.0000 0.4948
vn 0.9513 0.0000 0.3082
vn 0.1002 0.0000 -0.9950
vn 0.9868 0.0000 -0.1619
vn 0.9556 0.0000 -0.2948
vn 0.5257 0.0000 -0.8506
vn -0.0022 0.0000 1.0000
vn -0.7855 0.0000 0.6189
vn 0.6426 0.0000 -0.7662
vn 0.9616 0.0000 -0.2746
vn -0.9843 0.0000 -0.1763
vn 0.7896 0.0000 -0.6136
vn -0.4994 0.0000 0.8664
vn 0.9284 0.0000 -0.3715
vn -0.0971 0.0000 -0.9953
vn -0.9970 0.0000 0.0780
vn -0.4083 0.0000 0.9129
vn -0.9479 0.0000 -0.3185
vn 0.9924 0.0000 -0.1228
vn -0.0787 0.0000 0.9969
vn 0.3463 0.0000 0.9381
vn -0.9320 0.0000 -0.3624
vn 0.5074 0.0000 0.8617
vn -0.7980 0.0000 0.6026
vn -0.3113 0.0000 -0.9503
vn 0.8511 0.0000 -0.5250
vn -0.9684 0.0000 -0.2495
vn -0.9564 0.0000 0.2920
vn -0.9747 0.0000 -0.2237
vn -0.4995 0.0000 -0.8663
vn -0.4805 0.0000 -0.8770
vn 0.3961 0.0000 0.9182
vn -0.8188 0.0000 -0.5741
vn -0.8820 0.0000 0.4712
vn -0.4145 0.0000 -0.9100
vn -0.5099 0.0000 -0.8602
vn -0.8548 0.0000 -0.5190
s off
f 57/1/1 111/2/1 112/3/1 108/4/1 41/5/1 45/6/1 107/7/1 40/8/1 119/9/1 48/10/1 49/11/1 43/12/1 110/13/1 53/14/1 54/15/1 55/16/1 114/17/1 115/18/1 120/19/1 117/20/1 118/21/1 51/22/1 52/23/1 116/24/1 50/25/1 56/26/1 121/27/1 122/28/1 113/29/1 44/30/1 60/31/1 123/32/1
f 42/33/1 109/34/1 46/35/1 47/36/1 58/37/1 59/38/1
f 62/39/1 125/40/1 137/41/1 67/42/1 127/43/1 128/44/1 135/45/1 136/46/1 69/47/1 70/48/1 68/49/1 65/50/1 63/51/1 126/52/1
f 133/53/1 66/54/1 76/55/1 75/56/1 74/57/1 71/58/1 64/59/1 131/60/1 73/61/1 72/62/1 129/63/1 130/64/1 134/65/1 138/66/1 132/67/1 61/68/1 124/69/1
f 32/70/2 102/71/2 62/72/2 126/73/2
f 81/74/3 4/75/3 51/76/3 118/77/3
f 106/78/4 39/79/4 65/80/4 68/81/4
f 82/82/5 83/83/5 116/84/5 52/85/5
f 24/86/6 95/87/6 134/88/6 130/89/6
f 84/90/7 5/91/7 56/92/7 50/93/7
f 35/94/8 36/95/8 136/96/8 135/97/8
f 5/98/9 85/99/9 121/100/9 56/101/9
f 37/102/10 38/103/10 70/104/10 69/105/10
f 85/99/11 6/106/11 122/107/11 121/100/11
f 87/108/12 14/109/12 40/110/12 107/111/12
f 105/112/13 35/113/13 135/114/13 128/115/13
f 6/106/14 7/116/14 113/117/14 122/107/14
f 86/118/15 12/119/15 41/120/15 108/121/15
f 101/122/16 29/123/16 64/124/16 71/125/16
f 13/126/17 87/127/17 107/128/17 45/129/17
f 20/130/18 90/131/18 109/132/18 42/133/18
f 93/134/19 94/135/19 129/136/19 72/137/19
f 11/138/20 86/139/20 108/140/20 112/141/20
f 17/142/21 18/143/21 110/144/21 43/145/21
f 38/103/22 106/78/22 68/81/22 70/104/22
f 9/146/23 10/147/23 111/148/23 57/149/23
f 10/150/24 11/138/24 112/141/24 111/151/24
f 36/152/25 37/102/25 69/105/25 136/153/25
f 21/154/26 89/155/26 58/156/26 47/157/26
f 7/116/27 8/158/27 44/159/27 113/117/27
f 103/160/28 33/161/28 137/162/28 125/163/28
f 90/164/29 91/165/29 46/166/29 109/167/29
f 12/119/30 13/126/30 45/129/30 41/120/30
f 33/168/31 104/169/31 67/170/31 137/171/31
f 89/172/32 19/173/32 59/174/32 58/175/32
f 30/176/33 92/177/33 73/178/33 131/179/33
f 19/173/34 20/130/34 42/133/34 59/174/34
f 91/180/35 21/181/35 47/182/35 46/183/35
f 92/184/36 93/185/36 72/186/36 73/187/36
f 23/188/37 9/189/37 57/190/37 123/191/37
f 16/192/38 88/193/38 49/194/38 48/195/38
f 100/196/39 101/197/39 71/198/39 74/199/39
f 22/200/40 23/201/40 123/202/40 60/203/40
f 83/83/41 84/90/41 50/93/41 116/84/41
f 28/204/42 100/196/42 74/199/42 75/205/42
f 8/206/43 22/207/43 60/208/43 44/209/43
f 4/75/44 82/82/44 52/85/44 51/76/44
f 99/210/45 28/211/45 75/212/45 76/213/45
f 97/214/46 26/215/46 124/216/46 61/217/46
f 27/218/47 99/210/47 76/213/47 66/219/47
f 102/71/48 103/220/48 125/221/48 62/72/48
f 14/109/49 15/222/49 119/223/49 40/110/49
f 25/224/50 96/225/50 132/226/50 138/227/50
f 31/228/51 32/229/51 126/230/51 63/231/51
f 88/193/52 17/142/52 43/145/52 49/194/52
f 95/232/53 25/224/53 138/227/53 134/233/53
f 34/234/54 105/235/54 128/236/54 127/237/54
f 18/143/55 77/238/55 53/239/55 110/144/55
f 26/215/56 98/240/56 133/241/56 124/216/56
f 94/135/57 24/86/57 130/89/57 129/136/57
f 77/242/58 1/243/58 54/244/58 53/245/58
f 29/123/59 30/176/59 131/179/59 64/124/59
f 1/246/60 2/247/60 55/248/60 54/249/60
f 96/250/61 97/251/61 61/252/61 132/253/61
f 2/247/62 78/254/62 114/255/62 55/248/62
f 39/256/63 31/257/63 63/258/63 65/259/63
f 15/260/64 16/261/64 48/262/64 119/263/64
f 98/240/65 27/264/65 66/265/65 133/241/65
f 79/266/66 3/267/66 120/268/66 115/269/66
f 104/270/67 34/271/67 127/272/67 67/273/67
f 3/274/68 80/275/68 117/276/68 120/277/68
f 78/278/69 79/279/69 115/280/69 114/281/69
f 80/282/70 81/74/70 118/77/70 117/283/70
