# Blender v2.92.0 OBJ File: 'world.blend'
# www.blender.org
v -121.645905 -0.000205 11.926119
v -122.073051 -0.000205 13.583754
v -125.519539 -0.000205 18.330267
v -128.199081 -0.000205 21.658701
v -125.368706 -0.000205 31.852751
v -121.596336 -0.000205 32.542023
v -119.567146 -0.000205 32.890434
v -117.461624 -0.000205 31.777613
v -107.859253 -0.000205 11.988583
v -108.591499 -0.000205 11.896982
v -108.933128 -0.000205 10.835115
v -111.249107 -0.000205 9.496462
v -113.543404 -0.000205 9.688272
v -114.199272 -0.000205 10.618059
v -114.058762 -0.000205 12.414011
v -117.785217 -0.000205 14.455866
v -118.863319 -0.000205 9.977076
v -119.363647 -0.000205 8.629675
v -124.201309 -0.000204 36.317711
v -123.702545 -0.000204 37.193787
v -121.280655 -0.000204 34.988060
v -120.419533 -0.000205 21.419895
v -106.306831 -0.000205 21.451584
v -144.561554 -0.000204 37.664162
v -144.325470 -0.000204 38.167091
v -141.154572 -0.000204 41.225769
v -139.531433 -0.000204 40.401970
v -140.215759 -0.000204 39.234360
v -143.491547 -0.000204 36.380310
v -144.476807 -0.000204 34.783157
v -145.884247 -0.000205 29.704206
v -146.344971 -0.000205 31.075224
v -148.847107 -0.000205 33.282005
v -146.896576 -0.000204 35.848000
v -146.724304 -0.000204 34.433907
v -145.604126 -0.000205 33.472420
v -146.364319 -0.000205 32.121445
v -146.220886 -0.000205 31.447657
v -144.578522 -0.000205 28.951403
v -114.199272 0.999795 10.618059
v -111.249107 0.999795 9.496462
v -123.702545 0.999796 37.193787
v -118.863319 0.999795 9.977076
v -117.461624 0.999795 31.777613
v -113.543404 0.999795 9.688272
v -121.789742 0.999796 36.559731
v -121.280655 0.999796 34.988060
v -117.785217 0.999795 14.455866
v -118.660065 0.999795 11.620222
v -126.414291 0.999795 28.912607
v -128.199081 0.999795 21.658701
v -128.617554 0.999795 23.995169
v -120.499298 0.999795 11.550459
v -121.645905 0.999795 11.926119
v -122.073051 0.999795 13.583754
v -125.368706 0.999795 31.852751
v -107.859253 0.999795 11.988583
v -123.710777 0.999796 35.194435
v -124.201309 0.999796 36.317711
v -120.419533 0.999795 21.419895
v -142.935394 0.999796 40.199203
v -147.114807 0.999795 31.766565
v -145.884247 0.999795 29.704206
v -143.491547 0.999796 36.380310
v -144.578522 0.999795 28.951403
v -139.531433 0.999796 40.401970
v -148.108521 0.999795 33.579453
v -145.340942 0.999795 30.222097
v -146.364319 0.999795 32.121445
v -146.220886 0.999795 31.447657
v -142.510193 0.999796 37.544258
v -145.663422 0.999796 35.374092
v -144.960907 0.999796 35.444855
v -141.448883 0.999796 38.200211
v -140.215759 0.999796 39.234360
v -139.768127 0.999796 39.810432
v -120.499298 -0.000205 11.550459
v -122.469719 -0.000205 15.312368
v -124.067574 -0.000205 16.259462
v -126.249313 -0.000205 18.662683
v -127.103111 -0.000205 20.068972
v -128.617554 -0.000205 23.995169
v -127.986252 -0.000205 26.917376
v -126.414291 -0.000205 28.912607
v -122.432060 -0.000205 33.054695
v -109.759270 -0.000205 9.814425
v -114.358459 -0.000205 9.979769
v -118.660065 -0.000205 11.620222
v -123.710777 -0.000204 35.194435
v -123.128143 -0.000204 37.887932
v -121.789742 -0.000204 36.559731
v -144.960907 -0.000204 35.444855
v -145.663422 -0.000204 35.374092
v -145.790405 -0.000204 36.036850
v -144.917084 -0.000204 38.120407
v -143.434082 -0.000204 38.565735
v -142.935394 -0.000204 40.199203
v -140.369446 -0.000204 40.763451
v -139.768127 -0.000204 39.810432
v -141.448883 -0.000204 38.200211
v -142.510193 -0.000204 37.544258
v -147.114807 -0.000205 31.766565
v -149.146790 -0.000205 31.964884
v -148.108521 -0.000205 33.579453
v -146.271118 -0.000204 35.617096
v -145.340942 -0.000205 30.222097
v -114.358459 0.999795 9.979769
v -109.759270 0.999795 9.814425
v -123.128143 0.999796 37.887932
v -119.363647 0.999795 8.629675
v -108.591499 0.999795 11.896982
v -108.933128 0.999795 10.835115
v -119.567146 0.999795 32.890434
v -122.469719 0.999795 15.312368
v -124.067574 0.999795 16.259462
v -127.986252 0.999795 26.917376
v -126.249313 0.999795 18.662683
v -127.103111 0.999795 20.068972
v -114.058762 0.999795 12.414011
v -125.519539 0.999795 18.330267
v -122.432060 0.999795 33.054695
v -121.596336 0.999795 32.542023
v -106.306831 0.999795 21.451584
v -141.154572 0.999796 41.225769
v -149.146790 0.999795 31.964884
v -146.344971 0.999795 31.075224
v -146.896576 0.999796 35.848000
v -146.271118 0.999796 35.617096
v -145.790405 0.999796 36.036850
v -144.561554 0.999796 37.664162
v -144.476807 0.999796 34.783157
v -143.434082 0.999796 38.565735
v -140.369446 0.999796 40.763451
v -144.917084 0.999796 38.120407
v -146.724304 0.999796 34.433907
v -145.604126 0.999795 33.472420
v -148.847107 0.999795 33.282005
v -144.325470 0.999796 38.167091
vt 0.457347 0.547861
vt 0.445975 0.552526
vt 0.445113 0.571086
vt 0.436283 0.591096
vt 0.413720 0.602703
vt 0.376002 0.609623
vt 0.361629 0.608491
vt 0.361405 0.597536
vt 0.355833 0.568053
vt 0.287026 0.551477
vt 0.285326 0.600875
vt 0.289223 0.628175
vt 0.287055 0.652017
vt 0.256064 0.610016
vt 0.235994 0.608976
vt 0.221900 0.584192
vt 0.207987 0.558133
vt 0.178171 0.549875
vt 0.145801 0.522917
vt 0.132621 0.520755
vt 0.112764 0.501871
vt 0.088215 0.481094
vt 0.071300 0.445359
vt 0.068708 0.395631
vt 0.085278 0.356703
vt 0.089267 0.304880
vt 0.131234 0.272754
vt 0.146904 0.277352
vt 0.178005 0.262904
vt 0.216704 0.271612
vt 0.214315 0.451013
vt 0.441044 0.388971
vt 0.092764 0.211756
vt 0.098971 0.198093
vt 0.126278 0.213609
vt 0.141314 0.236655
vt 0.101349 0.243933
vt 0.088566 0.228014
vt 0.712064 0.490813
vt 0.678535 0.496484
vt 0.677610 0.474004
vt 0.688186 0.466003
vt 0.697777 0.424251
vt 0.708838 0.425235
vt 0.706712 0.446232
vt 0.728911 0.456804
vt 0.722582 0.481836
vt 0.727825 0.492042
vt 0.747314 0.507906
vt 0.765110 0.525009
vt 0.740838 0.518600
vt 0.727454 0.498570
vt 0.781272 0.316774
vt 0.796319 0.318931
vt 0.795093 0.329472
vt 0.790409 0.340685
vt 0.775095 0.362686
vt 0.760894 0.377858
vt 0.750193 0.400847
vt 0.741319 0.430818
vt 0.730651 0.422292
vt 0.719667 0.426492
vt 0.714736 0.416392
vt 0.727395 0.384874
vt 0.719690 0.379090
vt 0.728997 0.375760
vt 0.741588 0.365465
vt 0.742483 0.337032
vt 0.766635 0.312765
vt 0.064911 0.054706
vt 0.054285 0.054706
vt 0.054285 0.068509
vt 0.064911 0.068509
vt 0.389361 0.028582
vt 0.367418 0.028582
vt 0.367418 0.042385
vt 0.389361 0.042385
vt 0.249219 0.028582
vt 0.266758 0.028582
vt 0.266758 0.042385
vt 0.249219 0.042385
vt 0.335168 0.028582
vt 0.294833 0.028582
vt 0.294833 0.042385
vt 0.335168 0.042385
vt 0.146497 0.028582
vt 0.140199 0.028582
vt 0.140199 0.042385
vt 0.146497 0.042385
vt 0.267293 0.028582
vt 0.226711 0.028582
vt 0.226711 0.042385
vt 0.267293 0.042385
vt 0.059675 0.054706
vt 0.075136 0.054706
vt 0.075136 0.068509
vt 0.059675 0.068509
vt 0.354443 0.054706
vt 0.394977 0.054706
vt 0.394977 0.068509
vt 0.354443 0.068509
vt 0.223002 0.028582
vt 0.232303 0.028582
vt 0.232303 0.042385
vt 0.223002 0.042385
vt 0.406513 0.054706
vt 0.406513 0.068509
vt 0.528621 0.028582
vt 0.519811 0.028582
vt 0.519811 0.042385
vt 0.528621 0.042385
vt 0.174752 0.028582
vt 0.191084 0.028582
vt 0.191084 0.042385
vt 0.174752 0.042385
vt 0.434521 0.054706
vt 0.434521 0.068509
vt 0.569898 0.054706
vt 0.549334 0.054706
vt 0.549334 0.068509
vt 0.569898 0.068509
vt 0.148152 0.028582
vt 0.164218 0.028582
vt 0.164218 0.042385
vt 0.148152 0.042385
vt 0.517666 0.054706
vt 0.506416 0.054706
vt 0.506416 0.068509
vt 0.517666 0.068509
vt 0.152989 0.028582
vt 0.143408 0.028582
vt 0.143408 0.042385
vt 0.152989 0.042385
vt 0.178106 0.028582
vt 0.168958 0.028582
vt 0.168958 0.042385
vt 0.178106 0.042385
vt 0.516815 0.028582
vt 0.530903 0.028582
vt 0.530903 0.042385
vt 0.516815 0.042385
vt 0.528658 0.028582
vt 0.547256 0.028582
vt 0.547256 0.042385
vt 0.528658 0.042385
vt 0.596124 0.054706
vt 0.586017 0.054706
vt 0.586017 0.068509
vt 0.596124 0.068509
vt 0.502158 0.028582
vt 0.502158 0.042385
vt 0.204355 0.028582
vt 0.204355 0.042385
vt 0.410870 0.054706
vt 0.377327 0.054706
vt 0.377327 0.068509
vt 0.410870 0.068509
vt 0.463584 0.054706
vt 0.463584 0.068509
vt 0.225163 0.028582
vt 0.206983 0.028582
vt 0.206983 0.042385
vt 0.225163 0.042385
vt 0.385369 0.054706
vt 0.403843 0.054706
vt 0.403843 0.068509
vt 0.385369 0.068509
vt 0.030374 0.054706
vt 0.040569 0.054706
vt 0.040569 0.068509
vt 0.030374 0.068509
vt 0.180586 0.028582
vt 0.165082 0.028582
vt 0.165082 0.042385
vt 0.180586 0.042385
vt 0.186263 0.028582
vt 0.177130 0.028582
vt 0.177130 0.042385
vt 0.186263 0.042385
vt 0.161741 0.028582
vt 0.183435 0.028582
vt 0.183435 0.042385
vt 0.161741 0.042385
vt 0.084015 0.054706
vt 0.074318 0.054706
vt 0.074318 0.068509
vt 0.084015 0.068509
vt 0.370277 0.028582
vt 0.500893 0.028582
vt 0.500893 0.042385
vt 0.370277 0.042385
vt 0.466838 0.028582
vt 0.505978 0.028582
vt 0.505978 0.042385
vt 0.466838 0.042385
vt 0.132491 0.054706
vt 0.117842 0.054706
vt 0.117842 0.068509
vt 0.132491 0.068509
vt 0.422756 0.054706
vt 0.617552 0.054706
vt 0.617552 0.068509
vt 0.422756 0.068509
vt 0.149511 0.054706
vt 0.149511 0.068509
vt 0.227748 0.028582
vt 0.370714 0.028582
vt 0.370714 0.042385
vt 0.227748 0.042385
vt 0.116872 0.028582
vt 0.124824 0.028582
vt 0.124824 0.042385
vt 0.116872 0.042385
vt 0.111973 0.054706
vt 0.136553 0.054706
vt 0.136553 0.068509
vt 0.111973 0.068509
vt 0.108707 0.028582
vt 0.108707 0.042385
vt 0.026238 0.054706
vt 0.026238 0.068509
vt 0.495021 0.028582
vt 0.495021 0.042385
vt 0.092786 0.054706
vt 0.105089 0.054706
vt 0.105089 0.068509
vt 0.092786 0.068509
vt 0.256367 0.028582
vt 0.237443 0.028582
vt 0.237443 0.042385
vt 0.256367 0.042385
vt 0.084620 0.054706
vt 0.084620 0.068509
vt 0.057297 0.054706
vt 0.065930 0.054706
vt 0.065930 0.068509
vt 0.057297 0.068509
vt 0.506941 0.028582
vt 0.506941 0.042385
vt 0.147390 0.054706
vt 0.147390 0.068509
vt 0.421655 0.054706
vt 0.405829 0.054706
vt 0.405829 0.068509
vt 0.421655 0.068509
vt 0.501756 0.028582
vt 0.478875 0.028582
vt 0.478875 0.042385
vt 0.501756 0.042385
vt 0.134053 0.028582
vt 0.111506 0.028582
vt 0.111506 0.042385
vt 0.134053 0.042385
vt 0.455016 0.028582
vt 0.455016 0.042385
vt 0.089293 0.054706
vt 0.071270 0.054706
vt 0.071270 0.068509
vt 0.089293 0.068509
vt 0.510553 0.054706
vt 0.459117 0.054706
vt 0.459117 0.068509
vt 0.510553 0.068509
vt 0.158957 0.054706
vt 0.158957 0.068509
vt 0.441943 0.028582
vt 0.413360 0.028582
vt 0.413360 0.042385
vt 0.441943 0.042385
vt 0.202878 0.028582
vt 0.171565 0.028582
vt 0.171565 0.042385
vt 0.202878 0.042385
vt 0.352361 0.054706
vt 0.342288 0.054706
vt 0.342288 0.068509
vt 0.352361 0.068509
vt 0.394458 0.054706
vt 0.372403 0.054706
vt 0.372403 0.068509
vt 0.394458 0.068509
vt 0.408772 0.028582
vt 0.408772 0.042385
vn 0.0000 1.0000 -0.0000
vn -0.6682 0.0000 -0.7440
vn -0.8233 0.0000 -0.5676
vn 0.8575 0.0000 0.5145
vn -0.9775 0.0000 0.2112
vn -0.7888 0.0000 -0.6147
vn -0.9422 0.0000 0.3351
vn 0.6513 0.0000 0.7588
vn -0.3788 0.0000 0.9255
vn 0.9781 0.0000 0.2082
vn 0.5229 0.0000 0.8524
vn -0.9703 0.0000 0.2420
vn 0.9338 0.0000 -0.3577
vn -0.1692 0.0000 0.9856
vn 0.2087 0.0000 -0.9780
vn 0.7645 0.0000 -0.6446
vn -0.3368 0.0000 -0.9416
vn -0.7704 0.0000 0.6375
vn -0.9821 0.0000 -0.1882
vn 0.7773 0.0000 -0.6291
vn 0.9375 0.0000 -0.3481
vn 0.8123 0.0000 0.5832
vn 0.1241 0.0000 -0.9923
vn 0.9519 0.0000 -0.3063
vn 0.8715 0.0000 -0.4904
vn -0.0846 0.0000 -0.9964
vn 0.4673 0.0000 0.8841
vn -0.9751 0.0000 0.2219
vn 0.7044 0.0000 0.7098
vn -0.0833 0.0000 -0.9965
vn -0.3736 0.0000 0.9276
vn -0.9164 0.0000 -0.4002
vn -0.8071 0.0000 -0.5905
vn -0.8690 0.0000 0.4948
vn 0.9513 0.0000 0.3082
vn 0.1002 0.0000 -0.9950
vn 0.9868 0.0000 -0.1619
vn 0.9556 0.0000 -0.2948
vn 0.5257 0.0000 -0.8506
vn -0.0022 0.0000 1.0000
vn -0.7855 0.0000 0.6189
vn 0.6426 0.0000 -0.7662
vn 0.9616 0.0000 -0.2746
vn -0.9843 0.0000 -0.1763
vn 0.7896 0.0000 -0.6136
vn -0.4994 0.0000 0.8664
vn 0.9284 0.0000 -0.3715
vn -0.0971 0.0000 -0.9953
vn -0.9970 0.0000 0.0780
vn -0.4083 0.0000 0.9129
vn -0.9479 0.0000 -0.3185
vn 0.9924 0.0000 -0.1228
vn -0.0787 0.0000 0.9969
vn 0.3463 0.0000 0.9381
vn -0.9320 0.0000 -0.3624
vn 0.5074 0.0000 0.8617
vn -0.7980 0.0000 0.6026
vn -0.3113 0.0000 -0.9503
vn 0.8511 0.0000 -0.5250
vn -0.9684 0.0000 -0.2495
vn -0.9564 0.0000 0.2920
vn -0.9747 0.0000 -0.2237
vn -0.4995 0.0000 -0.8663
vn -0.4805 0.0000 -0.8770
vn 0.3961 0.0000 0.9182
vn -0.8188 0.0000 -0.5741
vn -0.8820 0.0000 0.4712
vn -0.4145 0.0000 -0.9100
vn -0.5099 0.0000 -0.8602
vn -0.8548 0.0000 -0.5190
s off
f 57/1/1 111/2/1 112/3/1 108/4/1 41/5/1 45/6/1 107/7/1 40/8/1 119/9/1 48/10/1 49/11/1 43/12/1 110/13/1 53/14/1 54/15/1 55/16/1 114/17/1 115/18/1 120/19/1 117/20/1 118/21/1 51/22/1 52/23/1 116/24/1 50/25/1 56/26/1 121/27/1 122/28/1 113/29/1 44/30/1 60/31/1 123/32/1
f 42/33/1 109/34/1 46/35/1 47/36/1 58/37/1 59/38/1
f 62/39/1 125/40/1 137/41/1 67/42/1 127/43/1 128/44/1 135/45/1 136/46/1 69/47/1 70/48/1 68/49/1 65/50/1 63/51/1 126/52/1
f 133/53/1 66/54/1 76/55/1 75/56/1 74/57/1 71/58/1 64/59/1 131/60/1 73/61/1 72/62/1 129/63/1 130/64/1 134/65/1 138/66/1 132/67/1 61/68/1 124/69/1
f 32/70/2 102/71/2 62/72/2 126/73/2
f 81/74/3 4/75/3 51/76/3 118/77/3
f 106/78/4 39/79/4 65/80/4 68/81/4
f 82/82/5 83/83/5 116/84/5 52/85/5
f 24/86/6 95/87/6 134/88/6 130/89/6
f 84/90/7 5/91/7 56/92/7 50/93/7
f 35/94/8 36/95/8 136/96/8 135/97/8
f 5/98/9 85/99/9 121/100/9 56/101/9
f 37/102/10 38/103/10 70/104/10 69/105/10
f 85/99/11 6/106/11 122/107/11 121/100/11
f 87/108/12 14/109/12 40/110/12 107/111/12
f 105/112/13 35/113/13 135/114/13 128/115/13
f 6/106/14 7/116/14 113/117/14 122/107/14
f 86/118/15 12/119/15 41/120/15 108/121/15
f 101/122/16 29/123/16 64/124/16 71/125/16
f 13/126/17 87/127/17 107/128/17 45/129/17
f 20/130/18 90/131/18 109/132/18 42/133/18
f 93/134/19 94/135/19 129/136/19 72/137/19
f 11/138/20 86/139/20 108/140/20 112/141/20
f 17/142/21 18/143/21 110/144/21 43/145/21
f 38/103/22 106/78/22 68/81/22 70/104/22
f 9/146/23 10/147/23 111/148/23 57/149/23
f 10/150/24 11/138/24 112/141/24 111/151/24
f 36/152/25 37/102/25 69/105/25 136/153/25
f 21/154/26 89/155/26 58/156/26 47/157/26
f 7/116/27 8/158/27 44/159/27 113/117/27
f 103/160/28 33/161/28 137/162/28 125/163/28
f 90/164/29 91/165/29 46/166/29 109/167/29
f 12/119/30 13/126/30 45/129/30 41/120/30
f 33/168/31 104/169/31 67/170/31 137/171/31
f 89/172/32 19/173/32 59/174/32 58/175/32
f 30/176/33 92/177/33 73/178/33 131/179/33
f 19/173/34 20/130/34 42/133/34 59/174/34
f 91/180/35 21/181/35 47/182/35 46/183/35
f 92/184/36 93/185/36 72/186/36 73/187/36
f 23/188/37 9/189/37 57/190/37 123/191/37
f 16/192/38 88/193/38 49/194/38 48/195/38
f 100/196/39 101/197/39 71/198/39 74/199/39
f 22/200/40 23/201/40 123/202/40 60/203/40
f 83/83/41 84/90/41 50/93/41 116/84/41
f 28/204/42 100/196/42 74/199/42 75/205/42
f 8/206/43 22/207/43 60/208/43 44/209/43
f 4/75/44 82/82/44 52/85/44 51/76/44
f 99/210/45 28/211/45 75/212/45 76/213/45
f 97/214/46 26/215/46 124/216/46 61/217/46
f 27/218/47 99/210/47 76/213/47 66/219/47
f 102/71/48 103/220/48 125/221/48 62/72/48
f 14/109/49 15/222/49 119/223/49 40/110/49
f 25/224/50 96/225/50 132/226/50 138/227/50
f 31/228/51 32/229/51 126/230/51 63/231/51
f 88/193/52 17/142/52 43/145/52 49/194/52
f 95/232/53 25/224/53 138/227/53 134/233/53
f 34/234/54 105/235/54 128/236/54 127/237/54
f 18/143/55 77/238/55 53/239/55 110/144/55
f 26/215/56 98/240/56 133/241/56 124/216/56
f 94/135/57 24/86/57 130/89/57 129/136/57
f 77/242/58 1/243/58 54/244/58 53/245/58
f 29/123/59 30/176/59 131/179/59 64/124/59
f 1/246/60 2/247/60 55/248/60 54/249/60
f 96/250/61 97/251/61 61/252/61 132/253/61
f 2/247/62 78/254/62 114/255/62 55/248/62
f 39/256/63 31/257/63 63/258/63 65/259/63
f 15/260/64 16/261/64 48/262/64 119/263/64
f 98/240/65 27/264/65 66/265/65 133/241/65
f 79/266/66 3/267/66 120/268/66 115/269/66
f 104/270/67 34/271/67 127/272/67 67/273/67
f 3/274/68 80/275/68 117/276/68 120/277/68
f 78/278/69 79/279/69 115/280/69 114/281/69
f 80/282/70 81/74/70 118/77/70 117/283/70
