# Blender v2.92.0 OBJ File: 'worldmap.blend'
# www.blender.org
v -1.339260 0.000000 -51.425457
v 1.716156 0.000000 -50.722057
v -1.471148 0.000000 -53.667564
v 1.386435 0.000000 -54.173138
v -0.610337 0.000000 -55.544754
v -2.105073 0.000000 -54.643513
v -4.171325 0.000000 -50.453861
v -2.263339 0.000000 -48.523891
v -7.864202 0.000000 -52.062897
v -7.776277 0.000000 -50.027416
v -2.166621 0.000000 -50.981415
v -4.039436 0.000000 -52.854229
v -4.624144 0.000000 -56.467968
v -2.513927 0.000000 -56.177818
v -3.305258 0.000000 -58.973850
v -5.019808 0.000000 -59.000229
v -2.012751 0.000000 -58.947472
v -2.619438 0.000000 -60.477379
v -4.017455 0.000000 -60.477379
vt 0.000000 0.000000
vt 0.000000 0.000000
vt 0.000000 0.000000
vt 0.000000 0.000000
vt 0.000000 0.000000
vt 0.000000 0.000000
vt 0.000000 0.000000
vt 0.000000 0.000000
vt 0.000000 0.000000
vt 0.000000 0.000000
vt 0.000000 0.000000
vt 0.000000 0.000000
vt 0.000000 0.000000
vt 0.000000 0.000000
vt 0.000000 0.000000
vt 0.000000 0.000000
vt 0.000000 0.000000
vt 0.000000 0.000000
vt 0.000000 0.000000
vn 0.0000 1.0000 0.0000
s off
f 3/1/1 4/2/1 5/3/1
f 1/4/1 4/2/1 3/1/1
f 3/1/1 5/3/1 6/5/1
f 7/6/1 12/7/1 9/8/1
f 7/6/1 10/9/1 8/10/1
f 9/8/1 12/7/1 13/11/1
f 13/11/1 12/7/1 14/12/1
f 13/11/1 14/12/1 15/13/1
f 13/11/1 15/13/1 16/14/1
f 15/13/1 14/12/1 17/15/1
f 15/13/1 17/15/1 18/16/1
f 15/13/1 18/16/1 19/17/1
f 1/4/1 2/18/1 4/2/1
f 7/6/1 11/19/1 12/7/1
f 7/6/1 9/8/1 10/9/1
