# Blender v2.92.0 OBJ File: 'world.blend'
# www.blender.org
v 4.526788 -0.000205 -48.546505
v 4.390484 -0.000205 -50.667992
v 3.735478 -0.000205 -51.591431
v 1.457987 -0.000205 -47.627178
v 3.828428 -0.000204 -45.918476
v -2.215256 -0.000205 -49.149654
v 1.736752 -0.000205 -49.898411
v 3.313023 -0.000205 -52.800705
v 3.831347 -0.000205 -53.202759
v 3.203598 -0.000205 -54.432312
v 2.661657 -0.000204 -46.284008
v -1.407505 -0.000205 -47.599476
v -0.201601 -0.000205 -46.714695
v 1.529259 -0.000204 -46.655930
v -1.604727 -0.000205 -46.864796
v 2.571971 -0.000205 -47.229523
v 2.929454 -0.000205 -46.750160
v 1.644500 -0.000205 -47.291336
v 3.066337 -0.000205 -49.264957
v 2.945824 -0.000205 -49.940369
v 3.038490 -0.000205 -48.393204
v 2.491693 -0.000205 -48.859287
v 4.526788 0.999795 -48.546505
v 7.343145 0.999795 -51.146366
v 5.279943 0.999795 -52.444191
v 3.735478 0.999795 -51.591431
v 4.390484 0.999795 -50.667992
v 2.929454 0.999795 -46.750160
v 3.828428 0.999796 -45.918476
v 1.457987 0.999795 -47.627178
v 3.472410 0.999795 -47.891476
v -2.215256 0.999795 -49.149654
v 2.495874 0.999795 -53.223995
v 3.831347 0.999795 -53.202759
v 3.203598 0.999795 -54.432312
v 1.759268 0.999795 -54.432312
v 1.529259 0.999796 -46.655930
v 2.597608 0.999795 -49.333965
v 3.038490 0.999795 -48.393204
v 2.491693 0.999795 -48.859287
v 7.683846 -0.000205 -47.880939
v 7.343145 -0.000205 -51.146366
v 5.279943 -0.000205 -52.444191
v -2.024676 -0.000205 -47.406361
v 3.472410 -0.000205 -47.891476
v 1.132594 -0.000205 -52.800705
v 2.495874 -0.000205 -53.223995
v 0.723699 -0.000205 -53.245159
v 1.759268 -0.000205 -54.432312
v 2.597608 -0.000205 -49.333965
v 7.683846 0.999795 -47.880939
v 2.945824 0.999795 -49.940369
v 1.736752 0.999795 -49.898411
v -1.407505 0.999795 -47.599476
v -2.024676 0.999795 -47.406361
v 2.661657 0.999796 -46.284008
v 1.132594 0.999795 -52.800705
v 3.313023 0.999795 -52.800705
v 0.723699 0.999795 -53.245159
v -1.604727 0.999795 -46.864796
v -0.201601 0.999795 -46.714695
v 1.644500 0.999795 -47.291336
v 2.571971 0.999795 -47.229523
v 3.066337 0.999795 -49.264957
vt 0.524521 0.684859
vt 0.528231 0.680074
vt 0.540629 0.678747
vt 0.555922 0.678228
vt 0.565927 0.674942
vt 0.576236 0.671712
vt 0.568293 0.679061
vt 0.565135 0.683296
vt 0.556940 0.683842
vt 0.555292 0.686810
vt 0.573091 0.689145
vt 0.569257 0.693578
vt 0.564425 0.697696
vt 0.565361 0.701890
vt 0.569503 0.701280
vt 0.568438 0.707248
vt 0.557755 0.706877
vt 0.571682 0.732521
vt 0.576262 0.736073
vt 0.570716 0.746937
vt 0.557954 0.746937
vt 0.564462 0.736261
vt 0.548804 0.736448
vt 0.552417 0.732521
vt 0.522837 0.700262
vt 0.529974 0.686565
vt 0.589061 0.729371
vt 0.575415 0.721836
vt 0.581202 0.713677
vt 0.582407 0.694932
vt 0.610301 0.689052
vt 0.607291 0.717904
vt 0.401310 0.007761
vt 0.433423 0.007761
vt 0.433423 0.030649
vt 0.401310 0.030649
vt 0.405824 0.007761
vt 0.391698 0.007761
vt 0.391698 0.030649
vt 0.405824 0.030649
vt 0.473038 0.007761
vt 0.473038 0.030649
vt 0.498955 0.007761
vt 0.525659 0.007761
vt 0.525659 0.030649
vt 0.498955 0.030649
vt 0.437242 0.007761
vt 0.424847 0.007761
vt 0.424847 0.030649
vt 0.437242 0.030649
vt 0.471407 0.007761
vt 0.517511 0.007761
vt 0.517511 0.030649
vt 0.471407 0.030649
vt 0.496902 0.007761
vt 0.475675 0.007761
vt 0.475675 0.030649
vt 0.496902 0.030649
vt 0.560703 0.007761
vt 0.477141 0.007761
vt 0.477141 0.030649
vt 0.560703 0.030649
vt 0.422224 0.007761
vt 0.433195 0.007761
vt 0.433195 0.030649
vt 0.422224 0.030649
vt 0.494278 0.007761
vt 0.560703 0.007761
vt 0.560703 0.030649
vt 0.494278 0.030649
vt 0.434610 0.007761
vt 0.442296 0.007761
vt 0.442296 0.030649
vt 0.434610 0.030649
vt 0.541643 0.007761
vt 0.613899 0.007761
vt 0.613899 0.030649
vt 0.541643 0.030649
vt 0.497489 0.007761
vt 0.508217 0.007761
vt 0.508217 0.030649
vt 0.497489 0.030649
vt 0.495161 0.007761
vt 0.454601 0.007761
vt 0.454601 0.030649
vt 0.495161 0.030649
vt 0.606101 0.007761
vt 0.558880 0.007761
vt 0.558880 0.030649
vt 0.606101 0.030649
vt 0.479780 0.007761
vt 0.495238 0.007761
vt 0.495238 0.030649
vt 0.479780 0.030649
vt 0.513863 0.007761
vt 0.525726 0.007761
vt 0.525726 0.030649
vt 0.513863 0.030649
vt 0.533027 0.007761
vt 0.511892 0.007761
vt 0.511892 0.030649
vt 0.533027 0.030649
vt 0.448345 0.007761
vt 0.459828 0.007761
vt 0.459828 0.030649
vt 0.448345 0.030649
vt 0.569905 0.007761
vt 0.598046 0.007761
vt 0.598046 0.030649
vt 0.569905 0.030649
vt 0.448104 0.007761
vt 0.522840 0.007761
vt 0.522840 0.030649
vt 0.448104 0.030649
vt 0.470496 0.007761
vt 0.481360 0.007761
vt 0.481360 0.030649
vt 0.470496 0.030649
vt 0.598046 0.007761
vt 0.570391 0.007761
vt 0.570391 0.030649
vt 0.598046 0.030649
vt 0.463337 0.007761
vt 0.463337 0.030649
vt 0.507580 0.007761
vt 0.495065 0.007761
vt 0.495065 0.030649
vt 0.507580 0.030649
vt 0.511358 0.007761
vt 0.478302 0.007761
vt 0.478302 0.030649
vt 0.511358 0.030649
vt 0.523532 0.007761
vt 0.523532 0.030649
vt 0.505084 0.007761
vt 0.505084 0.030649
vt 0.441662 0.007761
vt 0.441662 0.030649
vt 0.505459 0.007761
vt 0.477787 0.007761
vt 0.477787 0.030649
vt 0.505459 0.030649
vt 0.570876 0.007761
vt 0.570876 0.030649
vn 0.0000 1.0000 -0.0000
vn -0.1064 0.0000 0.9943
vn -0.2986 0.0000 -0.9544
vn -0.0339 0.0000 0.9994
vn -0.2990 0.0000 0.9543
vn -0.7902 0.0000 0.6128
vn 0.1301 0.0000 0.9915
vn 0.0665 0.0000 -0.9978
vn -0.7370 0.0000 -0.6758
vn 0.8016 0.0000 -0.5978
vn 0.8788 0.0000 0.4773
vn 0.8742 0.0000 -0.4855
vn -0.2063 0.0000 0.9785
vn -0.1457 0.0000 0.9893
vn 0.0119 0.0000 -0.9999
vn 0.5325 0.0000 -0.8465
vn 0.9845 0.0000 -0.1757
vn 0.6129 0.0000 0.7902
vn -0.8156 0.0000 0.5785
vn 0.7564 0.0000 -0.6541
vn 0.8906 0.0000 -0.4547
vn 0.9946 0.0000 -0.1038
vn 0.9760 0.0000 0.2178
vn -0.8539 0.0000 0.5205
vn -0.9979 0.0000 0.0641
vn 0.6487 0.0000 -0.7610
vn 0.0000 0.0000 -1.0000
vn -0.4834 0.0000 -0.8754
vn -0.3120 0.0000 0.9501
vn 0.6791 0.0000 -0.7340
vn -0.8868 0.0000 0.4621
vn -0.0347 0.0000 -0.9994
vn -0.7359 0.0000 0.6771
s off
f 55/1/1 60/2/1 61/3/1 37/4/1 56/5/1 29/6/1 28/7/1 63/8/1 62/9/1 30/10/1 31/11/1 39/12/1 40/13/1 38/14/1 64/15/1 52/16/1 53/17/1 58/18/1 34/19/1 35/20/1 36/21/1 33/22/1 59/23/1 57/24/1 32/25/1 54/26/1
f 25/27/1 26/28/1 27/29/1 23/30/1 51/31/1 24/32/1
f 15/33/2 13/34/2 61/35/2 60/36/2
f 12/37/3 44/38/3 55/39/3 54/40/3
f 13/34/4 14/41/4 37/42/4 61/35/4
f 11/43/5 5/44/5 29/45/5 56/46/5
f 44/47/6 15/48/6 60/49/6 55/50/6
f 4/51/7 45/52/7 31/53/7 30/54/7
f 16/55/8 18/56/8 62/57/8 63/58/8
f 46/59/9 6/60/9 32/61/9 57/62/9
f 17/63/10 16/64/10 63/65/10 28/66/10
f 7/67/11 8/68/11 58/69/11 53/70/11
f 18/71/12 4/72/12 30/73/12 62/74/12
f 1/75/13 41/76/13 51/77/13 23/78/13
f 50/79/14 19/80/14 64/81/14 38/82/14
f 47/83/15 48/84/15 59/85/15 33/86/15
f 42/87/16 43/88/16 25/89/16 24/90/16
f 19/91/17 20/92/17 52/93/17 64/94/17
f 8/95/18 9/96/18 34/97/18 58/98/18
f 3/99/19 2/100/19 27/101/19 26/102/19
f 45/103/20 21/104/20 39/105/20 31/106/20
f 9/107/21 10/108/21 35/109/21 34/110/21
f 41/111/22 42/112/22 24/113/22 51/114/22
f 22/115/23 50/116/23 38/117/23 40/118/23
f 49/119/24 47/120/24 33/121/24 36/122/24
f 2/100/25 1/123/25 23/124/25 27/101/25
f 21/125/26 22/126/26 40/127/26 39/128/26
f 10/129/27 49/130/27 36/131/27 35/132/27
f 43/88/28 3/133/28 26/134/28 25/89/28
f 14/41/29 11/43/29 56/46/29 37/42/29
f 5/44/30 17/135/30 28/136/30 29/45/30
f 6/60/31 12/137/31 54/138/31 32/61/31
f 20/139/32 7/140/32 53/141/32 52/142/32
f 48/143/33 46/59/33 57/62/33 59/144/33
