# Blender v2.92.0 OBJ File: 'world.blend'
# www.blender.org
v 10.437855 -0.000204 -63.090668
v 10.437855 0.999796 -63.090668
v 18.017517 0.999796 -61.506645
v 14.607224 -0.000204 -60.780075
v 16.133924 -0.000204 -64.871391
v 11.582298 -0.000204 -65.210571
v 18.017517 -0.000204 -61.506645
v 19.543591 -0.000204 -65.343620
v 14.607224 0.999796 -60.780075
v 16.133924 0.999796 -64.871391
v 11.582298 0.999796 -65.210571
v 19.543591 0.999796 -65.343620
vt 0.701605 0.809442
vt 0.715088 0.843344
vt 0.684962 0.839172
vt 0.644746 0.842168
vt 0.634634 0.823438
vt 0.671473 0.803023
vt 0.491840 0.007761
vt 0.569892 0.007761
vt 0.569892 0.030649
vt 0.491840 0.030649
vt 0.465023 0.007761
vt 0.552841 0.007761
vt 0.552841 0.030649
vt 0.465023 0.030649
vt 0.549796 0.007761
vt 0.501277 0.007761
vt 0.501277 0.030649
vt 0.549796 0.030649
vt 0.396415 0.030649
vt 0.396415 0.007761
vt 0.604820 0.007761
vt 0.526782 0.007761
vt 0.526782 0.030649
vt 0.604820 0.030649
vt 0.422608 0.007761
vt 0.422608 0.030649
vn 0.0000 1.0000 0.0000
vn 0.2084 0.0000 0.9780
vn 0.9292 0.0000 0.3696
vn -0.8800 0.0000 -0.4751
vn -0.4847 0.0000 0.8747
vn -0.1372 0.0000 -0.9905
vn 0.0743 0.0000 -0.9972
s off
f 3/1/1 12/2/1 10/3/1 11/4/1 2/5/1 9/6/1
f 4/7/2 7/8/2 3/9/2 9/10/2
f 7/11/3 8/12/3 12/13/3 3/14/3
f 6/15/4 1/16/4 2/17/4 11/18/4
f 2/19/5 1/20/5 4/7/5 9/10/5
f 8/21/6 5/22/6 10/23/6 12/24/6
f 5/22/7 6/25/7 11/26/7 10/23/7
