# Blender v2.92.0 OBJ File: 'world.blend'
# www.blender.org
v -24.113209 -0.000204 -57.139961
v -24.724451 -0.000204 -66.093727
v -27.126276 -0.000204 -71.608589
v -18.701208 -0.000204 -59.741646
v -23.166079 -0.000204 -73.676208
v -19.605453 -0.000204 -64.620918
v -17.175323 -0.000204 -71.478317
v -8.980642 -0.000204 -61.148338
v -9.798428 -0.000205 -55.307861
v -14.745009 -0.000205 -52.840218
v -12.540960 -0.000205 -52.597584
v -16.610378 -0.000205 -55.521675
v -25.886520 -0.000204 -62.240360
v -18.152519 -0.000204 -61.663902
v -5.490045 -0.000205 -54.415993
v -7.261935 -0.000205 -53.670563
v -14.079373 -0.000205 -52.800705
v -12.816404 -0.000205 -52.800705
v -24.724451 0.999796 -66.093727
v -27.126276 0.999796 -71.608589
v -19.549252 0.999795 -55.961220
v -21.486576 0.999796 -64.370033
v -8.980642 0.999796 -61.148338
v -4.969029 0.999796 -58.951370
v -9.798428 0.999795 -55.307861
v -10.223803 0.999795 -54.994202
v -11.680211 0.999795 -52.730633
v -12.540960 0.999795 -52.597584
v -14.919675 0.999795 -54.431049
v -16.610378 0.999795 -55.521675
v -24.113209 0.999796 -57.139961
v -14.745009 0.999795 -52.840218
v -12.816404 0.999795 -52.800705
v -14.079373 0.999795 -52.800705
v -22.092436 -0.000204 -63.126350
v -19.549252 -0.000205 -55.961220
v -15.254016 -0.000204 -59.170135
v -10.223803 -0.000205 -54.994202
v -4.969029 -0.000204 -58.951370
v -13.162954 -0.000204 -67.703209
v -11.680211 -0.000205 -52.730633
v -21.486576 -0.000204 -64.370033
v -14.919675 -0.000205 -54.431049
v -15.311837 -0.000204 -57.095856
v -22.092436 0.999796 -63.126350
v -18.701208 0.999796 -59.741646
v -23.166079 0.999796 -73.676208
v -17.175323 0.999796 -71.478317
v -13.162954 0.999796 -67.703209
v -18.152519 0.999796 -61.663902
v -19.605453 0.999796 -64.620918
v -7.261935 0.999795 -53.670563
v -15.311837 0.999796 -57.095856
v -15.254016 0.999796 -59.170135
v -25.886520 0.999796 -62.240360
v -5.490045 0.999795 -54.415993
vt 0.515429 0.774849
vt 0.484946 0.717522
vt 0.496997 0.631249
vt 0.565516 0.598272
vt 0.590801 0.655430
vt 0.547763 0.719633
vt 0.561253 0.737411
vt 0.591807 0.735476
vt 0.605516 0.684125
vt 0.643554 0.635567
vt 0.636128 0.602926
vt 0.610640 0.582093
vt 0.633969 0.559528
vt 0.631740 0.533807
vt 0.642148 0.531093
vt 0.662133 0.527129
vt 0.665854 0.523050
vt 0.679892 0.522454
vt 0.710042 0.553700
vt 0.717758 0.557328
vt 0.752755 0.523459
vt 0.783132 0.529692
vt 0.805612 0.599823
vt 0.749030 0.647178
vt 0.703425 0.764027
vt 0.651784 0.836357
vt 0.563888 0.889939
vt 0.494733 0.869652
vt 0.695963 0.029515
vt 0.712971 0.029515
vt 0.712971 0.034014
vt 0.695963 0.034014
vt 0.339969 0.029515
vt 0.322152 0.029515
vt 0.322152 0.034014
vt 0.339969 0.034014
vt 0.728199 0.029515
vt 0.733795 0.029515
vt 0.733795 0.034014
vt 0.728199 0.034014
vt 0.362525 0.029515
vt 0.375565 0.029515
vt 0.375565 0.034014
vt 0.362525 0.034014
vt 0.366921 0.029515
vt 0.366921 0.034014
vt 0.384973 0.029515
vt 0.384973 0.034014
vt 0.719300 0.029515
vt 0.748790 0.029515
vt 0.748790 0.034014
vt 0.719300 0.034014
vt 0.681429 0.029515
vt 0.691612 0.029515
vt 0.691612 0.034014
vt 0.681429 0.034014
vt 0.734923 0.029515
vt 0.721620 0.029515
vt 0.721620 0.034014
vt 0.734923 0.034014
vt 0.411521 0.029515
vt 0.419493 0.029515
vt 0.419493 0.034014
vt 0.411521 0.034014
vt 0.421837 0.029515
vt 0.403789 0.029515
vt 0.403789 0.034014
vt 0.421837 0.034014
vt 0.689011 0.029515
vt 0.709416 0.029515
vt 0.709416 0.034014
vt 0.689011 0.034014
vt 0.398196 0.029515
vt 0.400110 0.029515
vt 0.400110 0.034014
vt 0.398196 0.034014
vt 0.347525 0.029515
vt 0.355988 0.029515
vt 0.355988 0.034014
vt 0.347525 0.034014
vt 0.689079 0.029515
vt 0.681922 0.029515
vt 0.681922 0.034014
vt 0.689079 0.034014
vt 0.387771 0.029515
vt 0.391644 0.029515
vt 0.391644 0.034014
vt 0.387771 0.034014
vt 0.380850 0.029515
vt 0.386532 0.029515
vt 0.386532 0.034014
vt 0.380850 0.034014
vt 0.377855 0.029515
vt 0.377855 0.034014
vt 0.369463 0.029515
vt 0.377069 0.029515
vt 0.377069 0.034014
vt 0.369463 0.034014
vt 0.724213 0.029515
vt 0.701266 0.029515
vt 0.701266 0.034014
vt 0.724213 0.034014
vt 0.766361 0.029515
vt 0.741549 0.029515
vt 0.741549 0.034014
vt 0.766361 0.034014
vt 0.701068 0.029515
vt 0.693986 0.029515
vt 0.693986 0.034014
vt 0.701068 0.034014
vt 0.360056 0.029515
vt 0.344799 0.029515
vt 0.344799 0.034014
vt 0.360056 0.034014
vt 0.335707 0.029515
vt 0.356241 0.029515
vt 0.356241 0.034014
vt 0.335707 0.034014
vt 0.710400 0.029515
vt 0.710400 0.034014
vn 0.0000 1.0000 0.0000
vn 0.9758 0.0000 0.2189
vn -0.4628 0.0000 -0.8865
vn 0.8990 0.0000 0.4379
vn -0.6522 0.0000 0.7580
vn 0.3444 0.0000 -0.9388
vn 0.6852 0.0000 -0.7283
vn 0.8430 0.0000 -0.5379
vn 0.8410 0.0000 0.5411
vn -0.8975 0.0000 0.4410
vn 0.3878 0.0000 0.9218
vn 0.4803 0.0000 -0.8771
vn 0.9935 0.0000 0.1141
vn 0.5935 0.0000 0.8049
vn 0.1322 0.0000 0.9912
vn -0.5423 0.0000 0.8402
vn -0.9940 0.0000 0.1091
vn 0.1528 0.0000 0.9883
vn 0.0000 0.0000 1.0000
vn -0.0593 0.0000 0.9982
vn -0.5421 0.0000 0.8403
vn -0.5935 0.0000 0.8048
vn -0.9445 0.0000 0.3284
vn -0.9168 0.0000 0.3993
vn -0.7714 0.0000 -0.6363
vn -0.9574 0.0000 -0.2887
vn 0.7064 0.0000 -0.7078
vn -0.2501 0.0000 0.9682
vn -0.9996 0.0000 -0.0279
s off
f 19/1/1 55/2/1 31/3/1 21/4/1 46/5/1 45/6/1 22/7/1 51/8/1 50/9/1 54/10/1 53/11/1 30/12/1 29/13/1 32/14/1 34/15/1 33/16/1 28/17/1 27/18/1 26/19/1 25/20/1 52/21/1 56/22/1 24/23/1 23/24/1 49/25/1 48/26/1 47/27/1 20/28/1
f 36/29/2 4/30/2 46/31/2 21/32/2
f 5/33/3 3/34/3 20/35/3 47/36/3
f 35/37/4 42/38/4 22/39/4 45/40/4
f 14/41/5 37/42/5 54/43/5 50/44/5
f 7/45/6 5/33/6 47/36/6 48/46/6
f 40/47/7 7/45/7 48/46/7 49/48/7
f 8/49/8 40/50/8 49/51/8 23/52/8
f 41/53/9 38/54/9 26/55/9 27/56/9
f 6/57/10 14/58/10 50/59/10 51/60/10
f 16/61/11 15/62/11 56/63/11 52/64/11
f 39/65/12 8/66/12 23/67/12 24/68/12
f 15/69/13 39/70/13 24/71/13 56/72/13
f 38/73/14 9/74/14 25/75/14 26/76/14
f 42/77/15 6/78/15 51/79/15 22/80/15
f 9/74/16 16/61/16 52/64/16 25/75/16
f 43/81/17 10/82/17 32/83/17 29/84/17
f 11/85/18 41/86/18 27/87/18 28/88/18
f 17/89/19 18/90/19 33/91/19 34/92/19
f 10/93/20 17/89/20 34/92/20 32/94/20
f 12/95/21 43/96/21 29/97/21 30/98/21
f 18/90/22 11/85/22 28/88/22 33/91/22
f 13/99/23 1/100/23 31/101/23 55/102/23
f 3/103/24 2/104/24 19/105/24 20/106/24
f 44/107/25 12/108/25 30/109/25 53/110/25
f 2/104/26 13/99/26 55/102/26 19/105/26
f 4/111/27 35/112/27 45/113/27 46/114/27
f 1/115/28 36/116/28 21/117/28 31/118/28
f 37/119/29 44/107/29 53/110/29 54/120/29
