# Blender v2.92.0 OBJ File: 'worldmap.blend'
# www.blender.org
v 25.482704 0.000000 -54.038151
v 22.647318 0.000000 -54.313400
v 25.186556 0.000000 -46.153362
v 32.299110 0.000000 -44.677383
v 26.091860 0.000000 -57.901527
v 23.662930 0.000000 -55.688511
v 34.889961 0.000000 -44.461475
v 34.242249 0.000000 -42.248455
v 38.173512 0.000000 -45.010235
v 24.418598 0.000000 -58.981052
v 30.850752 0.000000 -62.492504
v 25.468136 0.000000 -61.472954
v 36.753639 0.000000 -42.213966
v 29.285446 0.000000 -63.744450
v 43.338726 0.000000 -78.516663
v 32.179321 0.000000 -75.661705
v 44.229332 0.000000 -42.193352
v 44.638649 0.000000 -48.952557
v 29.906122 0.000000 -74.968224
v 45.889099 0.000000 -35.479134
v 55.912411 0.000000 -81.679047
v 39.491016 0.000000 -76.597008
v 46.970867 0.000000 -37.374390
v 32.194904 0.000000 -81.725716
v 46.120739 0.000000 -44.133583
v 36.503994 0.000000 -69.076935
v 40.039436 0.000000 -38.801571
v 56.132195 0.000000 -49.562832
v 59.118622 0.000000 -79.733040
v 48.046455 0.000000 -50.921959
v 55.013828 0.000000 -73.695198
v 62.568321 0.000000 -55.566414
v 55.712696 0.000000 -53.870415
v 31.027706 0.000000 -70.186195
v 37.986851 0.000000 -73.269630
vt 0.000000 0.000000
vt 0.000000 0.000000
vt 0.000000 0.000000
vt 0.000000 0.000000
vt 0.000000 0.000000
vt 0.000000 0.000000
vt 0.000000 0.000000
vt 0.000000 0.000000
vt 0.000000 0.000000
vt 0.000000 0.000000
vt 0.000000 0.000000
vt 0.000000 0.000000
vt 0.000000 0.000000
vt 0.000000 0.000000
vt 0.000000 0.000000
vt 0.000000 0.000000
vt 0.000000 0.000000
vt 0.000000 0.000000
vt 0.000000 0.000000
vt 0.000000 0.000000
vt 0.000000 0.000000
vt 0.000000 0.000000
vt 0.000000 0.000000
vt 0.000000 0.000000
vt 0.000000 0.000000
vt 0.000000 0.000000
vt 0.000000 0.000000
vt 0.000000 0.000000
vt 0.000000 0.000000
vt 0.000000 0.000000
vt 0.000000 0.000000
vt 0.000000 0.000000
vt 0.000000 0.000000
vt 0.000000 0.000000
vt 0.000000 0.000000
vn 0.0000 1.0000 0.0000
s off
f 11/1/1 26/2/1 14/3/1
f 7/4/1 9/5/1 11/1/1
f 7/4/1 4/6/1 8/7/1
f 33/8/1 31/9/1 26/2/1
f 6/10/1 5/11/1 10/12/1
f 6/10/1 1/13/1 5/11/1
f 5/11/1 11/1/1 12/14/1
f 9/5/1 18/15/1 11/1/1
f 1/13/1 3/16/1 4/6/1
f 9/5/1 13/17/1 27/18/1
f 27/18/1 20/19/1 23/20/1
f 17/21/1 25/22/1 18/15/1
f 27/18/1 23/20/1 17/21/1
f 11/1/1 5/11/1 1/13/1
f 7/4/1 11/1/1 1/13/1
f 4/6/1 7/4/1 1/13/1
f 9/5/1 27/18/1 17/21/1
f 9/5/1 17/21/1 18/15/1
f 24/23/1 16/24/1 22/25/1
f 16/24/1 24/23/1 19/26/1
f 21/27/1 15/28/1 31/9/1
f 15/28/1 26/2/1 31/9/1
f 11/1/1 18/15/1 30/29/1
f 30/29/1 28/30/1 33/8/1
f 11/1/1 30/29/1 26/2/1
f 29/31/1 21/27/1 31/9/1
f 33/8/1 32/32/1 31/9/1
f 26/2/1 30/29/1 33/8/1
f 6/10/1 2/33/1 1/13/1
f 14/3/1 26/2/1 34/34/1
f 26/2/1 19/26/1 34/34/1
f 22/25/1 16/24/1 35/35/1
f 19/26/1 26/2/1 16/24/1
