# Blender v2.92.0 OBJ File: 'world.blend'
# www.blender.org
v 0.093795 -0.000204 -41.530979
v -5.493063 -0.000204 -41.618191
v 0.644362 -0.000204 -38.393166
v 1.005119 -0.000205 -31.787462
v 6.846405 -0.000204 -38.110214
v 6.443192 -0.000205 -32.127937
v -5.073885 -0.000204 -45.132542
v -5.975076 -0.000204 -38.119343
v -3.497337 -0.000204 -38.141262
v -0.556082 -0.000204 -34.431633
v -2.582325 -0.000204 -36.269005
v -3.525019 -0.000204 -36.881233
v -0.966375 -0.000205 -33.741196
v -1.440647 -0.000204 -35.787491
v -0.178399 -0.000205 -32.647446
v 0.499170 -0.000205 -32.452374
v 2.792684 -0.000205 -31.768192
v 4.913383 -0.000205 -32.238514
v 7.029715 -0.000205 -33.729435
v 6.472717 -0.000205 -33.444054
v 6.375206 -0.000204 -35.737164
v 1.211490 -0.000204 -42.883995
v 0.725728 -0.000204 -45.384102
v 1.423556 -0.000204 -44.081104
v -1.011124 -0.000204 -45.101341
v -2.161547 -0.000205 -46.713360
v 0.093795 0.999796 -41.530979
v 0.644362 0.999796 -38.393166
v 6.472717 0.999795 -33.444054
v 2.792684 0.999795 -31.768192
v -6.920578 0.999796 -43.125412
v -6.446350 0.999796 -40.981148
v -6.896050 0.999796 -38.695080
v -5.073885 0.999796 -45.132542
v -6.263710 0.999796 -39.425747
v -3.497337 0.999796 -38.141262
v -0.966375 0.999795 -33.741196
v -1.440647 0.999796 -35.787491
v -0.178399 0.999795 -32.647446
v 0.499170 0.999795 -32.452374
v 6.375206 0.999796 -35.737164
v 7.029715 0.999795 -33.729435
v 2.740046 0.999796 -43.270531
v 0.218491 0.999796 -45.437538
v 0.381944 0.999796 -44.216095
v 1.423556 0.999796 -44.081104
v -1.011124 0.999796 -45.101341
v -6.920578 -0.000204 -43.125412
v -6.896050 -0.000204 -38.695080
v -2.764527 -0.000205 -46.894241
v 3.120777 -0.000204 -44.055775
v -3.454893 -0.000204 -37.415070
v -7.278636 -0.000204 -44.357231
v -6.545468 -0.000204 -40.543674
v -6.446350 -0.000204 -40.981148
v -6.263710 -0.000204 -39.425747
v -4.180119 -0.000204 -38.580532
v -0.394608 -0.000205 -33.324802
v 3.810120 -0.000205 -31.135588
v 5.454342 -0.000204 -38.818016
v 0.161473 -0.000204 -39.780869
v 0.810959 -0.000204 -42.035313
v 2.740046 -0.000204 -43.270531
v 1.901079 -0.000204 -44.408249
v 0.218491 -0.000204 -45.437538
v 0.381944 -0.000204 -44.216095
v 0.810959 0.999796 -42.035313
v 1.901079 0.999796 -44.408249
v 3.120777 0.999796 -44.055775
v 0.161473 0.999796 -39.780869
v -3.525019 0.999796 -36.881233
v -3.454893 0.999796 -37.415070
v 5.454342 0.999796 -38.818016
v 6.846405 0.999796 -38.110214
v 6.443192 0.999795 -32.127937
v 1.005119 0.999795 -31.787462
v -7.278636 0.999796 -44.357231
v -5.493063 0.999796 -41.618191
v -5.975076 0.999796 -38.119343
v -2.764527 0.999795 -46.894241
v -6.545468 0.999796 -40.543674
v -4.180119 0.999796 -38.580532
v -0.556082 0.999796 -34.431633
v -2.582325 0.999796 -36.269005
v -0.394608 0.999795 -33.324802
v 4.913383 0.999795 -32.238514
v 3.810120 0.999795 -31.135588
v 1.211490 0.999796 -42.883995
v 0.725728 0.999796 -45.384102
v -2.161547 0.999795 -46.713360
vt 0.493876 0.633717
vt 0.485453 0.628088
vt 0.484577 0.624223
vt 0.487067 0.614346
vt 0.481480 0.607890
vt 0.489617 0.602803
vt 0.505476 0.606878
vt 0.511509 0.602997
vt 0.511884 0.596580
vt 0.511265 0.591863
vt 0.519594 0.586454
vt 0.529681 0.582200
vt 0.537497 0.570220
vt 0.533872 0.564120
vt 0.538923 0.560441
vt 0.540834 0.554456
vt 0.546820 0.552732
vt 0.551291 0.546857
vt 0.567085 0.546687
vt 0.576075 0.541098
vt 0.585822 0.550843
vt 0.599339 0.549865
vt 0.599600 0.561494
vt 0.604521 0.564016
vt 0.598738 0.581755
vt 0.602902 0.602722
vt 0.590602 0.608976
vt 0.548103 0.605222
vt 0.543837 0.617483
vt 0.543239 0.632946
vt 0.549575 0.637403
vt 0.553114 0.644901
vt 0.566620 0.648316
vt 0.569984 0.655254
vt 0.559207 0.658369
vt 0.554988 0.655478
vt 0.545785 0.656671
vt 0.548822 0.666991
vt 0.544340 0.667463
vt 0.533476 0.664493
vt 0.523312 0.678736
vt 0.517984 0.680334
vt 0.497580 0.664768
vt 0.478099 0.657918
vt 0.481263 0.647034
vt 0.342994 0.007761
vt 0.373116 0.007761
vt 0.373116 0.030649
vt 0.342994 0.030649
vt 0.425599 0.007761
vt 0.479912 0.007761
vt 0.479912 0.030649
vt 0.425599 0.030649
vt 0.395719 0.007761
vt 0.379917 0.007761
vt 0.379917 0.030649
vt 0.395719 0.030649
vt 0.526470 0.007761
vt 0.567383 0.007761
vt 0.567383 0.030649
vt 0.526470 0.030649
vt 0.628300 0.007761
vt 0.518214 0.007761
vt 0.518214 0.030649
vt 0.628300 0.030649
vt 0.444364 0.007761
vt 0.470494 0.007761
vt 0.470494 0.030649
vt 0.444364 0.030649
vt 0.622888 0.007761
vt 0.594695 0.007761
vt 0.594695 0.030649
vt 0.622888 0.030649
vt 0.518148 0.007761
vt 0.558203 0.007761
vt 0.558203 0.030649
vt 0.518148 0.030649
vt 0.370387 0.007761
vt 0.354884 0.007761
vt 0.354884 0.030649
vt 0.370387 0.030649
vt 0.560199 0.007761
vt 0.560199 0.030649
vt 0.531194 0.007761
vt 0.566178 0.007761
vt 0.566178 0.030649
vt 0.531194 0.030649
vt 0.422788 0.007761
vt 0.422788 0.030649
vt 0.377746 0.007761
vt 0.355928 0.007761
vt 0.355928 0.030649
vt 0.377746 0.030649
vt 0.569746 0.007761
vt 0.589170 0.007761
vt 0.589170 0.030649
vt 0.569746 0.030649
vt 0.481348 0.007761
vt 0.494435 0.007761
vt 0.494435 0.030649
vt 0.481348 0.030649
vt 0.345635 0.007761
vt 0.366714 0.007761
vt 0.366714 0.030649
vt 0.345635 0.030649
vt 0.598016 0.007761
vt 0.615988 0.007761
vt 0.615988 0.030649
vt 0.598016 0.030649
vt 0.426751 0.007761
vt 0.426751 0.030649
vt 0.440194 0.007761
vt 0.387339 0.007761
vt 0.387339 0.030649
vt 0.440194 0.030649
vt 0.520076 0.007761
vt 0.508467 0.007761
vt 0.508467 0.030649
vt 0.520076 0.030649
vt 0.499383 0.007761
vt 0.514891 0.007761
vt 0.514891 0.030649
vt 0.499383 0.030649
vt 0.336879 0.007761
vt 0.336879 0.030649
vt 0.536047 0.007761
vt 0.512208 0.007761
vt 0.512208 0.030649
vt 0.536047 0.030649
vt 0.350420 0.007761
vt 0.335202 0.007761
vt 0.335202 0.030649
vt 0.350420 0.030649
vt 0.535606 0.007761
vt 0.510020 0.007761
vt 0.510020 0.030649
vt 0.535606 0.030649
vt 0.639918 0.007761
vt 0.676813 0.007761
vt 0.676813 0.030649
vt 0.639918 0.030649
vt 0.505613 0.007761
vt 0.522027 0.007761
vt 0.522027 0.030649
vt 0.505613 0.030649
vt 0.590669 0.007761
vt 0.615919 0.007761
vt 0.615919 0.030649
vt 0.590669 0.030649
vt 0.545619 0.007761
vt 0.545619 0.030649
vt 0.546976 0.007761
vt 0.546976 0.030649
vt 0.493297 0.007761
vt 0.493297 0.030649
vt 0.480324 0.007761
vt 0.480324 0.030649
vt 0.486387 0.007761
vt 0.486387 0.030649
vt 0.650932 0.007761
vt 0.650932 0.030649
vt 0.407795 0.007761
vt 0.423422 0.007761
vt 0.423422 0.030649
vt 0.407795 0.030649
vt 0.619658 0.007761
vt 0.646390 0.007761
vt 0.646390 0.030649
vt 0.619658 0.030649
vt 0.464002 0.007761
vt 0.451784 0.007761
vt 0.451784 0.030649
vt 0.464002 0.030649
vt 0.379648 0.007761
vt 0.379648 0.030649
vt 0.453994 0.007761
vt 0.453994 0.030649
vt 0.660161 0.007761
vt 0.660161 0.030649
vt 0.651608 0.007761
vt 0.664356 0.007761
vt 0.664356 0.030649
vt 0.651608 0.030649
vt 0.480622 0.007761
vt 0.480622 0.030649
vt 0.574892 0.007761
vt 0.574892 0.030649
vn 0.0000 1.0000 0.0000
vn 0.9997 0.0000 0.0224
vn 0.9809 0.0000 0.1948
vn -0.8597 0.0000 -0.5109
vn -0.0108 0.0000 0.9999
vn -0.0880 0.0000 -0.9961
vn -0.3886 0.0000 0.9214
vn -0.9603 0.0000 0.2791
vn 0.9993 0.0000 -0.0386
vn -0.9526 0.0000 0.3041
vn -0.7260 0.0000 0.6876
vn 0.2452 0.0000 0.9695
vn -0.5447 0.0000 0.8387
vn -0.5556 0.0000 -0.8314
vn 0.9043 0.0000 0.4268
vn -0.5887 0.0000 0.8084
vn -0.5301 0.0000 0.8479
vn 0.8998 0.0000 0.4363
vn -0.8375 0.0000 0.5464
vn -0.6065 0.0000 -0.7951
vn 0.1048 0.0000 -0.9945
vn -0.2767 0.0000 0.9610
vn -0.3317 0.0000 -0.9434
vn 0.1285 0.0000 -0.9917
vn -0.7958 0.0000 0.6056
vn -0.9697 0.0000 0.2444
vn 0.8140 0.0000 -0.5809
vn 0.5752 0.0000 0.8180
vn 0.7070 0.0000 0.7072
vn -0.9753 0.0000 -0.2210
vn -0.5652 0.0000 -0.8250
vn -0.5280 0.0000 0.8492
vn -0.7562 0.0000 -0.6544
vn -0.2637 0.0000 -0.9646
vn 0.9445 0.0000 -0.3286
vn -0.0721 0.0000 0.9974
vn -0.5411 0.0000 0.8410
vn 0.9593 0.0000 0.2824
vn -0.9915 0.0000 -0.1302
vn 0.9508 0.0000 -0.3099
vn 0.2489 0.0000 0.9685
vn 0.2873 0.0000 -0.9578
vn 0.4532 0.0000 -0.8914
vn 0.4560 0.0000 0.8900
vn -0.9983 0.0000 0.0583
vn 0.2776 0.0000 -0.9607
s off
f 78/1/1 32/2/1 81/3/1 35/4/1 33/5/1 79/6/1 82/7/1 36/8/1 72/9/1 71/10/1 84/11/1 38/12/1 83/13/1 37/14/1 85/15/1 39/16/1 40/17/1 76/18/1 30/19/1 87/20/1 86/21/1 75/22/1 29/23/1 42/24/1 41/25/1 74/26/1 73/27/1 28/28/1 70/29/1 27/30/1 67/31/1 88/32/1 43/33/1 69/34/1 68/35/1 46/36/1 45/37/1 89/38/1 44/39/1 47/40/1 90/41/1 80/42/1 34/43/1 77/44/1 31/45/1
f 6/46/2 20/47/2 29/48/2 75/49/2
f 21/50/3 5/51/3 74/52/3 41/53/3
f 10/54/4 13/55/4 37/56/4 83/57/4
f 4/58/5 17/59/5 30/60/5 76/61/5
f 60/62/6 3/63/6 28/64/6 73/65/6
f 11/66/7 14/67/7 38/68/7 84/69/7
f 53/70/8 48/71/8 31/72/8 77/73/8
f 61/74/9 1/75/9 27/76/9 70/77/9
f 58/78/10 15/79/10 39/80/10 85/81/10
f 48/71/11 2/82/11 78/83/11 31/72/11
f 22/84/12 63/85/12 43/86/12 88/87/12
f 12/88/13 11/66/13 84/69/13 71/89/13
f 2/90/14 55/91/14 32/92/14 78/93/14
f 62/94/15 22/95/15 88/96/15 67/97/15
f 13/98/16 58/99/16 85/100/16 37/101/16
f 49/102/17 8/103/17 79/104/17 33/105/17
f 63/106/18 51/107/18 69/108/18 43/109/18
f 14/110/19 10/54/19 83/57/19 38/111/19
f 50/112/20 7/113/20 34/114/20 80/115/20
f 23/116/21 65/117/21 44/118/21 89/119/21
f 15/120/22 16/121/22 40/122/22 39/123/22
f 7/113/23 53/124/23 77/125/23 34/114/23
f 24/126/24 66/127/24 45/128/24 46/129/24
f 16/130/25 4/131/25 76/132/25 40/133/25
f 54/134/26 56/135/26 35/136/26 81/137/26
f 25/138/27 26/139/27 90/140/27 47/141/27
f 1/142/28 62/143/28 67/144/28 27/145/28
f 59/146/29 18/147/29 86/148/29 87/149/29
f 55/150/30 54/134/30 81/137/30 32/151/30
f 64/152/31 24/126/31 46/129/31 68/153/31
f 17/59/32 59/146/32 87/149/32 30/60/32
f 56/135/33 49/154/33 33/155/33 35/136/33
f 65/117/34 25/156/34 47/157/34 44/118/34
f 3/158/35 61/74/35 70/77/35 28/159/35
f 18/147/36 6/160/36 75/161/36 86/148/36
f 57/162/37 9/163/37 36/164/37 82/165/37
f 66/166/38 23/167/38 89/168/38 45/169/38
f 52/170/39 12/171/39 71/172/39 72/173/39
f 19/174/40 21/50/40 41/53/40 42/175/40
f 8/103/41 57/162/41 82/165/41 79/104/41
f 26/176/42 50/112/42 80/115/42 90/177/42
f 5/178/43 60/62/43 73/65/43 74/179/43
f 20/180/44 19/181/44 42/182/44 29/183/44
f 9/184/45 52/170/45 72/173/45 36/185/45
f 51/186/46 64/152/46 68/153/46 69/187/46
