# Blender v2.92.0 OBJ File: 'world.blend'
# www.blender.org
v 111.435059 -0.000205 -55.724724
v 115.145844 -0.000204 -56.316628
v 103.197426 -0.000204 -46.352131
v 104.637497 -0.000204 -46.622814
v 105.442268 -0.000205 -47.848820
v 106.926964 -0.000205 -53.050705
v 84.192116 -0.000204 -44.828590
v 111.435059 0.999795 -55.724724
v 106.926964 0.999795 -53.050705
v 113.182899 0.999795 -55.338554
v 107.381325 0.999795 -50.939682
v 101.425522 0.999796 -44.875404
v 84.192116 0.999796 -44.828590
v 85.798958 0.999795 -56.328487
v 108.921555 -0.000205 -53.050705
v 110.004478 -0.000205 -54.301811
v 113.182899 -0.000205 -55.338554
v 101.425522 -0.000204 -44.875404
v 105.342369 -0.000205 -48.861073
v 107.381325 -0.000205 -50.939682
v 85.798958 -0.000205 -56.328487
v 110.004478 0.999795 -54.301811
v 108.921555 0.999795 -53.050705
v 115.145844 0.999796 -56.316628
v 105.342369 0.999795 -48.861073
v 105.442268 0.999795 -47.848820
v 104.637497 0.999796 -46.622814
v 103.197426 0.999796 -46.352131
vt 0.323168 0.586734
vt 0.365962 0.490522
vt 0.498367 0.573544
vt 0.504921 0.593408
vt 0.514705 0.602399
vt 0.515018 0.615694
vt 0.509394 0.623005
vt 0.515116 0.648782
vt 0.501493 0.662850
vt 0.516844 0.672417
vt 0.519177 0.687240
vt 0.523362 0.705053
vt 0.538666 0.710464
vt 0.549081 0.727407
vt 0.723243 0.025402
vt 0.733489 0.025402
vt 0.733489 0.032517
vt 0.723243 0.032517
vt 0.781856 0.025402
vt 0.794292 0.025402
vt 0.794292 0.032517
vt 0.781856 0.032517
vt 0.710635 0.025402
vt 0.710635 0.032517
vt 0.808259 0.025402
vt 0.808259 0.032517
vt 0.588015 0.025402
vt 0.588015 0.032517
vt 0.351415 0.025402
vt 0.366435 0.025402
vt 0.366435 0.032517
vt 0.351415 0.032517
vt 0.599448 0.025402
vt 0.599448 0.032517
vt 0.389758 0.025402
vt 0.307933 0.025402
vt 0.307933 0.032517
vt 0.389758 0.032517
vt 0.336625 0.025402
vt 0.336625 0.032517
vt 0.329422 0.025402
vt 0.329422 0.032517
vt 0.771677 0.025402
vt 0.771677 0.032517
vt 0.320699 0.025402
vt 0.320699 0.032517
vt 0.749779 0.025402
vt 0.763972 0.025402
vt 0.763972 0.032517
vt 0.749779 0.032517
vt 0.366435 0.025402
vt 0.375337 0.025402
vt 0.375337 0.032517
vt 0.366435 0.032517
vn 0.0000 1.0000 0.0000
vn 0.1847 0.0000 0.9828
vn -0.2157 0.0000 0.9765
vn 0.6402 0.0000 0.7682
vn 0.4460 0.0000 0.8950
vn 0.0027 0.0000 1.0000
vn 0.9776 0.0000 -0.2104
vn 0.0004 0.0000 -1.0000
vn -0.9904 0.0000 -0.1384
vn 0.7139 0.0000 0.7003
vn 0.9952 0.0000 -0.0982
vn 0.7052 0.0000 0.7090
vn 0.8360 0.0000 0.5488
vn 0.0000 0.0000 1.0000
vn 0.7561 0.0000 0.6545
s off
f 14/1/1 13/2/1 12/3/1 28/4/1 27/5/1 26/6/1 25/7/1 11/8/1 9/9/1 23/10/1 22/11/1 8/12/1 10/13/1 24/14/1
f 3/15/2 4/16/2 27/17/2 28/18/2
f 1/19/3 17/20/3 10/21/3 8/22/3
f 18/23/4 3/15/4 28/18/4 12/24/4
f 17/20/5 2/25/5 24/26/5 10/21/5
f 7/27/6 18/23/6 12/24/6 13/28/6
f 20/29/7 6/30/7 9/31/7 11/32/7
f 2/25/8 21/33/8 14/34/8 24/26/8
f 21/35/9 7/36/9 13/37/9 14/38/9
f 19/39/10 20/29/10 11/32/10 25/40/10
f 5/41/11 19/39/11 25/40/11 26/42/11
f 16/43/12 1/19/12 8/22/12 22/44/12
f 4/45/13 5/41/13 26/42/13 27/46/13
f 6/47/14 15/48/14 23/49/14 9/50/14
f 15/51/15 16/52/15 22/53/15 23/54/15
