# Blender v2.92.0 OBJ File: 'world.blend'
# www.blender.org
v 109.035805 -0.000205 -52.800705
v 110.187393 -0.000205 -54.131142
v 111.514511 -0.000205 -55.451141
v 113.215279 -0.000205 -55.075371
v 116.207291 -0.000204 -56.566200
v 101.426201 -0.000204 -44.625404
v 103.197426 -0.000204 -46.352131
v 104.637497 -0.000204 -46.622814
v 105.442268 -0.000205 -47.848820
v 105.342369 -0.000205 -48.861073
v 107.625725 -0.000205 -50.992287
v 107.236496 -0.000205 -52.800705
v 83.904648 -0.000204 -44.577808
v 85.581474 -0.000205 -56.578575
v 110.187393 0.999795 -54.131142
v 111.514511 0.999795 -55.451141
v 107.236496 0.999795 -52.800705
v 109.035805 0.999795 -52.800705
v 113.215279 0.999795 -55.075371
v 116.207291 0.999796 -56.566200
v 107.625725 0.999795 -50.992287
v 105.342369 0.999795 -48.861073
v 105.442268 0.999795 -47.848820
v 104.637497 0.999796 -46.622814
v 103.197426 0.999796 -46.352131
v 101.426201 0.999796 -44.625404
v 83.904648 0.999796 -44.577808
v 85.581474 0.999795 -56.578575
vt 0.807572 0.671888
vt 0.809226 0.599607
vt 0.859787 0.634353
vt 0.862372 0.647020
vt 0.867802 0.652420
vt 0.867680 0.660084
vt 0.864275 0.664166
vt 0.867886 0.680086
vt 0.860892 0.686760
vt 0.868670 0.692045
vt 0.869741 0.701179
vt 0.871601 0.710784
vt 0.880057 0.714155
vt 0.888613 0.729388
vt 0.862372 0.647020
vt 0.867802 0.652420
vt 0.871601 0.710784
vt 0.880057 0.714155
vt 0.859787 0.634353
vt 0.888613 0.729388
vt 0.809226 0.599607
vt 0.867886 0.680086
vt 0.860892 0.686760
vt 0.807572 0.671888
vt 0.868670 0.692045
vt 0.869741 0.701179
vt 0.864275 0.664166
vt 0.867680 0.660084
vn 0.0000 1.0000 0.0000
vn 0.1847 0.0000 0.9828
vn -0.2157 0.0000 0.9765
vn 0.6981 0.0000 0.7160
vn 0.4460 0.0000 0.8950
vn 0.0027 0.0000 1.0000
vn 0.9776 0.0000 -0.2104
vn 0.0004 0.0000 -1.0000
vn 0.7561 0.0000 0.6545
vn -0.9904 0.0000 -0.1384
vn 0.6823 0.0000 0.7310
vn 0.9952 0.0000 -0.0982
vn 0.7052 0.0000 0.7090
vn 0.8360 0.0000 0.5488
vn 0.0000 0.0000 1.0000
s off
f 28/1/1 27/2/1 26/3/1 25/4/1 24/5/1 23/6/1 22/7/1 21/8/1 17/9/1 18/10/1 15/11/1 16/12/1 19/13/1 20/14/1
f 7/15/2 8/16/2 24/5/2 25/4/2
f 3/17/3 4/18/3 19/13/3 16/12/3
f 6/19/4 7/15/4 25/4/4 26/3/4
f 4/18/5 5/20/5 20/14/5 19/13/5
f 13/21/6 6/19/6 26/3/6 27/2/6
f 11/22/7 12/23/7 17/9/7 21/8/7
f 5/20/8 14/24/8 28/1/8 20/14/8
f 1/25/9 2/26/9 15/11/9 18/10/9
f 14/24/10 13/21/10 27/2/10 28/1/10
f 10/27/11 11/22/11 21/8/11 22/7/11
f 9/28/12 10/27/12 22/7/12 23/6/12
f 2/26/13 3/17/13 16/12/13 15/11/13
f 8/16/14 9/28/14 23/6/14 24/5/14
f 12/23/15 1/25/15 18/10/15 17/9/15
