# Blender v2.92.0 OBJ File: 'world.blend'
# www.blender.org
v 111.435059 -0.000205 -55.724724
v 115.145844 -0.000204 -56.316628
v 103.197426 -0.000204 -46.352131
v 104.637497 -0.000204 -46.622814
v 105.442268 -0.000205 -47.848820
v 106.926964 -0.000205 -53.050705
v 84.192116 -0.000204 -44.828590
v 111.435059 0.999795 -55.724724
v 106.926964 0.999795 -53.050705
v 113.182899 0.999795 -55.338554
v 107.381325 0.999795 -50.939682
v 101.425522 0.999796 -44.875404
v 84.192116 0.999796 -44.828590
v 85.798958 0.999795 -56.328487
v 108.921555 -0.000205 -53.050705
v 110.004478 -0.000205 -54.301811
v 113.182899 -0.000205 -55.338554
v 101.425522 -0.000204 -44.875404
v 105.342369 -0.000205 -48.861073
v 107.381325 -0.000205 -50.939682
v 85.798958 -0.000205 -56.328487
v 110.004478 0.999795 -54.301811
v 108.921555 0.999795 -53.050705
v 115.145844 0.999796 -56.316628
v 105.342369 0.999795 -48.861073
v 105.442268 0.999795 -47.848820
v 104.637497 0.999796 -46.622814
v 103.197426 0.999796 -46.352131
vt 0.520078 0.395770
vt 0.463156 0.309168
vt 0.602320 0.243664
vt 0.622256 0.248800
vt 0.634905 0.245477
vt 0.646082 0.252289
vt 0.649146 0.260834
vt 0.673536 0.269803
vt 0.677942 0.288565
vt 0.694028 0.280940
vt 0.707545 0.286890
vt 0.724522 0.292897
vt 0.737142 0.283101
vt 0.756712 0.283485
vt 0.553040 0.012015
vt 0.574688 0.012015
vt 0.574688 0.027047
vt 0.553040 0.027047
vt 0.676870 0.012015
vt 0.703144 0.012015
vt 0.703144 0.027047
vt 0.676870 0.027047
vt 0.526405 0.012015
vt 0.526405 0.027047
vt 0.732651 0.012015
vt 0.732651 0.027047
vt 0.267349 0.012015
vt 0.267349 0.027047
vt 0.505429 0.012015
vt 0.537162 0.012015
vt 0.537162 0.027047
vt 0.505429 0.027047
vt 0.291503 0.012015
vt 0.291503 0.027047
vt 0.586434 0.012015
vt 0.413566 0.012015
vt 0.413566 0.027047
vt 0.586434 0.027047
vt 0.474183 0.012015
vt 0.474183 0.027047
vt 0.458966 0.012015
vt 0.458966 0.027047
vt 0.655365 0.012015
vt 0.655365 0.027047
vt 0.440537 0.012015
vt 0.440537 0.027047
vt 0.609103 0.012015
vt 0.639086 0.012015
vt 0.639086 0.027047
vt 0.609103 0.027047
vt 0.537162 0.012015
vt 0.555969 0.012015
vt 0.555969 0.027047
vt 0.537162 0.027047
vn 0.0000 1.0000 0.0000
vn 0.1847 0.0000 0.9828
vn -0.2157 0.0000 0.9765
vn 0.6402 0.0000 0.7682
vn 0.4460 0.0000 0.8950
vn 0.0027 0.0000 1.0000
vn 0.9776 0.0000 -0.2104
vn 0.0004 0.0000 -1.0000
vn -0.9904 0.0000 -0.1384
vn 0.7139 0.0000 0.7003
vn 0.9952 0.0000 -0.0982
vn 0.7052 0.0000 0.7090
vn 0.8360 0.0000 0.5488
vn 0.0000 0.0000 1.0000
vn 0.7561 0.0000 0.6545
s off
f 14/1/1 13/2/1 12/3/1 28/4/1 27/5/1 26/6/1 25/7/1 11/8/1 9/9/1 23/10/1 22/11/1 8/12/1 10/13/1 24/14/1
f 3/15/2 4/16/2 27/17/2 28/18/2
f 1/19/3 17/20/3 10/21/3 8/22/3
f 18/23/4 3/15/4 28/18/4 12/24/4
f 17/20/5 2/25/5 24/26/5 10/21/5
f 7/27/6 18/23/6 12/24/6 13/28/6
f 20/29/7 6/30/7 9/31/7 11/32/7
f 2/25/8 21/33/8 14/34/8 24/26/8
f 21/35/9 7/36/9 13/37/9 14/38/9
f 19/39/10 20/29/10 11/32/10 25/40/10
f 5/41/11 19/39/11 25/40/11 26/42/11
f 16/43/12 1/19/12 8/22/12 22/44/12
f 4/45/13 5/41/13 26/42/13 27/46/13
f 6/47/14 15/48/14 23/49/14 9/50/14
f 15/51/15 16/52/15 22/53/15 23/54/15
