# Blender v2.92.0 OBJ File: 'world.blend'
# www.blender.org
v 80.131073 -0.000205 -22.216322
v 82.271698 -0.000205 -23.883141
v 86.325035 -0.000205 -25.658598
v 88.969460 -0.000205 -26.989222
v 87.819588 -0.000205 -26.961384
v 81.760925 -0.000205 -22.702837
v 94.121841 -0.000205 -24.762716
v 92.373985 -0.000205 -21.465626
v 90.232666 -0.000205 -20.386665
v 86.982887 -0.000205 -19.217970
v 83.419106 -0.000205 -15.051605
v 79.337036 -0.000205 -13.343108
v 71.842499 -0.000205 -11.185116
v 78.880905 -0.000205 -16.038656
v 69.565475 -0.000205 -13.616937
v 72.697701 -0.000205 -13.412265
v 71.416756 -0.000205 -17.624033
v 70.008438 -0.000205 -8.294538
v 68.129402 -0.000205 -6.992989
v 65.291588 -0.000205 -8.292825
v 65.735321 -0.000205 -6.518549
v 66.044533 -0.000205 -7.133612
v 64.192238 -0.000205 -6.503970
v 63.526257 -0.000205 -7.093795
v 63.539726 -0.000205 -7.482603
v 64.345123 -0.000205 -8.051544
v 60.791801 -0.000205 -17.277004
v 67.030968 -0.000205 -20.060272
v 64.648659 -0.000205 -18.496616
v 64.178932 -0.000205 -17.758802
v 63.429451 -0.000205 -17.707623
v 61.906181 -0.000205 -17.039082
v 64.268509 -0.000205 -15.769608
v 63.778603 -0.000205 -15.212644
v 61.182091 -0.000205 -15.741465
v 55.040535 -0.000205 -15.399189
v 53.820930 -0.000205 -15.764393
v 59.357079 -0.000205 -15.964633
v 58.610420 -0.000205 -15.111723
v 88.989349 0.999795 -26.667635
v 96.557281 0.999795 -27.721766
v 87.819588 0.999795 -26.961384
v 80.131073 0.999795 -22.216322
v 81.760925 0.999795 -22.702837
v 82.271698 0.999795 -23.883141
v 80.600586 0.999795 -19.158592
v 94.640106 0.999795 -24.043388
v 90.232666 0.999795 -20.386665
v 92.052399 0.999795 -22.994530
v 90.096451 0.999795 -22.215380
v 86.926125 0.999795 -17.239698
v 77.948586 0.999795 -13.792792
v 71.842499 0.999795 -11.185116
v 77.766411 0.999795 -15.556401
v 68.828743 0.999795 -9.405169
v 68.366905 0.999795 -12.864079
v 69.565475 0.999795 -13.616937
v 72.446068 0.999795 -15.601412
v 71.416756 0.999795 -17.624033
v 71.501411 0.999795 -18.564234
v 75.327774 0.999795 -15.969231
v 66.701889 0.999795 -6.819092
v 66.457481 0.999795 -6.298237
v 64.345123 0.999795 -8.051544
v 66.044533 0.999795 -7.133612
v 64.220039 0.999795 -7.260698
v 64.192238 0.999795 -6.503970
v 63.539726 0.999795 -7.482603
v 69.512100 0.999795 -18.746546
v 69.207573 0.999795 -19.445820
v 64.519547 0.999795 -19.162535
v 67.030968 0.999795 -20.060272
v 64.648659 0.999795 -18.496616
v 64.178932 0.999795 -17.758802
v 63.429451 0.999795 -17.707623
v 63.786827 0.999795 -17.054129
v 63.333900 0.999795 -15.771291
v 61.182091 0.999795 -15.741465
v 58.610420 0.999795 -15.111723
v 60.184265 0.999795 -17.041073
v 57.389015 0.999795 -16.802174
v 54.106880 0.999795 -15.319860
v 55.040535 0.999795 -15.399189
v 53.820930 0.999795 -15.764393
v 83.877434 -0.000205 -25.905216
v 85.041595 -0.000205 -25.015202
v 88.989349 -0.000205 -26.667635
v 96.557281 -0.000205 -27.721766
v 91.636078 -0.000205 -26.667635
v 95.389221 -0.000205 -25.991615
v 94.640106 -0.000205 -24.043388
v 90.592087 -0.000205 -19.637228
v 92.052399 -0.000205 -22.994530
v 94.749802 -0.000205 -26.917635
v 93.331085 -0.000205 -26.917635
v 90.096451 -0.000205 -22.215380
v 86.926125 -0.000205 -17.239698
v 77.948586 -0.000205 -13.792792
v 75.107399 -0.000205 -11.904449
v 70.559792 -0.000205 -9.552595
v 80.600586 -0.000205 -19.158592
v 68.828743 -0.000205 -9.405169
v 68.366905 -0.000205 -12.864079
v 72.446068 -0.000205 -15.601412
v 71.501411 -0.000205 -18.564234
v 74.297340 -0.000205 -18.109772
v 75.327774 -0.000205 -15.969231
v 77.766411 -0.000205 -15.556401
v 66.701889 -0.000205 -6.819092
v 66.457481 -0.000205 -6.298237
v 67.394943 -0.000205 -7.685486
v 65.132484 -0.000205 -7.772242
v 64.220039 -0.000205 -7.260698
v 69.512100 -0.000205 -18.746546
v 69.207573 -0.000205 -19.445820
v 68.020699 -0.000205 -19.454268
v 67.125282 -0.000205 -19.427176
v 63.786827 -0.000205 -17.054129
v 64.519547 -0.000205 -19.162535
v 63.333900 -0.000205 -15.771291
v 62.556808 -0.000205 -15.331441
v 57.389015 -0.000205 -16.802174
v 60.184265 -0.000205 -17.041073
v 56.055626 -0.000205 -15.954294
v 54.106880 -0.000205 -15.319860
v 55.017326 -0.000205 -15.814810
v 88.969460 0.999795 -26.989222
v 91.636078 0.999795 -26.667635
v 86.325035 0.999795 -25.658598
v 83.877434 0.999795 -25.905216
v 85.041595 0.999795 -25.015202
v 95.389221 0.999795 -25.991615
v 94.121841 0.999795 -24.762716
v 92.373985 0.999795 -21.465626
v 90.592087 0.999795 -19.637228
v 94.749802 0.999795 -26.917635
v 93.331085 0.999795 -26.917635
v 86.982887 0.999795 -19.217970
v 83.419106 0.999795 -15.051605
v 79.337036 0.999795 -13.343108
v 75.107399 0.999795 -11.904449
v 70.559792 0.999795 -9.552595
v 78.880905 0.999795 -16.038656
v 67.394943 0.999795 -7.685486
v 72.697701 0.999795 -13.412265
v 74.297340 0.999795 -18.109772
v 70.008438 0.999795 -8.294538
v 68.129402 0.999795 -6.992989
v 65.291588 0.999795 -8.292825
v 65.735321 0.999795 -6.518549
v 65.132484 0.999795 -7.772242
v 63.526257 0.999795 -7.093795
v 61.906181 0.999795 -17.039082
v 60.791801 0.999795 -17.277004
v 68.020699 0.999795 -19.454268
v 67.125282 0.999795 -19.427176
v 64.268509 0.999795 -15.769608
v 63.778603 0.999795 -15.212644
v 62.556808 0.999795 -15.331441
v 56.055626 0.999795 -15.954294
v 59.357079 0.999795 -15.964633
v 55.017326 0.999795 -15.814810
vt 0.433487 0.147032
vt 0.424107 0.151203
vt 0.407073 0.146410
vt 0.394263 0.146128
vt 0.388276 0.157756
vt 0.367596 0.147587
vt 0.358965 0.140020
vt 0.343960 0.142327
vt 0.336057 0.115872
vt 0.310261 0.097284
vt 0.299429 0.097655
vt 0.281340 0.110308
vt 0.281213 0.131510
vt 0.260401 0.145864
vt 0.256124 0.138605
vt 0.256693 0.118358
vt 0.250354 0.099740
vt 0.225875 0.113365
vt 0.213331 0.111876
vt 0.203833 0.082214
vt 0.185695 0.073826
vt 0.171053 0.086766
vt 0.162498 0.088438
vt 0.153827 0.086928
vt 0.152232 0.083844
vt 0.155349 0.076541
vt 0.158466 0.082538
vt 0.167780 0.083175
vt 0.172694 0.074538
vt 0.167849 0.070760
vt 0.172831 0.066222
vt 0.176793 0.069489
vt 0.188971 0.065434
vt 0.209101 0.068747
vt 0.218357 0.076786
vt 0.234943 0.085048
vt 0.264024 0.078368
vt 0.294156 0.082736
vt 0.303635 0.073801
vt 0.343088 0.071975
vt 0.379736 0.076214
vt 0.387757 0.091952
vt 0.424326 0.104223
vt 0.468389 0.129781
vt 0.479831 0.124357
vt 0.443079 0.103029
vt 0.418434 0.088954
vt 0.418467 0.081536
vt 0.439828 0.089470
vt 0.467958 0.101596
vt 0.466529 0.109379
vt 0.481448 0.114445
vt 0.497482 0.123932
vt 0.453764 0.134244
vt 0.432418 0.144362
vt 0.245272 0.161743
vt 0.230067 0.175019
vt 0.206381 0.177380
vt 0.169109 0.176424
vt 0.177186 0.170245
vt 0.192411 0.163177
vt 0.192027 0.169813
vt 0.198267 0.167361
vt 0.204876 0.171516
vt 0.228407 0.169553
vt 0.235732 0.166348
vt 0.245055 0.154939
vt 0.183854 0.154562
vt 0.175906 0.153986
vt 0.185305 0.148357
vt 0.191385 0.150976
vt 0.139850 0.185603
vt 0.125855 0.183862
vt 0.143238 0.167300
vt 0.166386 0.162548
vt 0.152521 0.171325
vt 0.163307 0.176844
vt 0.115547 0.183266
vt 0.116948 0.186707
vt 0.107107 0.190874
vt 0.107714 0.186196
vt 0.478826 0.012015
vt 0.445918 0.012015
vt 0.445918 0.027047
vt 0.478826 0.027047
vt 0.603318 0.012015
vt 0.585576 0.012015
vt 0.585576 0.027047
vt 0.603318 0.027047
vt 0.511256 0.012015
vt 0.522347 0.012015
vt 0.522347 0.027047
vt 0.511256 0.027047
vt 0.509230 0.012015
vt 0.509230 0.027047
vt 0.578262 0.012015
vt 0.532298 0.012015
vt 0.532298 0.027047
vt 0.578262 0.027047
vt 0.323227 0.012015
vt 0.334493 0.012015
vt 0.334493 0.027047
vt 0.323227 0.027047
vt 0.523364 0.012015
vt 0.523364 0.027047
vt 0.635013 0.012015
vt 0.661021 0.012015
vt 0.661021 0.027047
vt 0.635013 0.027047
vt 0.500663 0.012015
vt 0.510487 0.012015
vt 0.510487 0.027047
vt 0.500663 0.027047
vt 0.486595 0.012015
vt 0.444566 0.012015
vt 0.444566 0.027047
vt 0.486595 0.027047
vt 0.784600 0.012015
vt 0.803652 0.012015
vt 0.803652 0.027047
vt 0.784600 0.027047
vt 0.300329 0.012015
vt 0.328599 0.012015
vt 0.328599 0.027047
vt 0.300329 0.027047
vt 0.484355 0.012015
vt 0.516532 0.012015
vt 0.516532 0.027047
vt 0.484355 0.027047
vt 0.605727 0.012015
vt 0.616540 0.012015
vt 0.616540 0.027047
vt 0.605727 0.027047
vt 0.339613 0.012015
vt 0.283577 0.012015
vt 0.283577 0.027047
vt 0.339613 0.027047
vt 0.538743 0.012015
vt 0.502085 0.012015
vt 0.502085 0.027047
vt 0.538743 0.027047
vt 0.566978 0.012015
vt 0.566978 0.027047
vt 0.335840 0.012015
vt 0.321791 0.012015
vt 0.321791 0.027047
vt 0.335840 0.027047
vt 0.368988 0.012015
vt 0.387899 0.012015
vt 0.387899 0.027047
vt 0.368988 0.027047
vt 0.539493 0.012015
vt 0.539493 0.027047
vt 0.250786 0.012015
vt 0.289444 0.012015
vt 0.289444 0.027047
vt 0.250786 0.027047
vt 0.393877 0.012015
vt 0.422123 0.012015
vt 0.422123 0.027047
vt 0.393877 0.027047
vt 0.550759 0.012015
vt 0.550759 0.027047
vt 0.274445 0.012015
vt 0.232426 0.012015
vt 0.232426 0.027047
vt 0.274445 0.027047
vt 0.372419 0.012015
vt 0.372419 0.027047
vt 0.589961 0.012015
vt 0.589961 0.027047
vt 0.310109 0.012015
vt 0.328475 0.012015
vt 0.328475 0.027047
vt 0.310109 0.027047
vt 0.338979 0.012015
vt 0.346808 0.012015
vt 0.346808 0.027047
vt 0.338979 0.027047
vt 0.648933 0.012015
vt 0.648933 0.027047
vt 0.382837 0.012015
vt 0.351219 0.012015
vt 0.351219 0.027047
vt 0.382837 0.027047
vt 0.472982 0.012015
vt 0.481354 0.012015
vt 0.481354 0.027047
vt 0.472982 0.027047
vt 0.336991 0.012015
vt 0.336991 0.027047
vt 0.578248 0.012015
vt 0.648933 0.012015
vt 0.648933 0.027047
vt 0.578248 0.027047
vt 0.183088 0.012015
vt 0.197123 0.012015
vt 0.197123 0.027047
vt 0.183088 0.027047
vt 0.357889 0.012015
vt 0.368745 0.012015
vt 0.368745 0.027047
vt 0.357889 0.027047
vt 0.677286 0.012015
vt 0.724090 0.012015
vt 0.724090 0.027047
vt 0.677286 0.027047
vt 0.212382 0.012015
vt 0.212382 0.027047
vt 0.351536 0.012015
vt 0.342291 0.012015
vt 0.342291 0.027047
vt 0.351536 0.027047
vt 0.503453 0.012015
vt 0.533191 0.012015
vt 0.533191 0.027047
vt 0.503453 0.027047
vt 0.348827 0.012015
vt 0.362537 0.012015
vt 0.362537 0.027047
vt 0.348827 0.027047
vt 0.623715 0.012015
vt 0.676433 0.012015
vt 0.676433 0.027047
vt 0.623715 0.027047
vt 0.262010 0.012015
vt 0.262010 0.027047
vt 0.335111 0.012015
vt 0.335111 0.027047
vt 0.562352 0.012015
vt 0.562352 0.027047
vt 0.484286 0.012015
vt 0.500467 0.012015
vt 0.500467 0.027047
vt 0.484286 0.027047
vt 0.342071 0.012015
vt 0.353447 0.012015
vt 0.353447 0.027047
vt 0.342071 0.027047
vt 0.541481 0.012015
vt 0.541481 0.027047
vt 0.196774 0.012015
vt 0.178790 0.012015
vt 0.178790 0.027047
vt 0.196774 0.027047
vt 0.324682 0.012015
vt 0.334693 0.012015
vt 0.334693 0.027047
vt 0.324682 0.027047
vt 0.498772 0.012015
vt 0.498772 0.027047
vt 0.645175 0.012015
vt 0.650009 0.012015
vt 0.650009 0.027047
vt 0.645175 0.027047
vt 0.475786 0.012015
vt 0.482034 0.012015
vt 0.482034 0.027047
vt 0.475786 0.027047
vt 0.356782 0.012015
vt 0.350938 0.012015
vt 0.350938 0.027047
vt 0.356782 0.027047
vt 0.449693 0.012015
vt 0.449693 0.027047
vt 0.821210 0.012015
vt 0.747234 0.012015
vt 0.747234 0.027047
vt 0.821210 0.027047
vt 0.481276 0.012015
vt 0.474593 0.012015
vt 0.474593 0.027047
vt 0.481276 0.027047
vt 0.324885 0.012015
vt 0.324885 0.027047
vt 0.412439 0.012015
vt 0.412439 0.027047
vt 0.707448 0.012015
vt 0.707448 0.027047
vt 0.526104 0.012015
vt 0.536616 0.012015
vt 0.536616 0.027047
vt 0.526104 0.027047
vt 0.555496 0.012015
vt 0.555496 0.027047
vt 0.689864 0.012015
vt 0.667397 0.012015
vt 0.667397 0.027047
vt 0.689864 0.027047
vt 0.377365 0.012015
vt 0.377365 0.027047
vt 0.485399 0.012015
vt 0.485399 0.027047
vt 0.598789 0.012015
vt 0.574289 0.012015
vt 0.574289 0.027047
vt 0.598789 0.027047
vt 0.410085 0.012015
vt 0.410085 0.027047
vt 0.385683 0.012015
vt 0.359832 0.012015
vt 0.359832 0.027047
vt 0.385683 0.027047
vt 0.437678 0.012015
vt 0.437678 0.027047
vt 0.707149 0.012015
vt 0.707149 0.027047
vt 0.392243 0.012015
vt 0.414662 0.012015
vt 0.414662 0.027047
vt 0.392243 0.027047
vt 0.415465 0.012015
vt 0.397448 0.012015
vt 0.397448 0.027047
vt 0.415465 0.027047
vt 0.648104 0.012015
vt 0.648104 0.027047
vt 0.462549 0.012015
vt 0.462549 0.027047
vt 0.633714 0.012015
vt 0.633714 0.027047
vt 0.341554 0.012015
vt 0.378783 0.012015
vt 0.378783 0.027047
vt 0.341554 0.027047
vt 0.772714 0.012015
vt 0.794040 0.012015
vt 0.794040 0.027047
vt 0.772714 0.027047
vt 0.630605 0.012015
vt 0.630605 0.027047
vn 0.0000 1.0000 0.0000
vn -0.9935 0.0000 0.1142
vn -0.9178 0.0000 -0.3972
vn 0.8436 0.0000 0.5370
vn -0.8912 0.0000 0.4535
vn -0.9884 0.0000 0.1518
vn 0.0681 0.0000 0.9977
vn -0.9960 0.0000 -0.0897
vn 0.8288 0.0000 0.5595
vn 0.8774 0.0000 -0.4798
vn 0.1604 0.0000 -0.9870
vn 0.6961 0.0000 0.7179
vn 0.0080 0.0000 1.0000
vn 0.9010 0.0000 -0.4337
vn 0.8113 0.0000 -0.5846
vn -0.4514 0.0000 -0.8923
vn 0.1669 0.0000 -0.9860
vn 0.7510 0.0000 0.6602
vn 0.0018 0.0000 -1.0000
vn 0.9159 0.0000 0.4014
vn 0.7162 0.0000 0.6979
vn 0.2378 0.0000 0.9713
vn 0.5694 0.0000 0.8221
vn -0.9017 0.0000 0.4324
vn -0.0852 0.0000 -0.9964
vn 0.1209 0.0000 0.9927
vn -0.8201 0.0000 -0.5722
vn -0.0968 0.0000 0.9953
vn 0.9053 0.0000 0.4248
vn -0.8240 0.0000 -0.5666
vn -0.4926 0.0000 -0.8703
vn 0.2774 0.0000 -0.9608
vn 0.7509 0.0000 0.6605
vn -0.2470 0.0000 -0.9690
vn 0.8239 0.0000 0.5667
vn 0.0847 0.0000 0.9964
vn -0.2918 0.0000 0.9565
vn 0.6935 0.0000 0.7204
vn -0.3132 0.0000 0.9497
vn -0.8934 0.0000 -0.4492
vn 0.9996 0.0000 0.0287
vn -0.5366 0.0000 -0.8438
vn -0.5736 0.0000 0.8191
vn 0.5293 0.0000 0.8484
vn 0.1214 0.0000 -0.9926
vn 0.4890 0.0000 0.8723
vn 0.3861 0.0000 0.9225
vn 0.7929 0.0000 0.6093
vn 0.9993 0.0000 0.0367
vn -0.3081 0.0000 0.9513
vn -0.0421 0.0000 -0.9991
vn -0.6630 0.0000 0.7486
vn 0.5535 0.0000 0.8328
vn 0.9981 0.0000 -0.0617
vn 0.9984 0.0000 -0.0558
vn -0.9994 0.0000 -0.0346
vn 0.2152 0.0000 0.9766
vn -0.2095 0.0000 -0.9778
vn -0.8410 0.0000 0.5410
vn -0.5770 0.0000 -0.8168
vn 0.7863 0.0000 0.6178
vn 0.0000 0.0000 -1.0000
vn 0.9168 0.0000 -0.3993
vn -0.3971 0.0000 -0.9178
vn -0.6571 0.0000 -0.7538
vn -0.3366 0.0000 -0.9416
vn -0.8758 0.0000 -0.4827
vn -0.2860 0.0000 -0.9582
vn 0.2717 0.0000 -0.9624
vn -0.7681 0.0000 -0.6404
vn -0.2088 0.0000 0.9780
vn -0.9912 0.0000 0.1323
vn -0.0242 0.0000 -0.9997
vn -0.4287 0.0000 0.9034
vn -0.5319 0.0000 -0.8468
vn -0.4481 0.0000 -0.8940
vn 0.0652 0.0000 -0.9979
vn -0.7831 0.0000 -0.6219
vn 0.3517 0.0000 0.9361
vn 0.0000 0.0000 1.0000
vn 0.6074 0.0000 -0.7944
vn 0.0302 0.0000 0.9995
s off
f 127/1/1 42/2/1 129/3/1 131/4/1 130/5/1 45/6/1 44/7/1 43/8/1 46/9/1 143/10/1 54/11/1 61/12/1 146/13/1 60/14/1 59/15/1 58/16/1 145/17/1 57/18/1 56/19/1 55/20/1 144/21/1 149/22/1 64/23/1 68/24/1 152/25/1 67/26/1 66/27/1 151/28/1 65/29/1 150/30/1 63/31/1 62/32/1 148/33/1 147/34/1 142/35/1 53/36/1 141/37/1 52/38/1 140/39/1 139/40/1 51/41/1 138/42/1 50/43/1 137/44/1 136/45/1 49/46/1 48/47/1 135/48/1 134/49/1 47/50/1 133/51/1 132/52/1 41/53/1 128/54/1 40/55/1
f 70/56/1 72/57/1 71/58/1 154/59/1 153/60/1 76/61/1 75/62/1 74/63/1 73/64/1 156/65/1 155/66/1 69/67/1
f 77/68/1 159/69/1 158/70/1 157/71/1
f 81/72/1 160/73/1 79/74/1 78/75/1 161/76/1 80/77/1
f 83/78/1 162/79/1 84/80/1 82/81/1
f 104/82/2 16/83/2 145/84/2 58/85/2
f 2/86/3 6/87/3 44/88/3 45/89/3
f 30/90/4 29/91/4 73/92/4 74/93/4
f 17/94/5 104/82/5 58/85/5 59/95/5
f 1/96/6 101/97/6 46/98/6 43/99/6
f 31/100/7 30/101/7 74/102/7 75/103/7
f 105/104/8 17/94/8 59/95/8 60/105/8
f 90/106/9 88/107/9 41/108/9 132/109/9
f 118/110/10 31/111/10 75/112/10 76/113/10
f 106/114/11 105/115/11 60/116/11 146/117/11
f 7/118/12 90/119/12 132/120/12 133/121/12
f 32/122/13 118/123/13 76/124/13 153/125/13
f 107/126/14 106/127/14 146/128/14 61/129/14
f 91/130/15 7/131/15 133/132/15 47/133/15
f 119/134/16 27/135/16 154/136/16 71/137/16
f 108/138/17 107/139/17 61/140/17 54/141/17
f 8/142/18 91/130/18 47/133/18 134/143/18
f 33/144/19 120/145/19 77/146/19 157/147/19
f 18/148/20 100/149/20 142/150/20 147/151/20
f 92/152/21 8/142/21 134/143/21 135/153/21
f 39/154/22 35/155/22 78/156/22 79/157/22
f 19/158/23 18/159/23 147/160/23 148/161/23
f 9/162/24 92/152/24 135/153/24 48/163/24
f 123/164/25 122/165/25 81/166/25 80/167/25
f 109/168/26 19/158/26 148/161/26 62/169/26
f 93/170/27 9/162/27 48/163/27 49/171/27
f 121/172/28 34/173/28 158/174/28 159/175/28
f 110/176/29 109/177/29 62/178/29 63/179/29
f 94/180/30 93/170/30 49/171/30 136/181/30
f 120/145/31 121/172/31 159/175/31 77/146/31
f 111/182/32 20/183/32 149/184/32 144/185/32
f 34/186/33 33/187/33 157/188/33 158/189/33
f 20/183/34 26/190/34 64/191/34 149/184/34
f 96/192/35 95/193/35 137/194/35 50/195/35
f 125/196/36 36/197/36 83/198/36 82/199/36
f 21/200/37 110/201/37 63/202/37 150/203/37
f 10/204/38 96/205/38 50/206/38 138/207/38
f 124/208/39 39/154/39 79/157/39 160/209/39
f 22/210/40 21/211/40 150/212/40 65/213/40
f 97/214/41 10/215/41 138/216/41 51/217/41
f 122/165/42 124/208/42 160/209/42 81/166/42
f 112/218/43 22/219/43 65/220/43 151/221/43
f 11/222/44 97/223/44 51/224/44 139/225/44
f 35/155/45 38/226/45 161/227/45 78/156/45
f 113/228/46 112/218/46 151/221/46 66/229/46
f 12/230/47 11/222/47 139/225/47 140/231/47
f 38/232/48 123/233/48 80/234/48 161/235/48
f 23/236/49 113/237/49 66/238/49 67/239/49
f 98/240/50 12/230/50 140/231/50 52/241/50
f 126/242/51 37/243/51 84/244/51 162/245/51
f 24/246/52 23/247/52 67/248/52 152/249/52
f 99/250/53 98/240/53 52/241/53 141/251/53
f 87/252/54 4/253/54 127/254/54 40/255/54
f 36/256/55 126/257/55 162/258/55 83/259/55
f 25/260/56 24/261/56 152/262/56 68/263/56
f 13/264/57 99/250/57 141/251/57 53/265/57
f 88/266/58 89/267/58 128/268/58 41/269/58
f 37/270/59 125/271/59 82/272/59 84/273/59
f 26/190/60 25/274/60 68/275/60 64/191/60
f 100/149/61 13/276/61 53/277/61 142/150/61
f 89/267/62 87/278/62 40/279/62 128/268/62
f 114/280/63 115/281/63 70/282/63 69/283/63
f 14/284/64 108/138/64 54/141/64 143/285/64
f 5/286/65 3/287/65 129/288/65 42/289/65
f 28/290/66 119/134/66 71/137/66 72/291/66
f 101/97/67 14/292/67 143/293/67 46/98/67
f 6/294/68 1/295/68 43/296/68 44/297/68
f 115/298/69 28/290/69 72/291/69 70/299/69
f 102/300/70 111/301/70 144/302/70 55/303/70
f 27/135/71 32/122/71 153/125/71 154/136/71
f 103/304/72 102/300/72 55/303/72 56/305/72
f 4/306/73 5/286/73 42/289/73 127/307/73
f 116/308/74 114/309/74 69/310/74 155/311/74
f 15/312/75 103/313/75 56/314/75 57/315/75
f 3/287/76 86/316/76 131/317/76 129/288/76
f 16/318/77 15/312/77 57/315/77 145/319/77
f 85/320/78 2/86/78 45/89/78 130/321/78
f 29/322/79 117/323/79 156/324/79 73/325/79
f 95/326/80 94/327/80 136/328/80 137/329/80
f 86/316/81 85/330/81 130/331/81 131/317/81
f 117/323/82 116/308/82 155/311/82 156/324/82
