# Blender v2.92.0 OBJ File: 'world.blend'
# www.blender.org
v 24.113495 -0.000203 -95.907768
v 22.750954 -0.000203 -95.060562
v 8.640417 -0.000205 -93.313858
v 15.909176 -0.000204 -81.986351
v 16.052441 -0.000204 -76.800575
v 17.965712 -0.000204 -76.654678
v 19.988079 -0.000204 -76.343674
v 17.983454 -0.000204 -73.525597
v 18.945414 -0.000204 -70.966858
v 25.673912 -0.000204 -68.252800
v 32.943073 -0.000204 -62.528778
v 34.131130 -0.000204 -59.637756
v 36.872162 -0.000204 -56.837944
v 43.531647 -0.000204 -67.482986
v 41.707142 -0.000204 -67.531487
v 42.235924 -0.000204 -68.048553
v 41.331833 -0.000204 -71.026024
v 45.691463 -0.000204 -74.660652
v 51.728409 -0.000204 -79.689850
v 59.925072 -0.000204 -84.482094
v 53.818504 -0.000204 -86.537918
v 15.387047 -0.000204 -88.331978
v 16.606888 0.999795 -94.733925
v 16.889469 0.999797 -97.227112
v 18.945414 0.999796 -70.966858
v 42.824020 0.999796 -65.977272
v 10.488136 0.999795 -94.337715
v 30.081188 0.999797 -97.562836
v 24.113495 0.999797 -95.907768
v 47.456448 0.999797 -95.543846
v 59.925072 0.999796 -84.482094
v 56.949135 0.999796 -79.708748
v 15.387047 0.999796 -88.331978
v 15.909176 0.999796 -81.986351
v 16.580568 0.999796 -79.983566
v 43.318031 0.999796 -74.942963
v 41.331833 0.999796 -71.026024
v 42.235924 0.999796 -68.048553
v 41.707142 0.999796 -67.531487
v 34.131130 0.999796 -59.637756
v 32.943073 0.999796 -62.528778
v 29.416595 0.999796 -64.411240
v 16.889469 -0.000203 -97.227112
v 16.606888 -0.000205 -94.733925
v 10.488136 -0.000205 -94.337715
v 16.580568 -0.000204 -79.983566
v 21.135914 -0.000204 -76.654678
v 21.240126 -0.000204 -73.272659
v 29.416595 -0.000204 -64.411240
v 40.457516 -0.000204 -58.958481
v 42.824020 -0.000204 -65.977272
v 42.993843 -0.000204 -73.346481
v 43.318031 -0.000204 -74.942963
v 44.695484 -0.000204 -76.654678
v 46.647350 -0.000204 -76.731339
v 56.949135 -0.000204 -79.708748
v 51.536541 -0.000205 -92.442146
v 47.456448 -0.000203 -95.543846
v 40.799801 -0.000203 -96.657616
v 36.981461 -0.000203 -97.562836
v 30.081188 -0.000203 -97.562836
v 23.281654 -0.000203 -97.562836
v 53.818504 0.999796 -86.537918
v 51.536541 0.999795 -92.442146
v 17.983454 0.999796 -73.525597
v 21.240126 0.999796 -73.272659
v 45.691463 0.999796 -74.660652
v 44.695484 0.999796 -76.654678
v 22.750954 0.999797 -95.060562
v 23.281654 0.999797 -97.562836
v 25.673912 0.999796 -68.252800
v 21.135914 0.999796 -76.654678
v 19.988079 0.999796 -76.343674
v 17.965712 0.999796 -76.654678
v 40.457516 0.999796 -58.958481
v 8.640417 0.999795 -93.313858
v 36.981461 0.999797 -97.562836
v 40.799801 0.999797 -96.657616
v 51.728409 0.999796 -79.689850
v 46.647350 0.999796 -76.731339
v 16.052441 0.999796 -76.800575
v 42.993843 0.999796 -73.346481
v 43.531647 0.999796 -67.482986
v 36.872162 0.999796 -56.837944
vt 0.210376 0.637875
vt 0.221839 0.647313
vt 0.207310 0.654679
vt 0.213551 0.656828
vt 0.217642 0.684297
vt 0.239917 0.696657
vt 0.248635 0.708294
vt 0.266697 0.696944
vt 0.266288 0.716833
vt 0.282322 0.709989
vt 0.334610 0.714425
vt 0.376787 0.694619
vt 0.419036 0.721739
vt 0.377646 0.761663
vt 0.381814 0.818004
vt 0.360766 0.858617
vt 0.311338 0.893047
vt 0.284004 0.914944
vt 0.228354 0.941323
vt 0.173517 0.967317
vt 0.120681 0.989046
vt 0.173899 0.950789
vt 0.159671 0.949165
vt 0.108871 0.970019
vt 0.058009 0.990215
vt 0.039194 0.989021
vt 0.074559 0.923051
vt 0.054512 0.869879
vt 0.052270 0.851160
vt 0.035842 0.827508
vt 0.050715 0.819018
vt 0.076282 0.806898
vt 0.065836 0.808778
vt 0.038896 0.793714
vt 0.064194 0.779224
vt 0.036872 0.769401
vt 0.080761 0.721790
vt 0.096260 0.676500
vt 0.117504 0.647837
vt 0.116034 0.619979
vt 0.127436 0.586921
vt 0.164458 0.590316
vt 0.326652 0.012015
vt 0.234293 0.012015
vt 0.234293 0.027047
vt 0.326652 0.027047
vt 0.442067 0.012015
vt 0.466066 0.012015
vt 0.466066 0.027047
vt 0.442067 0.027047
vt 0.698029 0.012015
vt 0.597966 0.012015
vt 0.597966 0.027047
vt 0.698029 0.027047
vt 0.334630 0.012015
vt 0.238541 0.012015
vt 0.238541 0.027047
vt 0.334630 0.027047
vt 0.407186 0.012015
vt 0.407186 0.027047
vt 0.759362 0.012015
vt 0.759362 0.027047
vt 0.269446 0.012015
vt 0.370591 0.012015
vt 0.370591 0.027047
vt 0.269446 0.027047
vt 0.362428 0.012015
vt 0.362428 0.027047
vt 0.885460 0.012015
vt 0.793665 0.012015
vt 0.793665 0.027047
vt 0.885460 0.027047
vt 0.302375 0.012015
vt 0.285120 0.012015
vt 0.285120 0.027047
vt 0.302375 0.027047
vt 0.611605 0.012015
vt 0.619554 0.012015
vt 0.619554 0.027047
vt 0.611605 0.027047
vt 0.537706 0.012015
vt 0.609460 0.012015
vt 0.609460 0.027047
vt 0.537706 0.027047
vt 0.487122 0.012015
vt 0.444760 0.012015
vt 0.444760 0.027047
vt 0.487122 0.027047
vt 0.639031 0.012015
vt 0.639031 0.027047
vt 0.142315 0.012015
vt 0.142315 0.027047
vt 0.254719 0.012015
vt 0.254719 0.027047
vt 0.331292 0.012015
vt 0.353926 0.012015
vt 0.353926 0.027047
vt 0.331292 0.027047
vt 0.762246 0.012015
vt 0.840725 0.012015
vt 0.840725 0.027047
vt 0.762246 0.027047
vt 0.440958 0.012015
vt 0.406296 0.012015
vt 0.406296 0.027047
vt 0.440958 0.027047
vt 0.538925 0.012015
vt 0.592820 0.012015
vt 0.592820 0.027047
vt 0.538925 0.027047
vt 0.114540 0.012015
vt 0.215957 0.012015
vt 0.215957 0.027047
vt 0.114540 0.027047
vt 0.225784 0.012015
vt 0.225784 0.027047
vt 0.235995 0.012015
vt 0.193908 0.012015
vt 0.193908 0.027047
vt 0.235995 0.027047
vt 0.571943 0.012015
vt 0.541837 0.012015
vt 0.541837 0.027047
vt 0.571943 0.027047
vt 0.279454 0.012015
vt 0.279454 0.027047
vt 0.685867 0.012015
vt 0.685867 0.027047
vt 0.436841 0.012015
vt 0.436841 0.027047
vt 0.365498 0.012015
vt 0.307751 0.012015
vt 0.307751 0.027047
vt 0.365498 0.027047
vt 0.347134 0.012015
vt 0.347134 0.027047
vt 0.426851 0.012015
vt 0.479862 0.012015
vt 0.479862 0.027047
vt 0.426851 0.027047
vt 0.640363 0.012015
vt 0.729117 0.012015
vt 0.729117 0.027047
vt 0.640363 0.027047
vt 0.493990 0.012015
vt 0.493990 0.027047
vt 0.540568 0.012015
vt 0.540568 0.027047
vt 0.667332 0.012015
vt 0.667332 0.027047
vt 0.254986 0.012015
vt 0.303941 0.012015
vt 0.303941 0.027047
vt 0.254986 0.027047
vt 0.635820 0.012015
vt 0.671498 0.012015
vt 0.671498 0.027047
vt 0.635820 0.027047
vt 0.461822 0.012015
vt 0.491797 0.012015
vt 0.491797 0.027047
vt 0.461822 0.027047
vt 0.225959 0.012015
vt 0.225959 0.027047
vt 0.656526 0.012015
vt 0.656526 0.027047
vn -0.0000 1.0000 0.0000
vn -0.0531 0.0000 -0.9986
vn 0.9800 0.0000 0.1990
vn 0.1650 0.0000 -0.9863
vn -0.0524 0.0000 -0.9986
vn 0.8130 0.0000 0.5823
vn 0.6052 0.0000 -0.7961
vn -0.3741 0.0000 0.9274
vn 0.9569 0.0000 -0.2905
vn 0.3191 0.0000 -0.9477
vn -0.2615 0.0000 -0.9652
vn 0.6991 0.0000 0.7150
vn 0.8486 0.0000 0.5291
vn -0.8149 0.0000 -0.5797
vn 0.0266 0.0000 -0.9996
vn -0.0646 0.0000 -0.9979
vn 0.0000 0.0000 1.0000
vn 0.9050 0.0000 0.4253
vn 0.0036 0.0000 1.0000
vn -0.7088 0.0000 -0.7054
vn 0.5091 0.0000 0.8607
vn -0.5940 0.0000 0.8044
vn 0.9476 0.0000 0.3195
vn -0.7146 0.0000 0.6996
vn -0.9481 0.0000 0.3178
vn -0.4847 0.0000 -0.8747
vn -0.9249 0.0000 0.3801
vn 0.5032 0.0000 0.8642
vn 0.0000 0.0000 -1.0000
vn -0.7163 0.0000 0.6978
vn -0.1797 0.0000 0.9837
vn -0.4709 0.0000 0.8822
vn 0.9328 0.0000 -0.3605
vn -0.9865 0.0000 -0.1637
vn -0.9966 0.0000 0.0820
vn -0.0774 0.0000 0.9970
vn -0.1181 0.0000 0.9930
vn 0.8946 0.0000 -0.4468
vn -0.0760 0.0000 0.9971
vn -0.5280 0.0000 -0.8492
vn 0.0392 0.0000 0.9992
vn 0.2307 0.0000 -0.9730
s off
f 26/1/1 83/2/1 39/3/1 38/4/1 37/5/1 82/6/1 36/7/1 67/8/1 68/9/1 80/10/1 79/11/1 32/12/1 31/13/1 63/14/1 64/15/1 30/16/1 78/17/1 77/18/1 28/19/1 70/20/1 24/21/1 29/22/1 69/23/1 23/24/1 27/25/1 76/26/1 33/27/1 34/28/1 35/29/1 81/30/1 74/31/1 72/32/1 73/33/1 65/34/1 66/35/1 25/36/1 71/37/1 42/38/1 41/39/1 40/40/1 84/41/1 75/42/1
f 2/43/2 44/44/2 23/45/2 69/46/2
f 52/47/3 53/48/3 36/49/3 82/50/3
f 58/51/4 59/52/4 78/53/4 30/54/4
f 62/55/5 43/56/5 24/57/5 70/58/5
f 17/59/6 52/47/6 82/50/6 37/60/6
f 57/61/7 58/51/7 30/54/7 64/62/7
f 9/63/8 10/64/8 71/65/8 25/66/8
f 16/67/9 17/59/9 37/60/9 38/68/9
f 20/69/10 21/70/10 63/71/10 31/72/10
f 47/73/11 7/74/11 73/75/11 72/76/11
f 15/77/12 16/78/12 38/79/12 39/80/12
f 56/81/13 20/82/13 31/83/13 32/84/13
f 7/85/14 8/86/14 65/87/14 73/88/14
f 14/89/15 15/77/15 39/80/15 83/90/15
f 44/44/16 45/91/16 27/92/16 23/45/16
f 6/93/17 47/73/17 72/76/17 74/94/17
f 51/95/18 14/96/18 83/97/18 26/98/18
f 19/99/19 56/100/19 32/101/19 79/102/19
f 48/103/20 9/104/20 25/105/20 66/106/20
f 13/107/21 50/108/21 75/109/21 84/110/21
f 3/111/22 22/112/22 33/113/22 76/114/22
f 50/115/23 51/95/23 26/98/23 75/116/23
f 12/117/24 13/118/24 84/119/24 40/120/24
f 4/121/25 46/122/25 35/123/25 34/124/25
f 45/91/26 3/111/26 76/114/26 27/92/26
f 11/125/27 12/117/27 40/120/27 41/126/27
f 55/127/28 19/99/28 79/102/28 80/128/28
f 61/129/29 62/55/29 70/58/29 28/130/29
f 10/131/30 49/132/30 42/133/30 71/134/30
f 43/56/31 1/135/31 29/136/31 24/57/31
f 49/137/32 11/138/32 41/139/32 42/140/32
f 21/141/33 57/142/33 64/143/33 63/144/33
f 46/122/34 5/145/34 81/146/34 35/123/34
f 60/147/29 61/129/29 28/130/29 77/148/29
f 22/149/35 4/121/35 34/124/35 33/150/35
f 8/151/36 48/152/36 66/153/36 65/154/36
f 53/155/37 18/156/37 67/157/37 36/158/37
f 18/159/38 54/160/38 68/161/38 67/162/38
f 5/163/39 6/93/39 74/94/39 81/164/39
f 1/135/40 2/43/40 69/46/40 29/136/40
f 54/165/41 55/127/41 80/128/41 68/166/41
f 59/52/42 60/147/42 77/148/42 78/53/42
