# Blender v2.92.0 OBJ File: 'world.blend'
# www.blender.org
v 45.504135 -0.000205 26.651670
v 47.234165 -0.000205 25.664057
v 45.817150 -0.000205 23.732096
v 44.443150 -0.000205 22.809710
v 55.569935 -0.000205 19.120476
v 57.717770 -0.000205 15.042118
v 57.105148 -0.000205 14.616521
v 46.135548 -0.000205 23.375391
v 60.254509 -0.000205 49.940208
v 60.412865 -0.000205 32.033295
v 57.821877 -0.000205 22.009279
v 61.947517 -0.000204 41.096230
v 44.464989 -0.000205 29.305353
v 47.738705 -0.000205 28.730692
v 46.350319 -0.000205 31.166368
v 50.925323 -0.000205 33.355782
v 51.210518 -0.000204 35.189400
v 55.674149 -0.000204 40.766800
v 53.938087 -0.000204 42.063995
v 56.624832 -0.000204 45.769470
v 56.264771 -0.000205 48.990532
v 44.443150 0.999795 22.809710
v 44.489872 0.999795 22.049690
v 45.504135 0.999795 26.651670
v 47.234165 0.999795 25.664057
v 45.271282 0.999795 23.160816
v 57.105148 0.999795 14.616521
v 55.569935 0.999795 19.120476
v 51.502495 0.999795 18.478086
v 57.717770 0.999795 15.042118
v 48.217319 0.999795 23.013350
v 47.738705 0.999795 28.730692
v 46.350319 0.999795 31.166368
v 47.472317 0.999795 32.671577
v 51.210518 0.999796 35.189400
v 53.109512 0.999796 34.943138
v 55.674149 0.999796 40.766800
v 56.624832 0.999796 45.769470
v 43.274235 -0.000205 27.750715
v 44.489872 -0.000205 22.049690
v 51.502495 -0.000205 18.478086
v 47.482426 -0.000205 21.175776
v 54.075687 -0.000205 18.216959
v 45.271282 -0.000205 23.160816
v 48.217319 -0.000205 23.013350
v 47.472317 -0.000205 32.671577
v 53.109512 -0.000204 34.943138
v 52.796661 -0.000205 51.007462
v 52.748150 -0.000204 36.842400
v 56.824547 -0.000205 51.951630
v 45.817150 0.999795 23.732096
v 43.274235 0.999795 27.750715
v 54.075687 0.999795 18.216959
v 47.482426 0.999795 21.175776
v 46.135548 0.999795 23.375391
v 57.821877 0.999795 22.009279
v 56.824547 0.999795 51.951630
v 60.254509 0.999795 49.940208
v 61.947517 0.999796 41.096230
v 60.412865 0.999795 32.033295
v 44.464989 0.999795 29.305353
v 50.925323 0.999795 33.355782
v 56.264771 0.999795 48.990532
v 52.796661 0.999795 51.007462
v 52.748150 0.999796 36.842400
v 53.938087 0.999796 42.063995
vt 0.765398 0.356621
vt 0.764930 0.349002
vt 0.778703 0.339756
vt 0.792907 0.320390
vt 0.775565 0.310489
vt 0.753212 0.299472
vt 0.765149 0.283888
vt 0.797965 0.289649
vt 0.784048 0.265233
vt 0.795295 0.250144
vt 0.829909 0.243285
vt 0.832768 0.224905
vt 0.851804 0.227373
vt 0.848181 0.208335
vt 0.877513 0.168995
vt 0.860110 0.155992
vt 0.887042 0.118847
vt 0.883433 0.086558
vt 0.848668 0.066340
vt 0.889044 0.056875
vt 0.923427 0.077038
vt 0.940398 0.165693
vt 0.925015 0.256542
vt 0.899042 0.357026
vt 0.897998 0.426867
vt 0.891857 0.431133
vt 0.876468 0.385984
vt 0.861489 0.395042
vt 0.835695 0.392424
vt 0.795396 0.365382
vt 0.802763 0.346961
vt 0.781895 0.343332
vt 0.773231 0.345483
vt 0.476683 0.005423
vt 0.426239 0.005423
vt 0.426239 0.032933
vt 0.476683 0.032933
vt 0.357786 0.005423
vt 0.300515 0.005423
vt 0.300515 0.032933
vt 0.357786 0.032933
vt 0.440131 0.005423
vt 0.492374 0.005423
vt 0.492374 0.032933
vt 0.440131 0.032933
vt 0.276738 0.005423
vt 0.276738 0.032933
vt 0.579177 0.005423
vt 0.483767 0.005423
vt 0.483767 0.032933
vt 0.579177 0.032933
vt 0.811765 0.005423
vt 0.761212 0.005423
vt 0.761212 0.032933
vt 0.811765 0.032933
vt 0.787723 0.005423
vt 0.766814 0.005423
vt 0.766814 0.032933
vt 0.787723 0.032933
vt 0.433014 0.005423
vt 0.380764 0.005423
vt 0.380764 0.032933
vt 0.433014 0.032933
vt 0.788834 0.005423
vt 0.980506 0.005423
vt 0.980506 0.032933
vt 0.788834 0.032933
vt 0.330739 0.005423
vt 0.283144 0.005423
vt 0.283144 0.032933
vt 0.330739 0.032933
vt 0.272801 0.005423
vt 0.272801 0.032933
vt 0.594577 0.005423
vt 0.688938 0.005423
vt 0.688938 0.032933
vt 0.594577 0.032933
vt 0.757155 0.005423
vt 0.757155 0.032933
vt 0.562929 0.005423
vt 0.515169 0.005423
vt 0.515169 0.032933
vt 0.562929 0.032933
vt 0.263738 0.005423
vt 0.513066 0.005423
vt 0.513066 0.032933
vt 0.263738 0.032933
vt 0.253956 0.005423
vt 0.291755 0.005423
vt 0.291755 0.032933
vt 0.253956 0.032933
vt 0.237114 0.005423
vt 0.135173 0.005423
vt 0.135173 0.032933
vt 0.237114 0.032933
vt 0.741438 0.005423
vt 0.688289 0.005423
vt 0.688289 0.032933
vt 0.741438 0.032933
vt 0.046560 0.005423
vt 0.046560 0.032933
vt 0.020433 0.005423
vt 0.020433 0.032933
vt 0.221798 0.005423
vt 0.221798 0.032933
vt 0.630883 0.005423
vt 0.588114 0.005423
vt 0.588114 0.032933
vt 0.630883 0.032933
vt 0.992215 0.005423
vt 0.868308 0.005423
vt 0.868308 0.032933
vt 0.992215 0.032933
vt 0.254557 0.005423
vt 0.344619 0.005423
vt 0.344619 0.032933
vt 0.254557 0.032933
vt 0.518954 0.005423
vt 0.448164 0.005423
vt 0.448164 0.032933
vt 0.518954 0.032933
vt 0.603923 0.005423
vt 0.536916 0.005423
vt 0.536916 0.032933
vt 0.603923 0.032933
vt 0.337569 0.005423
vt 0.337569 0.032933
vt 0.495506 0.005423
vt 0.495506 0.032933
vt 0.619151 0.005423
vt 0.602297 0.005423
vt 0.602297 0.032933
vt 0.619151 0.032933
vt 0.337290 0.005423
vt 0.432285 0.005423
vt 0.432285 0.032933
vt 0.337290 0.032933
vt 0.560062 0.005423
vt 0.560062 0.032933
vn 0.0000 1.0000 -0.0000
vn -0.9881 0.0000 0.1537
vn -0.1713 0.0000 -0.9852
vn 0.1286 0.0000 0.9917
vn 0.2410 0.0000 -0.9705
vn -0.5027 0.0000 -0.8644
vn -0.9285 0.0000 0.3713
vn -0.9981 0.0000 -0.0614
vn -0.9824 0.0000 -0.1869
vn 0.9999 0.0000 -0.0149
vn -0.4958 0.0000 -0.8685
vn -0.8017 0.0000 0.5977
vn 0.5059 0.0000 0.8626
vn 0.8180 0.0000 -0.5753
vn -0.5986 0.0000 -0.8011
vn 0.9860 0.0000 -0.1670
vn -0.5574 0.0000 0.8303
vn -0.8096 0.0000 0.5870
vn 0.9682 0.0000 -0.2503
vn -0.8064 0.0000 0.5914
vn -0.9938 0.0000 -0.1111
vn 0.9822 0.0000 0.1880
vn -0.4421 0.0000 -0.8970
vn -0.7939 0.0000 0.6081
vn -0.9465 0.0000 -0.3226
vn 0.1729 0.0000 0.9849
vn -0.1010 0.0000 -0.9949
vn -0.8688 0.0000 -0.4952
vn -0.5572 0.0000 -0.8304
vn -0.8018 0.0000 0.5976
vn 0.5705 0.0000 -0.8213
vn -0.1944 0.0000 0.9809
vn 0.5174 0.0000 -0.8557
vn -0.2282 0.0000 0.9736
s off
f 23/1/1 22/2/1 51/3/1 25/4/1 24/5/1 52/6/1 61/7/1 32/8/1 33/9/1 34/10/1 62/11/1 35/12/1 36/13/1 65/14/1 37/15/1 66/16/1 38/17/1 63/18/1 64/19/1 57/20/1 58/21/1 59/22/1 60/23/1 56/24/1 30/25/1 27/26/1 28/27/1 53/28/1 29/29/1 54/30/1 31/31/1 55/32/1 26/33/1
f 16/34/2 17/35/2 35/36/2 62/37/2
f 45/38/3 8/39/3 55/40/3 31/41/3
f 17/42/4 47/43/4 36/44/4 35/45/4
f 8/39/5 44/46/5 26/47/5 55/40/5
f 21/48/6 48/49/6 64/50/6 63/51/6
f 42/52/7 45/53/7 31/54/7 54/55/7
f 40/56/8 4/57/8 22/58/8 23/59/8
f 47/60/9 49/61/9 65/62/9 36/63/9
f 11/64/10 6/65/10 30/66/10 56/67/10
f 2/68/11 1/69/11 24/70/11 25/71/11
f 49/61/12 18/72/12 37/73/12 65/62/12
f 50/74/13 9/75/13 58/76/13 57/77/13
f 44/78/14 40/56/14 23/59/14 26/79/14
f 18/80/15 19/81/15 66/82/15 37/83/15
f 12/84/16 10/85/16 60/86/16 59/87/16
f 4/88/17 3/89/17 51/90/17 22/91/17
f 19/92/18 20/93/18 38/94/18 66/95/18
f 10/85/19 11/64/19 56/67/19 60/86/19
f 3/96/20 2/97/20 25/98/20 51/99/20
f 20/93/21 21/100/21 63/101/21 38/94/21
f 9/102/22 12/84/22 59/87/22 58/103/22
f 1/69/23 39/104/23 52/105/23 24/70/23
f 39/106/24 13/107/24 61/108/24 52/109/24
f 7/110/25 5/111/25 28/112/25 27/113/25
f 13/114/26 14/115/26 32/116/26 61/117/26
f 43/118/27 41/119/27 29/120/27 53/121/27
f 14/122/28 15/123/28 33/124/28 32/125/28
f 41/119/29 42/126/29 54/127/29 29/120/29
f 15/123/30 46/128/30 34/129/30 33/124/30
f 6/130/31 7/131/31 27/132/31 30/133/31
f 46/134/32 16/135/32 62/136/32 34/137/32
f 5/138/33 43/118/33 53/121/33 28/139/33
f 48/49/34 50/74/34 57/77/34 64/50/34
