# Blender v2.92.0 OBJ File: 'world.blend'
# www.blender.org
v 43.163712 -0.000205 27.526472
v 45.386795 -0.000205 26.430788
v 46.866806 -0.000205 25.585901
v 45.641457 -0.000205 23.915258
v 44.184830 -0.000205 22.937403
v 44.284103 -0.000205 21.322504
v 51.415081 -0.000205 18.235674
v 55.433510 -0.000205 18.745836
v 57.860405 -0.000205 14.836802
v 47.175213 -0.000205 21.080858
v 56.975487 -0.000205 14.222036
v 54.133560 -0.000205 17.959803
v 46.144638 -0.000205 23.120058
v 45.422092 -0.000205 22.940668
v 47.870693 -0.000205 22.819880
v 60.254509 -0.000205 49.940208
v 60.412865 -0.000205 32.033295
v 57.821877 -0.000205 22.009279
v 61.947517 -0.000204 41.096230
v 44.464989 -0.000205 29.305353
v 47.738705 -0.000205 28.730692
v 46.350319 -0.000205 31.166368
v 47.472317 -0.000205 32.671577
v 50.925323 -0.000205 33.355782
v 51.210518 -0.000204 35.189400
v 53.109512 -0.000204 34.943138
v 52.796661 -0.000205 51.007462
v 52.748150 -0.000204 36.842400
v 55.674149 -0.000204 40.766800
v 53.938087 -0.000204 42.063995
v 56.624832 -0.000204 45.769470
v 56.264771 -0.000205 48.990532
v 56.824547 -0.000205 51.951630
v 44.184830 0.999795 22.937403
v 44.284103 0.999795 21.322504
v 45.386795 0.999795 26.430788
v 46.866806 0.999795 25.585901
v 45.422092 0.999795 22.940668
v 45.641457 0.999795 23.915258
v 43.163712 0.999795 27.526472
v 56.975487 0.999795 14.222036
v 55.433510 0.999795 18.745836
v 54.133560 0.999795 17.959803
v 51.415081 0.999795 18.235674
v 47.175213 0.999795 21.080858
v 57.860405 0.999795 14.836802
v 47.870693 0.999795 22.819880
v 46.144638 0.999795 23.120058
v 57.821877 0.999795 22.009279
v 56.824547 0.999795 51.951630
v 60.254509 0.999795 49.940208
v 61.947517 0.999796 41.096230
v 60.412865 0.999795 32.033295
v 44.464989 0.999795 29.305353
v 47.738705 0.999795 28.730692
v 46.350319 0.999795 31.166368
v 47.472317 0.999795 32.671577
v 50.925323 0.999795 33.355782
v 51.210518 0.999796 35.189400
v 53.109512 0.999796 34.943138
v 56.264771 0.999795 48.990532
v 52.796661 0.999795 51.007462
v 52.748150 0.999796 36.842400
v 55.674149 0.999796 40.766800
v 53.938087 0.999796 42.063995
v 56.624832 0.999796 45.769470
vt 0.806464 0.181425
vt 0.810778 0.174153
vt 0.819947 0.174204
vt 0.830152 0.170581
vt 0.826235 0.162581
vt 0.819843 0.151315
vt 0.830693 0.147447
vt 0.843158 0.159547
vt 0.844309 0.144940
vt 0.853581 0.141728
vt 0.870518 0.148912
vt 0.877136 0.141823
vt 0.884623 0.148466
vt 0.888639 0.139194
vt 0.912814 0.130823
vt 0.909119 0.120116
vt 0.931618 0.111989
vt 0.939522 0.097007
vt 0.930454 0.078101
vt 0.950639 0.085850
vt 0.959559 0.104620
vt 0.940902 0.147825
vt 0.907648 0.182496
vt 0.867005 0.218220
vt 0.846104 0.249339
vt 0.840473 0.249397
vt 0.847095 0.225312
vt 0.839166 0.224892
vt 0.828225 0.215715
vt 0.818253 0.190962
vt 0.826367 0.185487
vt 0.819787 0.179119
vt 0.816137 0.177773
vt 0.870518 0.148912
vt 0.877136 0.141823
vt 0.826367 0.185487
vt 0.819787 0.179119
vt 0.884623 0.148466
vt 0.816137 0.177773
vt 0.939522 0.097007
vt 0.930454 0.078101
vt 0.818253 0.190962
vt 0.806464 0.181425
vt 0.810778 0.174153
vt 0.888639 0.139194
vt 0.867005 0.218220
vt 0.846104 0.249339
vt 0.830152 0.170581
vt 0.826235 0.162581
vt 0.912814 0.130823
vt 0.950639 0.085850
vt 0.959559 0.104620
vt 0.909119 0.120116
vt 0.940902 0.147825
vt 0.907648 0.182496
vt 0.819947 0.174204
vt 0.931618 0.111989
vt 0.819843 0.151315
vt 0.830693 0.147447
vt 0.840473 0.249397
vt 0.847095 0.225312
vt 0.843158 0.159547
vt 0.839166 0.224892
vt 0.828225 0.215715
vt 0.844309 0.144940
vt 0.853581 0.141728
vn 0.0000 1.0000 -0.0000
vn -0.9881 0.0000 0.1537
vn -0.1713 0.0000 -0.9852
vn 0.1286 0.0000 0.9917
vn 0.2410 0.0000 -0.9705
vn -0.5027 0.0000 -0.8644
vn -0.9285 0.0000 0.3713
vn -0.9981 0.0000 -0.0614
vn -0.9824 0.0000 -0.1869
vn 1.0000 0.0000 0.0054
vn -0.4958 0.0000 -0.8685
vn -0.8017 0.0000 0.5977
vn 0.5059 0.0000 0.8626
vn 0.8180 0.0000 -0.5753
vn -0.5986 0.0000 -0.8011
vn 0.9860 0.0000 -0.1670
vn -0.5574 0.0000 0.8303
vn -0.8096 0.0000 0.5870
vn 0.9682 0.0000 -0.2503
vn -0.8064 0.0000 0.5914
vn -0.9938 0.0000 -0.1111
vn 0.9822 0.0000 0.1880
vn -0.4421 0.0000 -0.8970
vn -0.2282 0.0000 0.9736
vn -0.8071 0.0000 0.5904
vn -0.9465 0.0000 -0.3226
vn 0.1729 0.0000 0.9849
vn -0.1010 0.0000 -0.9949
vn -0.8688 0.0000 -0.4952
vn -0.5572 0.0000 -0.8304
vn -0.8018 0.0000 0.5976
vn 0.5705 0.0000 -0.8213
vn -0.1944 0.0000 0.9809
vn 0.5174 0.0000 -0.8557
s off
f 35/1/1 34/2/1 39/3/1 37/4/1 36/5/1 40/6/1 54/7/1 55/8/1 56/9/1 57/10/1 58/11/1 59/12/1 60/13/1 63/14/1 64/15/1 65/16/1 66/17/1 61/18/1 62/19/1 50/20/1 51/21/1 52/22/1 53/23/1 49/24/1 46/25/1 41/26/1 42/27/1 43/28/1 44/29/1 45/30/1 47/31/1 48/32/1 38/33/1
f 24/34/2 25/35/2 59/12/2 58/11/2
f 15/36/3 13/37/3 48/32/3 47/31/3
f 25/35/4 26/38/4 60/13/4 59/12/4
f 13/37/5 14/39/5 38/33/5 48/32/5
f 32/40/6 27/41/6 62/19/6 61/18/6
f 10/42/7 15/36/7 47/31/7 45/30/7
f 6/43/8 5/44/8 34/2/8 35/1/8
f 26/38/9 28/45/9 63/14/9 60/13/9
f 18/46/10 9/47/10 46/25/10 49/24/10
f 3/48/11 2/49/11 36/5/11 37/4/11
f 28/45/12 29/50/12 64/15/12 63/14/12
f 33/51/13 16/52/13 51/21/13 50/20/13
f 14/39/14 6/43/14 35/1/14 38/33/14
f 29/50/15 30/53/15 65/16/15 64/15/15
f 19/54/16 17/55/16 53/23/16 52/22/16
f 5/44/17 4/56/17 39/3/17 34/2/17
f 30/53/18 31/57/18 66/17/18 65/16/18
f 17/55/19 18/46/19 49/24/19 53/23/19
f 4/56/20 3/48/20 37/4/20 39/3/20
f 31/57/21 32/40/21 61/18/21 66/17/21
f 16/52/22 19/54/22 52/22/22 51/21/22
f 2/49/23 1/58/23 40/6/23 36/5/23
f 27/41/24 33/51/24 50/20/24 62/19/24
f 1/58/25 20/59/25 54/7/25 40/6/25
f 11/60/26 8/61/26 42/27/26 41/26/26
f 20/59/27 21/62/27 55/8/27 54/7/27
f 12/63/28 7/64/28 44/29/28 43/28/28
f 21/62/29 22/65/29 56/9/29 55/8/29
f 7/64/30 10/42/30 45/30/30 44/29/30
f 22/65/31 23/66/31 57/10/31 56/9/31
f 9/47/32 11/60/32 41/26/32 46/25/32
f 23/66/33 24/34/33 58/11/33 57/10/33
f 8/61/34 12/63/34 43/28/34 42/27/34
