# Blender v2.92.0 OBJ File: 'table_round.blend'
# www.blender.org
v -0.694975 0.632692 -0.401244
v -0.080249 0.632692 -0.080249
v -0.000000 0.632692 -0.802488
v 0.080249 0.632692 -0.080249
v 0.694975 0.632692 -0.401244
v 0.080249 0.632692 0.080249
v -0.080249 0.632692 0.080249
v -0.000000 0.632692 0.802487
v -0.694975 0.632692 0.401244
v -0.694975 0.632692 -0.000000
v 0.694975 0.632692 0.401244
v 0.694975 0.632692 -0.000000
v -0.694975 0.736159 0.401244
v -0.694975 0.736159 -0.401244
v -0.000000 0.736159 0.802487
v -0.000000 0.736159 -0.802488
v 0.694975 0.736159 0.401244
v 0.694975 0.736159 -0.401244
v -0.000000 0.632692 -0.802488
v 0.694975 0.632692 -0.401244
v -0.000000 0.736159 -0.802488
v 0.694975 0.736159 -0.401244
v 0.694975 0.632692 0.401244
v 0.694975 0.736159 0.401244
v 0.694975 0.632692 -0.000000
v 0.694975 0.736159 -0.401244
v 0.694975 0.632692 -0.401244
v 0.694975 0.632692 0.401244
v -0.000000 0.632692 0.802487
v 0.694975 0.736159 0.401244
v -0.000000 0.736159 0.802487
v -0.000000 0.632692 0.802487
v -0.694975 0.632692 0.401244
v -0.000000 0.736159 0.802487
v -0.694975 0.736159 0.401244
v -0.694975 0.736159 0.401244
v -0.694975 0.632692 0.401244
v -0.694975 0.736159 -0.401244
v -0.694975 0.632692 -0.000000
v -0.694975 0.632692 -0.401244
v -0.694975 0.632692 -0.401244
v -0.000000 0.632692 -0.802488
v -0.694975 0.736159 -0.401244
v -0.000000 0.736159 -0.802488
v 0.080249 0.140846 0.080249
v -0.080249 0.140846 0.080249
v 0.080249 0.632692 0.080249
v -0.080249 0.632692 0.080249
v -0.080249 0.632692 0.080249
v -0.080249 0.140846 0.080249
v -0.080249 0.632692 -0.080249
v -0.080249 0.140846 -0.080249
v -0.080249 0.140846 -0.080249
v 0.080249 0.140846 -0.080249
v -0.080249 0.632692 -0.080249
v 0.080249 0.632692 -0.080249
v 0.080249 0.140846 0.080249
v 0.080249 0.632692 0.080249
v 0.080249 0.140846 -0.080249
v 0.080249 0.632692 -0.080249
v 0.120373 0.100721 0.120373
v -0.120373 0.100721 0.120373
v 0.120373 0.140846 0.120373
v -0.120373 0.140846 0.120373
v -0.120373 0.140846 0.120373
v -0.120373 0.100721 0.120373
v -0.120373 0.140846 -0.120373
v -0.120373 0.100721 -0.120373
v 0.120373 0.100721 0.120373
v 0.120373 0.140846 0.120373
v 0.120373 0.100721 -0.120373
v 0.120373 0.140846 -0.120373
v -0.120373 0.140846 -0.120373
v -0.080249 0.140846 0.080249
v -0.120373 0.140846 0.120373
v 0.120373 0.140846 0.120373
v 0.080249 0.140846 0.080249
v 0.080249 0.140846 -0.080249
v -0.080249 0.140846 -0.080249
v 0.120373 0.140846 -0.120373
v -0.200622 0.100721 0.200622
v -0.200622 0.040535 0.200622
v -0.200622 0.100721 -0.200622
v -0.200622 0.040535 -0.200622
v -0.200622 0.040535 -0.200622
v 0.200622 0.040535 -0.200622
v -0.200622 0.100721 -0.200622
v 0.200622 0.100721 -0.200622
v 0.200622 0.040535 0.200622
v -0.200622 0.040535 0.200622
v 0.200622 0.100721 0.200622
v -0.200622 0.100721 0.200622
v 0.200622 0.040535 0.200622
v 0.200622 0.100721 0.200622
v 0.200622 0.040535 -0.200622
v 0.200622 0.100721 -0.200622
v -0.200622 0.100721 -0.200622
v -0.120373 0.100721 0.120373
v -0.200622 0.100721 0.200622
v 0.200622 0.100721 0.200622
v 0.120373 0.100721 0.120373
v 0.120373 0.100721 -0.120373
v -0.120373 0.100721 -0.120373
v 0.200622 0.100721 -0.200622
v -0.220684 0.000410 -0.220684
v -0.220684 0.000410 0.220684
v 0.220684 0.000410 -0.220684
v 0.220684 0.000410 0.220684
v -0.220684 0.000410 -0.220684
v 0.220684 0.000410 -0.220684
v -0.200622 0.040535 -0.200622
v 0.200622 0.040535 -0.200622
v 0.220684 0.000410 0.220684
v 0.200622 0.040535 0.200622
v 0.220684 0.000410 -0.220684
v 0.200622 0.040535 -0.200622
v 0.220684 0.000410 0.220684
v -0.220684 0.000410 0.220684
v 0.200622 0.040535 0.200622
v -0.200622 0.040535 0.200622
v -0.220684 0.000410 0.220684
v -0.220684 0.000410 -0.220684
v -0.200622 0.040535 0.200622
v -0.200622 0.040535 -0.200622
v -0.120373 0.100721 -0.120373
v 0.120373 0.100721 -0.120373
v -0.120373 0.140846 -0.120373
v 0.120373 0.140846 -0.120373
vt 0.362635 0.002002
vt 0.362635 0.332332
vt 0.002002 0.332332
vt 0.726272 0.668669
vt 0.365638 0.748999
vt 0.726272 0.748999
vt 0.362635 0.998999
vt 0.362635 0.668669
vt 0.002002 0.998999
vt 0.726272 0.873999
vt 0.365638 0.873999
vt 0.726272 0.835335
vt 0.364637 0.747998
vt 0.725271 0.667668
vt 0.364637 0.667668
vt 0.002002 0.665666
vt 0.362635 0.335335
vt 0.362635 0.665666
vt 0.771726 0.502002
vt 0.729275 0.832332
vt 0.771726 0.832332
vt 0.726272 0.665666
vt 0.726272 0.335335
vt 0.365638 0.665666
vt 0.908090 0.335335
vt 0.729275 0.498999
vt 0.908090 0.498999
vt 0.001001 0.997998
vt 0.001001 0.667668
vt 0.361634 0.667668
vt 0.361634 0.001001
vt 0.001001 0.001001
vt 0.001001 0.331331
vt 0.361634 0.334334
vt 0.001001 0.664665
vt 0.001001 0.334334
vt 0.726272 0.332332
vt 0.726272 0.002002
vt 0.365638 0.332332
vt 0.364637 0.331331
vt 0.725271 0.001001
vt 0.364637 0.001001
vt 0.725271 0.334334
vt 0.364637 0.664665
vt 0.364637 0.334334
vt 0.911093 0.332332
vt 0.953544 0.002002
vt 0.953544 0.332332
vt 0.726272 0.918669
vt 0.365638 0.957332
vt 0.726272 0.957332
vt 0.728274 0.831331
vt 0.770725 0.501001
vt 0.728274 0.501001
vt 0.907089 0.001001
vt 0.728274 0.001001
vt 0.728274 0.164665
vt 0.911093 0.665666
vt 0.953544 0.502002
vt 0.953544 0.665666
vt 0.726272 0.877002
vt 0.365638 0.915666
vt 0.726272 0.915666
vt 0.774729 0.832332
vt 0.817181 0.502002
vt 0.817181 0.832332
vt 0.364637 0.872998
vt 0.725271 0.834334
vt 0.364637 0.834334
vt 0.816180 0.501001
vt 0.773728 0.831331
vt 0.773728 0.501001
vt 0.725271 0.876001
vt 0.364637 0.914665
vt 0.364637 0.876001
vt 0.907089 0.334334
vt 0.728274 0.497998
vt 0.728274 0.334334
vt 0.910092 0.664665
vt 0.952543 0.501001
vt 0.910092 0.501001
vt 0.364637 0.956331
vt 0.725271 0.917668
vt 0.364637 0.917668
vt 0.952543 0.001001
vt 0.910092 0.331331
vt 0.910092 0.001001
vt 0.908090 0.502002
vt 0.820184 0.665666
vt 0.908090 0.665666
vt 0.547457 0.832332
vt 0.726272 0.752002
vt 0.726272 0.832332
vt 0.820184 0.832332
vt 0.908090 0.668669
vt 0.908090 0.832332
vt 0.544454 0.752002
vt 0.365638 0.832332
vt 0.544454 0.832332
vt 0.543453 0.751001
vt 0.364637 0.831331
vt 0.364637 0.751001
vt 0.819183 0.831331
vt 0.907089 0.667668
vt 0.819183 0.667668
vt 0.546456 0.831331
vt 0.725271 0.751001
vt 0.546456 0.751001
vt 0.907089 0.501001
vt 0.819183 0.664665
vt 0.819183 0.501001
vt 0.979275 0.165666
vt 0.998999 0.085335
vt 0.998999 0.165666
vt 0.998999 0.897835
vt 0.911093 0.915666
vt 0.998999 0.915666
vt 0.998999 0.002002
vt 0.979275 0.082332
vt 0.998999 0.082332
vt 0.911093 0.894832
vt 0.998999 0.877002
vt 0.998999 0.894832
vt 0.997998 0.876001
vt 0.910092 0.893831
vt 0.910092 0.876001
vt 0.978274 0.081331
vt 0.997998 0.001001
vt 0.978274 0.001001
vt 0.998999 0.856169
vt 0.998999 0.873999
vt 0.911093 0.873999
vt 0.910092 0.855168
vt 0.910092 0.872998
vt 0.997998 0.855168
vt 0.976272 0.668669
vt 0.956547 0.748999
vt 0.976272 0.748999
vt 0.955546 0.667668
vt 0.975271 0.667668
vt 0.955546 0.747998
vt 0.998999 0.853166
vt 0.998999 0.835335
vt 0.911093 0.853166
vt 0.956547 0.832332
vt 0.976272 0.832332
vt 0.976272 0.752002
vt 0.910092 0.852165
vt 0.997998 0.834334
vt 0.910092 0.834334
vt 0.975271 0.751001
vt 0.955546 0.751001
vt 0.955546 0.831331
vt 0.976272 0.335335
vt 0.956547 0.498999
vt 0.976272 0.498999
vt 0.729275 0.853166
vt 0.908090 0.835335
vt 0.908090 0.853166
vt 0.956547 0.332332
vt 0.976272 0.168669
vt 0.976272 0.332332
vt 0.908090 0.939502
vt 0.729275 0.957332
vt 0.908090 0.957332
vt 0.728274 0.956331
vt 0.907089 0.938501
vt 0.728274 0.938501
vt 0.975271 0.167668
vt 0.955546 0.331331
vt 0.955546 0.167668
vt 0.907089 0.834334
vt 0.728274 0.852165
vt 0.728274 0.834334
vt 0.955546 0.497998
vt 0.975271 0.334334
vt 0.955546 0.334334
vt 0.911093 0.498999
vt 0.953544 0.498999
vt 0.953544 0.335335
vt 0.953544 0.832332
vt 0.911093 0.832332
vt 0.953544 0.668669
vt 0.729275 0.894832
vt 0.817181 0.856169
vt 0.817181 0.894832
vt 0.908090 0.894832
vt 0.908090 0.856169
vt 0.820184 0.894832
vt 0.819183 0.855168
vt 0.819183 0.893831
vt 0.907089 0.855168
vt 0.952543 0.667668
vt 0.910092 0.667668
vt 0.910092 0.831331
vt 0.728274 0.893831
vt 0.816180 0.855168
vt 0.728274 0.855168
vt 0.952543 0.334334
vt 0.910092 0.334334
vt 0.910092 0.497998
vt 0.908090 0.168669
vt 0.729275 0.332332
vt 0.908090 0.332332
vt 0.728274 0.331331
vt 0.907089 0.167668
vt 0.728274 0.167668
vt 0.908090 0.936499
vt 0.729275 0.936499
vt 0.908090 0.918669
vt 0.956547 0.165666
vt 0.976272 0.002002
vt 0.976272 0.165666
vt 0.729275 0.915666
vt 0.908090 0.915666
vt 0.908090 0.897835
vt 0.976272 0.502002
vt 0.956547 0.665666
vt 0.976272 0.665666
vt 0.728274 0.917668
vt 0.907089 0.917668
vt 0.728274 0.935498
vt 0.975271 0.001001
vt 0.955546 0.164665
vt 0.955546 0.001001
vt 0.728274 0.896834
vt 0.907089 0.896834
vt 0.728274 0.914665
vt 0.975271 0.501001
vt 0.955546 0.664665
vt 0.955546 0.501001
vt 0.910092 0.914665
vt 0.997998 0.896834
vt 0.910092 0.896834
vt 0.997998 0.084334
vt 0.978274 0.164665
vt 0.978274 0.084334
vt 0.908090 0.002002
vt 0.729275 0.165666
vt 0.908090 0.165666
vn 0.0000 -1.0000 0.0000
vn 0.0000 0.0000 0.0000
vn 0.0000 1.0000 0.0000
vn 0.5000 0.0000 -0.8660
vn 1.0000 0.0000 0.0000
vn 0.5000 0.0000 0.8660
vn -0.5000 0.0000 0.8660
vn -1.0000 0.0000 0.0000
vn -0.5000 0.0000 -0.8660
vn 0.0000 0.0000 1.0000
vn 0.0000 0.0000 -1.0000
vn 0.0000 0.4472 -0.8944
vn 0.8944 0.4472 0.0000
vn 0.0000 0.4472 0.8944
vn -0.8944 0.4472 0.0000
s off
f 3/1/1 2/2/1 1/3/1
f 2/4/1 3/5/1 4/6/1
f 4/7/1 3/8/1 5/9/1
f 4/10/1 5/11/1 6/12/1
f 7/13/1 1/14/1 2/15/1
f 8/16/1 1/17/1 7/18/1
f 8/19/1 7/20/1 6/21/1
f 9/22/1 1/23/1 8/24/1
f 1/25/2 9/26/2 10/27/2
f 8/28/1 6/29/1 11/30/1
f 11/31/1 6/32/1 5/33/1
f 15/34/3 14/35/3 13/36/3
f 14/37/3 15/38/3 16/39/3
f 16/40/3 15/41/3 17/42/3
f 16/43/3 17/44/3 18/45/3
f 21/46/4 20/47/4 19/48/4
f 20/49/4 21/50/4 22/51/4
f 25/52/5 24/53/5 23/54/5
f 24/55/5 25/56/5 26/57/5
f 26/58/5 25/59/5 27/60/5
f 30/61/6 29/62/6 28/63/6
f 29/64/6 30/65/6 31/66/6
f 34/67/7 33/68/7 32/69/7
f 33/70/7 34/71/7 35/72/7
f 38/73/8 37/74/8 36/75/8
f 37/76/8 38/77/8 39/78/8
f 39/79/8 38/80/8 40/81/8
f 43/82/9 42/83/9 41/84/9
f 42/85/9 43/86/9 44/87/9
f 47/88/10 46/89/10 45/90/10
f 46/91/10 47/92/10 48/93/10
f 51/94/8 50/95/8 49/96/8
f 50/97/8 51/98/8 52/99/8
f 55/100/11 54/101/11 53/102/11
f 54/103/11 55/104/11 56/105/11
f 59/106/5 58/107/5 57/108/5
f 58/109/5 59/110/5 60/111/5
f 63/112/10 62/113/10 61/114/10
f 62/115/10 63/116/10 64/117/10
f 67/118/8 66/119/8 65/120/8
f 66/121/8 67/122/8 68/123/8
f 71/124/5 70/125/5 69/126/5
f 70/127/5 71/128/5 72/129/5
f 75/130/3 74/131/3 73/132/3
f 74/133/3 75/134/3 76/135/3
f 74/136/3 76/137/3 77/138/3
f 77/139/3 76/140/3 78/141/3
f 79/142/3 73/143/3 74/144/3
f 73/145/3 79/146/3 80/147/3
f 80/148/3 79/149/3 78/150/3
f 80/151/3 78/152/3 76/153/3
f 83/154/8 82/155/8 81/156/8
f 82/157/8 83/158/8 84/159/8
f 87/160/11 86/161/11 85/162/11
f 86/163/11 87/164/11 88/165/11
f 91/166/10 90/167/10 89/168/10
f 90/169/10 91/170/10 92/171/10
f 95/172/5 94/173/5 93/174/5
f 94/175/5 95/176/5 96/177/5
f 99/178/3 98/179/3 97/180/3
f 98/181/3 99/182/3 100/183/3
f 98/184/3 100/185/3 101/186/3
f 101/187/3 100/188/3 102/189/3
f 103/190/3 97/191/3 98/192/3
f 97/193/3 103/194/3 104/195/3
f 104/196/3 103/197/3 102/198/3
f 104/199/3 102/200/3 100/201/3
f 107/202/1 106/203/1 105/204/1
f 106/205/1 107/206/1 108/207/1
f 111/208/12 110/209/12 109/210/12
f 110/211/12 111/212/12 112/213/12
f 115/214/13 114/215/13 113/216/13
f 114/217/13 115/218/13 116/219/13
f 119/220/14 118/221/14 117/222/14
f 118/223/14 119/224/14 120/225/14
f 123/226/15 122/227/15 121/228/15
f 122/229/15 123/230/15 124/231/15
f 127/232/11 126/233/11 125/234/11
f 126/235/11 127/236/11 128/237/11
s 1
f 11/238/3 5/239/3 12/240/3
